G04 MADE WITH FRITZING*
G04 WWW.FRITZING.ORG*
G04 DOUBLE SIDED*
G04 HOLES PLATED*
G04 CONTOUR ON CENTER OF CONTOUR VECTOR*
%ASAXBY*%
%FSLAX23Y23*%
%MOIN*%
%OFA0B0*%
%SFA1.0B1.0*%
%ADD10C,0.078000*%
%ADD11C,0.039370*%
%ADD12R,0.078000X0.078000*%
%ADD13R,0.031496X0.035433*%
%ADD14R,0.047244X0.078740*%
%ADD15R,0.050000X0.057874*%
%ADD16R,0.047244X0.043307*%
%ADD17R,0.031496X0.031496*%
%ADD18R,0.021654X0.047244*%
%ADD19R,0.027559X0.035433*%
%ADD20R,0.019685X0.047244*%
%ADD21R,0.047244X0.019685*%
%ADD22R,0.011811X0.031496*%
%ADD23R,0.031496X0.011811*%
%ADD24R,0.039370X0.039370*%
%ADD25R,0.024000X0.087000*%
%ADD26R,0.035433X0.027559*%
%ADD27R,0.039370X0.078740*%
%ADD28R,0.015748X0.055118*%
%ADD29R,0.078740X0.074803*%
%ADD30R,0.086614X0.074803*%
%ADD31R,0.039370X0.009843*%
%ADD32R,0.059055X0.059055*%
%ADD33R,0.100000X0.032000*%
%ADD34R,0.039370X0.043307*%
%ADD35C,0.008000*%
%ADD36C,0.012000*%
%ADD37C,0.024000*%
%ADD38R,0.001000X0.001000*%
%LNCOPPER1*%
G90*
G70*
G54D10*
X755Y129D03*
X655Y129D03*
G54D11*
X638Y1002D03*
X757Y496D03*
X978Y529D03*
X948Y375D03*
X897Y419D03*
X274Y445D03*
X947Y268D03*
X308Y382D03*
X317Y296D03*
X336Y1009D03*
X264Y883D03*
X330Y808D03*
X101Y1020D03*
X331Y864D03*
X238Y82D03*
X96Y175D03*
X918Y66D03*
X570Y202D03*
X87Y357D03*
G54D12*
X755Y129D03*
G54D13*
X567Y291D03*
X641Y291D03*
X604Y374D03*
G54D14*
X689Y549D03*
X815Y549D03*
G54D15*
X423Y519D03*
X593Y519D03*
G54D16*
X409Y264D03*
X476Y264D03*
X338Y195D03*
X271Y195D03*
G54D17*
X359Y86D03*
X300Y86D03*
G54D16*
X478Y351D03*
X412Y351D03*
G54D18*
X420Y86D03*
X458Y86D03*
X495Y86D03*
X495Y188D03*
X420Y188D03*
G54D19*
X690Y222D03*
X741Y222D03*
G54D20*
X43Y952D03*
X74Y952D03*
X106Y952D03*
X137Y952D03*
X169Y952D03*
X200Y952D03*
G54D21*
X204Y909D03*
G54D20*
X200Y866D03*
X169Y866D03*
X137Y866D03*
X106Y866D03*
X74Y866D03*
X43Y866D03*
G54D21*
X39Y909D03*
G54D22*
X156Y406D03*
X136Y406D03*
X117Y406D03*
X97Y406D03*
X77Y406D03*
X57Y406D03*
G54D23*
X28Y377D03*
X28Y357D03*
X28Y337D03*
X28Y318D03*
X28Y298D03*
X28Y278D03*
G54D22*
X57Y249D03*
X77Y249D03*
X97Y249D03*
X117Y249D03*
X136Y249D03*
X156Y249D03*
G54D23*
X185Y278D03*
X185Y298D03*
X185Y318D03*
X185Y337D03*
X185Y357D03*
X185Y377D03*
G54D24*
X107Y327D03*
G54D25*
X1061Y222D03*
X1111Y222D03*
X1161Y222D03*
X1211Y222D03*
X1211Y428D03*
X1161Y428D03*
X1111Y428D03*
X1061Y428D03*
G54D19*
X320Y481D03*
X371Y481D03*
G54D26*
X989Y556D03*
X989Y607D03*
G54D27*
X237Y55D03*
X43Y57D03*
X1214Y55D03*
X1005Y53D03*
G54D28*
X210Y1058D03*
X236Y1058D03*
X261Y1058D03*
X185Y1058D03*
X159Y1058D03*
G54D29*
X259Y1170D03*
X161Y1170D03*
G54D30*
X368Y1170D03*
X53Y1170D03*
G54D26*
X901Y558D03*
X901Y609D03*
G54D31*
X187Y722D03*
X187Y702D03*
X187Y682D03*
X187Y662D03*
X187Y643D03*
X187Y623D03*
X187Y603D03*
X187Y584D03*
X187Y564D03*
X187Y544D03*
G54D32*
X36Y790D03*
X36Y475D03*
G54D33*
X1184Y703D03*
X1184Y753D03*
X1184Y803D03*
X1184Y853D03*
X1184Y903D03*
X1184Y953D03*
X1184Y1003D03*
X1184Y1053D03*
X656Y1203D03*
X656Y1153D03*
X656Y1103D03*
X656Y1053D03*
X656Y1003D03*
X656Y953D03*
X656Y903D03*
X656Y853D03*
X656Y803D03*
X656Y753D03*
X656Y703D03*
G54D18*
X721Y325D03*
X758Y325D03*
X796Y325D03*
X796Y428D03*
X721Y428D03*
G54D34*
X884Y202D03*
X884Y135D03*
G54D35*
X371Y138D02*
X347Y178D01*
D02*
X448Y139D02*
X371Y138D01*
D02*
X490Y183D02*
X448Y139D01*
G54D36*
D02*
X678Y181D02*
X665Y152D01*
D02*
X686Y210D02*
X678Y181D01*
D02*
X752Y154D02*
X743Y210D01*
G54D35*
D02*
X415Y86D02*
X377Y86D01*
D02*
X500Y87D02*
X632Y123D01*
D02*
X295Y103D02*
X275Y178D01*
D02*
X976Y607D02*
X914Y609D01*
D02*
X444Y305D02*
X464Y280D01*
D02*
X423Y335D02*
X444Y305D01*
D02*
X374Y402D02*
X400Y367D01*
D02*
X372Y469D02*
X374Y402D01*
D02*
X412Y248D02*
X418Y206D01*
D02*
X637Y525D02*
X671Y540D01*
D02*
X612Y522D02*
X637Y525D01*
D02*
X164Y992D02*
X167Y971D01*
D02*
X161Y1036D02*
X164Y992D01*
D02*
X799Y629D02*
X756Y598D01*
D02*
X842Y628D02*
X799Y629D01*
D02*
X756Y598D02*
X757Y510D01*
D02*
X889Y613D02*
X842Y628D01*
D02*
X932Y478D02*
X905Y550D01*
D02*
X1055Y431D02*
X932Y478D01*
G54D37*
D02*
X985Y548D02*
X985Y547D01*
G54D35*
D02*
X1114Y390D02*
X1114Y381D01*
D02*
X1055Y426D02*
X1017Y418D01*
D02*
X244Y338D02*
X297Y374D01*
D02*
X196Y338D02*
X244Y338D01*
D02*
X233Y361D02*
X268Y433D01*
D02*
X190Y357D02*
X233Y361D01*
D02*
X221Y479D02*
X192Y457D01*
D02*
X312Y481D02*
X221Y479D01*
D02*
X323Y1013D02*
X261Y1033D01*
D02*
X261Y1033D02*
X261Y1036D01*
D02*
X338Y252D02*
X323Y284D01*
D02*
X338Y211D02*
X338Y252D01*
D02*
X133Y1039D02*
X113Y1027D01*
D02*
X157Y1057D02*
X133Y1039D01*
D02*
X266Y828D02*
X317Y812D01*
D02*
X205Y863D02*
X266Y828D01*
D02*
X233Y899D02*
X252Y889D01*
D02*
X216Y905D02*
X233Y899D01*
D02*
X227Y948D02*
X285Y917D01*
D02*
X285Y917D02*
X322Y874D01*
D02*
X205Y952D02*
X227Y948D01*
D02*
X1108Y260D02*
X1108Y268D01*
D02*
X237Y55D02*
X238Y69D01*
D02*
X46Y91D02*
X57Y244D01*
D02*
X789Y665D02*
X721Y606D01*
D02*
X213Y683D02*
X201Y682D01*
D02*
X219Y702D02*
X201Y702D01*
D02*
X708Y629D02*
X382Y633D01*
D02*
X1140Y905D02*
X1094Y906D01*
D02*
X721Y606D02*
X375Y606D01*
D02*
X1140Y957D02*
X1111Y959D01*
D02*
X382Y633D02*
X219Y702D01*
D02*
X1094Y906D02*
X789Y665D01*
D02*
X1111Y959D02*
X708Y629D01*
D02*
X375Y606D02*
X213Y683D01*
D02*
X1109Y154D02*
X1110Y184D01*
D02*
X1200Y69D02*
X1109Y154D01*
D02*
X991Y55D02*
X931Y64D01*
D02*
X93Y188D02*
X77Y247D01*
D02*
X221Y722D02*
X201Y722D01*
D02*
X390Y657D02*
X221Y722D01*
D02*
X697Y652D02*
X390Y657D01*
D02*
X1114Y1002D02*
X697Y652D01*
D02*
X1140Y1002D02*
X1114Y1002D01*
D02*
X1140Y802D02*
X1110Y802D01*
D02*
X186Y1023D02*
X185Y1036D01*
D02*
X1027Y554D02*
X1001Y555D01*
D02*
X1110Y802D02*
X1067Y768D01*
D02*
X221Y1016D02*
X563Y856D01*
D02*
X1030Y793D02*
X1052Y594D01*
D02*
X612Y804D02*
X559Y805D01*
D02*
X208Y1035D02*
X221Y1016D01*
D02*
X334Y1107D02*
X256Y1106D01*
D02*
X563Y856D02*
X612Y854D01*
G54D37*
D02*
X656Y1003D02*
X657Y1003D01*
G54D35*
D02*
X206Y1000D02*
X186Y1023D01*
D02*
X1082Y849D02*
X1030Y793D01*
D02*
X1067Y768D02*
X1094Y555D01*
D02*
X208Y1036D02*
X208Y1035D01*
D02*
X1076Y508D02*
X930Y483D01*
D02*
X560Y951D02*
X334Y1107D01*
D02*
X256Y1106D02*
X238Y1092D01*
D02*
X238Y1092D02*
X237Y1080D01*
D02*
X559Y805D02*
X452Y881D01*
D02*
X1140Y851D02*
X1082Y849D01*
D02*
X612Y952D02*
X560Y951D01*
D02*
X1211Y589D02*
X1211Y466D01*
D02*
X452Y881D02*
X206Y1000D01*
D02*
X1052Y594D02*
X1027Y554D01*
D02*
X930Y483D02*
X905Y550D01*
D02*
X390Y786D02*
X395Y829D01*
D02*
X395Y829D02*
X382Y846D01*
D02*
X156Y502D02*
X135Y532D01*
D02*
X189Y492D02*
X156Y502D01*
D02*
X148Y583D02*
X173Y583D01*
D02*
X135Y532D02*
X132Y559D01*
D02*
X221Y481D02*
X189Y492D01*
D02*
X312Y481D02*
X221Y481D01*
D02*
X132Y559D02*
X148Y583D01*
D02*
X187Y604D02*
X187Y622D01*
D02*
X152Y625D02*
X132Y677D01*
D02*
X156Y772D02*
X381Y772D01*
D02*
X132Y677D02*
X129Y731D01*
D02*
X381Y772D02*
X390Y786D01*
D02*
X382Y846D02*
X343Y860D01*
D02*
X178Y624D02*
X152Y625D01*
D02*
X129Y731D02*
X156Y771D01*
D02*
X1094Y555D02*
X1076Y508D01*
D02*
X1187Y693D02*
X1211Y589D01*
D02*
X187Y563D02*
X187Y545D01*
D02*
X370Y524D02*
X371Y493D01*
D02*
X201Y545D02*
X338Y547D01*
D02*
X338Y547D02*
X370Y524D01*
D02*
X187Y603D02*
X187Y584D01*
D02*
X1108Y268D02*
X1086Y292D01*
D02*
X973Y291D02*
X957Y277D01*
D02*
X1086Y292D02*
X973Y291D01*
D02*
X1017Y418D02*
X910Y419D01*
D02*
X1114Y381D02*
X1075Y359D01*
D02*
X992Y357D02*
X960Y370D01*
D02*
X1075Y359D02*
X992Y357D01*
D02*
X192Y457D02*
X185Y377D01*
D02*
X521Y323D02*
X497Y339D01*
D02*
X556Y298D02*
X521Y323D01*
D02*
X605Y256D02*
X682Y225D01*
D02*
X604Y362D02*
X605Y256D01*
D02*
X534Y239D02*
X494Y256D01*
D02*
X557Y216D02*
X534Y239D01*
D02*
X515Y149D02*
X560Y193D01*
D02*
X460Y107D02*
X515Y149D01*
D02*
X460Y104D02*
X460Y107D01*
D02*
X454Y428D02*
X473Y367D01*
D02*
X431Y496D02*
X454Y428D01*
D02*
X34Y279D02*
X50Y280D01*
D02*
X50Y280D02*
X82Y345D01*
D02*
X758Y377D02*
X726Y421D01*
D02*
X825Y377D02*
X758Y377D01*
D02*
X825Y515D02*
X849Y431D01*
D02*
X849Y431D02*
X825Y377D01*
G54D37*
D02*
X790Y437D02*
X766Y480D01*
G54D36*
D02*
X631Y441D02*
X716Y332D01*
D02*
X604Y496D02*
X631Y441D01*
G54D35*
D02*
X652Y296D02*
X716Y323D01*
D02*
X743Y274D02*
X741Y234D01*
D02*
X753Y307D02*
X743Y274D01*
D02*
X886Y275D02*
X782Y281D01*
D02*
X941Y326D02*
X886Y275D01*
D02*
X782Y281D02*
X764Y315D01*
D02*
X1107Y324D02*
X941Y326D01*
D02*
X1206Y369D02*
X1107Y324D01*
D02*
X1208Y390D02*
X1206Y369D01*
D02*
X870Y135D02*
X780Y131D01*
D02*
X899Y217D02*
X937Y258D01*
G54D38*
X601Y1219D02*
X605Y1219D01*
X706Y1219D02*
X710Y1219D01*
X599Y1218D02*
X605Y1218D01*
X706Y1218D02*
X712Y1218D01*
X597Y1217D02*
X605Y1217D01*
X706Y1217D02*
X714Y1217D01*
X596Y1216D02*
X605Y1216D01*
X706Y1216D02*
X715Y1216D01*
X595Y1215D02*
X605Y1215D01*
X706Y1215D02*
X716Y1215D01*
X594Y1214D02*
X605Y1214D01*
X706Y1214D02*
X717Y1214D01*
X593Y1213D02*
X605Y1213D01*
X706Y1213D02*
X718Y1213D01*
X592Y1212D02*
X605Y1212D01*
X706Y1212D02*
X719Y1212D01*
X592Y1211D02*
X605Y1211D01*
X706Y1211D02*
X719Y1211D01*
X591Y1210D02*
X605Y1210D01*
X706Y1210D02*
X720Y1210D01*
X591Y1209D02*
X605Y1209D01*
X706Y1209D02*
X720Y1209D01*
X591Y1208D02*
X605Y1208D01*
X706Y1208D02*
X720Y1208D01*
X590Y1207D02*
X605Y1207D01*
X706Y1207D02*
X720Y1207D01*
X590Y1206D02*
X605Y1206D01*
X706Y1206D02*
X721Y1206D01*
X590Y1205D02*
X605Y1205D01*
X706Y1205D02*
X721Y1205D01*
X590Y1204D02*
X605Y1204D01*
X706Y1204D02*
X721Y1204D01*
X590Y1203D02*
X605Y1203D01*
X706Y1203D02*
X721Y1203D01*
X590Y1202D02*
X605Y1202D01*
X706Y1202D02*
X721Y1202D01*
X590Y1201D02*
X605Y1201D01*
X706Y1201D02*
X721Y1201D01*
X590Y1200D02*
X605Y1200D01*
X706Y1200D02*
X720Y1200D01*
X591Y1199D02*
X605Y1199D01*
X706Y1199D02*
X720Y1199D01*
X591Y1198D02*
X605Y1198D01*
X706Y1198D02*
X720Y1198D01*
X592Y1197D02*
X605Y1197D01*
X706Y1197D02*
X719Y1197D01*
X592Y1196D02*
X605Y1196D01*
X706Y1196D02*
X719Y1196D01*
X593Y1195D02*
X605Y1195D01*
X706Y1195D02*
X718Y1195D01*
X593Y1194D02*
X605Y1194D01*
X706Y1194D02*
X717Y1194D01*
X594Y1193D02*
X605Y1193D01*
X706Y1193D02*
X717Y1193D01*
X595Y1192D02*
X605Y1192D01*
X706Y1192D02*
X715Y1192D01*
X596Y1191D02*
X605Y1191D01*
X706Y1191D02*
X714Y1191D01*
X598Y1190D02*
X605Y1190D01*
X706Y1190D02*
X713Y1190D01*
X600Y1189D02*
X605Y1189D01*
X706Y1189D02*
X711Y1189D01*
X605Y1188D02*
X605Y1188D01*
X706Y1188D02*
X706Y1188D01*
X601Y1169D02*
X605Y1169D01*
X706Y1169D02*
X710Y1169D01*
X599Y1168D02*
X605Y1168D01*
X706Y1168D02*
X712Y1168D01*
X597Y1167D02*
X605Y1167D01*
X706Y1167D02*
X714Y1167D01*
X596Y1166D02*
X605Y1166D01*
X706Y1166D02*
X715Y1166D01*
X594Y1165D02*
X605Y1165D01*
X706Y1165D02*
X716Y1165D01*
X594Y1164D02*
X605Y1164D01*
X706Y1164D02*
X717Y1164D01*
X593Y1163D02*
X605Y1163D01*
X706Y1163D02*
X718Y1163D01*
X592Y1162D02*
X605Y1162D01*
X706Y1162D02*
X719Y1162D01*
X592Y1161D02*
X605Y1161D01*
X706Y1161D02*
X719Y1161D01*
X591Y1160D02*
X605Y1160D01*
X706Y1160D02*
X720Y1160D01*
X591Y1159D02*
X605Y1159D01*
X706Y1159D02*
X720Y1159D01*
X591Y1158D02*
X605Y1158D01*
X706Y1158D02*
X720Y1158D01*
X590Y1157D02*
X605Y1157D01*
X706Y1157D02*
X720Y1157D01*
X590Y1156D02*
X605Y1156D01*
X706Y1156D02*
X721Y1156D01*
X590Y1155D02*
X605Y1155D01*
X706Y1155D02*
X721Y1155D01*
X590Y1154D02*
X605Y1154D01*
X706Y1154D02*
X721Y1154D01*
X590Y1153D02*
X605Y1153D01*
X706Y1153D02*
X721Y1153D01*
X590Y1152D02*
X605Y1152D01*
X706Y1152D02*
X721Y1152D01*
X590Y1151D02*
X605Y1151D01*
X706Y1151D02*
X721Y1151D01*
X590Y1150D02*
X605Y1150D01*
X706Y1150D02*
X720Y1150D01*
X591Y1149D02*
X605Y1149D01*
X706Y1149D02*
X720Y1149D01*
X591Y1148D02*
X605Y1148D01*
X706Y1148D02*
X720Y1148D01*
X592Y1147D02*
X605Y1147D01*
X706Y1147D02*
X719Y1147D01*
X592Y1146D02*
X605Y1146D01*
X706Y1146D02*
X719Y1146D01*
X593Y1145D02*
X605Y1145D01*
X706Y1145D02*
X718Y1145D01*
X593Y1144D02*
X605Y1144D01*
X706Y1144D02*
X717Y1144D01*
X594Y1143D02*
X605Y1143D01*
X706Y1143D02*
X716Y1143D01*
X595Y1142D02*
X605Y1142D01*
X706Y1142D02*
X715Y1142D01*
X597Y1141D02*
X605Y1141D01*
X706Y1141D02*
X714Y1141D01*
X598Y1140D02*
X605Y1140D01*
X706Y1140D02*
X713Y1140D01*
X600Y1139D02*
X605Y1139D01*
X706Y1139D02*
X711Y1139D01*
X605Y1138D02*
X605Y1138D01*
X706Y1138D02*
X706Y1138D01*
X601Y1119D02*
X605Y1119D01*
X706Y1119D02*
X710Y1119D01*
X598Y1118D02*
X605Y1118D01*
X706Y1118D02*
X712Y1118D01*
X597Y1117D02*
X605Y1117D01*
X706Y1117D02*
X714Y1117D01*
X596Y1116D02*
X605Y1116D01*
X706Y1116D02*
X715Y1116D01*
X594Y1115D02*
X605Y1115D01*
X706Y1115D02*
X716Y1115D01*
X594Y1114D02*
X605Y1114D01*
X706Y1114D02*
X717Y1114D01*
X593Y1113D02*
X605Y1113D01*
X706Y1113D02*
X718Y1113D01*
X592Y1112D02*
X605Y1112D01*
X706Y1112D02*
X719Y1112D01*
X592Y1111D02*
X605Y1111D01*
X706Y1111D02*
X719Y1111D01*
X591Y1110D02*
X605Y1110D01*
X706Y1110D02*
X720Y1110D01*
X591Y1109D02*
X605Y1109D01*
X706Y1109D02*
X720Y1109D01*
X591Y1108D02*
X605Y1108D01*
X706Y1108D02*
X720Y1108D01*
X590Y1107D02*
X605Y1107D01*
X706Y1107D02*
X720Y1107D01*
X590Y1106D02*
X605Y1106D01*
X706Y1106D02*
X721Y1106D01*
X590Y1105D02*
X605Y1105D01*
X706Y1105D02*
X721Y1105D01*
X590Y1104D02*
X605Y1104D01*
X706Y1104D02*
X721Y1104D01*
X590Y1103D02*
X605Y1103D01*
X706Y1103D02*
X721Y1103D01*
X590Y1102D02*
X605Y1102D01*
X706Y1102D02*
X721Y1102D01*
X590Y1101D02*
X605Y1101D01*
X706Y1101D02*
X721Y1101D01*
X590Y1100D02*
X605Y1100D01*
X706Y1100D02*
X720Y1100D01*
X591Y1099D02*
X605Y1099D01*
X706Y1099D02*
X720Y1099D01*
X591Y1098D02*
X605Y1098D01*
X706Y1098D02*
X720Y1098D01*
X592Y1097D02*
X605Y1097D01*
X706Y1097D02*
X719Y1097D01*
X592Y1096D02*
X605Y1096D01*
X706Y1096D02*
X719Y1096D01*
X593Y1095D02*
X605Y1095D01*
X706Y1095D02*
X718Y1095D01*
X593Y1094D02*
X605Y1094D01*
X706Y1094D02*
X717Y1094D01*
X594Y1093D02*
X605Y1093D01*
X706Y1093D02*
X716Y1093D01*
X595Y1092D02*
X605Y1092D01*
X706Y1092D02*
X715Y1092D01*
X597Y1091D02*
X605Y1091D01*
X706Y1091D02*
X714Y1091D01*
X598Y1090D02*
X605Y1090D01*
X706Y1090D02*
X713Y1090D01*
X600Y1089D02*
X605Y1089D01*
X706Y1089D02*
X710Y1089D01*
X706Y1088D02*
X706Y1088D01*
X601Y1069D02*
X605Y1069D01*
X706Y1069D02*
X710Y1069D01*
X1128Y1069D02*
X1133Y1069D01*
X1233Y1069D02*
X1238Y1069D01*
X598Y1068D02*
X605Y1068D01*
X706Y1068D02*
X712Y1068D01*
X1126Y1068D02*
X1133Y1068D01*
X1233Y1068D02*
X1240Y1068D01*
X597Y1067D02*
X605Y1067D01*
X706Y1067D02*
X714Y1067D01*
X1124Y1067D02*
X1133Y1067D01*
X1233Y1067D02*
X1242Y1067D01*
X596Y1066D02*
X605Y1066D01*
X706Y1066D02*
X715Y1066D01*
X1123Y1066D02*
X1133Y1066D01*
X1233Y1066D02*
X1243Y1066D01*
X594Y1065D02*
X605Y1065D01*
X706Y1065D02*
X716Y1065D01*
X1122Y1065D02*
X1133Y1065D01*
X1233Y1065D02*
X1244Y1065D01*
X594Y1064D02*
X605Y1064D01*
X706Y1064D02*
X717Y1064D01*
X1121Y1064D02*
X1133Y1064D01*
X1233Y1064D02*
X1245Y1064D01*
X593Y1063D02*
X605Y1063D01*
X706Y1063D02*
X718Y1063D01*
X1120Y1063D02*
X1133Y1063D01*
X1233Y1063D02*
X1246Y1063D01*
X592Y1062D02*
X605Y1062D01*
X706Y1062D02*
X719Y1062D01*
X1120Y1062D02*
X1133Y1062D01*
X1233Y1062D02*
X1246Y1062D01*
X592Y1061D02*
X605Y1061D01*
X706Y1061D02*
X719Y1061D01*
X1119Y1061D02*
X1133Y1061D01*
X1233Y1061D02*
X1247Y1061D01*
X591Y1060D02*
X605Y1060D01*
X706Y1060D02*
X720Y1060D01*
X1119Y1060D02*
X1133Y1060D01*
X1233Y1060D02*
X1247Y1060D01*
X591Y1059D02*
X605Y1059D01*
X706Y1059D02*
X720Y1059D01*
X1118Y1059D02*
X1133Y1059D01*
X1233Y1059D02*
X1248Y1059D01*
X591Y1058D02*
X605Y1058D01*
X706Y1058D02*
X720Y1058D01*
X1118Y1058D02*
X1133Y1058D01*
X1233Y1058D02*
X1248Y1058D01*
X590Y1057D02*
X605Y1057D01*
X706Y1057D02*
X721Y1057D01*
X1118Y1057D02*
X1133Y1057D01*
X1233Y1057D02*
X1248Y1057D01*
X590Y1056D02*
X605Y1056D01*
X706Y1056D02*
X721Y1056D01*
X1118Y1056D02*
X1133Y1056D01*
X1233Y1056D02*
X1248Y1056D01*
X590Y1055D02*
X605Y1055D01*
X706Y1055D02*
X721Y1055D01*
X1118Y1055D02*
X1133Y1055D01*
X1233Y1055D02*
X1248Y1055D01*
X590Y1054D02*
X605Y1054D01*
X706Y1054D02*
X721Y1054D01*
X1118Y1054D02*
X1133Y1054D01*
X1233Y1054D02*
X1248Y1054D01*
X590Y1053D02*
X605Y1053D01*
X706Y1053D02*
X721Y1053D01*
X1118Y1053D02*
X1133Y1053D01*
X1233Y1053D02*
X1248Y1053D01*
X590Y1052D02*
X605Y1052D01*
X706Y1052D02*
X721Y1052D01*
X1118Y1052D02*
X1133Y1052D01*
X1233Y1052D02*
X1248Y1052D01*
X590Y1051D02*
X605Y1051D01*
X706Y1051D02*
X721Y1051D01*
X1118Y1051D02*
X1133Y1051D01*
X1233Y1051D02*
X1248Y1051D01*
X590Y1050D02*
X605Y1050D01*
X706Y1050D02*
X720Y1050D01*
X1118Y1050D02*
X1133Y1050D01*
X1233Y1050D02*
X1248Y1050D01*
X591Y1049D02*
X605Y1049D01*
X706Y1049D02*
X720Y1049D01*
X1118Y1049D02*
X1133Y1049D01*
X1233Y1049D02*
X1248Y1049D01*
X591Y1048D02*
X605Y1048D01*
X706Y1048D02*
X720Y1048D01*
X1119Y1048D02*
X1133Y1048D01*
X1233Y1048D02*
X1247Y1048D01*
X592Y1047D02*
X605Y1047D01*
X706Y1047D02*
X719Y1047D01*
X1119Y1047D02*
X1133Y1047D01*
X1233Y1047D02*
X1247Y1047D01*
X592Y1046D02*
X605Y1046D01*
X706Y1046D02*
X719Y1046D01*
X1120Y1046D02*
X1133Y1046D01*
X1233Y1046D02*
X1246Y1046D01*
X593Y1045D02*
X605Y1045D01*
X706Y1045D02*
X718Y1045D01*
X1120Y1045D02*
X1133Y1045D01*
X1233Y1045D02*
X1246Y1045D01*
X593Y1044D02*
X605Y1044D01*
X706Y1044D02*
X717Y1044D01*
X1121Y1044D02*
X1133Y1044D01*
X1233Y1044D02*
X1245Y1044D01*
X594Y1043D02*
X605Y1043D01*
X706Y1043D02*
X716Y1043D01*
X1122Y1043D02*
X1133Y1043D01*
X1233Y1043D02*
X1244Y1043D01*
X595Y1042D02*
X605Y1042D01*
X706Y1042D02*
X715Y1042D01*
X1123Y1042D02*
X1133Y1042D01*
X1233Y1042D02*
X1243Y1042D01*
X597Y1041D02*
X605Y1041D01*
X706Y1041D02*
X714Y1041D01*
X1124Y1041D02*
X1133Y1041D01*
X1233Y1041D02*
X1242Y1041D01*
X598Y1040D02*
X605Y1040D01*
X706Y1040D02*
X713Y1040D01*
X1126Y1040D02*
X1133Y1040D01*
X1233Y1040D02*
X1240Y1040D01*
X600Y1039D02*
X605Y1039D01*
X706Y1039D02*
X710Y1039D01*
X1128Y1039D02*
X1133Y1039D01*
X1233Y1039D02*
X1238Y1039D01*
X601Y1019D02*
X605Y1019D01*
X706Y1019D02*
X710Y1019D01*
X1128Y1019D02*
X1133Y1019D01*
X1233Y1019D02*
X1238Y1019D01*
X598Y1018D02*
X605Y1018D01*
X706Y1018D02*
X712Y1018D01*
X1126Y1018D02*
X1133Y1018D01*
X1233Y1018D02*
X1240Y1018D01*
X597Y1017D02*
X605Y1017D01*
X706Y1017D02*
X714Y1017D01*
X1124Y1017D02*
X1133Y1017D01*
X1233Y1017D02*
X1242Y1017D01*
X595Y1016D02*
X605Y1016D01*
X706Y1016D02*
X715Y1016D01*
X1123Y1016D02*
X1133Y1016D01*
X1233Y1016D02*
X1243Y1016D01*
X594Y1015D02*
X605Y1015D01*
X706Y1015D02*
X716Y1015D01*
X1122Y1015D02*
X1133Y1015D01*
X1233Y1015D02*
X1244Y1015D01*
X594Y1014D02*
X605Y1014D01*
X706Y1014D02*
X717Y1014D01*
X1121Y1014D02*
X1133Y1014D01*
X1233Y1014D02*
X1245Y1014D01*
X593Y1013D02*
X605Y1013D01*
X706Y1013D02*
X718Y1013D01*
X1120Y1013D02*
X1133Y1013D01*
X1233Y1013D02*
X1246Y1013D01*
X592Y1012D02*
X605Y1012D01*
X706Y1012D02*
X719Y1012D01*
X1120Y1012D02*
X1133Y1012D01*
X1233Y1012D02*
X1246Y1012D01*
X592Y1011D02*
X605Y1011D01*
X706Y1011D02*
X719Y1011D01*
X1119Y1011D02*
X1133Y1011D01*
X1233Y1011D02*
X1247Y1011D01*
X591Y1010D02*
X605Y1010D01*
X706Y1010D02*
X720Y1010D01*
X1119Y1010D02*
X1133Y1010D01*
X1233Y1010D02*
X1247Y1010D01*
X591Y1009D02*
X605Y1009D01*
X706Y1009D02*
X720Y1009D01*
X1118Y1009D02*
X1133Y1009D01*
X1233Y1009D02*
X1248Y1009D01*
X590Y1008D02*
X605Y1008D01*
X706Y1008D02*
X720Y1008D01*
X1118Y1008D02*
X1133Y1008D01*
X1233Y1008D02*
X1248Y1008D01*
X590Y1007D02*
X605Y1007D01*
X706Y1007D02*
X721Y1007D01*
X1118Y1007D02*
X1133Y1007D01*
X1233Y1007D02*
X1248Y1007D01*
X590Y1006D02*
X605Y1006D01*
X706Y1006D02*
X721Y1006D01*
X1118Y1006D02*
X1133Y1006D01*
X1233Y1006D02*
X1248Y1006D01*
X590Y1005D02*
X605Y1005D01*
X706Y1005D02*
X721Y1005D01*
X1118Y1005D02*
X1133Y1005D01*
X1233Y1005D02*
X1248Y1005D01*
X590Y1004D02*
X605Y1004D01*
X706Y1004D02*
X721Y1004D01*
X1118Y1004D02*
X1133Y1004D01*
X1233Y1004D02*
X1248Y1004D01*
X590Y1003D02*
X605Y1003D01*
X706Y1003D02*
X721Y1003D01*
X1118Y1003D02*
X1133Y1003D01*
X1233Y1003D02*
X1248Y1003D01*
X590Y1002D02*
X605Y1002D01*
X706Y1002D02*
X721Y1002D01*
X1118Y1002D02*
X1133Y1002D01*
X1233Y1002D02*
X1248Y1002D01*
X590Y1001D02*
X605Y1001D01*
X706Y1001D02*
X721Y1001D01*
X1118Y1001D02*
X1133Y1001D01*
X1233Y1001D02*
X1248Y1001D01*
X590Y1000D02*
X605Y1000D01*
X706Y1000D02*
X720Y1000D01*
X1118Y1000D02*
X1133Y1000D01*
X1233Y1000D02*
X1248Y1000D01*
X591Y999D02*
X605Y999D01*
X706Y999D02*
X720Y999D01*
X1118Y999D02*
X1133Y999D01*
X1233Y999D02*
X1248Y999D01*
X591Y998D02*
X605Y998D01*
X706Y998D02*
X720Y998D01*
X1119Y998D02*
X1133Y998D01*
X1233Y998D02*
X1247Y998D01*
X592Y997D02*
X605Y997D01*
X706Y997D02*
X719Y997D01*
X1119Y997D02*
X1133Y997D01*
X1233Y997D02*
X1247Y997D01*
X592Y996D02*
X605Y996D01*
X706Y996D02*
X719Y996D01*
X1120Y996D02*
X1133Y996D01*
X1233Y996D02*
X1246Y996D01*
X593Y995D02*
X605Y995D01*
X706Y995D02*
X718Y995D01*
X1120Y995D02*
X1133Y995D01*
X1233Y995D02*
X1246Y995D01*
X594Y994D02*
X605Y994D01*
X706Y994D02*
X717Y994D01*
X1121Y994D02*
X1133Y994D01*
X1233Y994D02*
X1245Y994D01*
X594Y993D02*
X605Y993D01*
X706Y993D02*
X716Y993D01*
X1122Y993D02*
X1133Y993D01*
X1233Y993D02*
X1244Y993D01*
X595Y992D02*
X605Y992D01*
X706Y992D02*
X715Y992D01*
X1123Y992D02*
X1133Y992D01*
X1233Y992D02*
X1243Y992D01*
X597Y991D02*
X605Y991D01*
X706Y991D02*
X714Y991D01*
X1124Y991D02*
X1133Y991D01*
X1233Y991D02*
X1242Y991D01*
X598Y990D02*
X605Y990D01*
X706Y990D02*
X712Y990D01*
X1126Y990D02*
X1133Y990D01*
X1233Y990D02*
X1240Y990D01*
X600Y989D02*
X605Y989D01*
X706Y989D02*
X710Y989D01*
X1128Y989D02*
X1133Y989D01*
X1233Y989D02*
X1238Y989D01*
X600Y969D02*
X605Y969D01*
X706Y969D02*
X710Y969D01*
X1128Y969D02*
X1133Y969D01*
X1233Y969D02*
X1238Y969D01*
X598Y968D02*
X605Y968D01*
X706Y968D02*
X712Y968D01*
X1126Y968D02*
X1133Y968D01*
X1233Y968D02*
X1240Y968D01*
X597Y967D02*
X605Y967D01*
X706Y967D02*
X714Y967D01*
X1124Y967D02*
X1133Y967D01*
X1233Y967D02*
X1242Y967D01*
X595Y966D02*
X605Y966D01*
X706Y966D02*
X715Y966D01*
X1123Y966D02*
X1133Y966D01*
X1233Y966D02*
X1243Y966D01*
X594Y965D02*
X605Y965D01*
X706Y965D02*
X716Y965D01*
X1122Y965D02*
X1133Y965D01*
X1233Y965D02*
X1244Y965D01*
X594Y964D02*
X605Y964D01*
X706Y964D02*
X717Y964D01*
X1121Y964D02*
X1133Y964D01*
X1233Y964D02*
X1245Y964D01*
X593Y963D02*
X605Y963D01*
X706Y963D02*
X718Y963D01*
X1120Y963D02*
X1133Y963D01*
X1233Y963D02*
X1246Y963D01*
X592Y962D02*
X605Y962D01*
X706Y962D02*
X719Y962D01*
X1120Y962D02*
X1133Y962D01*
X1233Y962D02*
X1246Y962D01*
X592Y961D02*
X605Y961D01*
X706Y961D02*
X719Y961D01*
X1119Y961D02*
X1133Y961D01*
X1233Y961D02*
X1247Y961D01*
X591Y960D02*
X605Y960D01*
X706Y960D02*
X720Y960D01*
X1119Y960D02*
X1133Y960D01*
X1233Y960D02*
X1247Y960D01*
X591Y959D02*
X605Y959D01*
X706Y959D02*
X720Y959D01*
X1118Y959D02*
X1133Y959D01*
X1233Y959D02*
X1248Y959D01*
X590Y958D02*
X605Y958D01*
X706Y958D02*
X720Y958D01*
X1118Y958D02*
X1133Y958D01*
X1233Y958D02*
X1248Y958D01*
X590Y957D02*
X605Y957D01*
X706Y957D02*
X721Y957D01*
X1118Y957D02*
X1133Y957D01*
X1233Y957D02*
X1248Y957D01*
X590Y956D02*
X605Y956D01*
X706Y956D02*
X721Y956D01*
X1118Y956D02*
X1133Y956D01*
X1233Y956D02*
X1248Y956D01*
X590Y955D02*
X605Y955D01*
X706Y955D02*
X721Y955D01*
X1118Y955D02*
X1133Y955D01*
X1233Y955D02*
X1248Y955D01*
X590Y954D02*
X605Y954D01*
X706Y954D02*
X721Y954D01*
X1118Y954D02*
X1133Y954D01*
X1233Y954D02*
X1248Y954D01*
X590Y953D02*
X605Y953D01*
X706Y953D02*
X721Y953D01*
X1118Y953D02*
X1133Y953D01*
X1233Y953D02*
X1248Y953D01*
X590Y952D02*
X605Y952D01*
X706Y952D02*
X721Y952D01*
X1118Y952D02*
X1133Y952D01*
X1233Y952D02*
X1248Y952D01*
X590Y951D02*
X605Y951D01*
X706Y951D02*
X721Y951D01*
X1118Y951D02*
X1133Y951D01*
X1233Y951D02*
X1248Y951D01*
X590Y950D02*
X605Y950D01*
X706Y950D02*
X720Y950D01*
X1118Y950D02*
X1133Y950D01*
X1233Y950D02*
X1248Y950D01*
X591Y949D02*
X605Y949D01*
X706Y949D02*
X720Y949D01*
X1118Y949D02*
X1133Y949D01*
X1233Y949D02*
X1248Y949D01*
X591Y948D02*
X605Y948D01*
X706Y948D02*
X720Y948D01*
X1119Y948D02*
X1133Y948D01*
X1233Y948D02*
X1247Y948D01*
X592Y947D02*
X605Y947D01*
X706Y947D02*
X719Y947D01*
X1119Y947D02*
X1133Y947D01*
X1233Y947D02*
X1247Y947D01*
X592Y946D02*
X605Y946D01*
X706Y946D02*
X719Y946D01*
X1120Y946D02*
X1133Y946D01*
X1233Y946D02*
X1246Y946D01*
X593Y945D02*
X605Y945D01*
X706Y945D02*
X718Y945D01*
X1120Y945D02*
X1133Y945D01*
X1233Y945D02*
X1246Y945D01*
X594Y944D02*
X605Y944D01*
X706Y944D02*
X717Y944D01*
X1121Y944D02*
X1133Y944D01*
X1233Y944D02*
X1245Y944D01*
X594Y943D02*
X605Y943D01*
X706Y943D02*
X716Y943D01*
X1122Y943D02*
X1133Y943D01*
X1233Y943D02*
X1244Y943D01*
X595Y942D02*
X605Y942D01*
X706Y942D02*
X715Y942D01*
X1123Y942D02*
X1133Y942D01*
X1233Y942D02*
X1243Y942D01*
X597Y941D02*
X605Y941D01*
X706Y941D02*
X714Y941D01*
X1124Y941D02*
X1133Y941D01*
X1233Y941D02*
X1242Y941D01*
X598Y940D02*
X605Y940D01*
X706Y940D02*
X712Y940D01*
X1126Y940D02*
X1133Y940D01*
X1233Y940D02*
X1240Y940D01*
X601Y939D02*
X605Y939D01*
X706Y939D02*
X710Y939D01*
X1128Y939D02*
X1133Y939D01*
X1233Y939D02*
X1238Y939D01*
X600Y919D02*
X605Y919D01*
X706Y919D02*
X710Y919D01*
X1128Y919D02*
X1133Y919D01*
X1233Y919D02*
X1238Y919D01*
X598Y918D02*
X605Y918D01*
X706Y918D02*
X713Y918D01*
X1126Y918D02*
X1133Y918D01*
X1233Y918D02*
X1240Y918D01*
X597Y917D02*
X605Y917D01*
X706Y917D02*
X714Y917D01*
X1124Y917D02*
X1133Y917D01*
X1233Y917D02*
X1242Y917D01*
X595Y916D02*
X605Y916D01*
X706Y916D02*
X715Y916D01*
X1123Y916D02*
X1133Y916D01*
X1233Y916D02*
X1243Y916D01*
X594Y915D02*
X605Y915D01*
X706Y915D02*
X716Y915D01*
X1122Y915D02*
X1133Y915D01*
X1233Y915D02*
X1244Y915D01*
X593Y914D02*
X605Y914D01*
X706Y914D02*
X717Y914D01*
X1121Y914D02*
X1133Y914D01*
X1233Y914D02*
X1245Y914D01*
X593Y913D02*
X605Y913D01*
X706Y913D02*
X718Y913D01*
X1120Y913D02*
X1133Y913D01*
X1233Y913D02*
X1246Y913D01*
X592Y912D02*
X605Y912D01*
X706Y912D02*
X719Y912D01*
X1120Y912D02*
X1133Y912D01*
X1233Y912D02*
X1246Y912D01*
X592Y911D02*
X605Y911D01*
X706Y911D02*
X719Y911D01*
X1119Y911D02*
X1133Y911D01*
X1233Y911D02*
X1247Y911D01*
X591Y910D02*
X605Y910D01*
X706Y910D02*
X720Y910D01*
X1119Y910D02*
X1133Y910D01*
X1233Y910D02*
X1247Y910D01*
X591Y909D02*
X605Y909D01*
X706Y909D02*
X720Y909D01*
X1118Y909D02*
X1133Y909D01*
X1233Y909D02*
X1248Y909D01*
X590Y908D02*
X605Y908D01*
X706Y908D02*
X720Y908D01*
X1118Y908D02*
X1133Y908D01*
X1233Y908D02*
X1248Y908D01*
X590Y907D02*
X605Y907D01*
X706Y907D02*
X721Y907D01*
X1118Y907D02*
X1133Y907D01*
X1233Y907D02*
X1248Y907D01*
X590Y906D02*
X605Y906D01*
X706Y906D02*
X721Y906D01*
X1118Y906D02*
X1133Y906D01*
X1233Y906D02*
X1248Y906D01*
X590Y905D02*
X605Y905D01*
X706Y905D02*
X721Y905D01*
X1118Y905D02*
X1133Y905D01*
X1233Y905D02*
X1248Y905D01*
X590Y904D02*
X605Y904D01*
X706Y904D02*
X721Y904D01*
X1118Y904D02*
X1133Y904D01*
X1233Y904D02*
X1248Y904D01*
X590Y903D02*
X605Y903D01*
X706Y903D02*
X721Y903D01*
X1118Y903D02*
X1133Y903D01*
X1233Y903D02*
X1248Y903D01*
X590Y902D02*
X605Y902D01*
X706Y902D02*
X721Y902D01*
X1118Y902D02*
X1133Y902D01*
X1233Y902D02*
X1248Y902D01*
X590Y901D02*
X605Y901D01*
X706Y901D02*
X721Y901D01*
X1118Y901D02*
X1133Y901D01*
X1233Y901D02*
X1248Y901D01*
X591Y900D02*
X605Y900D01*
X706Y900D02*
X720Y900D01*
X1118Y900D02*
X1133Y900D01*
X1233Y900D02*
X1248Y900D01*
X591Y899D02*
X605Y899D01*
X706Y899D02*
X720Y899D01*
X1118Y899D02*
X1133Y899D01*
X1233Y899D02*
X1248Y899D01*
X591Y898D02*
X605Y898D01*
X706Y898D02*
X720Y898D01*
X1119Y898D02*
X1133Y898D01*
X1233Y898D02*
X1247Y898D01*
X592Y897D02*
X605Y897D01*
X706Y897D02*
X719Y897D01*
X1119Y897D02*
X1133Y897D01*
X1233Y897D02*
X1247Y897D01*
X592Y896D02*
X605Y896D01*
X706Y896D02*
X719Y896D01*
X1120Y896D02*
X1133Y896D01*
X1233Y896D02*
X1246Y896D01*
X593Y895D02*
X605Y895D01*
X706Y895D02*
X718Y895D01*
X1120Y895D02*
X1133Y895D01*
X1233Y895D02*
X1246Y895D01*
X594Y894D02*
X605Y894D01*
X706Y894D02*
X717Y894D01*
X1121Y894D02*
X1133Y894D01*
X1233Y894D02*
X1245Y894D01*
X594Y893D02*
X605Y893D01*
X706Y893D02*
X716Y893D01*
X1122Y893D02*
X1133Y893D01*
X1233Y893D02*
X1244Y893D01*
X595Y892D02*
X605Y892D01*
X706Y892D02*
X715Y892D01*
X1123Y892D02*
X1133Y892D01*
X1233Y892D02*
X1243Y892D01*
X597Y891D02*
X605Y891D01*
X706Y891D02*
X714Y891D01*
X1124Y891D02*
X1133Y891D01*
X1233Y891D02*
X1242Y891D01*
X598Y890D02*
X605Y890D01*
X706Y890D02*
X712Y890D01*
X1126Y890D02*
X1133Y890D01*
X1233Y890D02*
X1240Y890D01*
X601Y889D02*
X605Y889D01*
X706Y889D02*
X710Y889D01*
X1128Y889D02*
X1133Y889D01*
X1233Y889D02*
X1238Y889D01*
X706Y870D02*
X706Y870D01*
X600Y869D02*
X605Y869D01*
X706Y869D02*
X710Y869D01*
X1128Y869D02*
X1133Y869D01*
X1233Y869D02*
X1238Y869D01*
X598Y868D02*
X605Y868D01*
X706Y868D02*
X713Y868D01*
X1126Y868D02*
X1133Y868D01*
X1233Y868D02*
X1240Y868D01*
X597Y867D02*
X605Y867D01*
X706Y867D02*
X714Y867D01*
X1124Y867D02*
X1133Y867D01*
X1233Y867D02*
X1242Y867D01*
X595Y866D02*
X605Y866D01*
X706Y866D02*
X715Y866D01*
X1123Y866D02*
X1133Y866D01*
X1233Y866D02*
X1243Y866D01*
X594Y865D02*
X605Y865D01*
X706Y865D02*
X716Y865D01*
X1122Y865D02*
X1133Y865D01*
X1233Y865D02*
X1244Y865D01*
X593Y864D02*
X605Y864D01*
X706Y864D02*
X717Y864D01*
X1121Y864D02*
X1133Y864D01*
X1233Y864D02*
X1245Y864D01*
X593Y863D02*
X605Y863D01*
X706Y863D02*
X718Y863D01*
X1120Y863D02*
X1133Y863D01*
X1233Y863D02*
X1246Y863D01*
X592Y862D02*
X605Y862D01*
X706Y862D02*
X719Y862D01*
X1120Y862D02*
X1133Y862D01*
X1233Y862D02*
X1246Y862D01*
X592Y861D02*
X605Y861D01*
X706Y861D02*
X719Y861D01*
X1119Y861D02*
X1133Y861D01*
X1233Y861D02*
X1247Y861D01*
X591Y860D02*
X605Y860D01*
X706Y860D02*
X720Y860D01*
X1119Y860D02*
X1133Y860D01*
X1233Y860D02*
X1247Y860D01*
X591Y859D02*
X605Y859D01*
X706Y859D02*
X720Y859D01*
X1118Y859D02*
X1133Y859D01*
X1233Y859D02*
X1248Y859D01*
X590Y858D02*
X605Y858D01*
X706Y858D02*
X720Y858D01*
X1118Y858D02*
X1133Y858D01*
X1233Y858D02*
X1248Y858D01*
X590Y857D02*
X605Y857D01*
X706Y857D02*
X721Y857D01*
X1118Y857D02*
X1133Y857D01*
X1233Y857D02*
X1248Y857D01*
X590Y856D02*
X605Y856D01*
X706Y856D02*
X721Y856D01*
X1118Y856D02*
X1133Y856D01*
X1233Y856D02*
X1248Y856D01*
X590Y855D02*
X605Y855D01*
X706Y855D02*
X721Y855D01*
X1118Y855D02*
X1133Y855D01*
X1233Y855D02*
X1248Y855D01*
X590Y854D02*
X605Y854D01*
X706Y854D02*
X721Y854D01*
X1118Y854D02*
X1133Y854D01*
X1233Y854D02*
X1248Y854D01*
X590Y853D02*
X605Y853D01*
X706Y853D02*
X721Y853D01*
X1118Y853D02*
X1133Y853D01*
X1233Y853D02*
X1248Y853D01*
X590Y852D02*
X605Y852D01*
X706Y852D02*
X721Y852D01*
X1118Y852D02*
X1133Y852D01*
X1233Y852D02*
X1248Y852D01*
X590Y851D02*
X605Y851D01*
X706Y851D02*
X720Y851D01*
X1118Y851D02*
X1133Y851D01*
X1233Y851D02*
X1248Y851D01*
X591Y850D02*
X605Y850D01*
X706Y850D02*
X720Y850D01*
X1118Y850D02*
X1133Y850D01*
X1233Y850D02*
X1248Y850D01*
X591Y849D02*
X605Y849D01*
X706Y849D02*
X720Y849D01*
X1118Y849D02*
X1133Y849D01*
X1233Y849D02*
X1248Y849D01*
X591Y848D02*
X605Y848D01*
X706Y848D02*
X720Y848D01*
X1119Y848D02*
X1133Y848D01*
X1233Y848D02*
X1247Y848D01*
X592Y847D02*
X605Y847D01*
X706Y847D02*
X719Y847D01*
X1119Y847D02*
X1133Y847D01*
X1233Y847D02*
X1247Y847D01*
X592Y846D02*
X605Y846D01*
X706Y846D02*
X719Y846D01*
X1120Y846D02*
X1133Y846D01*
X1233Y846D02*
X1246Y846D01*
X593Y845D02*
X605Y845D01*
X706Y845D02*
X718Y845D01*
X1120Y845D02*
X1133Y845D01*
X1233Y845D02*
X1246Y845D01*
X594Y844D02*
X605Y844D01*
X706Y844D02*
X717Y844D01*
X1121Y844D02*
X1133Y844D01*
X1233Y844D02*
X1245Y844D01*
X594Y843D02*
X605Y843D01*
X706Y843D02*
X716Y843D01*
X1122Y843D02*
X1133Y843D01*
X1233Y843D02*
X1244Y843D01*
X596Y842D02*
X605Y842D01*
X706Y842D02*
X715Y842D01*
X1123Y842D02*
X1133Y842D01*
X1233Y842D02*
X1243Y842D01*
X597Y841D02*
X605Y841D01*
X706Y841D02*
X714Y841D01*
X1124Y841D02*
X1133Y841D01*
X1233Y841D02*
X1242Y841D01*
X598Y840D02*
X605Y840D01*
X706Y840D02*
X712Y840D01*
X1126Y840D02*
X1133Y840D01*
X1233Y840D02*
X1240Y840D01*
X601Y839D02*
X605Y839D01*
X706Y839D02*
X710Y839D01*
X1128Y839D02*
X1133Y839D01*
X1233Y839D02*
X1238Y839D01*
X605Y820D02*
X605Y820D01*
X706Y820D02*
X706Y820D01*
X1132Y820D02*
X1132Y820D01*
X1234Y820D02*
X1234Y820D01*
X600Y819D02*
X605Y819D01*
X706Y819D02*
X711Y819D01*
X1128Y819D02*
X1133Y819D01*
X1233Y819D02*
X1238Y819D01*
X598Y818D02*
X605Y818D01*
X706Y818D02*
X713Y818D01*
X1126Y818D02*
X1133Y818D01*
X1233Y818D02*
X1240Y818D01*
X597Y817D02*
X605Y817D01*
X706Y817D02*
X714Y817D01*
X1124Y817D02*
X1133Y817D01*
X1233Y817D02*
X1242Y817D01*
X595Y816D02*
X605Y816D01*
X706Y816D02*
X715Y816D01*
X1123Y816D02*
X1133Y816D01*
X1233Y816D02*
X1243Y816D01*
X594Y815D02*
X605Y815D01*
X706Y815D02*
X716Y815D01*
X1122Y815D02*
X1133Y815D01*
X1233Y815D02*
X1244Y815D01*
X593Y814D02*
X605Y814D01*
X706Y814D02*
X717Y814D01*
X1121Y814D02*
X1133Y814D01*
X1233Y814D02*
X1245Y814D01*
X593Y813D02*
X605Y813D01*
X706Y813D02*
X718Y813D01*
X1120Y813D02*
X1133Y813D01*
X1233Y813D02*
X1246Y813D01*
X592Y812D02*
X605Y812D01*
X706Y812D02*
X719Y812D01*
X1120Y812D02*
X1133Y812D01*
X1233Y812D02*
X1246Y812D01*
X592Y811D02*
X605Y811D01*
X706Y811D02*
X719Y811D01*
X1119Y811D02*
X1133Y811D01*
X1233Y811D02*
X1247Y811D01*
X591Y810D02*
X605Y810D01*
X706Y810D02*
X720Y810D01*
X1119Y810D02*
X1133Y810D01*
X1233Y810D02*
X1247Y810D01*
X591Y809D02*
X605Y809D01*
X706Y809D02*
X720Y809D01*
X1118Y809D02*
X1133Y809D01*
X1233Y809D02*
X1248Y809D01*
X590Y808D02*
X605Y808D01*
X706Y808D02*
X720Y808D01*
X1118Y808D02*
X1133Y808D01*
X1233Y808D02*
X1248Y808D01*
X590Y807D02*
X605Y807D01*
X706Y807D02*
X721Y807D01*
X1118Y807D02*
X1133Y807D01*
X1233Y807D02*
X1248Y807D01*
X590Y806D02*
X605Y806D01*
X706Y806D02*
X721Y806D01*
X1118Y806D02*
X1133Y806D01*
X1233Y806D02*
X1248Y806D01*
X590Y805D02*
X605Y805D01*
X706Y805D02*
X721Y805D01*
X1118Y805D02*
X1133Y805D01*
X1233Y805D02*
X1248Y805D01*
X590Y804D02*
X605Y804D01*
X706Y804D02*
X721Y804D01*
X1118Y804D02*
X1133Y804D01*
X1233Y804D02*
X1248Y804D01*
X590Y803D02*
X605Y803D01*
X706Y803D02*
X721Y803D01*
X1118Y803D02*
X1133Y803D01*
X1233Y803D02*
X1248Y803D01*
X590Y802D02*
X605Y802D01*
X706Y802D02*
X721Y802D01*
X1118Y802D02*
X1133Y802D01*
X1233Y802D02*
X1248Y802D01*
X590Y801D02*
X605Y801D01*
X706Y801D02*
X720Y801D01*
X1118Y801D02*
X1133Y801D01*
X1233Y801D02*
X1248Y801D01*
X591Y800D02*
X605Y800D01*
X706Y800D02*
X720Y800D01*
X1118Y800D02*
X1133Y800D01*
X1233Y800D02*
X1248Y800D01*
X591Y799D02*
X605Y799D01*
X706Y799D02*
X720Y799D01*
X1118Y799D02*
X1133Y799D01*
X1233Y799D02*
X1248Y799D01*
X591Y798D02*
X605Y798D01*
X706Y798D02*
X720Y798D01*
X1119Y798D02*
X1133Y798D01*
X1233Y798D02*
X1247Y798D01*
X592Y797D02*
X605Y797D01*
X706Y797D02*
X719Y797D01*
X1119Y797D02*
X1133Y797D01*
X1233Y797D02*
X1247Y797D01*
X592Y796D02*
X605Y796D01*
X706Y796D02*
X719Y796D01*
X1120Y796D02*
X1133Y796D01*
X1233Y796D02*
X1246Y796D01*
X593Y795D02*
X605Y795D01*
X706Y795D02*
X718Y795D01*
X1120Y795D02*
X1133Y795D01*
X1233Y795D02*
X1246Y795D01*
X594Y794D02*
X605Y794D01*
X706Y794D02*
X717Y794D01*
X1121Y794D02*
X1133Y794D01*
X1233Y794D02*
X1245Y794D01*
X594Y793D02*
X605Y793D01*
X706Y793D02*
X716Y793D01*
X1122Y793D02*
X1133Y793D01*
X1233Y793D02*
X1244Y793D01*
X596Y792D02*
X605Y792D01*
X706Y792D02*
X715Y792D01*
X1123Y792D02*
X1133Y792D01*
X1233Y792D02*
X1243Y792D01*
X597Y791D02*
X605Y791D01*
X706Y791D02*
X714Y791D01*
X1124Y791D02*
X1133Y791D01*
X1233Y791D02*
X1242Y791D01*
X599Y790D02*
X605Y790D01*
X706Y790D02*
X712Y790D01*
X1126Y790D02*
X1133Y790D01*
X1233Y790D02*
X1240Y790D01*
X601Y789D02*
X605Y789D01*
X706Y789D02*
X710Y789D01*
X1129Y789D02*
X1133Y789D01*
X1233Y789D02*
X1237Y789D01*
X604Y770D02*
X605Y770D01*
X706Y770D02*
X706Y770D01*
X1132Y770D02*
X1132Y770D01*
X1234Y770D02*
X1234Y770D01*
X600Y769D02*
X605Y769D01*
X706Y769D02*
X711Y769D01*
X1128Y769D02*
X1133Y769D01*
X1233Y769D02*
X1238Y769D01*
X598Y768D02*
X605Y768D01*
X706Y768D02*
X713Y768D01*
X1126Y768D02*
X1133Y768D01*
X1233Y768D02*
X1240Y768D01*
X596Y767D02*
X605Y767D01*
X706Y767D02*
X714Y767D01*
X1124Y767D02*
X1133Y767D01*
X1233Y767D02*
X1242Y767D01*
X595Y766D02*
X605Y766D01*
X706Y766D02*
X715Y766D01*
X1123Y766D02*
X1133Y766D01*
X1233Y766D02*
X1243Y766D01*
X594Y765D02*
X605Y765D01*
X706Y765D02*
X717Y765D01*
X1122Y765D02*
X1133Y765D01*
X1233Y765D02*
X1244Y765D01*
X593Y764D02*
X605Y764D01*
X706Y764D02*
X717Y764D01*
X1121Y764D02*
X1133Y764D01*
X1233Y764D02*
X1245Y764D01*
X593Y763D02*
X605Y763D01*
X706Y763D02*
X718Y763D01*
X1120Y763D02*
X1133Y763D01*
X1233Y763D02*
X1246Y763D01*
X592Y762D02*
X605Y762D01*
X706Y762D02*
X719Y762D01*
X1120Y762D02*
X1133Y762D01*
X1233Y762D02*
X1246Y762D01*
X592Y761D02*
X605Y761D01*
X706Y761D02*
X719Y761D01*
X1119Y761D02*
X1133Y761D01*
X1233Y761D02*
X1247Y761D01*
X591Y760D02*
X605Y760D01*
X706Y760D02*
X720Y760D01*
X1119Y760D02*
X1133Y760D01*
X1233Y760D02*
X1247Y760D01*
X591Y759D02*
X605Y759D01*
X706Y759D02*
X720Y759D01*
X1118Y759D02*
X1133Y759D01*
X1233Y759D02*
X1248Y759D01*
X590Y758D02*
X605Y758D01*
X706Y758D02*
X720Y758D01*
X1118Y758D02*
X1133Y758D01*
X1233Y758D02*
X1248Y758D01*
X590Y757D02*
X605Y757D01*
X706Y757D02*
X721Y757D01*
X1118Y757D02*
X1133Y757D01*
X1233Y757D02*
X1248Y757D01*
X590Y756D02*
X605Y756D01*
X706Y756D02*
X721Y756D01*
X1118Y756D02*
X1133Y756D01*
X1233Y756D02*
X1248Y756D01*
X590Y755D02*
X605Y755D01*
X706Y755D02*
X721Y755D01*
X1118Y755D02*
X1133Y755D01*
X1233Y755D02*
X1248Y755D01*
X590Y754D02*
X605Y754D01*
X706Y754D02*
X721Y754D01*
X1118Y754D02*
X1133Y754D01*
X1233Y754D02*
X1248Y754D01*
X590Y753D02*
X605Y753D01*
X706Y753D02*
X721Y753D01*
X1118Y753D02*
X1133Y753D01*
X1233Y753D02*
X1248Y753D01*
X590Y752D02*
X605Y752D01*
X706Y752D02*
X721Y752D01*
X1118Y752D02*
X1133Y752D01*
X1233Y752D02*
X1248Y752D01*
X590Y751D02*
X605Y751D01*
X706Y751D02*
X720Y751D01*
X1118Y751D02*
X1133Y751D01*
X1233Y751D02*
X1248Y751D01*
X591Y750D02*
X605Y750D01*
X706Y750D02*
X720Y750D01*
X1118Y750D02*
X1133Y750D01*
X1233Y750D02*
X1248Y750D01*
X591Y749D02*
X605Y749D01*
X706Y749D02*
X720Y749D01*
X1118Y749D02*
X1133Y749D01*
X1233Y749D02*
X1248Y749D01*
X591Y748D02*
X605Y748D01*
X706Y748D02*
X720Y748D01*
X1119Y748D02*
X1133Y748D01*
X1233Y748D02*
X1247Y748D01*
X592Y747D02*
X605Y747D01*
X706Y747D02*
X719Y747D01*
X1119Y747D02*
X1133Y747D01*
X1233Y747D02*
X1247Y747D01*
X592Y746D02*
X605Y746D01*
X706Y746D02*
X719Y746D01*
X1120Y746D02*
X1133Y746D01*
X1233Y746D02*
X1246Y746D01*
X593Y745D02*
X605Y745D01*
X706Y745D02*
X718Y745D01*
X1120Y745D02*
X1133Y745D01*
X1233Y745D02*
X1246Y745D01*
X594Y744D02*
X605Y744D01*
X706Y744D02*
X717Y744D01*
X1121Y744D02*
X1133Y744D01*
X1233Y744D02*
X1245Y744D01*
X595Y743D02*
X605Y743D01*
X706Y743D02*
X716Y743D01*
X1122Y743D02*
X1133Y743D01*
X1233Y743D02*
X1244Y743D01*
X596Y742D02*
X605Y742D01*
X706Y742D02*
X715Y742D01*
X1123Y742D02*
X1133Y742D01*
X1233Y742D02*
X1243Y742D01*
X597Y741D02*
X605Y741D01*
X706Y741D02*
X714Y741D01*
X1125Y741D02*
X1133Y741D01*
X1233Y741D02*
X1242Y741D01*
X599Y740D02*
X605Y740D01*
X706Y740D02*
X712Y740D01*
X1126Y740D02*
X1133Y740D01*
X1233Y740D02*
X1240Y740D01*
X601Y739D02*
X605Y739D01*
X706Y739D02*
X710Y739D01*
X1129Y739D02*
X1133Y739D01*
X1233Y739D02*
X1237Y739D01*
X604Y720D02*
X605Y720D01*
X706Y720D02*
X707Y720D01*
X1132Y720D02*
X1132Y720D01*
X1234Y720D02*
X1234Y720D01*
X600Y719D02*
X605Y719D01*
X706Y719D02*
X711Y719D01*
X1128Y719D02*
X1133Y719D01*
X1233Y719D02*
X1238Y719D01*
X598Y718D02*
X605Y718D01*
X706Y718D02*
X713Y718D01*
X1126Y718D02*
X1133Y718D01*
X1233Y718D02*
X1240Y718D01*
X596Y717D02*
X605Y717D01*
X706Y717D02*
X714Y717D01*
X1124Y717D02*
X1133Y717D01*
X1233Y717D02*
X1242Y717D01*
X595Y716D02*
X605Y716D01*
X706Y716D02*
X716Y716D01*
X1123Y716D02*
X1133Y716D01*
X1233Y716D02*
X1243Y716D01*
X594Y715D02*
X605Y715D01*
X706Y715D02*
X717Y715D01*
X1122Y715D02*
X1133Y715D01*
X1233Y715D02*
X1244Y715D01*
X593Y714D02*
X605Y714D01*
X706Y714D02*
X717Y714D01*
X1121Y714D02*
X1133Y714D01*
X1233Y714D02*
X1245Y714D01*
X593Y713D02*
X605Y713D01*
X706Y713D02*
X718Y713D01*
X1120Y713D02*
X1133Y713D01*
X1233Y713D02*
X1246Y713D01*
X592Y712D02*
X605Y712D01*
X706Y712D02*
X719Y712D01*
X1120Y712D02*
X1133Y712D01*
X1233Y712D02*
X1246Y712D01*
X591Y711D02*
X605Y711D01*
X706Y711D02*
X719Y711D01*
X1119Y711D02*
X1133Y711D01*
X1233Y711D02*
X1247Y711D01*
X591Y710D02*
X605Y710D01*
X706Y710D02*
X720Y710D01*
X1119Y710D02*
X1133Y710D01*
X1233Y710D02*
X1247Y710D01*
X591Y709D02*
X605Y709D01*
X706Y709D02*
X720Y709D01*
X1118Y709D02*
X1133Y709D01*
X1233Y709D02*
X1248Y709D01*
X590Y708D02*
X605Y708D01*
X706Y708D02*
X720Y708D01*
X1118Y708D02*
X1133Y708D01*
X1233Y708D02*
X1248Y708D01*
X590Y707D02*
X605Y707D01*
X706Y707D02*
X721Y707D01*
X1118Y707D02*
X1133Y707D01*
X1233Y707D02*
X1248Y707D01*
X590Y706D02*
X605Y706D01*
X706Y706D02*
X721Y706D01*
X1118Y706D02*
X1133Y706D01*
X1233Y706D02*
X1248Y706D01*
X590Y705D02*
X605Y705D01*
X706Y705D02*
X721Y705D01*
X1118Y705D02*
X1133Y705D01*
X1233Y705D02*
X1248Y705D01*
X590Y704D02*
X605Y704D01*
X706Y704D02*
X721Y704D01*
X1118Y704D02*
X1133Y704D01*
X1233Y704D02*
X1248Y704D01*
X590Y703D02*
X605Y703D01*
X706Y703D02*
X721Y703D01*
X1118Y703D02*
X1133Y703D01*
X1233Y703D02*
X1248Y703D01*
X590Y702D02*
X605Y702D01*
X706Y702D02*
X721Y702D01*
X1118Y702D02*
X1133Y702D01*
X1233Y702D02*
X1248Y702D01*
X590Y701D02*
X605Y701D01*
X706Y701D02*
X720Y701D01*
X1118Y701D02*
X1133Y701D01*
X1233Y701D02*
X1248Y701D01*
X591Y700D02*
X605Y700D01*
X706Y700D02*
X720Y700D01*
X1118Y700D02*
X1133Y700D01*
X1233Y700D02*
X1248Y700D01*
X591Y699D02*
X605Y699D01*
X706Y699D02*
X720Y699D01*
X1118Y699D02*
X1133Y699D01*
X1233Y699D02*
X1248Y699D01*
X591Y698D02*
X605Y698D01*
X706Y698D02*
X720Y698D01*
X1119Y698D02*
X1133Y698D01*
X1233Y698D02*
X1247Y698D01*
X592Y697D02*
X605Y697D01*
X706Y697D02*
X719Y697D01*
X1119Y697D02*
X1133Y697D01*
X1233Y697D02*
X1247Y697D01*
X592Y696D02*
X605Y696D01*
X706Y696D02*
X719Y696D01*
X1120Y696D02*
X1133Y696D01*
X1233Y696D02*
X1246Y696D01*
X593Y695D02*
X605Y695D01*
X706Y695D02*
X718Y695D01*
X1120Y695D02*
X1133Y695D01*
X1233Y695D02*
X1246Y695D01*
X594Y694D02*
X605Y694D01*
X706Y694D02*
X717Y694D01*
X1121Y694D02*
X1133Y694D01*
X1233Y694D02*
X1245Y694D01*
X595Y693D02*
X605Y693D01*
X706Y693D02*
X716Y693D01*
X1122Y693D02*
X1133Y693D01*
X1233Y693D02*
X1244Y693D01*
X596Y692D02*
X605Y692D01*
X706Y692D02*
X715Y692D01*
X1123Y692D02*
X1133Y692D01*
X1233Y692D02*
X1243Y692D01*
X597Y691D02*
X605Y691D01*
X706Y691D02*
X714Y691D01*
X1125Y691D02*
X1133Y691D01*
X1233Y691D02*
X1241Y691D01*
X599Y690D02*
X605Y690D01*
X706Y690D02*
X712Y690D01*
X1126Y690D02*
X1133Y690D01*
X1233Y690D02*
X1240Y690D01*
X601Y689D02*
X605Y689D01*
X706Y689D02*
X710Y689D01*
X1129Y689D02*
X1133Y689D01*
X1233Y689D02*
X1237Y689D01*
D02*
G04 End of Copper1*
M02*