G04 MADE WITH FRITZING*
G04 WWW.FRITZING.ORG*
G04 DOUBLE SIDED*
G04 HOLES PLATED*
G04 CONTOUR ON CENTER OF CONTOUR VECTOR*
%ASAXBY*%
%FSLAX23Y23*%
%MOIN*%
%OFA0B0*%
%SFA1.0B1.0*%
%ADD10C,0.039370*%
%ADD11C,0.078000*%
%ADD12R,0.078000X0.078000*%
%ADD13R,0.039370X0.009843*%
%ADD14R,0.047244X0.019685*%
%ADD15R,0.019685X0.047244*%
%ADD16R,0.024000X0.087000*%
%ADD17R,0.027559X0.035433*%
%ADD18R,0.015748X0.055118*%
%ADD19R,0.078740X0.074803*%
%ADD20R,0.086614X0.074803*%
%ADD21R,0.031496X0.011811*%
%ADD22R,0.011811X0.031496*%
%ADD23R,0.039370X0.039370*%
%ADD24R,0.039370X0.078740*%
%ADD25R,0.078740X0.039370*%
%ADD26R,0.035433X0.027559*%
%ADD27C,0.008000*%
%ADD28C,0.010000*%
%LNCOPPER0*%
G90*
G70*
G54D10*
X633Y923D03*
G54D11*
X493Y512D03*
X493Y412D03*
G54D10*
X584Y874D03*
X334Y828D03*
X596Y820D03*
X118Y875D03*
X258Y871D03*
X256Y813D03*
X374Y770D03*
X454Y726D03*
X499Y773D03*
X499Y593D03*
X440Y51D03*
X496Y661D03*
G54D12*
X493Y512D03*
G54D13*
X587Y604D03*
X587Y584D03*
X587Y564D03*
X587Y544D03*
X587Y525D03*
X587Y505D03*
X587Y485D03*
X587Y466D03*
X587Y446D03*
X587Y426D03*
G54D14*
X412Y1011D03*
X412Y980D03*
X412Y948D03*
X412Y917D03*
X412Y885D03*
X412Y854D03*
G54D15*
X455Y850D03*
G54D14*
X499Y854D03*
X499Y885D03*
X499Y917D03*
X499Y948D03*
X499Y980D03*
X499Y1011D03*
G54D15*
X455Y1015D03*
G54D16*
X125Y721D03*
X175Y721D03*
X225Y721D03*
X275Y721D03*
X275Y515D03*
X225Y515D03*
X175Y515D03*
X125Y515D03*
G54D17*
X304Y959D03*
X355Y959D03*
G54D18*
X209Y199D03*
X234Y199D03*
X260Y199D03*
X183Y199D03*
X158Y199D03*
G54D19*
X258Y86D03*
X160Y86D03*
G54D20*
X366Y86D03*
X51Y86D03*
G54D21*
X420Y366D03*
X420Y346D03*
X420Y327D03*
X420Y307D03*
X420Y287D03*
X420Y268D03*
G54D22*
X390Y238D03*
X371Y238D03*
X351Y238D03*
X331Y238D03*
X312Y238D03*
X292Y238D03*
G54D21*
X263Y268D03*
X263Y287D03*
X263Y307D03*
X263Y327D03*
X263Y346D03*
X263Y366D03*
G54D22*
X292Y396D03*
X312Y396D03*
X331Y396D03*
X351Y396D03*
X371Y396D03*
X390Y396D03*
G54D23*
X341Y317D03*
G54D24*
X497Y56D03*
G54D25*
X175Y378D03*
X385Y473D03*
X608Y169D03*
X608Y219D03*
G54D24*
X548Y56D03*
X598Y57D03*
G54D25*
X609Y271D03*
G54D17*
X478Y1068D03*
X427Y1068D03*
G54D26*
X449Y644D03*
X449Y592D03*
G54D27*
X307Y907D02*
X335Y879D01*
D02*
X335Y879D02*
X334Y841D01*
D02*
X168Y724D02*
X196Y780D01*
D02*
X196Y780D02*
X305Y782D01*
D02*
X305Y782D02*
X327Y816D01*
D02*
X354Y920D02*
X395Y885D01*
D02*
X395Y885D02*
X412Y885D01*
D02*
X369Y866D02*
X395Y883D01*
D02*
X601Y564D02*
X607Y564D01*
D02*
X598Y720D02*
X596Y806D01*
D02*
X635Y600D02*
X633Y910D01*
D02*
X587Y604D02*
X577Y685D01*
D02*
X553Y829D02*
X576Y863D01*
D02*
X559Y744D02*
X553Y829D01*
D02*
X607Y564D02*
X635Y600D01*
D02*
X577Y685D02*
X598Y720D01*
D02*
X573Y446D02*
X551Y447D01*
D02*
X551Y447D02*
X509Y494D01*
D02*
X573Y583D02*
X561Y583D01*
D02*
X371Y812D02*
X369Y866D01*
D02*
X290Y627D02*
X442Y719D01*
D02*
X535Y601D02*
X535Y721D01*
D02*
X535Y721D02*
X559Y744D01*
D02*
X561Y583D02*
X535Y601D01*
D02*
X62Y849D02*
X87Y874D01*
D02*
X181Y221D02*
X179Y244D01*
D02*
X87Y874D02*
X104Y874D01*
D02*
X87Y760D02*
X129Y811D01*
D02*
X129Y811D02*
X243Y813D01*
D02*
X233Y221D02*
X231Y257D01*
D02*
X229Y927D02*
X258Y903D01*
D02*
X258Y903D02*
X258Y885D01*
D02*
X207Y177D02*
X207Y167D01*
D02*
X587Y427D02*
X587Y445D01*
D02*
X587Y486D02*
X586Y495D01*
D02*
X586Y495D02*
X587Y504D01*
D02*
X304Y946D02*
X307Y907D01*
D02*
X355Y946D02*
X354Y920D01*
D02*
X455Y832D02*
X454Y740D01*
D02*
X373Y783D02*
X371Y812D01*
D02*
X395Y883D02*
X412Y885D01*
D02*
X499Y786D02*
X499Y849D01*
D02*
X169Y723D02*
X168Y724D01*
D02*
X163Y605D02*
X290Y627D01*
D02*
X122Y554D02*
X163Y605D01*
D02*
X122Y553D02*
X122Y554D01*
D02*
X468Y512D02*
X282Y515D01*
D02*
X587Y466D02*
X587Y485D01*
D02*
X135Y296D02*
X91Y356D01*
D02*
X200Y292D02*
X135Y296D01*
D02*
X231Y257D02*
X200Y292D01*
D02*
X102Y270D02*
X66Y320D01*
D02*
X148Y268D02*
X102Y270D01*
D02*
X179Y244D02*
X148Y268D01*
D02*
X38Y245D02*
X35Y887D01*
D02*
X91Y356D02*
X87Y760D01*
D02*
X66Y320D02*
X62Y849D01*
D02*
X169Y142D02*
X72Y150D01*
D02*
X72Y150D02*
X38Y245D01*
D02*
X35Y887D02*
X67Y926D01*
D02*
X67Y926D02*
X229Y927D01*
D02*
X547Y565D02*
X511Y586D01*
D02*
X548Y521D02*
X547Y565D01*
D02*
X566Y504D02*
X548Y521D01*
D02*
X573Y505D02*
X566Y504D01*
D02*
X562Y344D02*
X628Y377D01*
D02*
X174Y479D02*
X175Y515D01*
D02*
X120Y472D02*
X121Y477D01*
D02*
X353Y408D02*
X334Y432D01*
D02*
X334Y432D02*
X178Y426D01*
D02*
X178Y426D02*
X120Y472D01*
D02*
X351Y398D02*
X353Y408D01*
D02*
X205Y450D02*
X174Y479D01*
D02*
X334Y457D02*
X205Y450D01*
D02*
X370Y398D02*
X363Y443D01*
D02*
X363Y443D02*
X334Y457D01*
D02*
X628Y377D02*
X640Y430D01*
D02*
X617Y466D02*
X601Y466D01*
D02*
X435Y396D02*
X471Y354D01*
D02*
X471Y354D02*
X562Y344D01*
D02*
X391Y396D02*
X435Y396D01*
D02*
X640Y430D02*
X617Y466D01*
D02*
X352Y178D02*
X440Y114D01*
D02*
X440Y114D02*
X440Y65D01*
D02*
X262Y198D02*
X352Y178D01*
D02*
X396Y713D02*
X354Y712D01*
D02*
X354Y712D02*
X330Y748D01*
D02*
X330Y748D02*
X334Y814D01*
D02*
X412Y849D02*
X419Y747D01*
D02*
X419Y747D02*
X396Y713D01*
D02*
X394Y1010D02*
X329Y1007D01*
D02*
X329Y1007D02*
X310Y971D01*
D02*
X207Y167D02*
X169Y142D01*
D02*
X320Y600D02*
X208Y578D01*
D02*
X208Y578D02*
X169Y521D01*
D02*
X497Y699D02*
X438Y679D01*
D02*
X438Y679D02*
X320Y600D01*
D02*
X169Y521D02*
X169Y521D01*
D02*
X499Y759D02*
X497Y699D01*
G54D28*
D02*
X262Y201D02*
X292Y238D01*
G54D27*
D02*
X628Y377D02*
X612Y285D01*
D02*
X472Y287D02*
X430Y287D01*
D02*
X579Y233D02*
X472Y287D01*
D02*
X463Y234D02*
X445Y267D01*
D02*
X562Y175D02*
X463Y234D01*
D02*
X575Y173D02*
X562Y175D01*
D02*
X445Y267D02*
X430Y268D01*
D02*
X604Y101D02*
X391Y238D01*
D02*
X603Y90D02*
X604Y101D01*
D02*
X370Y227D02*
X371Y228D01*
D02*
X546Y110D02*
X375Y201D01*
D02*
X547Y90D02*
X546Y110D01*
D02*
X375Y201D02*
X370Y227D01*
D02*
X482Y55D02*
X459Y53D01*
D02*
X572Y1006D02*
X543Y1067D01*
D02*
X543Y1067D02*
X486Y1068D01*
D02*
X559Y920D02*
X572Y1006D01*
D02*
X517Y852D02*
X524Y851D01*
D02*
X524Y851D02*
X559Y920D01*
D02*
X304Y1040D02*
X304Y971D01*
D02*
X419Y1068D02*
X340Y1065D01*
D02*
X340Y1065D02*
X304Y1040D01*
D02*
X461Y593D02*
X486Y593D01*
D02*
X483Y656D02*
X461Y648D01*
D02*
X363Y443D02*
X375Y459D01*
D02*
X178Y426D02*
X176Y392D01*
G04 End of Copper0*
M02*