G04 MADE WITH FRITZING*
G04 WWW.FRITZING.ORG*
G04 DOUBLE SIDED*
G04 HOLES PLATED*
G04 CONTOUR ON CENTER OF CONTOUR VECTOR*
%ASAXBY*%
%FSLAX23Y23*%
%MOIN*%
%OFA0B0*%
%SFA1.0B1.0*%
%ADD10C,0.049370*%
%ADD11C,0.088000*%
%ADD12R,0.088000X0.088000*%
%ADD13R,0.049370X0.019843*%
%ADD14R,0.057244X0.029685*%
%ADD15R,0.029685X0.057244*%
%ADD16R,0.034000X0.097000*%
%ADD17R,0.037559X0.045433*%
%ADD18R,0.025748X0.065118*%
%ADD19R,0.088740X0.084803*%
%ADD20R,0.096614X0.084803*%
%ADD21R,0.041496X0.021811*%
%ADD22R,0.021811X0.041496*%
%ADD23R,0.049370X0.049370*%
%ADD24R,0.049370X0.088740*%
%ADD25R,0.088740X0.049370*%
%ADD26R,0.045433X0.037559*%
%LNMASK0*%
G90*
G70*
G54D10*
X633Y923D03*
G54D11*
X493Y512D03*
X493Y412D03*
G54D10*
X584Y874D03*
X334Y828D03*
X596Y820D03*
X118Y875D03*
X258Y871D03*
X256Y813D03*
X374Y770D03*
X454Y726D03*
X499Y773D03*
X499Y593D03*
X440Y51D03*
X496Y661D03*
G54D12*
X493Y512D03*
G54D13*
X587Y604D03*
X587Y584D03*
X587Y564D03*
X587Y544D03*
X587Y525D03*
X587Y505D03*
X587Y485D03*
X587Y466D03*
X587Y446D03*
X587Y426D03*
G54D14*
X412Y1011D03*
X412Y980D03*
X412Y948D03*
X412Y917D03*
X412Y885D03*
X412Y854D03*
G54D15*
X455Y850D03*
G54D14*
X499Y854D03*
X499Y885D03*
X499Y917D03*
X499Y948D03*
X499Y980D03*
X499Y1011D03*
G54D15*
X455Y1015D03*
G54D16*
X125Y721D03*
X175Y721D03*
X225Y721D03*
X275Y721D03*
X275Y515D03*
X225Y515D03*
X175Y515D03*
X125Y515D03*
G54D17*
X304Y959D03*
X355Y959D03*
G54D18*
X209Y199D03*
X234Y199D03*
X260Y199D03*
X183Y199D03*
X158Y199D03*
G54D19*
X258Y86D03*
X160Y86D03*
G54D20*
X366Y86D03*
X51Y86D03*
G54D21*
X420Y366D03*
X420Y346D03*
X420Y327D03*
X420Y307D03*
X420Y287D03*
X420Y268D03*
G54D22*
X390Y238D03*
X371Y238D03*
X351Y238D03*
X331Y238D03*
X312Y238D03*
X292Y238D03*
G54D21*
X263Y268D03*
X263Y287D03*
X263Y307D03*
X263Y327D03*
X263Y346D03*
X263Y366D03*
G54D22*
X292Y396D03*
X312Y396D03*
X331Y396D03*
X351Y396D03*
X371Y396D03*
X390Y396D03*
G54D23*
X341Y317D03*
G54D24*
X497Y56D03*
G54D25*
X175Y378D03*
X385Y473D03*
X608Y219D03*
X609Y271D03*
X608Y169D03*
G54D24*
X548Y56D03*
X598Y57D03*
G54D17*
X478Y1068D03*
X427Y1068D03*
G54D26*
X449Y644D03*
X449Y592D03*
G04 End of Mask0*
M02*