G04 MADE WITH FRITZING*
G04 WWW.FRITZING.ORG*
G04 DOUBLE SIDED*
G04 HOLES PLATED*
G04 CONTOUR ON CENTER OF CONTOUR VECTOR*
%ASAXBY*%
%FSLAX23Y23*%
%MOIN*%
%OFA0B0*%
%SFA1.0B1.0*%
%ADD10C,0.039370*%
%ADD11C,0.078000*%
%ADD12R,0.078000X0.078000*%
%ADD13R,0.031496X0.035433*%
%ADD14R,0.021654X0.047244*%
%ADD15R,0.078740X0.047244*%
%ADD16R,0.050000X0.057874*%
%ADD17R,0.043307X0.047244*%
%ADD18R,0.047244X0.043307*%
%ADD19R,0.031496X0.031496*%
%ADD20R,0.100000X0.032000*%
%ADD21R,0.035433X0.027559*%
%ADD22C,0.008000*%
%ADD23C,0.012000*%
%ADD24R,0.001000X0.001000*%
%LNCOPPER1*%
G90*
G70*
G54D10*
X633Y923D03*
G54D11*
X493Y512D03*
X493Y412D03*
G54D10*
X584Y874D03*
X334Y828D03*
X596Y820D03*
X118Y875D03*
X258Y871D03*
X256Y813D03*
X374Y770D03*
X454Y726D03*
X499Y773D03*
X499Y593D03*
X440Y51D03*
X496Y661D03*
G54D12*
X493Y512D03*
G54D13*
X527Y246D03*
X602Y246D03*
X564Y328D03*
G54D14*
X222Y429D03*
X259Y429D03*
X296Y429D03*
X296Y531D03*
X222Y531D03*
G54D15*
X380Y394D03*
X380Y520D03*
G54D16*
X467Y281D03*
X298Y281D03*
G54D17*
X134Y459D03*
X134Y526D03*
G54D18*
X372Y55D03*
X305Y55D03*
G54D19*
X241Y114D03*
X241Y55D03*
G54D18*
X231Y333D03*
X164Y333D03*
G54D20*
X600Y623D03*
X600Y673D03*
X600Y723D03*
X600Y773D03*
X600Y823D03*
X600Y873D03*
X600Y923D03*
X600Y973D03*
X72Y1123D03*
X72Y1073D03*
X72Y1023D03*
X72Y973D03*
X72Y923D03*
X72Y873D03*
X72Y823D03*
X72Y773D03*
X72Y723D03*
X72Y673D03*
X72Y623D03*
G54D14*
X122Y157D03*
X160Y157D03*
X197Y157D03*
X197Y259D03*
X122Y259D03*
G54D21*
X621Y126D03*
X621Y177D03*
X531Y151D03*
X531Y100D03*
G54D22*
X620Y923D02*
X600Y923D01*
D02*
X597Y873D02*
X600Y873D01*
D02*
X606Y828D02*
X600Y823D01*
D02*
X186Y753D02*
X155Y728D01*
D02*
X246Y805D02*
X186Y753D01*
D02*
X155Y728D02*
X117Y726D01*
D02*
X133Y777D02*
X117Y776D01*
D02*
X247Y863D02*
X133Y777D01*
G54D23*
D02*
X104Y875D02*
X117Y875D01*
G54D22*
D02*
X327Y839D02*
X273Y925D01*
D02*
X273Y925D02*
X117Y924D01*
D02*
X338Y368D02*
X351Y376D01*
D02*
X227Y537D02*
X336Y661D01*
D02*
X276Y369D02*
X338Y368D01*
D02*
X241Y393D02*
X276Y369D01*
D02*
X227Y419D02*
X241Y393D01*
D02*
X334Y764D02*
X334Y814D01*
D02*
X336Y661D02*
X334Y764D01*
D02*
X538Y159D02*
X593Y233D01*
D02*
X604Y377D02*
X602Y258D01*
D02*
X518Y412D02*
X577Y414D01*
D02*
X577Y414D02*
X604Y377D01*
D02*
X635Y321D02*
X634Y225D01*
D02*
X634Y225D02*
X624Y186D01*
D02*
X637Y464D02*
X635Y321D01*
D02*
X517Y511D02*
X602Y507D01*
D02*
X602Y507D02*
X637Y464D01*
D02*
X236Y244D02*
X232Y317D01*
D02*
X480Y207D02*
X283Y208D01*
D02*
X517Y237D02*
X480Y207D01*
D02*
X283Y208D02*
X236Y244D01*
D02*
X554Y323D02*
X487Y290D01*
D02*
X287Y55D02*
X259Y55D01*
D02*
X315Y304D02*
X367Y376D01*
D02*
X122Y278D02*
X122Y392D01*
D02*
X122Y392D02*
X131Y441D01*
D02*
X302Y530D02*
X346Y524D01*
D02*
X178Y498D02*
X226Y484D01*
D02*
X151Y516D02*
X178Y498D01*
D02*
X519Y93D02*
X452Y58D01*
D02*
X202Y157D02*
X519Y151D01*
D02*
X223Y114D02*
X153Y114D01*
D02*
X123Y128D02*
X123Y139D01*
D02*
X153Y114D02*
X123Y128D01*
D02*
X171Y317D02*
X192Y271D01*
D02*
X609Y123D02*
X544Y103D01*
D02*
X201Y482D02*
X227Y480D01*
D02*
X227Y480D02*
X254Y437D01*
D02*
X174Y388D02*
X179Y456D01*
D02*
X167Y349D02*
X174Y388D01*
D02*
X386Y682D02*
X375Y756D01*
D02*
X426Y632D02*
X386Y682D01*
D02*
X556Y626D02*
X426Y632D01*
D02*
X556Y724D02*
X467Y726D01*
D02*
X556Y773D02*
X513Y773D01*
D02*
X165Y172D02*
X192Y245D01*
D02*
X264Y440D02*
X283Y481D01*
D02*
X283Y481D02*
X467Y481D01*
D02*
X179Y456D02*
X201Y482D01*
D02*
X411Y598D02*
X486Y594D01*
D02*
X279Y592D02*
X411Y598D01*
D02*
X227Y537D02*
X279Y592D01*
D02*
X521Y540D02*
X510Y529D01*
D02*
X591Y613D02*
X521Y540D01*
D02*
X467Y481D02*
X477Y493D01*
D02*
X226Y484D02*
X254Y437D01*
D02*
X427Y52D02*
X390Y54D01*
D02*
X470Y698D02*
X488Y672D01*
D02*
X463Y710D02*
X470Y698D01*
G54D24*
X17Y1139D02*
X21Y1139D01*
X122Y1139D02*
X126Y1139D01*
X15Y1138D02*
X21Y1138D01*
X122Y1138D02*
X129Y1138D01*
X13Y1137D02*
X21Y1137D01*
X122Y1137D02*
X130Y1137D01*
X12Y1136D02*
X21Y1136D01*
X122Y1136D02*
X132Y1136D01*
X11Y1135D02*
X21Y1135D01*
X122Y1135D02*
X133Y1135D01*
X10Y1134D02*
X21Y1134D01*
X122Y1134D02*
X134Y1134D01*
X9Y1133D02*
X21Y1133D01*
X122Y1133D02*
X134Y1133D01*
X9Y1132D02*
X21Y1132D01*
X122Y1132D02*
X135Y1132D01*
X8Y1131D02*
X21Y1131D01*
X122Y1131D02*
X136Y1131D01*
X8Y1130D02*
X21Y1130D01*
X122Y1130D02*
X136Y1130D01*
X7Y1129D02*
X21Y1129D01*
X122Y1129D02*
X136Y1129D01*
X7Y1128D02*
X21Y1128D01*
X122Y1128D02*
X137Y1128D01*
X7Y1127D02*
X21Y1127D01*
X122Y1127D02*
X137Y1127D01*
X7Y1126D02*
X21Y1126D01*
X122Y1126D02*
X137Y1126D01*
X6Y1125D02*
X21Y1125D01*
X122Y1125D02*
X137Y1125D01*
X6Y1124D02*
X21Y1124D01*
X122Y1124D02*
X137Y1124D01*
X6Y1123D02*
X21Y1123D01*
X122Y1123D02*
X137Y1123D01*
X7Y1122D02*
X21Y1122D01*
X122Y1122D02*
X137Y1122D01*
X7Y1121D02*
X21Y1121D01*
X122Y1121D02*
X137Y1121D01*
X7Y1120D02*
X21Y1120D01*
X122Y1120D02*
X137Y1120D01*
X7Y1119D02*
X21Y1119D01*
X122Y1119D02*
X137Y1119D01*
X8Y1118D02*
X21Y1118D01*
X122Y1118D02*
X136Y1118D01*
X8Y1117D02*
X21Y1117D01*
X122Y1117D02*
X136Y1117D01*
X8Y1116D02*
X21Y1116D01*
X122Y1116D02*
X135Y1116D01*
X9Y1115D02*
X21Y1115D01*
X122Y1115D02*
X135Y1115D01*
X10Y1114D02*
X21Y1114D01*
X122Y1114D02*
X134Y1114D01*
X11Y1113D02*
X21Y1113D01*
X122Y1113D02*
X133Y1113D01*
X12Y1112D02*
X21Y1112D01*
X122Y1112D02*
X132Y1112D01*
X13Y1111D02*
X21Y1111D01*
X122Y1111D02*
X131Y1111D01*
X14Y1110D02*
X21Y1110D01*
X122Y1110D02*
X129Y1110D01*
X16Y1109D02*
X21Y1109D01*
X122Y1109D02*
X127Y1109D01*
X20Y1108D02*
X21Y1108D01*
X123Y1108D02*
X124Y1108D01*
X17Y1089D02*
X21Y1089D01*
X122Y1089D02*
X126Y1089D01*
X15Y1088D02*
X21Y1088D01*
X122Y1088D02*
X129Y1088D01*
X13Y1087D02*
X21Y1087D01*
X122Y1087D02*
X130Y1087D01*
X12Y1086D02*
X21Y1086D01*
X122Y1086D02*
X132Y1086D01*
X11Y1085D02*
X21Y1085D01*
X122Y1085D02*
X133Y1085D01*
X10Y1084D02*
X21Y1084D01*
X122Y1084D02*
X134Y1084D01*
X9Y1083D02*
X21Y1083D01*
X122Y1083D02*
X134Y1083D01*
X9Y1082D02*
X21Y1082D01*
X122Y1082D02*
X135Y1082D01*
X8Y1081D02*
X21Y1081D01*
X122Y1081D02*
X136Y1081D01*
X8Y1080D02*
X21Y1080D01*
X122Y1080D02*
X136Y1080D01*
X7Y1079D02*
X21Y1079D01*
X122Y1079D02*
X136Y1079D01*
X7Y1078D02*
X21Y1078D01*
X122Y1078D02*
X137Y1078D01*
X7Y1077D02*
X21Y1077D01*
X122Y1077D02*
X137Y1077D01*
X7Y1076D02*
X21Y1076D01*
X122Y1076D02*
X137Y1076D01*
X6Y1075D02*
X21Y1075D01*
X122Y1075D02*
X137Y1075D01*
X6Y1074D02*
X21Y1074D01*
X122Y1074D02*
X137Y1074D01*
X6Y1073D02*
X21Y1073D01*
X122Y1073D02*
X137Y1073D01*
X7Y1072D02*
X21Y1072D01*
X122Y1072D02*
X137Y1072D01*
X7Y1071D02*
X21Y1071D01*
X122Y1071D02*
X137Y1071D01*
X7Y1070D02*
X21Y1070D01*
X122Y1070D02*
X137Y1070D01*
X7Y1069D02*
X21Y1069D01*
X122Y1069D02*
X137Y1069D01*
X8Y1068D02*
X21Y1068D01*
X122Y1068D02*
X136Y1068D01*
X8Y1067D02*
X21Y1067D01*
X122Y1067D02*
X136Y1067D01*
X8Y1066D02*
X21Y1066D01*
X122Y1066D02*
X135Y1066D01*
X9Y1065D02*
X21Y1065D01*
X122Y1065D02*
X135Y1065D01*
X10Y1064D02*
X21Y1064D01*
X122Y1064D02*
X134Y1064D01*
X11Y1063D02*
X21Y1063D01*
X122Y1063D02*
X133Y1063D01*
X12Y1062D02*
X21Y1062D01*
X122Y1062D02*
X132Y1062D01*
X13Y1061D02*
X21Y1061D01*
X122Y1061D02*
X131Y1061D01*
X14Y1060D02*
X21Y1060D01*
X122Y1060D02*
X129Y1060D01*
X16Y1059D02*
X21Y1059D01*
X122Y1059D02*
X127Y1059D01*
X20Y1058D02*
X21Y1058D01*
X123Y1058D02*
X124Y1058D01*
X17Y1039D02*
X21Y1039D01*
X122Y1039D02*
X126Y1039D01*
X15Y1038D02*
X21Y1038D01*
X122Y1038D02*
X129Y1038D01*
X13Y1037D02*
X21Y1037D01*
X122Y1037D02*
X130Y1037D01*
X12Y1036D02*
X21Y1036D01*
X122Y1036D02*
X132Y1036D01*
X11Y1035D02*
X21Y1035D01*
X122Y1035D02*
X133Y1035D01*
X10Y1034D02*
X21Y1034D01*
X122Y1034D02*
X134Y1034D01*
X9Y1033D02*
X21Y1033D01*
X122Y1033D02*
X134Y1033D01*
X9Y1032D02*
X21Y1032D01*
X122Y1032D02*
X135Y1032D01*
X8Y1031D02*
X21Y1031D01*
X122Y1031D02*
X136Y1031D01*
X8Y1030D02*
X21Y1030D01*
X122Y1030D02*
X136Y1030D01*
X7Y1029D02*
X21Y1029D01*
X122Y1029D02*
X136Y1029D01*
X7Y1028D02*
X21Y1028D01*
X122Y1028D02*
X137Y1028D01*
X7Y1027D02*
X21Y1027D01*
X122Y1027D02*
X137Y1027D01*
X7Y1026D02*
X21Y1026D01*
X122Y1026D02*
X137Y1026D01*
X6Y1025D02*
X21Y1025D01*
X122Y1025D02*
X137Y1025D01*
X6Y1024D02*
X21Y1024D01*
X122Y1024D02*
X137Y1024D01*
X6Y1023D02*
X21Y1023D01*
X122Y1023D02*
X137Y1023D01*
X7Y1022D02*
X21Y1022D01*
X122Y1022D02*
X137Y1022D01*
X7Y1021D02*
X21Y1021D01*
X122Y1021D02*
X137Y1021D01*
X7Y1020D02*
X21Y1020D01*
X122Y1020D02*
X137Y1020D01*
X7Y1019D02*
X21Y1019D01*
X122Y1019D02*
X137Y1019D01*
X8Y1018D02*
X21Y1018D01*
X122Y1018D02*
X136Y1018D01*
X8Y1017D02*
X21Y1017D01*
X122Y1017D02*
X136Y1017D01*
X8Y1016D02*
X21Y1016D01*
X122Y1016D02*
X135Y1016D01*
X9Y1015D02*
X21Y1015D01*
X122Y1015D02*
X135Y1015D01*
X10Y1014D02*
X21Y1014D01*
X122Y1014D02*
X134Y1014D01*
X11Y1013D02*
X21Y1013D01*
X122Y1013D02*
X133Y1013D01*
X12Y1012D02*
X21Y1012D01*
X122Y1012D02*
X132Y1012D01*
X13Y1011D02*
X21Y1011D01*
X122Y1011D02*
X131Y1011D01*
X14Y1010D02*
X21Y1010D01*
X122Y1010D02*
X129Y1010D01*
X16Y1009D02*
X21Y1009D01*
X122Y1009D02*
X127Y1009D01*
X20Y1008D02*
X21Y1008D01*
X123Y1008D02*
X124Y1008D01*
X17Y989D02*
X21Y989D01*
X122Y989D02*
X126Y989D01*
X545Y989D02*
X549Y989D01*
X650Y989D02*
X654Y989D01*
X15Y988D02*
X21Y988D01*
X122Y988D02*
X129Y988D01*
X543Y988D02*
X549Y988D01*
X650Y988D02*
X657Y988D01*
X13Y987D02*
X21Y987D01*
X122Y987D02*
X130Y987D01*
X541Y987D02*
X549Y987D01*
X650Y987D02*
X658Y987D01*
X12Y986D02*
X21Y986D01*
X122Y986D02*
X132Y986D01*
X540Y986D02*
X549Y986D01*
X650Y986D02*
X660Y986D01*
X11Y985D02*
X21Y985D01*
X122Y985D02*
X133Y985D01*
X539Y985D02*
X549Y985D01*
X650Y985D02*
X661Y985D01*
X10Y984D02*
X21Y984D01*
X122Y984D02*
X134Y984D01*
X538Y984D02*
X549Y984D01*
X650Y984D02*
X661Y984D01*
X9Y983D02*
X21Y983D01*
X122Y983D02*
X134Y983D01*
X537Y983D02*
X549Y983D01*
X650Y983D02*
X662Y983D01*
X9Y982D02*
X21Y982D01*
X122Y982D02*
X135Y982D01*
X536Y982D02*
X549Y982D01*
X650Y982D02*
X663Y982D01*
X8Y981D02*
X21Y981D01*
X122Y981D02*
X136Y981D01*
X536Y981D02*
X549Y981D01*
X650Y981D02*
X663Y981D01*
X8Y980D02*
X21Y980D01*
X122Y980D02*
X136Y980D01*
X535Y980D02*
X549Y980D01*
X650Y980D02*
X664Y980D01*
X7Y979D02*
X21Y979D01*
X122Y979D02*
X136Y979D01*
X535Y979D02*
X549Y979D01*
X650Y979D02*
X664Y979D01*
X7Y978D02*
X21Y978D01*
X122Y978D02*
X137Y978D01*
X535Y978D02*
X549Y978D01*
X650Y978D02*
X665Y978D01*
X7Y977D02*
X21Y977D01*
X122Y977D02*
X137Y977D01*
X535Y977D02*
X549Y977D01*
X650Y977D02*
X665Y977D01*
X7Y976D02*
X21Y976D01*
X122Y976D02*
X137Y976D01*
X534Y976D02*
X549Y976D01*
X650Y976D02*
X665Y976D01*
X6Y975D02*
X21Y975D01*
X122Y975D02*
X137Y975D01*
X534Y975D02*
X549Y975D01*
X650Y975D02*
X665Y975D01*
X6Y974D02*
X21Y974D01*
X122Y974D02*
X137Y974D01*
X534Y974D02*
X549Y974D01*
X650Y974D02*
X665Y974D01*
X6Y973D02*
X21Y973D01*
X122Y973D02*
X137Y973D01*
X534Y973D02*
X549Y973D01*
X650Y973D02*
X665Y973D01*
X7Y972D02*
X21Y972D01*
X122Y972D02*
X137Y972D01*
X534Y972D02*
X549Y972D01*
X650Y972D02*
X665Y972D01*
X7Y971D02*
X21Y971D01*
X122Y971D02*
X137Y971D01*
X534Y971D02*
X549Y971D01*
X650Y971D02*
X665Y971D01*
X7Y970D02*
X21Y970D01*
X122Y970D02*
X137Y970D01*
X535Y970D02*
X549Y970D01*
X650Y970D02*
X665Y970D01*
X7Y969D02*
X21Y969D01*
X122Y969D02*
X137Y969D01*
X535Y969D02*
X549Y969D01*
X650Y969D02*
X664Y969D01*
X8Y968D02*
X21Y968D01*
X122Y968D02*
X136Y968D01*
X535Y968D02*
X549Y968D01*
X650Y968D02*
X664Y968D01*
X8Y967D02*
X21Y967D01*
X122Y967D02*
X136Y967D01*
X536Y967D02*
X549Y967D01*
X650Y967D02*
X664Y967D01*
X8Y966D02*
X21Y966D01*
X122Y966D02*
X135Y966D01*
X536Y966D02*
X549Y966D01*
X650Y966D02*
X663Y966D01*
X9Y965D02*
X21Y965D01*
X122Y965D02*
X135Y965D01*
X537Y965D02*
X549Y965D01*
X650Y965D02*
X662Y965D01*
X10Y964D02*
X21Y964D01*
X122Y964D02*
X134Y964D01*
X538Y964D02*
X549Y964D01*
X650Y964D02*
X662Y964D01*
X11Y963D02*
X21Y963D01*
X122Y963D02*
X133Y963D01*
X538Y963D02*
X549Y963D01*
X650Y963D02*
X661Y963D01*
X12Y962D02*
X21Y962D01*
X122Y962D02*
X132Y962D01*
X539Y962D02*
X549Y962D01*
X650Y962D02*
X660Y962D01*
X13Y961D02*
X21Y961D01*
X122Y961D02*
X131Y961D01*
X541Y961D02*
X549Y961D01*
X650Y961D02*
X659Y961D01*
X14Y960D02*
X21Y960D01*
X122Y960D02*
X129Y960D01*
X542Y960D02*
X549Y960D01*
X650Y960D02*
X657Y960D01*
X16Y959D02*
X21Y959D01*
X122Y959D02*
X127Y959D01*
X544Y959D02*
X549Y959D01*
X650Y959D02*
X655Y959D01*
X20Y958D02*
X21Y958D01*
X123Y958D02*
X124Y958D01*
X548Y958D02*
X549Y958D01*
X650Y958D02*
X651Y958D01*
X17Y939D02*
X21Y939D01*
X122Y939D02*
X126Y939D01*
X545Y939D02*
X549Y939D01*
X650Y939D02*
X654Y939D01*
X15Y938D02*
X21Y938D01*
X122Y938D02*
X129Y938D01*
X543Y938D02*
X549Y938D01*
X650Y938D02*
X657Y938D01*
X13Y937D02*
X21Y937D01*
X122Y937D02*
X130Y937D01*
X541Y937D02*
X549Y937D01*
X650Y937D02*
X658Y937D01*
X12Y936D02*
X21Y936D01*
X122Y936D02*
X132Y936D01*
X540Y936D02*
X549Y936D01*
X650Y936D02*
X660Y936D01*
X11Y935D02*
X21Y935D01*
X122Y935D02*
X133Y935D01*
X539Y935D02*
X549Y935D01*
X650Y935D02*
X661Y935D01*
X10Y934D02*
X21Y934D01*
X122Y934D02*
X134Y934D01*
X538Y934D02*
X549Y934D01*
X650Y934D02*
X661Y934D01*
X9Y933D02*
X21Y933D01*
X122Y933D02*
X134Y933D01*
X537Y933D02*
X549Y933D01*
X650Y933D02*
X662Y933D01*
X9Y932D02*
X21Y932D01*
X122Y932D02*
X135Y932D01*
X536Y932D02*
X549Y932D01*
X650Y932D02*
X663Y932D01*
X8Y931D02*
X21Y931D01*
X122Y931D02*
X136Y931D01*
X536Y931D02*
X549Y931D01*
X650Y931D02*
X663Y931D01*
X8Y930D02*
X21Y930D01*
X122Y930D02*
X136Y930D01*
X535Y930D02*
X549Y930D01*
X650Y930D02*
X664Y930D01*
X7Y929D02*
X21Y929D01*
X122Y929D02*
X136Y929D01*
X535Y929D02*
X549Y929D01*
X650Y929D02*
X664Y929D01*
X7Y928D02*
X21Y928D01*
X122Y928D02*
X137Y928D01*
X535Y928D02*
X549Y928D01*
X650Y928D02*
X665Y928D01*
X7Y927D02*
X21Y927D01*
X122Y927D02*
X137Y927D01*
X535Y927D02*
X549Y927D01*
X650Y927D02*
X665Y927D01*
X7Y926D02*
X21Y926D01*
X122Y926D02*
X137Y926D01*
X534Y926D02*
X549Y926D01*
X650Y926D02*
X665Y926D01*
X6Y925D02*
X21Y925D01*
X122Y925D02*
X137Y925D01*
X534Y925D02*
X549Y925D01*
X650Y925D02*
X665Y925D01*
X6Y924D02*
X21Y924D01*
X122Y924D02*
X137Y924D01*
X534Y924D02*
X549Y924D01*
X650Y924D02*
X665Y924D01*
X6Y923D02*
X21Y923D01*
X122Y923D02*
X137Y923D01*
X534Y923D02*
X549Y923D01*
X650Y923D02*
X665Y923D01*
X7Y922D02*
X21Y922D01*
X122Y922D02*
X137Y922D01*
X534Y922D02*
X549Y922D01*
X650Y922D02*
X665Y922D01*
X7Y921D02*
X21Y921D01*
X122Y921D02*
X137Y921D01*
X534Y921D02*
X549Y921D01*
X650Y921D02*
X665Y921D01*
X7Y920D02*
X21Y920D01*
X122Y920D02*
X137Y920D01*
X535Y920D02*
X549Y920D01*
X650Y920D02*
X665Y920D01*
X7Y919D02*
X21Y919D01*
X122Y919D02*
X137Y919D01*
X535Y919D02*
X549Y919D01*
X650Y919D02*
X664Y919D01*
X8Y918D02*
X21Y918D01*
X122Y918D02*
X136Y918D01*
X535Y918D02*
X549Y918D01*
X650Y918D02*
X664Y918D01*
X8Y917D02*
X21Y917D01*
X122Y917D02*
X136Y917D01*
X536Y917D02*
X549Y917D01*
X650Y917D02*
X664Y917D01*
X8Y916D02*
X21Y916D01*
X122Y916D02*
X135Y916D01*
X536Y916D02*
X549Y916D01*
X650Y916D02*
X663Y916D01*
X9Y915D02*
X21Y915D01*
X122Y915D02*
X135Y915D01*
X537Y915D02*
X549Y915D01*
X650Y915D02*
X662Y915D01*
X10Y914D02*
X21Y914D01*
X122Y914D02*
X134Y914D01*
X538Y914D02*
X549Y914D01*
X650Y914D02*
X662Y914D01*
X11Y913D02*
X21Y913D01*
X122Y913D02*
X133Y913D01*
X538Y913D02*
X549Y913D01*
X650Y913D02*
X661Y913D01*
X12Y912D02*
X21Y912D01*
X122Y912D02*
X132Y912D01*
X539Y912D02*
X549Y912D01*
X650Y912D02*
X660Y912D01*
X13Y911D02*
X21Y911D01*
X122Y911D02*
X131Y911D01*
X541Y911D02*
X549Y911D01*
X650Y911D02*
X659Y911D01*
X14Y910D02*
X21Y910D01*
X122Y910D02*
X129Y910D01*
X542Y910D02*
X549Y910D01*
X650Y910D02*
X657Y910D01*
X16Y909D02*
X21Y909D01*
X122Y909D02*
X127Y909D01*
X544Y909D02*
X549Y909D01*
X650Y909D02*
X655Y909D01*
X20Y908D02*
X21Y908D01*
X123Y908D02*
X124Y908D01*
X548Y908D02*
X549Y908D01*
X650Y908D02*
X651Y908D01*
X17Y889D02*
X21Y889D01*
X122Y889D02*
X126Y889D01*
X545Y889D02*
X549Y889D01*
X650Y889D02*
X654Y889D01*
X15Y888D02*
X21Y888D01*
X122Y888D02*
X129Y888D01*
X543Y888D02*
X549Y888D01*
X650Y888D02*
X657Y888D01*
X13Y887D02*
X21Y887D01*
X122Y887D02*
X130Y887D01*
X541Y887D02*
X549Y887D01*
X650Y887D02*
X658Y887D01*
X12Y886D02*
X21Y886D01*
X122Y886D02*
X132Y886D01*
X540Y886D02*
X549Y886D01*
X650Y886D02*
X660Y886D01*
X11Y885D02*
X21Y885D01*
X122Y885D02*
X133Y885D01*
X539Y885D02*
X549Y885D01*
X650Y885D02*
X661Y885D01*
X10Y884D02*
X21Y884D01*
X122Y884D02*
X134Y884D01*
X538Y884D02*
X549Y884D01*
X650Y884D02*
X661Y884D01*
X9Y883D02*
X21Y883D01*
X122Y883D02*
X134Y883D01*
X537Y883D02*
X549Y883D01*
X650Y883D02*
X662Y883D01*
X9Y882D02*
X21Y882D01*
X122Y882D02*
X135Y882D01*
X536Y882D02*
X549Y882D01*
X650Y882D02*
X663Y882D01*
X8Y881D02*
X21Y881D01*
X122Y881D02*
X136Y881D01*
X536Y881D02*
X549Y881D01*
X650Y881D02*
X663Y881D01*
X8Y880D02*
X21Y880D01*
X122Y880D02*
X136Y880D01*
X535Y880D02*
X549Y880D01*
X650Y880D02*
X664Y880D01*
X7Y879D02*
X21Y879D01*
X122Y879D02*
X136Y879D01*
X535Y879D02*
X549Y879D01*
X650Y879D02*
X664Y879D01*
X7Y878D02*
X21Y878D01*
X122Y878D02*
X137Y878D01*
X535Y878D02*
X549Y878D01*
X650Y878D02*
X665Y878D01*
X7Y877D02*
X21Y877D01*
X122Y877D02*
X137Y877D01*
X535Y877D02*
X549Y877D01*
X650Y877D02*
X665Y877D01*
X7Y876D02*
X21Y876D01*
X122Y876D02*
X137Y876D01*
X534Y876D02*
X549Y876D01*
X650Y876D02*
X665Y876D01*
X6Y875D02*
X21Y875D01*
X122Y875D02*
X137Y875D01*
X534Y875D02*
X549Y875D01*
X650Y875D02*
X665Y875D01*
X6Y874D02*
X21Y874D01*
X122Y874D02*
X137Y874D01*
X534Y874D02*
X549Y874D01*
X650Y874D02*
X665Y874D01*
X6Y873D02*
X21Y873D01*
X122Y873D02*
X137Y873D01*
X534Y873D02*
X549Y873D01*
X650Y873D02*
X665Y873D01*
X7Y872D02*
X21Y872D01*
X122Y872D02*
X137Y872D01*
X534Y872D02*
X549Y872D01*
X650Y872D02*
X665Y872D01*
X7Y871D02*
X21Y871D01*
X122Y871D02*
X137Y871D01*
X534Y871D02*
X549Y871D01*
X650Y871D02*
X665Y871D01*
X7Y870D02*
X21Y870D01*
X122Y870D02*
X137Y870D01*
X535Y870D02*
X549Y870D01*
X650Y870D02*
X665Y870D01*
X7Y869D02*
X21Y869D01*
X122Y869D02*
X137Y869D01*
X535Y869D02*
X549Y869D01*
X650Y869D02*
X664Y869D01*
X8Y868D02*
X21Y868D01*
X122Y868D02*
X136Y868D01*
X535Y868D02*
X549Y868D01*
X650Y868D02*
X664Y868D01*
X8Y867D02*
X21Y867D01*
X122Y867D02*
X136Y867D01*
X536Y867D02*
X549Y867D01*
X650Y867D02*
X664Y867D01*
X8Y866D02*
X21Y866D01*
X122Y866D02*
X135Y866D01*
X536Y866D02*
X549Y866D01*
X650Y866D02*
X663Y866D01*
X9Y865D02*
X21Y865D01*
X122Y865D02*
X135Y865D01*
X537Y865D02*
X549Y865D01*
X650Y865D02*
X662Y865D01*
X10Y864D02*
X21Y864D01*
X122Y864D02*
X134Y864D01*
X538Y864D02*
X549Y864D01*
X650Y864D02*
X662Y864D01*
X11Y863D02*
X21Y863D01*
X122Y863D02*
X133Y863D01*
X538Y863D02*
X549Y863D01*
X650Y863D02*
X661Y863D01*
X12Y862D02*
X21Y862D01*
X122Y862D02*
X132Y862D01*
X539Y862D02*
X549Y862D01*
X650Y862D02*
X660Y862D01*
X13Y861D02*
X21Y861D01*
X122Y861D02*
X131Y861D01*
X541Y861D02*
X549Y861D01*
X650Y861D02*
X659Y861D01*
X14Y860D02*
X21Y860D01*
X122Y860D02*
X129Y860D01*
X542Y860D02*
X549Y860D01*
X650Y860D02*
X657Y860D01*
X16Y859D02*
X21Y859D01*
X122Y859D02*
X127Y859D01*
X544Y859D02*
X549Y859D01*
X650Y859D02*
X655Y859D01*
X20Y858D02*
X21Y858D01*
X123Y858D02*
X124Y858D01*
X548Y858D02*
X549Y858D01*
X650Y858D02*
X651Y858D01*
X17Y839D02*
X21Y839D01*
X122Y839D02*
X126Y839D01*
X545Y839D02*
X549Y839D01*
X650Y839D02*
X654Y839D01*
X15Y838D02*
X21Y838D01*
X122Y838D02*
X129Y838D01*
X543Y838D02*
X549Y838D01*
X650Y838D02*
X657Y838D01*
X13Y837D02*
X21Y837D01*
X122Y837D02*
X130Y837D01*
X541Y837D02*
X549Y837D01*
X650Y837D02*
X658Y837D01*
X12Y836D02*
X21Y836D01*
X122Y836D02*
X132Y836D01*
X540Y836D02*
X549Y836D01*
X650Y836D02*
X660Y836D01*
X11Y835D02*
X21Y835D01*
X122Y835D02*
X133Y835D01*
X539Y835D02*
X549Y835D01*
X650Y835D02*
X661Y835D01*
X10Y834D02*
X21Y834D01*
X122Y834D02*
X134Y834D01*
X538Y834D02*
X549Y834D01*
X650Y834D02*
X661Y834D01*
X9Y833D02*
X21Y833D01*
X122Y833D02*
X134Y833D01*
X537Y833D02*
X549Y833D01*
X650Y833D02*
X662Y833D01*
X9Y832D02*
X21Y832D01*
X122Y832D02*
X135Y832D01*
X536Y832D02*
X549Y832D01*
X650Y832D02*
X663Y832D01*
X8Y831D02*
X21Y831D01*
X122Y831D02*
X136Y831D01*
X536Y831D02*
X549Y831D01*
X650Y831D02*
X663Y831D01*
X8Y830D02*
X21Y830D01*
X122Y830D02*
X136Y830D01*
X535Y830D02*
X549Y830D01*
X650Y830D02*
X664Y830D01*
X7Y829D02*
X21Y829D01*
X122Y829D02*
X136Y829D01*
X535Y829D02*
X549Y829D01*
X650Y829D02*
X664Y829D01*
X7Y828D02*
X21Y828D01*
X122Y828D02*
X137Y828D01*
X535Y828D02*
X549Y828D01*
X650Y828D02*
X665Y828D01*
X7Y827D02*
X21Y827D01*
X122Y827D02*
X137Y827D01*
X535Y827D02*
X549Y827D01*
X650Y827D02*
X665Y827D01*
X7Y826D02*
X21Y826D01*
X122Y826D02*
X137Y826D01*
X534Y826D02*
X549Y826D01*
X650Y826D02*
X665Y826D01*
X6Y825D02*
X21Y825D01*
X122Y825D02*
X137Y825D01*
X534Y825D02*
X549Y825D01*
X650Y825D02*
X665Y825D01*
X6Y824D02*
X21Y824D01*
X122Y824D02*
X137Y824D01*
X534Y824D02*
X549Y824D01*
X650Y824D02*
X665Y824D01*
X6Y823D02*
X21Y823D01*
X122Y823D02*
X137Y823D01*
X534Y823D02*
X549Y823D01*
X650Y823D02*
X665Y823D01*
X7Y822D02*
X21Y822D01*
X122Y822D02*
X137Y822D01*
X534Y822D02*
X549Y822D01*
X650Y822D02*
X665Y822D01*
X7Y821D02*
X21Y821D01*
X122Y821D02*
X137Y821D01*
X534Y821D02*
X549Y821D01*
X650Y821D02*
X665Y821D01*
X7Y820D02*
X21Y820D01*
X122Y820D02*
X137Y820D01*
X535Y820D02*
X549Y820D01*
X650Y820D02*
X665Y820D01*
X7Y819D02*
X21Y819D01*
X122Y819D02*
X137Y819D01*
X535Y819D02*
X549Y819D01*
X650Y819D02*
X664Y819D01*
X8Y818D02*
X21Y818D01*
X122Y818D02*
X136Y818D01*
X535Y818D02*
X549Y818D01*
X650Y818D02*
X664Y818D01*
X8Y817D02*
X21Y817D01*
X122Y817D02*
X136Y817D01*
X536Y817D02*
X549Y817D01*
X650Y817D02*
X664Y817D01*
X8Y816D02*
X21Y816D01*
X122Y816D02*
X135Y816D01*
X536Y816D02*
X549Y816D01*
X650Y816D02*
X663Y816D01*
X9Y815D02*
X21Y815D01*
X122Y815D02*
X135Y815D01*
X537Y815D02*
X549Y815D01*
X650Y815D02*
X662Y815D01*
X10Y814D02*
X21Y814D01*
X122Y814D02*
X134Y814D01*
X538Y814D02*
X549Y814D01*
X650Y814D02*
X662Y814D01*
X11Y813D02*
X21Y813D01*
X122Y813D02*
X133Y813D01*
X538Y813D02*
X549Y813D01*
X650Y813D02*
X661Y813D01*
X12Y812D02*
X21Y812D01*
X122Y812D02*
X132Y812D01*
X539Y812D02*
X549Y812D01*
X650Y812D02*
X660Y812D01*
X13Y811D02*
X21Y811D01*
X122Y811D02*
X131Y811D01*
X541Y811D02*
X549Y811D01*
X650Y811D02*
X659Y811D01*
X14Y810D02*
X21Y810D01*
X122Y810D02*
X129Y810D01*
X542Y810D02*
X549Y810D01*
X650Y810D02*
X657Y810D01*
X16Y809D02*
X21Y809D01*
X122Y809D02*
X127Y809D01*
X544Y809D02*
X549Y809D01*
X650Y809D02*
X655Y809D01*
X20Y808D02*
X21Y808D01*
X123Y808D02*
X124Y808D01*
X548Y808D02*
X549Y808D01*
X650Y808D02*
X651Y808D01*
X17Y789D02*
X21Y789D01*
X122Y789D02*
X127Y789D01*
X545Y789D02*
X549Y789D01*
X650Y789D02*
X654Y789D01*
X15Y788D02*
X21Y788D01*
X122Y788D02*
X129Y788D01*
X543Y788D02*
X549Y788D01*
X650Y788D02*
X657Y788D01*
X13Y787D02*
X21Y787D01*
X122Y787D02*
X130Y787D01*
X541Y787D02*
X549Y787D01*
X650Y787D02*
X658Y787D01*
X12Y786D02*
X21Y786D01*
X122Y786D02*
X132Y786D01*
X540Y786D02*
X549Y786D01*
X650Y786D02*
X660Y786D01*
X11Y785D02*
X21Y785D01*
X122Y785D02*
X133Y785D01*
X539Y785D02*
X549Y785D01*
X650Y785D02*
X661Y785D01*
X10Y784D02*
X21Y784D01*
X122Y784D02*
X134Y784D01*
X538Y784D02*
X549Y784D01*
X650Y784D02*
X661Y784D01*
X9Y783D02*
X21Y783D01*
X122Y783D02*
X134Y783D01*
X537Y783D02*
X549Y783D01*
X650Y783D02*
X662Y783D01*
X9Y782D02*
X21Y782D01*
X122Y782D02*
X135Y782D01*
X536Y782D02*
X549Y782D01*
X650Y782D02*
X663Y782D01*
X8Y781D02*
X21Y781D01*
X122Y781D02*
X136Y781D01*
X536Y781D02*
X549Y781D01*
X650Y781D02*
X663Y781D01*
X8Y780D02*
X21Y780D01*
X122Y780D02*
X136Y780D01*
X535Y780D02*
X549Y780D01*
X650Y780D02*
X664Y780D01*
X7Y779D02*
X21Y779D01*
X122Y779D02*
X136Y779D01*
X535Y779D02*
X549Y779D01*
X650Y779D02*
X664Y779D01*
X7Y778D02*
X21Y778D01*
X122Y778D02*
X137Y778D01*
X535Y778D02*
X549Y778D01*
X650Y778D02*
X665Y778D01*
X7Y777D02*
X21Y777D01*
X122Y777D02*
X137Y777D01*
X534Y777D02*
X549Y777D01*
X650Y777D02*
X665Y777D01*
X7Y776D02*
X21Y776D01*
X122Y776D02*
X137Y776D01*
X534Y776D02*
X549Y776D01*
X650Y776D02*
X665Y776D01*
X6Y775D02*
X21Y775D01*
X122Y775D02*
X137Y775D01*
X534Y775D02*
X549Y775D01*
X650Y775D02*
X665Y775D01*
X6Y774D02*
X21Y774D01*
X122Y774D02*
X137Y774D01*
X534Y774D02*
X549Y774D01*
X650Y774D02*
X665Y774D01*
X6Y773D02*
X21Y773D01*
X122Y773D02*
X137Y773D01*
X534Y773D02*
X549Y773D01*
X650Y773D02*
X665Y773D01*
X7Y772D02*
X21Y772D01*
X122Y772D02*
X137Y772D01*
X534Y772D02*
X549Y772D01*
X650Y772D02*
X665Y772D01*
X7Y771D02*
X21Y771D01*
X122Y771D02*
X137Y771D01*
X534Y771D02*
X549Y771D01*
X650Y771D02*
X665Y771D01*
X7Y770D02*
X21Y770D01*
X122Y770D02*
X137Y770D01*
X535Y770D02*
X549Y770D01*
X650Y770D02*
X665Y770D01*
X7Y769D02*
X21Y769D01*
X122Y769D02*
X137Y769D01*
X535Y769D02*
X549Y769D01*
X650Y769D02*
X664Y769D01*
X8Y768D02*
X21Y768D01*
X122Y768D02*
X136Y768D01*
X535Y768D02*
X549Y768D01*
X650Y768D02*
X664Y768D01*
X8Y767D02*
X21Y767D01*
X122Y767D02*
X136Y767D01*
X536Y767D02*
X549Y767D01*
X650Y767D02*
X664Y767D01*
X8Y766D02*
X21Y766D01*
X122Y766D02*
X135Y766D01*
X536Y766D02*
X549Y766D01*
X650Y766D02*
X663Y766D01*
X9Y765D02*
X21Y765D01*
X122Y765D02*
X135Y765D01*
X537Y765D02*
X549Y765D01*
X650Y765D02*
X662Y765D01*
X10Y764D02*
X21Y764D01*
X122Y764D02*
X134Y764D01*
X538Y764D02*
X549Y764D01*
X650Y764D02*
X662Y764D01*
X11Y763D02*
X21Y763D01*
X122Y763D02*
X133Y763D01*
X538Y763D02*
X549Y763D01*
X650Y763D02*
X661Y763D01*
X12Y762D02*
X21Y762D01*
X122Y762D02*
X132Y762D01*
X539Y762D02*
X549Y762D01*
X650Y762D02*
X660Y762D01*
X13Y761D02*
X21Y761D01*
X122Y761D02*
X131Y761D01*
X541Y761D02*
X549Y761D01*
X650Y761D02*
X659Y761D01*
X14Y760D02*
X21Y760D01*
X122Y760D02*
X129Y760D01*
X542Y760D02*
X549Y760D01*
X650Y760D02*
X657Y760D01*
X16Y759D02*
X21Y759D01*
X122Y759D02*
X127Y759D01*
X544Y759D02*
X549Y759D01*
X650Y759D02*
X655Y759D01*
X20Y758D02*
X21Y758D01*
X123Y758D02*
X124Y758D01*
X548Y758D02*
X549Y758D01*
X650Y758D02*
X651Y758D01*
X17Y739D02*
X21Y739D01*
X122Y739D02*
X127Y739D01*
X545Y739D02*
X549Y739D01*
X650Y739D02*
X654Y739D01*
X15Y738D02*
X21Y738D01*
X122Y738D02*
X129Y738D01*
X543Y738D02*
X549Y738D01*
X650Y738D02*
X657Y738D01*
X13Y737D02*
X21Y737D01*
X122Y737D02*
X130Y737D01*
X541Y737D02*
X549Y737D01*
X650Y737D02*
X658Y737D01*
X12Y736D02*
X21Y736D01*
X122Y736D02*
X132Y736D01*
X540Y736D02*
X549Y736D01*
X650Y736D02*
X660Y736D01*
X11Y735D02*
X21Y735D01*
X122Y735D02*
X133Y735D01*
X539Y735D02*
X549Y735D01*
X650Y735D02*
X661Y735D01*
X10Y734D02*
X21Y734D01*
X122Y734D02*
X134Y734D01*
X538Y734D02*
X549Y734D01*
X650Y734D02*
X661Y734D01*
X9Y733D02*
X21Y733D01*
X122Y733D02*
X134Y733D01*
X537Y733D02*
X549Y733D01*
X650Y733D02*
X662Y733D01*
X9Y732D02*
X21Y732D01*
X122Y732D02*
X135Y732D01*
X536Y732D02*
X549Y732D01*
X650Y732D02*
X663Y732D01*
X8Y731D02*
X21Y731D01*
X122Y731D02*
X136Y731D01*
X536Y731D02*
X549Y731D01*
X650Y731D02*
X663Y731D01*
X8Y730D02*
X21Y730D01*
X122Y730D02*
X136Y730D01*
X535Y730D02*
X549Y730D01*
X650Y730D02*
X664Y730D01*
X7Y729D02*
X21Y729D01*
X122Y729D02*
X136Y729D01*
X535Y729D02*
X549Y729D01*
X650Y729D02*
X664Y729D01*
X7Y728D02*
X21Y728D01*
X122Y728D02*
X137Y728D01*
X535Y728D02*
X549Y728D01*
X650Y728D02*
X665Y728D01*
X7Y727D02*
X21Y727D01*
X122Y727D02*
X137Y727D01*
X534Y727D02*
X549Y727D01*
X650Y727D02*
X665Y727D01*
X7Y726D02*
X21Y726D01*
X122Y726D02*
X137Y726D01*
X534Y726D02*
X549Y726D01*
X650Y726D02*
X665Y726D01*
X6Y725D02*
X21Y725D01*
X122Y725D02*
X137Y725D01*
X534Y725D02*
X549Y725D01*
X650Y725D02*
X665Y725D01*
X6Y724D02*
X21Y724D01*
X122Y724D02*
X137Y724D01*
X534Y724D02*
X549Y724D01*
X650Y724D02*
X665Y724D01*
X6Y723D02*
X21Y723D01*
X122Y723D02*
X137Y723D01*
X534Y723D02*
X549Y723D01*
X650Y723D02*
X665Y723D01*
X7Y722D02*
X21Y722D01*
X122Y722D02*
X137Y722D01*
X534Y722D02*
X549Y722D01*
X650Y722D02*
X665Y722D01*
X7Y721D02*
X21Y721D01*
X122Y721D02*
X137Y721D01*
X534Y721D02*
X549Y721D01*
X650Y721D02*
X665Y721D01*
X7Y720D02*
X21Y720D01*
X122Y720D02*
X137Y720D01*
X535Y720D02*
X549Y720D01*
X650Y720D02*
X665Y720D01*
X7Y719D02*
X21Y719D01*
X122Y719D02*
X137Y719D01*
X535Y719D02*
X549Y719D01*
X650Y719D02*
X664Y719D01*
X8Y718D02*
X21Y718D01*
X122Y718D02*
X136Y718D01*
X535Y718D02*
X549Y718D01*
X650Y718D02*
X664Y718D01*
X8Y717D02*
X21Y717D01*
X122Y717D02*
X136Y717D01*
X536Y717D02*
X549Y717D01*
X650Y717D02*
X664Y717D01*
X8Y716D02*
X21Y716D01*
X122Y716D02*
X135Y716D01*
X536Y716D02*
X549Y716D01*
X650Y716D02*
X663Y716D01*
X9Y715D02*
X21Y715D01*
X122Y715D02*
X135Y715D01*
X537Y715D02*
X549Y715D01*
X650Y715D02*
X662Y715D01*
X10Y714D02*
X21Y714D01*
X122Y714D02*
X134Y714D01*
X538Y714D02*
X549Y714D01*
X650Y714D02*
X662Y714D01*
X11Y713D02*
X21Y713D01*
X122Y713D02*
X133Y713D01*
X538Y713D02*
X549Y713D01*
X650Y713D02*
X661Y713D01*
X12Y712D02*
X21Y712D01*
X122Y712D02*
X132Y712D01*
X539Y712D02*
X549Y712D01*
X650Y712D02*
X660Y712D01*
X13Y711D02*
X21Y711D01*
X122Y711D02*
X131Y711D01*
X541Y711D02*
X549Y711D01*
X650Y711D02*
X659Y711D01*
X14Y710D02*
X21Y710D01*
X122Y710D02*
X129Y710D01*
X542Y710D02*
X549Y710D01*
X650Y710D02*
X657Y710D01*
X16Y709D02*
X21Y709D01*
X122Y709D02*
X127Y709D01*
X544Y709D02*
X549Y709D01*
X650Y709D02*
X655Y709D01*
X20Y708D02*
X21Y708D01*
X123Y708D02*
X124Y708D01*
X548Y708D02*
X549Y708D01*
X650Y708D02*
X651Y708D01*
X17Y689D02*
X21Y689D01*
X122Y689D02*
X127Y689D01*
X545Y689D02*
X549Y689D01*
X650Y689D02*
X654Y689D01*
X15Y688D02*
X21Y688D01*
X122Y688D02*
X129Y688D01*
X543Y688D02*
X549Y688D01*
X650Y688D02*
X657Y688D01*
X13Y687D02*
X21Y687D01*
X122Y687D02*
X130Y687D01*
X541Y687D02*
X549Y687D01*
X650Y687D02*
X658Y687D01*
X12Y686D02*
X21Y686D01*
X122Y686D02*
X132Y686D01*
X540Y686D02*
X549Y686D01*
X650Y686D02*
X660Y686D01*
X11Y685D02*
X21Y685D01*
X122Y685D02*
X133Y685D01*
X539Y685D02*
X549Y685D01*
X650Y685D02*
X661Y685D01*
X10Y684D02*
X21Y684D01*
X122Y684D02*
X134Y684D01*
X538Y684D02*
X549Y684D01*
X650Y684D02*
X661Y684D01*
X9Y683D02*
X21Y683D01*
X122Y683D02*
X134Y683D01*
X537Y683D02*
X549Y683D01*
X650Y683D02*
X662Y683D01*
X9Y682D02*
X21Y682D01*
X122Y682D02*
X135Y682D01*
X536Y682D02*
X549Y682D01*
X650Y682D02*
X663Y682D01*
X8Y681D02*
X21Y681D01*
X122Y681D02*
X136Y681D01*
X536Y681D02*
X549Y681D01*
X650Y681D02*
X663Y681D01*
X8Y680D02*
X21Y680D01*
X122Y680D02*
X136Y680D01*
X535Y680D02*
X549Y680D01*
X650Y680D02*
X664Y680D01*
X7Y679D02*
X21Y679D01*
X122Y679D02*
X137Y679D01*
X535Y679D02*
X549Y679D01*
X650Y679D02*
X664Y679D01*
X7Y678D02*
X21Y678D01*
X122Y678D02*
X137Y678D01*
X535Y678D02*
X549Y678D01*
X650Y678D02*
X665Y678D01*
X7Y677D02*
X21Y677D01*
X122Y677D02*
X137Y677D01*
X534Y677D02*
X549Y677D01*
X650Y677D02*
X665Y677D01*
X7Y676D02*
X21Y676D01*
X122Y676D02*
X137Y676D01*
X534Y676D02*
X549Y676D01*
X650Y676D02*
X665Y676D01*
X6Y675D02*
X21Y675D01*
X122Y675D02*
X137Y675D01*
X534Y675D02*
X549Y675D01*
X650Y675D02*
X665Y675D01*
X6Y674D02*
X21Y674D01*
X122Y674D02*
X137Y674D01*
X534Y674D02*
X549Y674D01*
X650Y674D02*
X665Y674D01*
X6Y673D02*
X21Y673D01*
X122Y673D02*
X137Y673D01*
X534Y673D02*
X549Y673D01*
X650Y673D02*
X665Y673D01*
X7Y672D02*
X21Y672D01*
X122Y672D02*
X137Y672D01*
X534Y672D02*
X549Y672D01*
X650Y672D02*
X665Y672D01*
X7Y671D02*
X21Y671D01*
X122Y671D02*
X137Y671D01*
X534Y671D02*
X549Y671D01*
X650Y671D02*
X665Y671D01*
X7Y670D02*
X21Y670D01*
X122Y670D02*
X137Y670D01*
X535Y670D02*
X549Y670D01*
X650Y670D02*
X665Y670D01*
X7Y669D02*
X21Y669D01*
X122Y669D02*
X137Y669D01*
X535Y669D02*
X549Y669D01*
X650Y669D02*
X664Y669D01*
X8Y668D02*
X21Y668D01*
X122Y668D02*
X136Y668D01*
X535Y668D02*
X549Y668D01*
X650Y668D02*
X664Y668D01*
X8Y667D02*
X21Y667D01*
X122Y667D02*
X136Y667D01*
X536Y667D02*
X549Y667D01*
X650Y667D02*
X664Y667D01*
X8Y666D02*
X21Y666D01*
X122Y666D02*
X135Y666D01*
X536Y666D02*
X549Y666D01*
X650Y666D02*
X663Y666D01*
X9Y665D02*
X21Y665D01*
X122Y665D02*
X135Y665D01*
X537Y665D02*
X549Y665D01*
X650Y665D02*
X662Y665D01*
X10Y664D02*
X21Y664D01*
X122Y664D02*
X134Y664D01*
X538Y664D02*
X549Y664D01*
X650Y664D02*
X662Y664D01*
X11Y663D02*
X21Y663D01*
X122Y663D02*
X133Y663D01*
X538Y663D02*
X549Y663D01*
X650Y663D02*
X661Y663D01*
X12Y662D02*
X21Y662D01*
X122Y662D02*
X132Y662D01*
X539Y662D02*
X549Y662D01*
X650Y662D02*
X660Y662D01*
X13Y661D02*
X21Y661D01*
X122Y661D02*
X131Y661D01*
X541Y661D02*
X549Y661D01*
X650Y661D02*
X659Y661D01*
X14Y660D02*
X21Y660D01*
X122Y660D02*
X129Y660D01*
X542Y660D02*
X549Y660D01*
X650Y660D02*
X657Y660D01*
X16Y659D02*
X21Y659D01*
X122Y659D02*
X127Y659D01*
X544Y659D02*
X549Y659D01*
X650Y659D02*
X655Y659D01*
X20Y658D02*
X21Y658D01*
X123Y658D02*
X124Y658D01*
X548Y658D02*
X549Y658D01*
X650Y658D02*
X651Y658D01*
X17Y639D02*
X21Y639D01*
X122Y639D02*
X127Y639D01*
X545Y639D02*
X549Y639D01*
X650Y639D02*
X654Y639D01*
X15Y638D02*
X21Y638D01*
X122Y638D02*
X129Y638D01*
X543Y638D02*
X549Y638D01*
X650Y638D02*
X657Y638D01*
X13Y637D02*
X21Y637D01*
X122Y637D02*
X130Y637D01*
X541Y637D02*
X549Y637D01*
X650Y637D02*
X658Y637D01*
X12Y636D02*
X21Y636D01*
X122Y636D02*
X132Y636D01*
X540Y636D02*
X549Y636D01*
X650Y636D02*
X660Y636D01*
X11Y635D02*
X21Y635D01*
X122Y635D02*
X133Y635D01*
X539Y635D02*
X549Y635D01*
X650Y635D02*
X661Y635D01*
X10Y634D02*
X21Y634D01*
X122Y634D02*
X134Y634D01*
X538Y634D02*
X549Y634D01*
X650Y634D02*
X661Y634D01*
X9Y633D02*
X21Y633D01*
X122Y633D02*
X134Y633D01*
X537Y633D02*
X549Y633D01*
X650Y633D02*
X662Y633D01*
X9Y632D02*
X21Y632D01*
X122Y632D02*
X135Y632D01*
X536Y632D02*
X549Y632D01*
X650Y632D02*
X663Y632D01*
X8Y631D02*
X21Y631D01*
X122Y631D02*
X136Y631D01*
X536Y631D02*
X549Y631D01*
X650Y631D02*
X663Y631D01*
X8Y630D02*
X21Y630D01*
X122Y630D02*
X136Y630D01*
X535Y630D02*
X549Y630D01*
X650Y630D02*
X664Y630D01*
X7Y629D02*
X21Y629D01*
X122Y629D02*
X137Y629D01*
X535Y629D02*
X549Y629D01*
X650Y629D02*
X664Y629D01*
X7Y628D02*
X21Y628D01*
X122Y628D02*
X137Y628D01*
X535Y628D02*
X549Y628D01*
X650Y628D02*
X665Y628D01*
X7Y627D02*
X21Y627D01*
X122Y627D02*
X137Y627D01*
X534Y627D02*
X549Y627D01*
X650Y627D02*
X665Y627D01*
X7Y626D02*
X21Y626D01*
X122Y626D02*
X137Y626D01*
X534Y626D02*
X549Y626D01*
X650Y626D02*
X665Y626D01*
X6Y625D02*
X21Y625D01*
X122Y625D02*
X137Y625D01*
X534Y625D02*
X549Y625D01*
X650Y625D02*
X665Y625D01*
X6Y624D02*
X21Y624D01*
X122Y624D02*
X137Y624D01*
X534Y624D02*
X549Y624D01*
X650Y624D02*
X665Y624D01*
X6Y623D02*
X21Y623D01*
X122Y623D02*
X137Y623D01*
X534Y623D02*
X549Y623D01*
X650Y623D02*
X665Y623D01*
X7Y622D02*
X21Y622D01*
X122Y622D02*
X137Y622D01*
X534Y622D02*
X549Y622D01*
X650Y622D02*
X665Y622D01*
X7Y621D02*
X21Y621D01*
X122Y621D02*
X137Y621D01*
X534Y621D02*
X549Y621D01*
X650Y621D02*
X665Y621D01*
X7Y620D02*
X21Y620D01*
X122Y620D02*
X137Y620D01*
X535Y620D02*
X549Y620D01*
X650Y620D02*
X665Y620D01*
X7Y619D02*
X21Y619D01*
X122Y619D02*
X137Y619D01*
X535Y619D02*
X549Y619D01*
X650Y619D02*
X664Y619D01*
X8Y618D02*
X21Y618D01*
X122Y618D02*
X136Y618D01*
X535Y618D02*
X549Y618D01*
X650Y618D02*
X664Y618D01*
X8Y617D02*
X21Y617D01*
X122Y617D02*
X136Y617D01*
X536Y617D02*
X549Y617D01*
X650Y617D02*
X664Y617D01*
X8Y616D02*
X21Y616D01*
X122Y616D02*
X135Y616D01*
X536Y616D02*
X549Y616D01*
X650Y616D02*
X663Y616D01*
X9Y615D02*
X21Y615D01*
X122Y615D02*
X135Y615D01*
X537Y615D02*
X549Y615D01*
X650Y615D02*
X662Y615D01*
X10Y614D02*
X21Y614D01*
X122Y614D02*
X134Y614D01*
X538Y614D02*
X549Y614D01*
X650Y614D02*
X662Y614D01*
X11Y613D02*
X21Y613D01*
X122Y613D02*
X133Y613D01*
X538Y613D02*
X549Y613D01*
X650Y613D02*
X661Y613D01*
X12Y612D02*
X21Y612D01*
X122Y612D02*
X132Y612D01*
X539Y612D02*
X549Y612D01*
X650Y612D02*
X660Y612D01*
X13Y611D02*
X21Y611D01*
X122Y611D02*
X131Y611D01*
X541Y611D02*
X549Y611D01*
X650Y611D02*
X659Y611D01*
X14Y610D02*
X21Y610D01*
X122Y610D02*
X129Y610D01*
X542Y610D02*
X549Y610D01*
X650Y610D02*
X657Y610D01*
X16Y609D02*
X21Y609D01*
X122Y609D02*
X127Y609D01*
X544Y609D02*
X549Y609D01*
X650Y609D02*
X655Y609D01*
X20Y608D02*
X21Y608D01*
X123Y608D02*
X123Y608D01*
X548Y608D02*
X549Y608D01*
X650Y608D02*
X651Y608D01*
D02*
G04 End of Copper1*
M02*