G04 MADE WITH FRITZING*
G04 WWW.FRITZING.ORG*
G04 DOUBLE SIDED*
G04 HOLES PLATED*
G04 CONTOUR ON CENTER OF CONTOUR VECTOR*
%ASAXBY*%
%FSLAX23Y23*%
%MOIN*%
%OFA0B0*%
%SFA1.0B1.0*%
%ADD10C,0.015874X-0.00012598*%
%ADD11C,0.019307X0.00330709*%
%ADD12C,0.010000*%
%ADD13C,0.005000*%
%ADD14C,0.008000*%
%ADD15C,0.016000*%
%ADD16R,0.001000X0.001000*%
%LNSILK1*%
G90*
G70*
G54D10*
X161Y909D03*
G54D11*
X1065Y286D03*
G54D12*
X805Y179D02*
X605Y179D01*
D02*
X605Y179D02*
X605Y79D01*
D02*
X605Y79D02*
X805Y79D01*
D02*
X805Y79D02*
X805Y179D01*
G54D13*
D02*
X770Y179D02*
X805Y144D01*
G54D14*
D02*
X572Y358D02*
X549Y358D01*
D02*
X549Y358D02*
X549Y327D01*
D02*
X635Y358D02*
X659Y358D01*
D02*
X659Y358D02*
X659Y327D01*
D02*
X689Y600D02*
X815Y600D01*
D02*
X417Y558D02*
X417Y576D01*
D02*
X417Y576D02*
X598Y576D01*
D02*
X598Y576D02*
X598Y558D01*
D02*
X598Y480D02*
X598Y462D01*
D02*
X598Y462D02*
X417Y462D01*
D02*
X417Y462D02*
X417Y480D01*
D02*
X547Y558D02*
X547Y480D01*
D02*
X514Y154D02*
X514Y120D01*
D02*
X402Y120D02*
X402Y154D01*
D02*
X447Y169D02*
X468Y169D01*
D02*
X220Y968D02*
X220Y937D01*
D02*
X220Y882D02*
X220Y850D01*
D02*
X23Y850D02*
X23Y882D01*
D02*
X23Y937D02*
X23Y968D01*
D02*
X28Y263D02*
X28Y249D01*
D02*
X42Y249D02*
X28Y249D01*
D02*
X28Y392D02*
X28Y406D01*
D02*
X28Y406D02*
X42Y406D01*
D02*
X172Y249D02*
X185Y249D01*
D02*
X185Y249D02*
X185Y263D01*
D02*
X185Y392D02*
X172Y406D01*
G54D12*
D02*
X372Y1123D02*
X372Y1052D01*
D02*
X372Y1052D02*
X281Y1052D01*
D02*
X139Y1052D02*
X49Y1052D01*
D02*
X49Y1052D02*
X49Y1123D01*
D02*
X49Y1218D02*
X49Y1245D01*
D02*
X372Y1218D02*
X372Y1245D01*
G54D15*
D02*
X1220Y653D02*
X620Y653D01*
D02*
X1220Y653D02*
X620Y653D01*
G54D14*
D02*
X814Y393D02*
X814Y360D01*
D02*
X702Y360D02*
X702Y393D01*
D02*
X748Y408D02*
X769Y408D01*
G54D16*
X0Y1260D02*
X1258Y1260D01*
X0Y1259D02*
X1258Y1259D01*
X0Y1258D02*
X1258Y1258D01*
X0Y1257D02*
X1258Y1257D01*
X0Y1256D02*
X1258Y1256D01*
X0Y1255D02*
X1258Y1255D01*
X0Y1254D02*
X1258Y1254D01*
X0Y1253D02*
X1258Y1253D01*
X0Y1252D02*
X7Y1252D01*
X612Y1252D02*
X1226Y1252D01*
X1251Y1252D02*
X1258Y1252D01*
X0Y1251D02*
X7Y1251D01*
X612Y1251D02*
X1226Y1251D01*
X1251Y1251D02*
X1258Y1251D01*
X0Y1250D02*
X7Y1250D01*
X612Y1250D02*
X1226Y1250D01*
X1251Y1250D02*
X1258Y1250D01*
X0Y1249D02*
X7Y1249D01*
X612Y1249D02*
X1226Y1249D01*
X1251Y1249D02*
X1258Y1249D01*
X0Y1248D02*
X7Y1248D01*
X612Y1248D02*
X1226Y1248D01*
X1251Y1248D02*
X1258Y1248D01*
X0Y1247D02*
X7Y1247D01*
X612Y1247D02*
X1226Y1247D01*
X1251Y1247D02*
X1258Y1247D01*
X0Y1246D02*
X7Y1246D01*
X612Y1246D02*
X1226Y1246D01*
X1251Y1246D02*
X1258Y1246D01*
X0Y1245D02*
X7Y1245D01*
X612Y1245D02*
X627Y1245D01*
X1212Y1245D02*
X1226Y1245D01*
X1251Y1245D02*
X1258Y1245D01*
X0Y1244D02*
X7Y1244D01*
X612Y1244D02*
X627Y1244D01*
X1212Y1244D02*
X1226Y1244D01*
X1251Y1244D02*
X1258Y1244D01*
X0Y1243D02*
X7Y1243D01*
X612Y1243D02*
X627Y1243D01*
X1212Y1243D02*
X1226Y1243D01*
X1251Y1243D02*
X1258Y1243D01*
X0Y1242D02*
X7Y1242D01*
X612Y1242D02*
X627Y1242D01*
X1212Y1242D02*
X1226Y1242D01*
X1251Y1242D02*
X1258Y1242D01*
X0Y1241D02*
X7Y1241D01*
X612Y1241D02*
X627Y1241D01*
X1212Y1241D02*
X1226Y1241D01*
X1251Y1241D02*
X1258Y1241D01*
X0Y1240D02*
X7Y1240D01*
X612Y1240D02*
X627Y1240D01*
X1212Y1240D02*
X1226Y1240D01*
X1251Y1240D02*
X1258Y1240D01*
X0Y1239D02*
X7Y1239D01*
X612Y1239D02*
X627Y1239D01*
X1212Y1239D02*
X1226Y1239D01*
X1251Y1239D02*
X1258Y1239D01*
X0Y1238D02*
X7Y1238D01*
X612Y1238D02*
X627Y1238D01*
X1212Y1238D02*
X1226Y1238D01*
X1251Y1238D02*
X1258Y1238D01*
X0Y1237D02*
X7Y1237D01*
X612Y1237D02*
X627Y1237D01*
X1212Y1237D02*
X1226Y1237D01*
X1251Y1237D02*
X1258Y1237D01*
X0Y1236D02*
X7Y1236D01*
X612Y1236D02*
X627Y1236D01*
X1212Y1236D02*
X1226Y1236D01*
X1251Y1236D02*
X1258Y1236D01*
X0Y1235D02*
X7Y1235D01*
X612Y1235D02*
X627Y1235D01*
X1212Y1235D02*
X1226Y1235D01*
X1251Y1235D02*
X1258Y1235D01*
X0Y1234D02*
X7Y1234D01*
X612Y1234D02*
X627Y1234D01*
X1212Y1234D02*
X1226Y1234D01*
X1251Y1234D02*
X1258Y1234D01*
X0Y1233D02*
X7Y1233D01*
X612Y1233D02*
X627Y1233D01*
X1212Y1233D02*
X1226Y1233D01*
X1251Y1233D02*
X1258Y1233D01*
X0Y1232D02*
X7Y1232D01*
X612Y1232D02*
X627Y1232D01*
X1212Y1232D02*
X1226Y1232D01*
X1251Y1232D02*
X1258Y1232D01*
X0Y1231D02*
X7Y1231D01*
X612Y1231D02*
X627Y1231D01*
X1212Y1231D02*
X1226Y1231D01*
X1251Y1231D02*
X1258Y1231D01*
X0Y1230D02*
X7Y1230D01*
X612Y1230D02*
X627Y1230D01*
X1212Y1230D02*
X1226Y1230D01*
X1251Y1230D02*
X1258Y1230D01*
X0Y1229D02*
X7Y1229D01*
X612Y1229D02*
X627Y1229D01*
X1212Y1229D02*
X1226Y1229D01*
X1251Y1229D02*
X1258Y1229D01*
X0Y1228D02*
X7Y1228D01*
X612Y1228D02*
X627Y1228D01*
X1212Y1228D02*
X1226Y1228D01*
X1251Y1228D02*
X1258Y1228D01*
X0Y1227D02*
X7Y1227D01*
X612Y1227D02*
X627Y1227D01*
X1212Y1227D02*
X1226Y1227D01*
X1251Y1227D02*
X1258Y1227D01*
X0Y1226D02*
X7Y1226D01*
X612Y1226D02*
X627Y1226D01*
X1212Y1226D02*
X1226Y1226D01*
X1251Y1226D02*
X1258Y1226D01*
X0Y1225D02*
X7Y1225D01*
X612Y1225D02*
X627Y1225D01*
X1212Y1225D02*
X1226Y1225D01*
X1251Y1225D02*
X1258Y1225D01*
X0Y1224D02*
X7Y1224D01*
X1212Y1224D02*
X1226Y1224D01*
X1251Y1224D02*
X1258Y1224D01*
X0Y1223D02*
X7Y1223D01*
X1212Y1223D02*
X1226Y1223D01*
X1251Y1223D02*
X1258Y1223D01*
X0Y1222D02*
X7Y1222D01*
X1212Y1222D02*
X1226Y1222D01*
X1251Y1222D02*
X1258Y1222D01*
X0Y1221D02*
X7Y1221D01*
X1212Y1221D02*
X1226Y1221D01*
X1251Y1221D02*
X1258Y1221D01*
X0Y1220D02*
X7Y1220D01*
X1212Y1220D02*
X1226Y1220D01*
X1251Y1220D02*
X1258Y1220D01*
X0Y1219D02*
X7Y1219D01*
X1212Y1219D02*
X1226Y1219D01*
X1251Y1219D02*
X1258Y1219D01*
X0Y1218D02*
X7Y1218D01*
X1212Y1218D02*
X1226Y1218D01*
X1251Y1218D02*
X1258Y1218D01*
X0Y1217D02*
X7Y1217D01*
X1212Y1217D02*
X1226Y1217D01*
X1251Y1217D02*
X1258Y1217D01*
X0Y1216D02*
X7Y1216D01*
X1212Y1216D02*
X1226Y1216D01*
X1251Y1216D02*
X1258Y1216D01*
X0Y1215D02*
X7Y1215D01*
X1212Y1215D02*
X1226Y1215D01*
X1251Y1215D02*
X1258Y1215D01*
X0Y1214D02*
X7Y1214D01*
X1212Y1214D02*
X1226Y1214D01*
X1251Y1214D02*
X1258Y1214D01*
X0Y1213D02*
X3Y1213D01*
X1212Y1213D02*
X1226Y1213D01*
X1251Y1213D02*
X1258Y1213D01*
X0Y1212D02*
X3Y1212D01*
X1212Y1212D02*
X1226Y1212D01*
X1251Y1212D02*
X1258Y1212D01*
X0Y1211D02*
X3Y1211D01*
X1212Y1211D02*
X1226Y1211D01*
X1251Y1211D02*
X1258Y1211D01*
X0Y1210D02*
X3Y1210D01*
X1212Y1210D02*
X1226Y1210D01*
X1251Y1210D02*
X1258Y1210D01*
X0Y1209D02*
X3Y1209D01*
X1212Y1209D02*
X1226Y1209D01*
X1251Y1209D02*
X1258Y1209D01*
X0Y1208D02*
X3Y1208D01*
X1212Y1208D02*
X1226Y1208D01*
X1251Y1208D02*
X1258Y1208D01*
X0Y1207D02*
X3Y1207D01*
X1212Y1207D02*
X1226Y1207D01*
X1251Y1207D02*
X1258Y1207D01*
X0Y1206D02*
X3Y1206D01*
X1212Y1206D02*
X1226Y1206D01*
X1251Y1206D02*
X1258Y1206D01*
X0Y1205D02*
X3Y1205D01*
X1212Y1205D02*
X1226Y1205D01*
X1251Y1205D02*
X1258Y1205D01*
X0Y1204D02*
X3Y1204D01*
X1212Y1204D02*
X1226Y1204D01*
X1251Y1204D02*
X1258Y1204D01*
X0Y1203D02*
X3Y1203D01*
X1212Y1203D02*
X1226Y1203D01*
X1251Y1203D02*
X1258Y1203D01*
X0Y1202D02*
X3Y1202D01*
X1212Y1202D02*
X1226Y1202D01*
X1251Y1202D02*
X1258Y1202D01*
X0Y1201D02*
X3Y1201D01*
X1212Y1201D02*
X1226Y1201D01*
X1251Y1201D02*
X1258Y1201D01*
X0Y1200D02*
X3Y1200D01*
X1212Y1200D02*
X1226Y1200D01*
X1251Y1200D02*
X1258Y1200D01*
X0Y1199D02*
X3Y1199D01*
X1212Y1199D02*
X1226Y1199D01*
X1251Y1199D02*
X1258Y1199D01*
X0Y1198D02*
X3Y1198D01*
X1212Y1198D02*
X1226Y1198D01*
X1251Y1198D02*
X1258Y1198D01*
X0Y1197D02*
X3Y1197D01*
X1212Y1197D02*
X1226Y1197D01*
X1251Y1197D02*
X1258Y1197D01*
X0Y1196D02*
X3Y1196D01*
X1212Y1196D02*
X1226Y1196D01*
X1251Y1196D02*
X1258Y1196D01*
X0Y1195D02*
X3Y1195D01*
X1212Y1195D02*
X1226Y1195D01*
X1251Y1195D02*
X1258Y1195D01*
X0Y1194D02*
X3Y1194D01*
X1212Y1194D02*
X1226Y1194D01*
X1251Y1194D02*
X1258Y1194D01*
X0Y1193D02*
X3Y1193D01*
X1212Y1193D02*
X1226Y1193D01*
X1251Y1193D02*
X1258Y1193D01*
X0Y1192D02*
X3Y1192D01*
X1212Y1192D02*
X1226Y1192D01*
X1251Y1192D02*
X1258Y1192D01*
X0Y1191D02*
X3Y1191D01*
X1212Y1191D02*
X1226Y1191D01*
X1251Y1191D02*
X1258Y1191D01*
X0Y1190D02*
X3Y1190D01*
X1212Y1190D02*
X1226Y1190D01*
X1251Y1190D02*
X1258Y1190D01*
X0Y1189D02*
X3Y1189D01*
X1212Y1189D02*
X1226Y1189D01*
X1251Y1189D02*
X1258Y1189D01*
X0Y1188D02*
X3Y1188D01*
X1212Y1188D02*
X1226Y1188D01*
X1251Y1188D02*
X1258Y1188D01*
X0Y1187D02*
X3Y1187D01*
X1212Y1187D02*
X1226Y1187D01*
X1251Y1187D02*
X1258Y1187D01*
X0Y1186D02*
X3Y1186D01*
X1212Y1186D02*
X1226Y1186D01*
X1251Y1186D02*
X1258Y1186D01*
X0Y1185D02*
X3Y1185D01*
X1212Y1185D02*
X1226Y1185D01*
X1251Y1185D02*
X1258Y1185D01*
X0Y1184D02*
X3Y1184D01*
X1212Y1184D02*
X1226Y1184D01*
X1251Y1184D02*
X1258Y1184D01*
X0Y1183D02*
X3Y1183D01*
X1212Y1183D02*
X1226Y1183D01*
X1251Y1183D02*
X1258Y1183D01*
X0Y1182D02*
X3Y1182D01*
X612Y1182D02*
X627Y1182D01*
X1212Y1182D02*
X1226Y1182D01*
X1251Y1182D02*
X1258Y1182D01*
X0Y1181D02*
X3Y1181D01*
X612Y1181D02*
X627Y1181D01*
X1212Y1181D02*
X1226Y1181D01*
X1251Y1181D02*
X1258Y1181D01*
X0Y1180D02*
X3Y1180D01*
X612Y1180D02*
X627Y1180D01*
X1212Y1180D02*
X1226Y1180D01*
X1251Y1180D02*
X1258Y1180D01*
X0Y1179D02*
X3Y1179D01*
X612Y1179D02*
X627Y1179D01*
X1212Y1179D02*
X1226Y1179D01*
X1251Y1179D02*
X1258Y1179D01*
X0Y1178D02*
X3Y1178D01*
X612Y1178D02*
X627Y1178D01*
X1212Y1178D02*
X1226Y1178D01*
X1251Y1178D02*
X1258Y1178D01*
X0Y1177D02*
X3Y1177D01*
X612Y1177D02*
X627Y1177D01*
X1212Y1177D02*
X1226Y1177D01*
X1251Y1177D02*
X1258Y1177D01*
X0Y1176D02*
X3Y1176D01*
X612Y1176D02*
X627Y1176D01*
X1212Y1176D02*
X1226Y1176D01*
X1251Y1176D02*
X1258Y1176D01*
X0Y1175D02*
X3Y1175D01*
X612Y1175D02*
X627Y1175D01*
X1212Y1175D02*
X1226Y1175D01*
X1251Y1175D02*
X1258Y1175D01*
X0Y1174D02*
X3Y1174D01*
X1212Y1174D02*
X1226Y1174D01*
X1251Y1174D02*
X1258Y1174D01*
X0Y1173D02*
X3Y1173D01*
X1212Y1173D02*
X1226Y1173D01*
X1251Y1173D02*
X1258Y1173D01*
X0Y1172D02*
X3Y1172D01*
X1212Y1172D02*
X1226Y1172D01*
X1251Y1172D02*
X1258Y1172D01*
X0Y1171D02*
X3Y1171D01*
X1212Y1171D02*
X1226Y1171D01*
X1251Y1171D02*
X1258Y1171D01*
X0Y1170D02*
X3Y1170D01*
X1212Y1170D02*
X1226Y1170D01*
X1251Y1170D02*
X1258Y1170D01*
X0Y1169D02*
X3Y1169D01*
X1212Y1169D02*
X1226Y1169D01*
X1251Y1169D02*
X1258Y1169D01*
X0Y1168D02*
X3Y1168D01*
X1212Y1168D02*
X1226Y1168D01*
X1251Y1168D02*
X1258Y1168D01*
X0Y1167D02*
X3Y1167D01*
X1212Y1167D02*
X1226Y1167D01*
X1251Y1167D02*
X1258Y1167D01*
X0Y1166D02*
X3Y1166D01*
X1212Y1166D02*
X1226Y1166D01*
X1251Y1166D02*
X1258Y1166D01*
X0Y1165D02*
X3Y1165D01*
X1212Y1165D02*
X1226Y1165D01*
X1251Y1165D02*
X1258Y1165D01*
X0Y1164D02*
X3Y1164D01*
X1212Y1164D02*
X1226Y1164D01*
X1251Y1164D02*
X1258Y1164D01*
X0Y1163D02*
X3Y1163D01*
X1212Y1163D02*
X1226Y1163D01*
X1251Y1163D02*
X1258Y1163D01*
X0Y1162D02*
X3Y1162D01*
X1212Y1162D02*
X1226Y1162D01*
X1251Y1162D02*
X1258Y1162D01*
X0Y1161D02*
X3Y1161D01*
X1212Y1161D02*
X1226Y1161D01*
X1251Y1161D02*
X1258Y1161D01*
X0Y1160D02*
X3Y1160D01*
X1212Y1160D02*
X1226Y1160D01*
X1251Y1160D02*
X1258Y1160D01*
X0Y1159D02*
X3Y1159D01*
X1212Y1159D02*
X1226Y1159D01*
X1251Y1159D02*
X1258Y1159D01*
X0Y1158D02*
X3Y1158D01*
X1212Y1158D02*
X1226Y1158D01*
X1251Y1158D02*
X1258Y1158D01*
X0Y1157D02*
X3Y1157D01*
X1212Y1157D02*
X1226Y1157D01*
X1251Y1157D02*
X1258Y1157D01*
X0Y1156D02*
X3Y1156D01*
X1212Y1156D02*
X1226Y1156D01*
X1251Y1156D02*
X1258Y1156D01*
X0Y1155D02*
X3Y1155D01*
X1212Y1155D02*
X1226Y1155D01*
X1251Y1155D02*
X1258Y1155D01*
X0Y1154D02*
X3Y1154D01*
X1212Y1154D02*
X1226Y1154D01*
X1251Y1154D02*
X1258Y1154D01*
X0Y1153D02*
X3Y1153D01*
X1212Y1153D02*
X1226Y1153D01*
X1251Y1153D02*
X1258Y1153D01*
X0Y1152D02*
X3Y1152D01*
X1212Y1152D02*
X1226Y1152D01*
X1251Y1152D02*
X1258Y1152D01*
X0Y1151D02*
X3Y1151D01*
X1212Y1151D02*
X1226Y1151D01*
X1251Y1151D02*
X1258Y1151D01*
X0Y1150D02*
X3Y1150D01*
X1212Y1150D02*
X1226Y1150D01*
X1251Y1150D02*
X1258Y1150D01*
X0Y1149D02*
X3Y1149D01*
X1212Y1149D02*
X1226Y1149D01*
X1251Y1149D02*
X1258Y1149D01*
X0Y1148D02*
X3Y1148D01*
X1212Y1148D02*
X1226Y1148D01*
X1251Y1148D02*
X1258Y1148D01*
X0Y1147D02*
X3Y1147D01*
X1212Y1147D02*
X1226Y1147D01*
X1251Y1147D02*
X1258Y1147D01*
X0Y1146D02*
X3Y1146D01*
X1212Y1146D02*
X1226Y1146D01*
X1251Y1146D02*
X1258Y1146D01*
X0Y1145D02*
X3Y1145D01*
X1212Y1145D02*
X1226Y1145D01*
X1251Y1145D02*
X1258Y1145D01*
X0Y1144D02*
X3Y1144D01*
X1212Y1144D02*
X1226Y1144D01*
X1251Y1144D02*
X1258Y1144D01*
X0Y1143D02*
X3Y1143D01*
X1212Y1143D02*
X1226Y1143D01*
X1251Y1143D02*
X1258Y1143D01*
X0Y1142D02*
X3Y1142D01*
X1212Y1142D02*
X1226Y1142D01*
X1251Y1142D02*
X1258Y1142D01*
X0Y1141D02*
X3Y1141D01*
X1212Y1141D02*
X1226Y1141D01*
X1251Y1141D02*
X1258Y1141D01*
X0Y1140D02*
X3Y1140D01*
X1212Y1140D02*
X1226Y1140D01*
X1251Y1140D02*
X1258Y1140D01*
X0Y1139D02*
X3Y1139D01*
X1212Y1139D02*
X1226Y1139D01*
X1251Y1139D02*
X1258Y1139D01*
X0Y1138D02*
X3Y1138D01*
X1212Y1138D02*
X1226Y1138D01*
X1251Y1138D02*
X1258Y1138D01*
X0Y1137D02*
X3Y1137D01*
X1212Y1137D02*
X1226Y1137D01*
X1251Y1137D02*
X1258Y1137D01*
X0Y1136D02*
X3Y1136D01*
X1212Y1136D02*
X1226Y1136D01*
X1251Y1136D02*
X1258Y1136D01*
X0Y1135D02*
X3Y1135D01*
X1212Y1135D02*
X1226Y1135D01*
X1251Y1135D02*
X1258Y1135D01*
X0Y1134D02*
X3Y1134D01*
X1212Y1134D02*
X1226Y1134D01*
X1251Y1134D02*
X1258Y1134D01*
X0Y1133D02*
X3Y1133D01*
X1212Y1133D02*
X1226Y1133D01*
X1251Y1133D02*
X1258Y1133D01*
X0Y1132D02*
X3Y1132D01*
X612Y1132D02*
X627Y1132D01*
X1212Y1132D02*
X1226Y1132D01*
X1251Y1132D02*
X1258Y1132D01*
X0Y1131D02*
X3Y1131D01*
X612Y1131D02*
X627Y1131D01*
X1212Y1131D02*
X1226Y1131D01*
X1251Y1131D02*
X1258Y1131D01*
X0Y1130D02*
X3Y1130D01*
X612Y1130D02*
X627Y1130D01*
X1212Y1130D02*
X1226Y1130D01*
X1251Y1130D02*
X1258Y1130D01*
X0Y1129D02*
X4Y1129D01*
X612Y1129D02*
X627Y1129D01*
X1212Y1129D02*
X1226Y1129D01*
X1251Y1129D02*
X1258Y1129D01*
X0Y1128D02*
X7Y1128D01*
X612Y1128D02*
X627Y1128D01*
X1212Y1128D02*
X1226Y1128D01*
X1251Y1128D02*
X1258Y1128D01*
X0Y1127D02*
X7Y1127D01*
X612Y1127D02*
X627Y1127D01*
X1212Y1127D02*
X1226Y1127D01*
X1251Y1127D02*
X1258Y1127D01*
X0Y1126D02*
X7Y1126D01*
X612Y1126D02*
X627Y1126D01*
X1212Y1126D02*
X1226Y1126D01*
X1251Y1126D02*
X1258Y1126D01*
X0Y1125D02*
X7Y1125D01*
X612Y1125D02*
X627Y1125D01*
X1212Y1125D02*
X1226Y1125D01*
X1251Y1125D02*
X1258Y1125D01*
X0Y1124D02*
X7Y1124D01*
X1212Y1124D02*
X1226Y1124D01*
X1251Y1124D02*
X1258Y1124D01*
X0Y1123D02*
X7Y1123D01*
X1212Y1123D02*
X1226Y1123D01*
X1251Y1123D02*
X1258Y1123D01*
X0Y1122D02*
X7Y1122D01*
X1212Y1122D02*
X1226Y1122D01*
X1251Y1122D02*
X1258Y1122D01*
X0Y1121D02*
X7Y1121D01*
X1212Y1121D02*
X1226Y1121D01*
X1251Y1121D02*
X1258Y1121D01*
X0Y1120D02*
X7Y1120D01*
X1212Y1120D02*
X1226Y1120D01*
X1251Y1120D02*
X1258Y1120D01*
X0Y1119D02*
X7Y1119D01*
X1212Y1119D02*
X1226Y1119D01*
X1251Y1119D02*
X1258Y1119D01*
X0Y1118D02*
X7Y1118D01*
X1212Y1118D02*
X1226Y1118D01*
X1251Y1118D02*
X1258Y1118D01*
X0Y1117D02*
X7Y1117D01*
X1212Y1117D02*
X1226Y1117D01*
X1251Y1117D02*
X1258Y1117D01*
X0Y1116D02*
X7Y1116D01*
X1212Y1116D02*
X1226Y1116D01*
X1251Y1116D02*
X1258Y1116D01*
X0Y1115D02*
X7Y1115D01*
X1212Y1115D02*
X1226Y1115D01*
X1251Y1115D02*
X1258Y1115D01*
X0Y1114D02*
X7Y1114D01*
X1212Y1114D02*
X1226Y1114D01*
X1251Y1114D02*
X1258Y1114D01*
X0Y1113D02*
X7Y1113D01*
X1212Y1113D02*
X1226Y1113D01*
X1251Y1113D02*
X1258Y1113D01*
X0Y1112D02*
X7Y1112D01*
X1212Y1112D02*
X1226Y1112D01*
X1251Y1112D02*
X1258Y1112D01*
X0Y1111D02*
X7Y1111D01*
X1212Y1111D02*
X1226Y1111D01*
X1251Y1111D02*
X1258Y1111D01*
X0Y1110D02*
X7Y1110D01*
X1212Y1110D02*
X1226Y1110D01*
X1251Y1110D02*
X1258Y1110D01*
X0Y1109D02*
X7Y1109D01*
X1212Y1109D02*
X1226Y1109D01*
X1251Y1109D02*
X1258Y1109D01*
X0Y1108D02*
X7Y1108D01*
X1212Y1108D02*
X1226Y1108D01*
X1251Y1108D02*
X1258Y1108D01*
X0Y1107D02*
X7Y1107D01*
X1212Y1107D02*
X1226Y1107D01*
X1251Y1107D02*
X1258Y1107D01*
X0Y1106D02*
X7Y1106D01*
X1212Y1106D02*
X1226Y1106D01*
X1251Y1106D02*
X1258Y1106D01*
X0Y1105D02*
X7Y1105D01*
X1212Y1105D02*
X1226Y1105D01*
X1251Y1105D02*
X1258Y1105D01*
X0Y1104D02*
X7Y1104D01*
X1212Y1104D02*
X1226Y1104D01*
X1251Y1104D02*
X1258Y1104D01*
X0Y1103D02*
X7Y1103D01*
X1212Y1103D02*
X1226Y1103D01*
X1251Y1103D02*
X1258Y1103D01*
X0Y1102D02*
X7Y1102D01*
X1212Y1102D02*
X1226Y1102D01*
X1251Y1102D02*
X1258Y1102D01*
X0Y1101D02*
X7Y1101D01*
X1212Y1101D02*
X1226Y1101D01*
X1251Y1101D02*
X1258Y1101D01*
X0Y1100D02*
X7Y1100D01*
X1212Y1100D02*
X1226Y1100D01*
X1251Y1100D02*
X1258Y1100D01*
X0Y1099D02*
X7Y1099D01*
X1212Y1099D02*
X1226Y1099D01*
X1251Y1099D02*
X1258Y1099D01*
X0Y1098D02*
X7Y1098D01*
X1212Y1098D02*
X1226Y1098D01*
X1251Y1098D02*
X1258Y1098D01*
X0Y1097D02*
X7Y1097D01*
X1212Y1097D02*
X1226Y1097D01*
X1251Y1097D02*
X1258Y1097D01*
X0Y1096D02*
X7Y1096D01*
X1212Y1096D02*
X1226Y1096D01*
X1251Y1096D02*
X1258Y1096D01*
X0Y1095D02*
X7Y1095D01*
X1212Y1095D02*
X1226Y1095D01*
X1251Y1095D02*
X1258Y1095D01*
X0Y1094D02*
X7Y1094D01*
X1212Y1094D02*
X1226Y1094D01*
X1251Y1094D02*
X1258Y1094D01*
X0Y1093D02*
X7Y1093D01*
X1212Y1093D02*
X1226Y1093D01*
X1251Y1093D02*
X1258Y1093D01*
X0Y1092D02*
X7Y1092D01*
X1212Y1092D02*
X1226Y1092D01*
X1251Y1092D02*
X1258Y1092D01*
X0Y1091D02*
X7Y1091D01*
X1212Y1091D02*
X1226Y1091D01*
X1251Y1091D02*
X1258Y1091D01*
X0Y1090D02*
X7Y1090D01*
X1212Y1090D02*
X1226Y1090D01*
X1251Y1090D02*
X1258Y1090D01*
X0Y1089D02*
X7Y1089D01*
X1212Y1089D02*
X1226Y1089D01*
X1251Y1089D02*
X1258Y1089D01*
X0Y1088D02*
X7Y1088D01*
X1212Y1088D02*
X1226Y1088D01*
X1251Y1088D02*
X1258Y1088D01*
X0Y1087D02*
X7Y1087D01*
X1212Y1087D02*
X1226Y1087D01*
X1251Y1087D02*
X1258Y1087D01*
X0Y1086D02*
X7Y1086D01*
X1212Y1086D02*
X1226Y1086D01*
X1251Y1086D02*
X1258Y1086D01*
X0Y1085D02*
X7Y1085D01*
X1212Y1085D02*
X1226Y1085D01*
X1251Y1085D02*
X1258Y1085D01*
X0Y1084D02*
X7Y1084D01*
X1212Y1084D02*
X1226Y1084D01*
X1251Y1084D02*
X1258Y1084D01*
X0Y1083D02*
X7Y1083D01*
X1212Y1083D02*
X1226Y1083D01*
X1251Y1083D02*
X1258Y1083D01*
X0Y1082D02*
X7Y1082D01*
X612Y1082D02*
X627Y1082D01*
X1212Y1082D02*
X1226Y1082D01*
X1251Y1082D02*
X1258Y1082D01*
X0Y1081D02*
X7Y1081D01*
X612Y1081D02*
X627Y1081D01*
X1212Y1081D02*
X1226Y1081D01*
X1251Y1081D02*
X1258Y1081D01*
X0Y1080D02*
X7Y1080D01*
X612Y1080D02*
X627Y1080D01*
X1212Y1080D02*
X1226Y1080D01*
X1251Y1080D02*
X1258Y1080D01*
X0Y1079D02*
X7Y1079D01*
X612Y1079D02*
X627Y1079D01*
X1212Y1079D02*
X1226Y1079D01*
X1251Y1079D02*
X1258Y1079D01*
X0Y1078D02*
X7Y1078D01*
X612Y1078D02*
X627Y1078D01*
X1212Y1078D02*
X1226Y1078D01*
X1251Y1078D02*
X1258Y1078D01*
X0Y1077D02*
X7Y1077D01*
X612Y1077D02*
X627Y1077D01*
X1212Y1077D02*
X1226Y1077D01*
X1251Y1077D02*
X1258Y1077D01*
X0Y1076D02*
X7Y1076D01*
X612Y1076D02*
X627Y1076D01*
X1212Y1076D02*
X1226Y1076D01*
X1251Y1076D02*
X1258Y1076D01*
X0Y1075D02*
X7Y1075D01*
X612Y1075D02*
X627Y1075D01*
X1212Y1075D02*
X1226Y1075D01*
X1251Y1075D02*
X1258Y1075D01*
X0Y1074D02*
X7Y1074D01*
X1251Y1074D02*
X1258Y1074D01*
X0Y1073D02*
X7Y1073D01*
X1251Y1073D02*
X1258Y1073D01*
X0Y1072D02*
X7Y1072D01*
X1251Y1072D02*
X1258Y1072D01*
X0Y1071D02*
X7Y1071D01*
X1251Y1071D02*
X1258Y1071D01*
X0Y1070D02*
X7Y1070D01*
X1251Y1070D02*
X1258Y1070D01*
X0Y1069D02*
X7Y1069D01*
X1251Y1069D02*
X1258Y1069D01*
X0Y1068D02*
X7Y1068D01*
X1251Y1068D02*
X1258Y1068D01*
X0Y1067D02*
X7Y1067D01*
X1251Y1067D02*
X1258Y1067D01*
X0Y1066D02*
X7Y1066D01*
X1251Y1066D02*
X1258Y1066D01*
X0Y1065D02*
X7Y1065D01*
X1251Y1065D02*
X1258Y1065D01*
X0Y1064D02*
X7Y1064D01*
X1251Y1064D02*
X1258Y1064D01*
X0Y1063D02*
X7Y1063D01*
X1251Y1063D02*
X1258Y1063D01*
X0Y1062D02*
X7Y1062D01*
X1252Y1062D02*
X1258Y1062D01*
X0Y1061D02*
X7Y1061D01*
X1252Y1061D02*
X1258Y1061D01*
X0Y1060D02*
X7Y1060D01*
X1252Y1060D02*
X1258Y1060D01*
X0Y1059D02*
X7Y1059D01*
X1253Y1059D02*
X1258Y1059D01*
X0Y1058D02*
X7Y1058D01*
X1253Y1058D02*
X1258Y1058D01*
X0Y1057D02*
X7Y1057D01*
X1253Y1057D02*
X1258Y1057D01*
X0Y1056D02*
X7Y1056D01*
X1253Y1056D02*
X1258Y1056D01*
X0Y1055D02*
X7Y1055D01*
X1253Y1055D02*
X1258Y1055D01*
X0Y1054D02*
X7Y1054D01*
X1253Y1054D02*
X1258Y1054D01*
X0Y1053D02*
X7Y1053D01*
X1253Y1053D02*
X1258Y1053D01*
X0Y1052D02*
X7Y1052D01*
X1253Y1052D02*
X1258Y1052D01*
X0Y1051D02*
X7Y1051D01*
X1253Y1051D02*
X1258Y1051D01*
X0Y1050D02*
X7Y1050D01*
X1253Y1050D02*
X1258Y1050D01*
X0Y1049D02*
X7Y1049D01*
X1253Y1049D02*
X1258Y1049D01*
X0Y1048D02*
X7Y1048D01*
X1252Y1048D02*
X1258Y1048D01*
X0Y1047D02*
X7Y1047D01*
X1252Y1047D02*
X1258Y1047D01*
X0Y1046D02*
X7Y1046D01*
X1252Y1046D02*
X1258Y1046D01*
X0Y1045D02*
X7Y1045D01*
X1251Y1045D02*
X1258Y1045D01*
X0Y1044D02*
X7Y1044D01*
X1251Y1044D02*
X1258Y1044D01*
X0Y1043D02*
X7Y1043D01*
X1251Y1043D02*
X1258Y1043D01*
X0Y1042D02*
X7Y1042D01*
X1251Y1042D02*
X1258Y1042D01*
X0Y1041D02*
X7Y1041D01*
X1251Y1041D02*
X1258Y1041D01*
X0Y1040D02*
X7Y1040D01*
X1251Y1040D02*
X1258Y1040D01*
X0Y1039D02*
X7Y1039D01*
X1251Y1039D02*
X1258Y1039D01*
X0Y1038D02*
X7Y1038D01*
X1251Y1038D02*
X1258Y1038D01*
X0Y1037D02*
X7Y1037D01*
X1251Y1037D02*
X1258Y1037D01*
X0Y1036D02*
X7Y1036D01*
X1251Y1036D02*
X1258Y1036D01*
X0Y1035D02*
X7Y1035D01*
X1251Y1035D02*
X1258Y1035D01*
X0Y1034D02*
X7Y1034D01*
X1251Y1034D02*
X1258Y1034D01*
X0Y1033D02*
X7Y1033D01*
X1251Y1033D02*
X1258Y1033D01*
X0Y1032D02*
X7Y1032D01*
X612Y1032D02*
X627Y1032D01*
X1212Y1032D02*
X1226Y1032D01*
X1251Y1032D02*
X1258Y1032D01*
X0Y1031D02*
X7Y1031D01*
X612Y1031D02*
X627Y1031D01*
X1212Y1031D02*
X1226Y1031D01*
X1251Y1031D02*
X1258Y1031D01*
X0Y1030D02*
X7Y1030D01*
X612Y1030D02*
X627Y1030D01*
X1212Y1030D02*
X1226Y1030D01*
X1251Y1030D02*
X1258Y1030D01*
X0Y1029D02*
X7Y1029D01*
X612Y1029D02*
X627Y1029D01*
X1212Y1029D02*
X1226Y1029D01*
X1251Y1029D02*
X1258Y1029D01*
X0Y1028D02*
X7Y1028D01*
X612Y1028D02*
X627Y1028D01*
X1212Y1028D02*
X1226Y1028D01*
X1251Y1028D02*
X1258Y1028D01*
X0Y1027D02*
X7Y1027D01*
X612Y1027D02*
X627Y1027D01*
X1212Y1027D02*
X1226Y1027D01*
X1251Y1027D02*
X1258Y1027D01*
X0Y1026D02*
X7Y1026D01*
X612Y1026D02*
X627Y1026D01*
X1212Y1026D02*
X1226Y1026D01*
X1251Y1026D02*
X1258Y1026D01*
X0Y1025D02*
X7Y1025D01*
X612Y1025D02*
X627Y1025D01*
X1212Y1025D02*
X1226Y1025D01*
X1251Y1025D02*
X1258Y1025D01*
X0Y1024D02*
X7Y1024D01*
X1251Y1024D02*
X1258Y1024D01*
X0Y1023D02*
X7Y1023D01*
X1251Y1023D02*
X1258Y1023D01*
X0Y1022D02*
X7Y1022D01*
X1251Y1022D02*
X1258Y1022D01*
X0Y1021D02*
X7Y1021D01*
X1251Y1021D02*
X1258Y1021D01*
X0Y1020D02*
X7Y1020D01*
X1251Y1020D02*
X1258Y1020D01*
X0Y1019D02*
X7Y1019D01*
X1251Y1019D02*
X1258Y1019D01*
X0Y1018D02*
X7Y1018D01*
X1251Y1018D02*
X1258Y1018D01*
X0Y1017D02*
X7Y1017D01*
X1251Y1017D02*
X1258Y1017D01*
X0Y1016D02*
X7Y1016D01*
X1251Y1016D02*
X1258Y1016D01*
X0Y1015D02*
X7Y1015D01*
X1251Y1015D02*
X1258Y1015D01*
X0Y1014D02*
X7Y1014D01*
X1251Y1014D02*
X1258Y1014D01*
X0Y1013D02*
X7Y1013D01*
X1251Y1013D02*
X1258Y1013D01*
X0Y1012D02*
X7Y1012D01*
X1252Y1012D02*
X1258Y1012D01*
X0Y1011D02*
X7Y1011D01*
X1252Y1011D02*
X1258Y1011D01*
X0Y1010D02*
X7Y1010D01*
X1252Y1010D02*
X1258Y1010D01*
X0Y1009D02*
X7Y1009D01*
X1253Y1009D02*
X1258Y1009D01*
X0Y1008D02*
X7Y1008D01*
X1253Y1008D02*
X1258Y1008D01*
X0Y1007D02*
X7Y1007D01*
X1253Y1007D02*
X1258Y1007D01*
X0Y1006D02*
X7Y1006D01*
X1253Y1006D02*
X1258Y1006D01*
X0Y1005D02*
X7Y1005D01*
X1253Y1005D02*
X1258Y1005D01*
X0Y1004D02*
X7Y1004D01*
X1253Y1004D02*
X1258Y1004D01*
X0Y1003D02*
X7Y1003D01*
X1253Y1003D02*
X1258Y1003D01*
X0Y1002D02*
X7Y1002D01*
X1253Y1002D02*
X1258Y1002D01*
X0Y1001D02*
X7Y1001D01*
X1253Y1001D02*
X1258Y1001D01*
X0Y1000D02*
X7Y1000D01*
X1253Y1000D02*
X1258Y1000D01*
X0Y999D02*
X7Y999D01*
X1253Y999D02*
X1258Y999D01*
X0Y998D02*
X7Y998D01*
X1252Y998D02*
X1258Y998D01*
X0Y997D02*
X7Y997D01*
X1252Y997D02*
X1258Y997D01*
X0Y996D02*
X7Y996D01*
X1252Y996D02*
X1258Y996D01*
X0Y995D02*
X7Y995D01*
X1251Y995D02*
X1258Y995D01*
X0Y994D02*
X7Y994D01*
X1251Y994D02*
X1258Y994D01*
X0Y993D02*
X7Y993D01*
X1251Y993D02*
X1258Y993D01*
X0Y992D02*
X7Y992D01*
X1251Y992D02*
X1258Y992D01*
X0Y991D02*
X7Y991D01*
X1251Y991D02*
X1258Y991D01*
X0Y990D02*
X7Y990D01*
X1251Y990D02*
X1258Y990D01*
X0Y989D02*
X7Y989D01*
X1251Y989D02*
X1258Y989D01*
X0Y988D02*
X7Y988D01*
X1251Y988D02*
X1258Y988D01*
X0Y987D02*
X7Y987D01*
X1251Y987D02*
X1258Y987D01*
X0Y986D02*
X7Y986D01*
X1251Y986D02*
X1258Y986D01*
X0Y985D02*
X7Y985D01*
X1251Y985D02*
X1258Y985D01*
X0Y984D02*
X7Y984D01*
X1251Y984D02*
X1258Y984D01*
X0Y983D02*
X7Y983D01*
X1251Y983D02*
X1258Y983D01*
X0Y982D02*
X7Y982D01*
X612Y982D02*
X625Y982D01*
X1212Y982D02*
X1226Y982D01*
X1251Y982D02*
X1258Y982D01*
X0Y981D02*
X7Y981D01*
X612Y981D02*
X626Y981D01*
X1212Y981D02*
X1226Y981D01*
X1251Y981D02*
X1258Y981D01*
X0Y980D02*
X7Y980D01*
X612Y980D02*
X627Y980D01*
X1212Y980D02*
X1226Y980D01*
X1251Y980D02*
X1258Y980D01*
X0Y979D02*
X7Y979D01*
X612Y979D02*
X627Y979D01*
X1212Y979D02*
X1226Y979D01*
X1251Y979D02*
X1258Y979D01*
X0Y978D02*
X7Y978D01*
X612Y978D02*
X627Y978D01*
X1212Y978D02*
X1226Y978D01*
X1251Y978D02*
X1258Y978D01*
X0Y977D02*
X7Y977D01*
X612Y977D02*
X627Y977D01*
X1212Y977D02*
X1226Y977D01*
X1251Y977D02*
X1258Y977D01*
X0Y976D02*
X7Y976D01*
X612Y976D02*
X627Y976D01*
X1212Y976D02*
X1226Y976D01*
X1251Y976D02*
X1258Y976D01*
X0Y975D02*
X7Y975D01*
X1251Y975D02*
X1258Y975D01*
X0Y974D02*
X7Y974D01*
X1251Y974D02*
X1258Y974D01*
X0Y973D02*
X7Y973D01*
X1251Y973D02*
X1258Y973D01*
X0Y972D02*
X7Y972D01*
X1251Y972D02*
X1258Y972D01*
X0Y971D02*
X7Y971D01*
X1251Y971D02*
X1258Y971D01*
X0Y970D02*
X7Y970D01*
X1251Y970D02*
X1258Y970D01*
X0Y969D02*
X7Y969D01*
X1251Y969D02*
X1258Y969D01*
X0Y968D02*
X7Y968D01*
X1251Y968D02*
X1258Y968D01*
X0Y967D02*
X7Y967D01*
X1251Y967D02*
X1258Y967D01*
X0Y966D02*
X7Y966D01*
X1251Y966D02*
X1258Y966D01*
X0Y965D02*
X7Y965D01*
X1251Y965D02*
X1258Y965D01*
X0Y964D02*
X7Y964D01*
X1251Y964D02*
X1258Y964D01*
X0Y963D02*
X7Y963D01*
X1251Y963D02*
X1258Y963D01*
X0Y962D02*
X7Y962D01*
X1252Y962D02*
X1258Y962D01*
X0Y961D02*
X7Y961D01*
X1252Y961D02*
X1258Y961D01*
X0Y960D02*
X7Y960D01*
X1252Y960D02*
X1258Y960D01*
X0Y959D02*
X7Y959D01*
X1253Y959D02*
X1258Y959D01*
X0Y958D02*
X7Y958D01*
X1253Y958D02*
X1258Y958D01*
X0Y957D02*
X7Y957D01*
X1253Y957D02*
X1258Y957D01*
X0Y956D02*
X7Y956D01*
X1253Y956D02*
X1258Y956D01*
X0Y955D02*
X7Y955D01*
X1253Y955D02*
X1258Y955D01*
X0Y954D02*
X7Y954D01*
X1253Y954D02*
X1258Y954D01*
X0Y953D02*
X7Y953D01*
X1253Y953D02*
X1258Y953D01*
X0Y952D02*
X7Y952D01*
X1253Y952D02*
X1258Y952D01*
X0Y951D02*
X7Y951D01*
X1253Y951D02*
X1258Y951D01*
X0Y950D02*
X7Y950D01*
X1253Y950D02*
X1258Y950D01*
X0Y949D02*
X7Y949D01*
X1253Y949D02*
X1258Y949D01*
X0Y948D02*
X7Y948D01*
X1252Y948D02*
X1258Y948D01*
X0Y947D02*
X7Y947D01*
X1252Y947D02*
X1258Y947D01*
X0Y946D02*
X7Y946D01*
X1252Y946D02*
X1258Y946D01*
X0Y945D02*
X7Y945D01*
X1251Y945D02*
X1258Y945D01*
X0Y944D02*
X7Y944D01*
X1251Y944D02*
X1258Y944D01*
X0Y943D02*
X7Y943D01*
X1251Y943D02*
X1258Y943D01*
X0Y942D02*
X7Y942D01*
X1251Y942D02*
X1258Y942D01*
X0Y941D02*
X7Y941D01*
X1251Y941D02*
X1258Y941D01*
X0Y940D02*
X7Y940D01*
X1251Y940D02*
X1258Y940D01*
X0Y939D02*
X7Y939D01*
X1251Y939D02*
X1258Y939D01*
X0Y938D02*
X7Y938D01*
X1251Y938D02*
X1258Y938D01*
X0Y937D02*
X7Y937D01*
X1251Y937D02*
X1258Y937D01*
X0Y936D02*
X7Y936D01*
X1251Y936D02*
X1258Y936D01*
X0Y935D02*
X7Y935D01*
X1251Y935D02*
X1258Y935D01*
X0Y934D02*
X7Y934D01*
X1251Y934D02*
X1258Y934D01*
X0Y933D02*
X7Y933D01*
X612Y933D02*
X627Y933D01*
X1212Y933D02*
X1226Y933D01*
X1251Y933D02*
X1258Y933D01*
X0Y932D02*
X7Y932D01*
X612Y932D02*
X627Y932D01*
X1212Y932D02*
X1226Y932D01*
X1251Y932D02*
X1258Y932D01*
X0Y931D02*
X7Y931D01*
X612Y931D02*
X627Y931D01*
X1212Y931D02*
X1226Y931D01*
X1251Y931D02*
X1258Y931D01*
X0Y930D02*
X7Y930D01*
X612Y930D02*
X627Y930D01*
X1212Y930D02*
X1226Y930D01*
X1251Y930D02*
X1258Y930D01*
X0Y929D02*
X7Y929D01*
X612Y929D02*
X627Y929D01*
X1212Y929D02*
X1226Y929D01*
X1251Y929D02*
X1258Y929D01*
X0Y928D02*
X7Y928D01*
X612Y928D02*
X627Y928D01*
X1212Y928D02*
X1226Y928D01*
X1251Y928D02*
X1258Y928D01*
X0Y927D02*
X7Y927D01*
X612Y927D02*
X627Y927D01*
X1212Y927D02*
X1226Y927D01*
X1251Y927D02*
X1258Y927D01*
X0Y926D02*
X7Y926D01*
X612Y926D02*
X627Y926D01*
X1212Y926D02*
X1226Y926D01*
X1251Y926D02*
X1258Y926D01*
X0Y925D02*
X7Y925D01*
X1251Y925D02*
X1258Y925D01*
X0Y924D02*
X7Y924D01*
X1251Y924D02*
X1258Y924D01*
X0Y923D02*
X7Y923D01*
X1251Y923D02*
X1258Y923D01*
X0Y922D02*
X7Y922D01*
X1251Y922D02*
X1258Y922D01*
X0Y921D02*
X7Y921D01*
X1251Y921D02*
X1258Y921D01*
X0Y920D02*
X7Y920D01*
X1251Y920D02*
X1258Y920D01*
X0Y919D02*
X7Y919D01*
X1251Y919D02*
X1258Y919D01*
X0Y918D02*
X7Y918D01*
X1251Y918D02*
X1258Y918D01*
X0Y917D02*
X7Y917D01*
X1251Y917D02*
X1258Y917D01*
X0Y916D02*
X7Y916D01*
X1251Y916D02*
X1258Y916D01*
X0Y915D02*
X7Y915D01*
X1251Y915D02*
X1258Y915D01*
X0Y914D02*
X7Y914D01*
X1251Y914D02*
X1258Y914D01*
X0Y913D02*
X7Y913D01*
X1251Y913D02*
X1258Y913D01*
X0Y912D02*
X7Y912D01*
X1252Y912D02*
X1258Y912D01*
X0Y911D02*
X7Y911D01*
X1252Y911D02*
X1258Y911D01*
X0Y910D02*
X7Y910D01*
X1252Y910D02*
X1258Y910D01*
X0Y909D02*
X7Y909D01*
X1253Y909D02*
X1258Y909D01*
X0Y908D02*
X7Y908D01*
X1253Y908D02*
X1258Y908D01*
X0Y907D02*
X7Y907D01*
X1253Y907D02*
X1258Y907D01*
X0Y906D02*
X7Y906D01*
X1253Y906D02*
X1258Y906D01*
X0Y905D02*
X7Y905D01*
X1253Y905D02*
X1258Y905D01*
X0Y904D02*
X7Y904D01*
X1253Y904D02*
X1258Y904D01*
X0Y903D02*
X7Y903D01*
X1253Y903D02*
X1258Y903D01*
X0Y902D02*
X7Y902D01*
X1253Y902D02*
X1258Y902D01*
X0Y901D02*
X7Y901D01*
X1253Y901D02*
X1258Y901D01*
X0Y900D02*
X7Y900D01*
X1253Y900D02*
X1258Y900D01*
X0Y899D02*
X7Y899D01*
X1253Y899D02*
X1258Y899D01*
X0Y898D02*
X7Y898D01*
X1252Y898D02*
X1258Y898D01*
X0Y897D02*
X7Y897D01*
X1252Y897D02*
X1258Y897D01*
X0Y896D02*
X7Y896D01*
X1252Y896D02*
X1258Y896D01*
X0Y895D02*
X7Y895D01*
X1251Y895D02*
X1258Y895D01*
X0Y894D02*
X7Y894D01*
X1251Y894D02*
X1258Y894D01*
X0Y893D02*
X7Y893D01*
X1251Y893D02*
X1258Y893D01*
X0Y892D02*
X7Y892D01*
X1251Y892D02*
X1258Y892D01*
X0Y891D02*
X7Y891D01*
X1251Y891D02*
X1258Y891D01*
X0Y890D02*
X7Y890D01*
X1251Y890D02*
X1258Y890D01*
X0Y889D02*
X7Y889D01*
X1251Y889D02*
X1258Y889D01*
X0Y888D02*
X7Y888D01*
X1251Y888D02*
X1258Y888D01*
X0Y887D02*
X7Y887D01*
X1251Y887D02*
X1258Y887D01*
X0Y886D02*
X7Y886D01*
X1251Y886D02*
X1258Y886D01*
X0Y885D02*
X7Y885D01*
X1251Y885D02*
X1258Y885D01*
X0Y884D02*
X7Y884D01*
X1251Y884D02*
X1258Y884D01*
X0Y883D02*
X7Y883D01*
X612Y883D02*
X627Y883D01*
X1212Y883D02*
X1226Y883D01*
X1251Y883D02*
X1258Y883D01*
X0Y882D02*
X7Y882D01*
X612Y882D02*
X627Y882D01*
X1212Y882D02*
X1226Y882D01*
X1251Y882D02*
X1258Y882D01*
X0Y881D02*
X7Y881D01*
X612Y881D02*
X627Y881D01*
X1212Y881D02*
X1226Y881D01*
X1251Y881D02*
X1258Y881D01*
X0Y880D02*
X7Y880D01*
X612Y880D02*
X627Y880D01*
X1212Y880D02*
X1226Y880D01*
X1251Y880D02*
X1258Y880D01*
X0Y879D02*
X7Y879D01*
X612Y879D02*
X627Y879D01*
X1212Y879D02*
X1226Y879D01*
X1251Y879D02*
X1258Y879D01*
X0Y878D02*
X7Y878D01*
X612Y878D02*
X627Y878D01*
X1212Y878D02*
X1226Y878D01*
X1251Y878D02*
X1258Y878D01*
X0Y877D02*
X7Y877D01*
X612Y877D02*
X627Y877D01*
X1212Y877D02*
X1226Y877D01*
X1251Y877D02*
X1258Y877D01*
X0Y876D02*
X7Y876D01*
X612Y876D02*
X627Y876D01*
X1212Y876D02*
X1226Y876D01*
X1251Y876D02*
X1258Y876D01*
X0Y875D02*
X7Y875D01*
X1251Y875D02*
X1258Y875D01*
X0Y874D02*
X7Y874D01*
X1251Y874D02*
X1258Y874D01*
X0Y873D02*
X7Y873D01*
X1251Y873D02*
X1258Y873D01*
X0Y872D02*
X7Y872D01*
X1251Y872D02*
X1258Y872D01*
X0Y871D02*
X7Y871D01*
X1251Y871D02*
X1258Y871D01*
X0Y870D02*
X7Y870D01*
X1251Y870D02*
X1258Y870D01*
X0Y869D02*
X7Y869D01*
X1251Y869D02*
X1258Y869D01*
X0Y868D02*
X7Y868D01*
X1251Y868D02*
X1258Y868D01*
X0Y867D02*
X7Y867D01*
X1251Y867D02*
X1258Y867D01*
X0Y866D02*
X7Y866D01*
X1251Y866D02*
X1258Y866D01*
X0Y865D02*
X7Y865D01*
X1251Y865D02*
X1258Y865D01*
X0Y864D02*
X7Y864D01*
X1251Y864D02*
X1258Y864D01*
X0Y863D02*
X7Y863D01*
X1251Y863D02*
X1258Y863D01*
X0Y862D02*
X7Y862D01*
X1252Y862D02*
X1258Y862D01*
X0Y861D02*
X7Y861D01*
X1252Y861D02*
X1258Y861D01*
X0Y860D02*
X7Y860D01*
X1252Y860D02*
X1258Y860D01*
X0Y859D02*
X7Y859D01*
X1253Y859D02*
X1258Y859D01*
X0Y858D02*
X7Y858D01*
X1253Y858D02*
X1258Y858D01*
X0Y857D02*
X7Y857D01*
X1253Y857D02*
X1258Y857D01*
X0Y856D02*
X7Y856D01*
X1253Y856D02*
X1258Y856D01*
X0Y855D02*
X7Y855D01*
X1253Y855D02*
X1258Y855D01*
X0Y854D02*
X7Y854D01*
X1253Y854D02*
X1258Y854D01*
X0Y853D02*
X7Y853D01*
X1253Y853D02*
X1258Y853D01*
X0Y852D02*
X7Y852D01*
X1253Y852D02*
X1258Y852D01*
X0Y851D02*
X7Y851D01*
X1253Y851D02*
X1258Y851D01*
X0Y850D02*
X7Y850D01*
X1253Y850D02*
X1258Y850D01*
X0Y849D02*
X7Y849D01*
X1253Y849D02*
X1258Y849D01*
X0Y848D02*
X7Y848D01*
X1252Y848D02*
X1258Y848D01*
X0Y847D02*
X7Y847D01*
X1252Y847D02*
X1258Y847D01*
X0Y846D02*
X7Y846D01*
X1252Y846D02*
X1258Y846D01*
X0Y845D02*
X7Y845D01*
X1251Y845D02*
X1258Y845D01*
X0Y844D02*
X7Y844D01*
X1251Y844D02*
X1258Y844D01*
X0Y843D02*
X7Y843D01*
X1251Y843D02*
X1258Y843D01*
X0Y842D02*
X7Y842D01*
X1251Y842D02*
X1258Y842D01*
X0Y841D02*
X7Y841D01*
X1251Y841D02*
X1258Y841D01*
X0Y840D02*
X7Y840D01*
X1251Y840D02*
X1258Y840D01*
X0Y839D02*
X7Y839D01*
X1251Y839D02*
X1258Y839D01*
X0Y838D02*
X7Y838D01*
X1251Y838D02*
X1258Y838D01*
X0Y837D02*
X7Y837D01*
X1251Y837D02*
X1258Y837D01*
X0Y836D02*
X7Y836D01*
X1251Y836D02*
X1258Y836D01*
X0Y835D02*
X7Y835D01*
X1251Y835D02*
X1258Y835D01*
X0Y834D02*
X7Y834D01*
X1251Y834D02*
X1258Y834D01*
X0Y833D02*
X7Y833D01*
X612Y833D02*
X627Y833D01*
X1212Y833D02*
X1226Y833D01*
X1251Y833D02*
X1258Y833D01*
X0Y832D02*
X7Y832D01*
X612Y832D02*
X627Y832D01*
X1212Y832D02*
X1226Y832D01*
X1251Y832D02*
X1258Y832D01*
X0Y831D02*
X7Y831D01*
X612Y831D02*
X627Y831D01*
X1212Y831D02*
X1226Y831D01*
X1251Y831D02*
X1258Y831D01*
X0Y830D02*
X7Y830D01*
X612Y830D02*
X627Y830D01*
X1212Y830D02*
X1226Y830D01*
X1251Y830D02*
X1258Y830D01*
X0Y829D02*
X7Y829D01*
X612Y829D02*
X627Y829D01*
X1212Y829D02*
X1226Y829D01*
X1251Y829D02*
X1258Y829D01*
X0Y828D02*
X7Y828D01*
X612Y828D02*
X627Y828D01*
X1212Y828D02*
X1226Y828D01*
X1251Y828D02*
X1258Y828D01*
X0Y827D02*
X7Y827D01*
X612Y827D02*
X627Y827D01*
X1212Y827D02*
X1226Y827D01*
X1251Y827D02*
X1258Y827D01*
X0Y826D02*
X7Y826D01*
X612Y826D02*
X627Y826D01*
X1212Y826D02*
X1226Y826D01*
X1251Y826D02*
X1258Y826D01*
X0Y825D02*
X0Y825D01*
X1251Y825D02*
X1258Y825D01*
X0Y824D02*
X0Y824D01*
X1251Y824D02*
X1258Y824D01*
X0Y823D02*
X0Y823D01*
X1251Y823D02*
X1258Y823D01*
X0Y822D02*
X0Y822D01*
X1251Y822D02*
X1258Y822D01*
X0Y821D02*
X0Y821D01*
X1251Y821D02*
X1258Y821D01*
X0Y820D02*
X0Y820D01*
X1251Y820D02*
X1258Y820D01*
X0Y819D02*
X0Y819D01*
X1251Y819D02*
X1258Y819D01*
X0Y818D02*
X0Y818D01*
X1251Y818D02*
X1258Y818D01*
X0Y817D02*
X0Y817D01*
X1251Y817D02*
X1258Y817D01*
X0Y816D02*
X0Y816D01*
X1251Y816D02*
X1258Y816D01*
X0Y815D02*
X0Y815D01*
X1251Y815D02*
X1258Y815D01*
X0Y814D02*
X0Y814D01*
X1251Y814D02*
X1258Y814D01*
X0Y813D02*
X0Y813D01*
X1251Y813D02*
X1258Y813D01*
X0Y812D02*
X0Y812D01*
X1252Y812D02*
X1258Y812D01*
X0Y811D02*
X0Y811D01*
X1252Y811D02*
X1258Y811D01*
X0Y810D02*
X0Y810D01*
X1252Y810D02*
X1258Y810D01*
X0Y809D02*
X0Y809D01*
X1253Y809D02*
X1258Y809D01*
X0Y808D02*
X0Y808D01*
X1253Y808D02*
X1258Y808D01*
X0Y807D02*
X0Y807D01*
X1253Y807D02*
X1258Y807D01*
X0Y806D02*
X0Y806D01*
X1253Y806D02*
X1258Y806D01*
X0Y805D02*
X0Y805D01*
X1253Y805D02*
X1258Y805D01*
X0Y804D02*
X0Y804D01*
X1253Y804D02*
X1258Y804D01*
X0Y803D02*
X0Y803D01*
X1253Y803D02*
X1258Y803D01*
X0Y802D02*
X0Y802D01*
X1253Y802D02*
X1258Y802D01*
X0Y801D02*
X0Y801D01*
X1253Y801D02*
X1258Y801D01*
X0Y800D02*
X0Y800D01*
X1253Y800D02*
X1258Y800D01*
X0Y799D02*
X0Y799D01*
X1253Y799D02*
X1258Y799D01*
X0Y798D02*
X0Y798D01*
X1252Y798D02*
X1258Y798D01*
X0Y797D02*
X0Y797D01*
X1252Y797D02*
X1258Y797D01*
X0Y796D02*
X0Y796D01*
X1252Y796D02*
X1258Y796D01*
X0Y795D02*
X0Y795D01*
X1251Y795D02*
X1258Y795D01*
X0Y794D02*
X0Y794D01*
X1251Y794D02*
X1258Y794D01*
X0Y793D02*
X0Y793D01*
X1251Y793D02*
X1258Y793D01*
X0Y792D02*
X0Y792D01*
X1251Y792D02*
X1258Y792D01*
X0Y791D02*
X0Y791D01*
X1251Y791D02*
X1258Y791D01*
X0Y790D02*
X0Y790D01*
X1251Y790D02*
X1258Y790D01*
X0Y789D02*
X0Y789D01*
X1251Y789D02*
X1258Y789D01*
X0Y788D02*
X0Y788D01*
X1251Y788D02*
X1258Y788D01*
X0Y787D02*
X0Y787D01*
X1251Y787D02*
X1258Y787D01*
X0Y786D02*
X0Y786D01*
X1251Y786D02*
X1258Y786D01*
X0Y785D02*
X0Y785D01*
X1251Y785D02*
X1258Y785D01*
X0Y784D02*
X0Y784D01*
X1251Y784D02*
X1258Y784D01*
X0Y783D02*
X0Y783D01*
X612Y783D02*
X627Y783D01*
X1212Y783D02*
X1226Y783D01*
X1251Y783D02*
X1258Y783D01*
X0Y782D02*
X0Y782D01*
X612Y782D02*
X627Y782D01*
X1212Y782D02*
X1226Y782D01*
X1251Y782D02*
X1258Y782D01*
X0Y781D02*
X0Y781D01*
X612Y781D02*
X627Y781D01*
X1212Y781D02*
X1226Y781D01*
X1251Y781D02*
X1258Y781D01*
X0Y780D02*
X0Y780D01*
X612Y780D02*
X627Y780D01*
X1212Y780D02*
X1226Y780D01*
X1251Y780D02*
X1258Y780D01*
X0Y779D02*
X0Y779D01*
X612Y779D02*
X627Y779D01*
X1212Y779D02*
X1226Y779D01*
X1251Y779D02*
X1258Y779D01*
X0Y778D02*
X0Y778D01*
X612Y778D02*
X627Y778D01*
X1212Y778D02*
X1226Y778D01*
X1251Y778D02*
X1258Y778D01*
X0Y777D02*
X0Y777D01*
X612Y777D02*
X627Y777D01*
X1212Y777D02*
X1226Y777D01*
X1251Y777D02*
X1258Y777D01*
X0Y776D02*
X0Y776D01*
X612Y776D02*
X627Y776D01*
X1212Y776D02*
X1226Y776D01*
X1251Y776D02*
X1258Y776D01*
X0Y775D02*
X0Y775D01*
X1251Y775D02*
X1258Y775D01*
X0Y774D02*
X0Y774D01*
X1251Y774D02*
X1258Y774D01*
X0Y773D02*
X0Y773D01*
X1251Y773D02*
X1258Y773D01*
X0Y772D02*
X0Y772D01*
X1251Y772D02*
X1258Y772D01*
X0Y771D02*
X0Y771D01*
X1251Y771D02*
X1258Y771D01*
X0Y770D02*
X0Y770D01*
X1251Y770D02*
X1258Y770D01*
X0Y769D02*
X0Y769D01*
X1251Y769D02*
X1258Y769D01*
X0Y768D02*
X0Y768D01*
X1251Y768D02*
X1258Y768D01*
X0Y767D02*
X0Y767D01*
X1251Y767D02*
X1258Y767D01*
X0Y766D02*
X0Y766D01*
X1251Y766D02*
X1258Y766D01*
X0Y765D02*
X0Y765D01*
X1251Y765D02*
X1258Y765D01*
X0Y764D02*
X0Y764D01*
X1251Y764D02*
X1258Y764D01*
X0Y763D02*
X0Y763D01*
X1251Y763D02*
X1258Y763D01*
X0Y762D02*
X0Y762D01*
X1252Y762D02*
X1258Y762D01*
X0Y761D02*
X0Y761D01*
X1252Y761D02*
X1258Y761D01*
X0Y760D02*
X0Y760D01*
X1252Y760D02*
X1258Y760D01*
X0Y759D02*
X0Y759D01*
X1253Y759D02*
X1258Y759D01*
X0Y758D02*
X0Y758D01*
X1253Y758D02*
X1258Y758D01*
X0Y757D02*
X1Y757D01*
X1253Y757D02*
X1258Y757D01*
X0Y756D02*
X7Y756D01*
X1253Y756D02*
X1258Y756D01*
X0Y755D02*
X7Y755D01*
X1253Y755D02*
X1258Y755D01*
X0Y754D02*
X7Y754D01*
X1253Y754D02*
X1258Y754D01*
X0Y753D02*
X7Y753D01*
X1253Y753D02*
X1258Y753D01*
X0Y752D02*
X7Y752D01*
X1253Y752D02*
X1258Y752D01*
X0Y751D02*
X7Y751D01*
X1253Y751D02*
X1258Y751D01*
X0Y750D02*
X7Y750D01*
X1253Y750D02*
X1258Y750D01*
X0Y749D02*
X7Y749D01*
X1253Y749D02*
X1258Y749D01*
X0Y748D02*
X7Y748D01*
X1252Y748D02*
X1258Y748D01*
X0Y747D02*
X7Y747D01*
X1252Y747D02*
X1258Y747D01*
X0Y746D02*
X7Y746D01*
X1252Y746D02*
X1258Y746D01*
X0Y745D02*
X7Y745D01*
X1251Y745D02*
X1258Y745D01*
X0Y744D02*
X7Y744D01*
X1251Y744D02*
X1258Y744D01*
X0Y743D02*
X7Y743D01*
X1251Y743D02*
X1258Y743D01*
X0Y742D02*
X7Y742D01*
X1251Y742D02*
X1258Y742D01*
X0Y741D02*
X7Y741D01*
X1251Y741D02*
X1258Y741D01*
X0Y740D02*
X7Y740D01*
X1251Y740D02*
X1258Y740D01*
X0Y739D02*
X7Y739D01*
X1251Y739D02*
X1258Y739D01*
X0Y738D02*
X7Y738D01*
X1251Y738D02*
X1258Y738D01*
X0Y737D02*
X7Y737D01*
X1251Y737D02*
X1258Y737D01*
X0Y736D02*
X7Y736D01*
X1251Y736D02*
X1258Y736D01*
X0Y735D02*
X7Y735D01*
X1251Y735D02*
X1258Y735D01*
X0Y734D02*
X7Y734D01*
X1251Y734D02*
X1258Y734D01*
X0Y733D02*
X7Y733D01*
X612Y733D02*
X627Y733D01*
X1212Y733D02*
X1226Y733D01*
X1251Y733D02*
X1258Y733D01*
X0Y732D02*
X7Y732D01*
X612Y732D02*
X627Y732D01*
X1212Y732D02*
X1226Y732D01*
X1251Y732D02*
X1258Y732D01*
X0Y731D02*
X7Y731D01*
X612Y731D02*
X627Y731D01*
X1212Y731D02*
X1226Y731D01*
X1251Y731D02*
X1258Y731D01*
X0Y730D02*
X7Y730D01*
X612Y730D02*
X627Y730D01*
X1212Y730D02*
X1226Y730D01*
X1251Y730D02*
X1258Y730D01*
X0Y729D02*
X7Y729D01*
X612Y729D02*
X627Y729D01*
X1212Y729D02*
X1226Y729D01*
X1251Y729D02*
X1258Y729D01*
X0Y728D02*
X7Y728D01*
X612Y728D02*
X627Y728D01*
X1212Y728D02*
X1226Y728D01*
X1251Y728D02*
X1258Y728D01*
X0Y727D02*
X7Y727D01*
X612Y727D02*
X627Y727D01*
X1212Y727D02*
X1226Y727D01*
X1251Y727D02*
X1258Y727D01*
X0Y726D02*
X7Y726D01*
X612Y726D02*
X627Y726D01*
X1212Y726D02*
X1226Y726D01*
X1251Y726D02*
X1258Y726D01*
X0Y725D02*
X7Y725D01*
X1251Y725D02*
X1258Y725D01*
X0Y724D02*
X7Y724D01*
X1251Y724D02*
X1258Y724D01*
X0Y723D02*
X7Y723D01*
X1251Y723D02*
X1258Y723D01*
X0Y722D02*
X7Y722D01*
X1251Y722D02*
X1258Y722D01*
X0Y721D02*
X7Y721D01*
X1251Y721D02*
X1258Y721D01*
X0Y720D02*
X7Y720D01*
X1251Y720D02*
X1258Y720D01*
X0Y719D02*
X7Y719D01*
X1251Y719D02*
X1258Y719D01*
X0Y718D02*
X7Y718D01*
X1251Y718D02*
X1258Y718D01*
X0Y717D02*
X7Y717D01*
X1251Y717D02*
X1258Y717D01*
X0Y716D02*
X7Y716D01*
X1251Y716D02*
X1258Y716D01*
X0Y715D02*
X7Y715D01*
X1251Y715D02*
X1258Y715D01*
X0Y714D02*
X7Y714D01*
X1251Y714D02*
X1258Y714D01*
X0Y713D02*
X7Y713D01*
X1251Y713D02*
X1258Y713D01*
X0Y712D02*
X7Y712D01*
X1252Y712D02*
X1258Y712D01*
X0Y711D02*
X7Y711D01*
X1252Y711D02*
X1258Y711D01*
X0Y710D02*
X7Y710D01*
X1252Y710D02*
X1258Y710D01*
X0Y709D02*
X7Y709D01*
X1253Y709D02*
X1258Y709D01*
X0Y708D02*
X7Y708D01*
X1253Y708D02*
X1258Y708D01*
X0Y707D02*
X7Y707D01*
X1253Y707D02*
X1258Y707D01*
X0Y706D02*
X7Y706D01*
X1253Y706D02*
X1258Y706D01*
X0Y705D02*
X7Y705D01*
X1253Y705D02*
X1258Y705D01*
X0Y704D02*
X7Y704D01*
X1253Y704D02*
X1258Y704D01*
X0Y703D02*
X7Y703D01*
X1253Y703D02*
X1258Y703D01*
X0Y702D02*
X7Y702D01*
X1253Y702D02*
X1258Y702D01*
X0Y701D02*
X7Y701D01*
X1253Y701D02*
X1258Y701D01*
X0Y700D02*
X7Y700D01*
X1253Y700D02*
X1258Y700D01*
X0Y699D02*
X7Y699D01*
X1253Y699D02*
X1258Y699D01*
X0Y698D02*
X7Y698D01*
X1252Y698D02*
X1258Y698D01*
X0Y697D02*
X7Y697D01*
X1252Y697D02*
X1258Y697D01*
X0Y696D02*
X7Y696D01*
X1252Y696D02*
X1258Y696D01*
X0Y695D02*
X7Y695D01*
X1251Y695D02*
X1258Y695D01*
X0Y694D02*
X7Y694D01*
X1251Y694D02*
X1258Y694D01*
X0Y693D02*
X7Y693D01*
X1251Y693D02*
X1258Y693D01*
X0Y692D02*
X7Y692D01*
X1251Y692D02*
X1258Y692D01*
X0Y691D02*
X7Y691D01*
X1251Y691D02*
X1258Y691D01*
X0Y690D02*
X7Y690D01*
X1251Y690D02*
X1258Y690D01*
X0Y689D02*
X7Y689D01*
X1251Y689D02*
X1258Y689D01*
X0Y688D02*
X7Y688D01*
X1251Y688D02*
X1258Y688D01*
X0Y687D02*
X7Y687D01*
X1251Y687D02*
X1258Y687D01*
X0Y686D02*
X7Y686D01*
X1251Y686D02*
X1258Y686D01*
X0Y685D02*
X7Y685D01*
X1251Y685D02*
X1258Y685D01*
X0Y684D02*
X7Y684D01*
X1251Y684D02*
X1258Y684D01*
X0Y683D02*
X7Y683D01*
X612Y683D02*
X627Y683D01*
X1212Y683D02*
X1226Y683D01*
X1251Y683D02*
X1258Y683D01*
X0Y682D02*
X7Y682D01*
X612Y682D02*
X627Y682D01*
X1212Y682D02*
X1226Y682D01*
X1251Y682D02*
X1258Y682D01*
X0Y681D02*
X7Y681D01*
X612Y681D02*
X627Y681D01*
X1212Y681D02*
X1226Y681D01*
X1251Y681D02*
X1258Y681D01*
X0Y680D02*
X7Y680D01*
X612Y680D02*
X627Y680D01*
X1212Y680D02*
X1226Y680D01*
X1251Y680D02*
X1258Y680D01*
X0Y679D02*
X7Y679D01*
X612Y679D02*
X627Y679D01*
X1212Y679D02*
X1226Y679D01*
X1251Y679D02*
X1258Y679D01*
X0Y678D02*
X7Y678D01*
X612Y678D02*
X627Y678D01*
X1212Y678D02*
X1226Y678D01*
X1251Y678D02*
X1258Y678D01*
X0Y677D02*
X7Y677D01*
X612Y677D02*
X627Y677D01*
X1212Y677D02*
X1226Y677D01*
X1251Y677D02*
X1258Y677D01*
X0Y676D02*
X7Y676D01*
X612Y676D02*
X627Y676D01*
X1212Y676D02*
X1226Y676D01*
X1251Y676D02*
X1258Y676D01*
X0Y675D02*
X7Y675D01*
X612Y675D02*
X627Y675D01*
X1212Y675D02*
X1226Y675D01*
X1251Y675D02*
X1258Y675D01*
X0Y674D02*
X7Y674D01*
X612Y674D02*
X627Y674D01*
X1212Y674D02*
X1226Y674D01*
X1251Y674D02*
X1258Y674D01*
X0Y673D02*
X7Y673D01*
X612Y673D02*
X627Y673D01*
X1212Y673D02*
X1226Y673D01*
X1251Y673D02*
X1258Y673D01*
X0Y672D02*
X7Y672D01*
X612Y672D02*
X627Y672D01*
X1212Y672D02*
X1226Y672D01*
X1251Y672D02*
X1258Y672D01*
X0Y671D02*
X7Y671D01*
X612Y671D02*
X627Y671D01*
X1212Y671D02*
X1226Y671D01*
X1251Y671D02*
X1258Y671D01*
X0Y670D02*
X7Y670D01*
X612Y670D02*
X627Y670D01*
X1212Y670D02*
X1226Y670D01*
X1251Y670D02*
X1258Y670D01*
X0Y669D02*
X7Y669D01*
X612Y669D02*
X627Y669D01*
X1212Y669D02*
X1226Y669D01*
X1251Y669D02*
X1258Y669D01*
X0Y668D02*
X7Y668D01*
X612Y668D02*
X627Y668D01*
X1212Y668D02*
X1226Y668D01*
X1251Y668D02*
X1258Y668D01*
X0Y667D02*
X7Y667D01*
X612Y667D02*
X627Y667D01*
X1212Y667D02*
X1226Y667D01*
X1251Y667D02*
X1258Y667D01*
X0Y666D02*
X7Y666D01*
X612Y666D02*
X627Y666D01*
X1212Y666D02*
X1226Y666D01*
X1251Y666D02*
X1258Y666D01*
X0Y665D02*
X7Y665D01*
X612Y665D02*
X627Y665D01*
X1212Y665D02*
X1226Y665D01*
X1251Y665D02*
X1258Y665D01*
X0Y664D02*
X7Y664D01*
X612Y664D02*
X627Y664D01*
X1212Y664D02*
X1226Y664D01*
X1251Y664D02*
X1258Y664D01*
X0Y663D02*
X7Y663D01*
X612Y663D02*
X627Y663D01*
X1212Y663D02*
X1226Y663D01*
X1251Y663D02*
X1258Y663D01*
X0Y662D02*
X7Y662D01*
X612Y662D02*
X627Y662D01*
X1212Y662D02*
X1226Y662D01*
X1251Y662D02*
X1258Y662D01*
X0Y661D02*
X7Y661D01*
X612Y661D02*
X627Y661D01*
X1212Y661D02*
X1226Y661D01*
X1251Y661D02*
X1258Y661D01*
X0Y660D02*
X7Y660D01*
X612Y660D02*
X627Y660D01*
X1212Y660D02*
X1226Y660D01*
X1251Y660D02*
X1258Y660D01*
X0Y659D02*
X7Y659D01*
X612Y659D02*
X627Y659D01*
X1212Y659D02*
X1226Y659D01*
X1251Y659D02*
X1258Y659D01*
X0Y658D02*
X7Y658D01*
X612Y658D02*
X627Y658D01*
X1212Y658D02*
X1226Y658D01*
X1251Y658D02*
X1258Y658D01*
X0Y657D02*
X7Y657D01*
X612Y657D02*
X627Y657D01*
X1212Y657D02*
X1226Y657D01*
X1251Y657D02*
X1258Y657D01*
X0Y656D02*
X7Y656D01*
X612Y656D02*
X627Y656D01*
X1212Y656D02*
X1226Y656D01*
X1251Y656D02*
X1258Y656D01*
X0Y655D02*
X7Y655D01*
X612Y655D02*
X627Y655D01*
X1212Y655D02*
X1226Y655D01*
X1251Y655D02*
X1258Y655D01*
X0Y654D02*
X7Y654D01*
X1251Y654D02*
X1258Y654D01*
X0Y653D02*
X7Y653D01*
X1251Y653D02*
X1258Y653D01*
X0Y652D02*
X7Y652D01*
X1251Y652D02*
X1258Y652D01*
X0Y651D02*
X7Y651D01*
X1251Y651D02*
X1258Y651D01*
X0Y650D02*
X7Y650D01*
X1251Y650D02*
X1258Y650D01*
X0Y649D02*
X7Y649D01*
X1251Y649D02*
X1258Y649D01*
X0Y648D02*
X7Y648D01*
X1251Y648D02*
X1258Y648D01*
X0Y647D02*
X7Y647D01*
X1251Y647D02*
X1258Y647D01*
X0Y646D02*
X7Y646D01*
X1251Y646D02*
X1258Y646D01*
X0Y645D02*
X7Y645D01*
X1251Y645D02*
X1258Y645D01*
X0Y644D02*
X7Y644D01*
X1251Y644D02*
X1258Y644D01*
X0Y643D02*
X7Y643D01*
X1251Y643D02*
X1258Y643D01*
X0Y642D02*
X7Y642D01*
X1251Y642D02*
X1258Y642D01*
X0Y641D02*
X7Y641D01*
X1251Y641D02*
X1258Y641D01*
X0Y640D02*
X7Y640D01*
X1251Y640D02*
X1258Y640D01*
X0Y639D02*
X7Y639D01*
X1251Y639D02*
X1258Y639D01*
X0Y638D02*
X7Y638D01*
X1251Y638D02*
X1258Y638D01*
X0Y637D02*
X7Y637D01*
X1251Y637D02*
X1258Y637D01*
X0Y636D02*
X7Y636D01*
X1251Y636D02*
X1258Y636D01*
X0Y635D02*
X7Y635D01*
X1251Y635D02*
X1258Y635D01*
X0Y634D02*
X7Y634D01*
X1251Y634D02*
X1258Y634D01*
X0Y633D02*
X7Y633D01*
X1251Y633D02*
X1258Y633D01*
X0Y632D02*
X7Y632D01*
X1251Y632D02*
X1258Y632D01*
X0Y631D02*
X7Y631D01*
X1251Y631D02*
X1258Y631D01*
X0Y630D02*
X7Y630D01*
X1251Y630D02*
X1258Y630D01*
X0Y629D02*
X7Y629D01*
X1251Y629D02*
X1258Y629D01*
X0Y628D02*
X7Y628D01*
X1251Y628D02*
X1258Y628D01*
X0Y627D02*
X7Y627D01*
X1251Y627D02*
X1258Y627D01*
X0Y626D02*
X7Y626D01*
X1251Y626D02*
X1258Y626D01*
X0Y625D02*
X7Y625D01*
X1251Y625D02*
X1258Y625D01*
X0Y624D02*
X7Y624D01*
X1251Y624D02*
X1258Y624D01*
X0Y623D02*
X7Y623D01*
X1251Y623D02*
X1258Y623D01*
X0Y622D02*
X7Y622D01*
X1251Y622D02*
X1258Y622D01*
X0Y621D02*
X7Y621D01*
X1251Y621D02*
X1258Y621D01*
X0Y620D02*
X7Y620D01*
X1251Y620D02*
X1258Y620D01*
X0Y619D02*
X7Y619D01*
X1251Y619D02*
X1258Y619D01*
X0Y618D02*
X7Y618D01*
X1251Y618D02*
X1258Y618D01*
X0Y617D02*
X7Y617D01*
X1251Y617D02*
X1258Y617D01*
X0Y616D02*
X7Y616D01*
X1251Y616D02*
X1258Y616D01*
X0Y615D02*
X7Y615D01*
X1251Y615D02*
X1258Y615D01*
X0Y614D02*
X7Y614D01*
X1251Y614D02*
X1258Y614D01*
X0Y613D02*
X7Y613D01*
X1251Y613D02*
X1258Y613D01*
X0Y612D02*
X7Y612D01*
X1251Y612D02*
X1258Y612D01*
X0Y611D02*
X7Y611D01*
X1251Y611D02*
X1258Y611D01*
X0Y610D02*
X7Y610D01*
X1251Y610D02*
X1258Y610D01*
X0Y609D02*
X7Y609D01*
X1251Y609D02*
X1258Y609D01*
X0Y608D02*
X7Y608D01*
X1251Y608D02*
X1258Y608D01*
X0Y607D02*
X7Y607D01*
X1251Y607D02*
X1258Y607D01*
X0Y606D02*
X7Y606D01*
X1251Y606D02*
X1258Y606D01*
X0Y605D02*
X7Y605D01*
X1251Y605D02*
X1258Y605D01*
X0Y604D02*
X7Y604D01*
X1251Y604D02*
X1258Y604D01*
X0Y603D02*
X7Y603D01*
X1251Y603D02*
X1258Y603D01*
X0Y602D02*
X7Y602D01*
X1251Y602D02*
X1258Y602D01*
X0Y601D02*
X7Y601D01*
X1251Y601D02*
X1258Y601D01*
X0Y600D02*
X7Y600D01*
X1251Y600D02*
X1258Y600D01*
X0Y599D02*
X7Y599D01*
X1251Y599D02*
X1258Y599D01*
X0Y598D02*
X7Y598D01*
X1251Y598D02*
X1258Y598D01*
X0Y597D02*
X7Y597D01*
X1251Y597D02*
X1258Y597D01*
X0Y596D02*
X7Y596D01*
X1251Y596D02*
X1258Y596D01*
X0Y595D02*
X7Y595D01*
X1251Y595D02*
X1258Y595D01*
X0Y594D02*
X7Y594D01*
X1251Y594D02*
X1258Y594D01*
X0Y593D02*
X7Y593D01*
X1251Y593D02*
X1258Y593D01*
X0Y592D02*
X7Y592D01*
X1251Y592D02*
X1258Y592D01*
X0Y591D02*
X7Y591D01*
X887Y591D02*
X914Y591D01*
X1251Y591D02*
X1258Y591D01*
X0Y590D02*
X7Y590D01*
X887Y590D02*
X914Y590D01*
X1251Y590D02*
X1258Y590D01*
X0Y589D02*
X7Y589D01*
X887Y589D02*
X914Y589D01*
X974Y589D02*
X1001Y589D01*
X1251Y589D02*
X1258Y589D01*
X0Y588D02*
X7Y588D01*
X887Y588D02*
X914Y588D01*
X974Y588D02*
X1001Y588D01*
X1251Y588D02*
X1258Y588D01*
X0Y587D02*
X7Y587D01*
X887Y587D02*
X914Y587D01*
X974Y587D02*
X1001Y587D01*
X1251Y587D02*
X1258Y587D01*
X0Y586D02*
X7Y586D01*
X887Y586D02*
X914Y586D01*
X974Y586D02*
X1001Y586D01*
X1251Y586D02*
X1258Y586D01*
X0Y585D02*
X7Y585D01*
X887Y585D02*
X914Y585D01*
X974Y585D02*
X1001Y585D01*
X1251Y585D02*
X1258Y585D01*
X0Y584D02*
X7Y584D01*
X887Y584D02*
X914Y584D01*
X974Y584D02*
X1001Y584D01*
X1251Y584D02*
X1258Y584D01*
X0Y583D02*
X7Y583D01*
X887Y583D02*
X914Y583D01*
X974Y583D02*
X1001Y583D01*
X1251Y583D02*
X1258Y583D01*
X0Y582D02*
X7Y582D01*
X887Y582D02*
X914Y582D01*
X974Y582D02*
X1001Y582D01*
X1251Y582D02*
X1258Y582D01*
X0Y581D02*
X7Y581D01*
X887Y581D02*
X914Y581D01*
X974Y581D02*
X1001Y581D01*
X1251Y581D02*
X1258Y581D01*
X0Y580D02*
X7Y580D01*
X887Y580D02*
X914Y580D01*
X974Y580D02*
X1001Y580D01*
X1251Y580D02*
X1258Y580D01*
X0Y579D02*
X7Y579D01*
X887Y579D02*
X914Y579D01*
X974Y579D02*
X1001Y579D01*
X1251Y579D02*
X1258Y579D01*
X0Y578D02*
X7Y578D01*
X974Y578D02*
X1001Y578D01*
X1251Y578D02*
X1258Y578D01*
X0Y577D02*
X7Y577D01*
X974Y577D02*
X1001Y577D01*
X1251Y577D02*
X1258Y577D01*
X0Y576D02*
X7Y576D01*
X974Y576D02*
X1001Y576D01*
X1251Y576D02*
X1258Y576D01*
X0Y575D02*
X7Y575D01*
X1251Y575D02*
X1258Y575D01*
X0Y574D02*
X7Y574D01*
X1251Y574D02*
X1258Y574D01*
X0Y573D02*
X7Y573D01*
X1251Y573D02*
X1258Y573D01*
X0Y572D02*
X7Y572D01*
X1251Y572D02*
X1258Y572D01*
X0Y571D02*
X7Y571D01*
X1251Y571D02*
X1258Y571D01*
X0Y570D02*
X7Y570D01*
X1251Y570D02*
X1258Y570D01*
X0Y569D02*
X7Y569D01*
X1251Y569D02*
X1258Y569D01*
X0Y568D02*
X7Y568D01*
X1251Y568D02*
X1258Y568D01*
X0Y567D02*
X7Y567D01*
X1251Y567D02*
X1258Y567D01*
X0Y566D02*
X7Y566D01*
X1251Y566D02*
X1258Y566D01*
X0Y565D02*
X7Y565D01*
X1251Y565D02*
X1258Y565D01*
X0Y564D02*
X7Y564D01*
X1251Y564D02*
X1258Y564D01*
X0Y563D02*
X7Y563D01*
X1251Y563D02*
X1258Y563D01*
X0Y562D02*
X7Y562D01*
X1251Y562D02*
X1258Y562D01*
X0Y561D02*
X7Y561D01*
X1251Y561D02*
X1258Y561D01*
X0Y560D02*
X7Y560D01*
X1251Y560D02*
X1258Y560D01*
X0Y559D02*
X7Y559D01*
X1251Y559D02*
X1258Y559D01*
X0Y558D02*
X7Y558D01*
X1251Y558D02*
X1258Y558D01*
X0Y557D02*
X7Y557D01*
X1251Y557D02*
X1258Y557D01*
X0Y556D02*
X7Y556D01*
X1251Y556D02*
X1258Y556D01*
X0Y555D02*
X7Y555D01*
X1251Y555D02*
X1258Y555D01*
X0Y554D02*
X7Y554D01*
X1251Y554D02*
X1258Y554D01*
X0Y553D02*
X7Y553D01*
X1251Y553D02*
X1258Y553D01*
X0Y552D02*
X7Y552D01*
X1251Y552D02*
X1258Y552D01*
X0Y551D02*
X7Y551D01*
X1251Y551D02*
X1258Y551D01*
X0Y550D02*
X7Y550D01*
X1251Y550D02*
X1258Y550D01*
X0Y549D02*
X7Y549D01*
X1251Y549D02*
X1258Y549D01*
X0Y548D02*
X7Y548D01*
X1251Y548D02*
X1258Y548D01*
X0Y547D02*
X7Y547D01*
X1251Y547D02*
X1258Y547D01*
X0Y546D02*
X7Y546D01*
X1251Y546D02*
X1258Y546D01*
X0Y545D02*
X7Y545D01*
X1251Y545D02*
X1258Y545D01*
X0Y544D02*
X7Y544D01*
X1251Y544D02*
X1258Y544D01*
X0Y543D02*
X7Y543D01*
X1251Y543D02*
X1258Y543D01*
X0Y542D02*
X7Y542D01*
X1251Y542D02*
X1258Y542D01*
X0Y541D02*
X7Y541D01*
X1251Y541D02*
X1258Y541D01*
X0Y540D02*
X7Y540D01*
X1251Y540D02*
X1258Y540D01*
X0Y539D02*
X7Y539D01*
X1251Y539D02*
X1258Y539D01*
X0Y538D02*
X7Y538D01*
X1251Y538D02*
X1258Y538D01*
X0Y537D02*
X7Y537D01*
X1251Y537D02*
X1258Y537D01*
X0Y536D02*
X7Y536D01*
X1251Y536D02*
X1258Y536D01*
X0Y535D02*
X7Y535D01*
X1251Y535D02*
X1258Y535D01*
X0Y534D02*
X7Y534D01*
X1251Y534D02*
X1258Y534D01*
X0Y533D02*
X7Y533D01*
X1251Y533D02*
X1258Y533D01*
X0Y532D02*
X7Y532D01*
X1251Y532D02*
X1258Y532D01*
X0Y531D02*
X7Y531D01*
X1251Y531D02*
X1258Y531D01*
X0Y530D02*
X7Y530D01*
X1251Y530D02*
X1258Y530D01*
X0Y529D02*
X7Y529D01*
X1251Y529D02*
X1258Y529D01*
X0Y528D02*
X7Y528D01*
X1251Y528D02*
X1258Y528D01*
X0Y527D02*
X7Y527D01*
X1251Y527D02*
X1258Y527D01*
X0Y526D02*
X7Y526D01*
X1251Y526D02*
X1258Y526D01*
X0Y525D02*
X7Y525D01*
X1251Y525D02*
X1258Y525D01*
X0Y524D02*
X7Y524D01*
X1251Y524D02*
X1258Y524D01*
X0Y523D02*
X7Y523D01*
X1251Y523D02*
X1258Y523D01*
X0Y522D02*
X7Y522D01*
X1251Y522D02*
X1258Y522D01*
X0Y521D02*
X7Y521D01*
X1251Y521D02*
X1258Y521D01*
X0Y520D02*
X7Y520D01*
X1251Y520D02*
X1258Y520D01*
X0Y519D02*
X7Y519D01*
X1251Y519D02*
X1258Y519D01*
X0Y518D02*
X7Y518D01*
X1251Y518D02*
X1258Y518D01*
X0Y517D02*
X7Y517D01*
X1251Y517D02*
X1258Y517D01*
X0Y516D02*
X7Y516D01*
X1251Y516D02*
X1258Y516D01*
X0Y515D02*
X7Y515D01*
X1251Y515D02*
X1258Y515D01*
X0Y514D02*
X7Y514D01*
X1251Y514D02*
X1258Y514D01*
X0Y513D02*
X7Y513D01*
X1251Y513D02*
X1258Y513D01*
X0Y512D02*
X7Y512D01*
X1251Y512D02*
X1258Y512D01*
X0Y511D02*
X0Y511D01*
X1251Y511D02*
X1258Y511D01*
X0Y510D02*
X0Y510D01*
X1251Y510D02*
X1258Y510D01*
X0Y509D02*
X0Y509D01*
X1251Y509D02*
X1258Y509D01*
X0Y508D02*
X0Y508D01*
X1251Y508D02*
X1258Y508D01*
X0Y507D02*
X0Y507D01*
X1251Y507D02*
X1258Y507D01*
X0Y506D02*
X0Y506D01*
X1251Y506D02*
X1258Y506D01*
X0Y505D02*
X0Y505D01*
X1251Y505D02*
X1258Y505D01*
X0Y504D02*
X0Y504D01*
X1251Y504D02*
X1258Y504D01*
X0Y503D02*
X0Y503D01*
X1251Y503D02*
X1258Y503D01*
X0Y502D02*
X0Y502D01*
X686Y502D02*
X731Y502D01*
X780Y502D02*
X816Y502D01*
X1251Y502D02*
X1258Y502D01*
X0Y501D02*
X0Y501D01*
X685Y501D02*
X731Y501D01*
X781Y501D02*
X817Y501D01*
X1251Y501D02*
X1258Y501D01*
X0Y500D02*
X0Y500D01*
X685Y500D02*
X731Y500D01*
X781Y500D02*
X817Y500D01*
X1251Y500D02*
X1258Y500D01*
X0Y499D02*
X0Y499D01*
X685Y499D02*
X731Y499D01*
X781Y499D02*
X817Y499D01*
X1251Y499D02*
X1258Y499D01*
X0Y498D02*
X0Y498D01*
X685Y498D02*
X731Y498D01*
X781Y498D02*
X817Y498D01*
X1251Y498D02*
X1258Y498D01*
X0Y497D02*
X0Y497D01*
X685Y497D02*
X731Y497D01*
X781Y497D02*
X817Y497D01*
X1251Y497D02*
X1258Y497D01*
X0Y496D02*
X0Y496D01*
X686Y496D02*
X731Y496D01*
X781Y496D02*
X816Y496D01*
X1251Y496D02*
X1258Y496D01*
X0Y495D02*
X0Y495D01*
X687Y495D02*
X731Y495D01*
X781Y495D02*
X814Y495D01*
X1251Y495D02*
X1258Y495D01*
X0Y494D02*
X0Y494D01*
X1251Y494D02*
X1258Y494D01*
X0Y493D02*
X0Y493D01*
X1251Y493D02*
X1258Y493D01*
X0Y492D02*
X0Y492D01*
X1251Y492D02*
X1258Y492D01*
X0Y491D02*
X0Y491D01*
X343Y491D02*
X347Y491D01*
X1251Y491D02*
X1258Y491D01*
X0Y490D02*
X0Y490D01*
X341Y490D02*
X349Y490D01*
X1251Y490D02*
X1258Y490D01*
X0Y489D02*
X0Y489D01*
X340Y489D02*
X350Y489D01*
X1251Y489D02*
X1258Y489D01*
X0Y488D02*
X0Y488D01*
X339Y488D02*
X351Y488D01*
X1251Y488D02*
X1258Y488D01*
X0Y487D02*
X0Y487D01*
X339Y487D02*
X351Y487D01*
X1251Y487D02*
X1258Y487D01*
X0Y486D02*
X0Y486D01*
X339Y486D02*
X351Y486D01*
X1251Y486D02*
X1258Y486D01*
X0Y485D02*
X0Y485D01*
X339Y485D02*
X351Y485D01*
X1251Y485D02*
X1258Y485D01*
X0Y484D02*
X0Y484D01*
X339Y484D02*
X351Y484D01*
X1251Y484D02*
X1258Y484D01*
X0Y483D02*
X0Y483D01*
X339Y483D02*
X351Y483D01*
X1251Y483D02*
X1258Y483D01*
X0Y482D02*
X0Y482D01*
X339Y482D02*
X351Y482D01*
X1251Y482D02*
X1258Y482D01*
X0Y481D02*
X0Y481D01*
X339Y481D02*
X351Y481D01*
X1251Y481D02*
X1258Y481D01*
X0Y480D02*
X0Y480D01*
X339Y480D02*
X351Y480D01*
X1251Y480D02*
X1258Y480D01*
X0Y479D02*
X0Y479D01*
X339Y479D02*
X351Y479D01*
X1251Y479D02*
X1258Y479D01*
X0Y478D02*
X0Y478D01*
X339Y478D02*
X351Y478D01*
X1251Y478D02*
X1258Y478D01*
X0Y477D02*
X0Y477D01*
X339Y477D02*
X351Y477D01*
X1251Y477D02*
X1258Y477D01*
X0Y476D02*
X0Y476D01*
X339Y476D02*
X351Y476D01*
X1251Y476D02*
X1258Y476D01*
X0Y475D02*
X0Y475D01*
X340Y475D02*
X350Y475D01*
X1251Y475D02*
X1258Y475D01*
X0Y474D02*
X0Y474D01*
X342Y474D02*
X348Y474D01*
X1251Y474D02*
X1258Y474D01*
X0Y473D02*
X0Y473D01*
X345Y473D02*
X345Y473D01*
X1251Y473D02*
X1258Y473D01*
X0Y472D02*
X0Y472D01*
X1251Y472D02*
X1258Y472D01*
X0Y471D02*
X0Y471D01*
X1251Y471D02*
X1258Y471D01*
X0Y470D02*
X0Y470D01*
X1251Y470D02*
X1258Y470D01*
X0Y469D02*
X0Y469D01*
X1251Y469D02*
X1258Y469D01*
X0Y468D02*
X0Y468D01*
X1251Y468D02*
X1258Y468D01*
X0Y467D02*
X0Y467D01*
X1251Y467D02*
X1258Y467D01*
X0Y466D02*
X0Y466D01*
X1251Y466D02*
X1258Y466D01*
X0Y465D02*
X0Y465D01*
X1251Y465D02*
X1258Y465D01*
X0Y464D02*
X0Y464D01*
X1251Y464D02*
X1258Y464D01*
X0Y463D02*
X0Y463D01*
X1251Y463D02*
X1258Y463D01*
X0Y462D02*
X0Y462D01*
X1251Y462D02*
X1258Y462D01*
X0Y461D02*
X0Y461D01*
X1251Y461D02*
X1258Y461D01*
X0Y460D02*
X0Y460D01*
X1251Y460D02*
X1258Y460D01*
X0Y459D02*
X0Y459D01*
X1251Y459D02*
X1258Y459D01*
X0Y458D02*
X0Y458D01*
X1251Y458D02*
X1258Y458D01*
X0Y457D02*
X0Y457D01*
X1251Y457D02*
X1258Y457D01*
X0Y456D02*
X0Y456D01*
X1251Y456D02*
X1258Y456D01*
X0Y455D02*
X0Y455D01*
X1251Y455D02*
X1258Y455D01*
X0Y454D02*
X0Y454D01*
X1251Y454D02*
X1258Y454D01*
X0Y453D02*
X0Y453D01*
X1251Y453D02*
X1258Y453D01*
X0Y452D02*
X0Y452D01*
X1251Y452D02*
X1258Y452D01*
X0Y451D02*
X0Y451D01*
X1251Y451D02*
X1258Y451D01*
X0Y450D02*
X0Y450D01*
X1251Y450D02*
X1258Y450D01*
X0Y449D02*
X0Y449D01*
X1251Y449D02*
X1258Y449D01*
X0Y448D02*
X0Y448D01*
X1251Y448D02*
X1258Y448D01*
X0Y447D02*
X0Y447D01*
X1251Y447D02*
X1258Y447D01*
X0Y446D02*
X0Y446D01*
X1251Y446D02*
X1258Y446D01*
X0Y445D02*
X0Y445D01*
X1251Y445D02*
X1258Y445D01*
X0Y444D02*
X0Y444D01*
X1251Y444D02*
X1258Y444D01*
X0Y443D02*
X0Y443D01*
X1251Y443D02*
X1258Y443D01*
X0Y442D02*
X7Y442D01*
X1251Y442D02*
X1258Y442D01*
X0Y441D02*
X7Y441D01*
X1251Y441D02*
X1258Y441D01*
X0Y440D02*
X7Y440D01*
X1251Y440D02*
X1258Y440D01*
X0Y439D02*
X7Y439D01*
X1251Y439D02*
X1258Y439D01*
X0Y438D02*
X7Y438D01*
X1251Y438D02*
X1258Y438D01*
X0Y437D02*
X7Y437D01*
X1251Y437D02*
X1258Y437D01*
X0Y436D02*
X7Y436D01*
X1251Y436D02*
X1258Y436D01*
X0Y435D02*
X7Y435D01*
X1251Y435D02*
X1258Y435D01*
X0Y434D02*
X7Y434D01*
X1251Y434D02*
X1258Y434D01*
X0Y433D02*
X7Y433D01*
X1251Y433D02*
X1258Y433D01*
X0Y432D02*
X7Y432D01*
X1251Y432D02*
X1258Y432D01*
X0Y431D02*
X7Y431D01*
X1251Y431D02*
X1258Y431D01*
X0Y430D02*
X7Y430D01*
X1251Y430D02*
X1258Y430D01*
X0Y429D02*
X7Y429D01*
X1251Y429D02*
X1258Y429D01*
X0Y428D02*
X7Y428D01*
X1251Y428D02*
X1258Y428D01*
X0Y427D02*
X7Y427D01*
X1251Y427D02*
X1258Y427D01*
X0Y426D02*
X7Y426D01*
X1251Y426D02*
X1258Y426D01*
X0Y425D02*
X7Y425D01*
X1251Y425D02*
X1258Y425D01*
X0Y424D02*
X7Y424D01*
X1251Y424D02*
X1258Y424D01*
X0Y423D02*
X7Y423D01*
X1251Y423D02*
X1258Y423D01*
X0Y422D02*
X7Y422D01*
X1251Y422D02*
X1258Y422D01*
X0Y421D02*
X7Y421D01*
X1251Y421D02*
X1258Y421D01*
X0Y420D02*
X7Y420D01*
X1251Y420D02*
X1258Y420D01*
X0Y419D02*
X7Y419D01*
X1251Y419D02*
X1258Y419D01*
X0Y418D02*
X7Y418D01*
X1251Y418D02*
X1258Y418D01*
X0Y417D02*
X7Y417D01*
X1251Y417D02*
X1258Y417D01*
X0Y416D02*
X7Y416D01*
X1251Y416D02*
X1258Y416D01*
X0Y415D02*
X7Y415D01*
X1251Y415D02*
X1258Y415D01*
X0Y414D02*
X7Y414D01*
X1251Y414D02*
X1258Y414D01*
X0Y413D02*
X7Y413D01*
X1251Y413D02*
X1258Y413D01*
X0Y412D02*
X7Y412D01*
X1251Y412D02*
X1258Y412D01*
X0Y411D02*
X7Y411D01*
X1251Y411D02*
X1258Y411D01*
X0Y410D02*
X7Y410D01*
X1251Y410D02*
X1258Y410D01*
X0Y409D02*
X7Y409D01*
X1251Y409D02*
X1258Y409D01*
X0Y408D02*
X7Y408D01*
X1251Y408D02*
X1258Y408D01*
X0Y407D02*
X7Y407D01*
X1251Y407D02*
X1258Y407D01*
X0Y406D02*
X7Y406D01*
X1251Y406D02*
X1258Y406D01*
X0Y405D02*
X7Y405D01*
X1251Y405D02*
X1258Y405D01*
X0Y404D02*
X7Y404D01*
X1251Y404D02*
X1258Y404D01*
X0Y403D02*
X7Y403D01*
X1251Y403D02*
X1258Y403D01*
X0Y402D02*
X7Y402D01*
X1251Y402D02*
X1258Y402D01*
X0Y401D02*
X7Y401D01*
X1251Y401D02*
X1258Y401D01*
X0Y400D02*
X7Y400D01*
X1041Y400D02*
X1042Y400D01*
X1227Y400D02*
X1228Y400D01*
X1251Y400D02*
X1258Y400D01*
X0Y399D02*
X7Y399D01*
X1040Y399D02*
X1042Y399D01*
X1227Y399D02*
X1230Y399D01*
X1251Y399D02*
X1258Y399D01*
X0Y398D02*
X7Y398D01*
X1040Y398D02*
X1042Y398D01*
X1227Y398D02*
X1230Y398D01*
X1251Y398D02*
X1258Y398D01*
X0Y397D02*
X7Y397D01*
X1039Y397D02*
X1042Y397D01*
X1227Y397D02*
X1230Y397D01*
X1251Y397D02*
X1258Y397D01*
X0Y396D02*
X7Y396D01*
X1039Y396D02*
X1042Y396D01*
X1227Y396D02*
X1230Y396D01*
X1251Y396D02*
X1258Y396D01*
X0Y395D02*
X7Y395D01*
X1039Y395D02*
X1042Y395D01*
X1227Y395D02*
X1230Y395D01*
X1251Y395D02*
X1258Y395D01*
X0Y394D02*
X7Y394D01*
X1039Y394D02*
X1042Y394D01*
X1227Y394D02*
X1230Y394D01*
X1251Y394D02*
X1258Y394D01*
X0Y393D02*
X7Y393D01*
X1039Y393D02*
X1042Y393D01*
X1227Y393D02*
X1230Y393D01*
X1251Y393D02*
X1258Y393D01*
X0Y392D02*
X7Y392D01*
X1039Y392D02*
X1042Y392D01*
X1227Y392D02*
X1230Y392D01*
X1251Y392D02*
X1258Y392D01*
X0Y391D02*
X7Y391D01*
X1039Y391D02*
X1042Y391D01*
X1227Y391D02*
X1230Y391D01*
X1251Y391D02*
X1258Y391D01*
X0Y390D02*
X7Y390D01*
X1039Y390D02*
X1042Y390D01*
X1227Y390D02*
X1230Y390D01*
X1251Y390D02*
X1258Y390D01*
X0Y389D02*
X7Y389D01*
X1039Y389D02*
X1042Y389D01*
X1227Y389D02*
X1230Y389D01*
X1251Y389D02*
X1258Y389D01*
X0Y388D02*
X6Y388D01*
X1039Y388D02*
X1042Y388D01*
X1227Y388D02*
X1230Y388D01*
X1251Y388D02*
X1258Y388D01*
X0Y387D02*
X6Y387D01*
X1039Y387D02*
X1042Y387D01*
X1227Y387D02*
X1230Y387D01*
X1251Y387D02*
X1258Y387D01*
X0Y386D02*
X6Y386D01*
X1039Y386D02*
X1042Y386D01*
X1227Y386D02*
X1230Y386D01*
X1251Y386D02*
X1258Y386D01*
X0Y385D02*
X6Y385D01*
X1039Y385D02*
X1042Y385D01*
X1227Y385D02*
X1230Y385D01*
X1251Y385D02*
X1258Y385D01*
X0Y384D02*
X6Y384D01*
X1039Y384D02*
X1042Y384D01*
X1227Y384D02*
X1230Y384D01*
X1251Y384D02*
X1258Y384D01*
X0Y383D02*
X6Y383D01*
X1039Y383D02*
X1042Y383D01*
X1227Y383D02*
X1230Y383D01*
X1251Y383D02*
X1258Y383D01*
X0Y382D02*
X6Y382D01*
X1039Y382D02*
X1042Y382D01*
X1227Y382D02*
X1230Y382D01*
X1251Y382D02*
X1258Y382D01*
X0Y381D02*
X6Y381D01*
X380Y381D02*
X509Y381D01*
X1039Y381D02*
X1043Y381D01*
X1227Y381D02*
X1230Y381D01*
X1251Y381D02*
X1258Y381D01*
X0Y380D02*
X6Y380D01*
X380Y380D02*
X509Y380D01*
X1039Y380D02*
X1044Y380D01*
X1225Y380D02*
X1230Y380D01*
X1251Y380D02*
X1258Y380D01*
X0Y379D02*
X6Y379D01*
X380Y379D02*
X509Y379D01*
X1039Y379D02*
X1044Y379D01*
X1225Y379D02*
X1230Y379D01*
X1251Y379D02*
X1258Y379D01*
X0Y378D02*
X6Y378D01*
X380Y378D02*
X382Y378D01*
X440Y378D02*
X449Y378D01*
X507Y378D02*
X509Y378D01*
X1039Y378D02*
X1044Y378D01*
X1225Y378D02*
X1230Y378D01*
X1251Y378D02*
X1258Y378D01*
X0Y377D02*
X6Y377D01*
X380Y377D02*
X382Y377D01*
X507Y377D02*
X509Y377D01*
X1039Y377D02*
X1044Y377D01*
X1225Y377D02*
X1230Y377D01*
X1251Y377D02*
X1258Y377D01*
X0Y376D02*
X6Y376D01*
X380Y376D02*
X382Y376D01*
X507Y376D02*
X509Y376D01*
X1039Y376D02*
X1044Y376D01*
X1225Y376D02*
X1230Y376D01*
X1251Y376D02*
X1258Y376D01*
X0Y375D02*
X6Y375D01*
X380Y375D02*
X382Y375D01*
X507Y375D02*
X509Y375D01*
X1039Y375D02*
X1044Y375D01*
X1225Y375D02*
X1230Y375D01*
X1251Y375D02*
X1258Y375D01*
X0Y374D02*
X6Y374D01*
X380Y374D02*
X382Y374D01*
X507Y374D02*
X509Y374D01*
X1039Y374D02*
X1044Y374D01*
X1225Y374D02*
X1230Y374D01*
X1251Y374D02*
X1258Y374D01*
X0Y373D02*
X6Y373D01*
X380Y373D02*
X382Y373D01*
X507Y373D02*
X509Y373D01*
X1039Y373D02*
X1044Y373D01*
X1225Y373D02*
X1230Y373D01*
X1251Y373D02*
X1258Y373D01*
X0Y372D02*
X6Y372D01*
X380Y372D02*
X382Y372D01*
X507Y372D02*
X509Y372D01*
X1039Y372D02*
X1044Y372D01*
X1225Y372D02*
X1230Y372D01*
X1251Y372D02*
X1258Y372D01*
X0Y371D02*
X6Y371D01*
X380Y371D02*
X382Y371D01*
X507Y371D02*
X509Y371D01*
X1039Y371D02*
X1044Y371D01*
X1225Y371D02*
X1230Y371D01*
X1251Y371D02*
X1258Y371D01*
X0Y370D02*
X6Y370D01*
X380Y370D02*
X382Y370D01*
X507Y370D02*
X509Y370D01*
X1039Y370D02*
X1044Y370D01*
X1225Y370D02*
X1230Y370D01*
X1251Y370D02*
X1258Y370D01*
X0Y369D02*
X6Y369D01*
X380Y369D02*
X382Y369D01*
X507Y369D02*
X509Y369D01*
X1039Y369D02*
X1044Y369D01*
X1225Y369D02*
X1230Y369D01*
X1251Y369D02*
X1258Y369D01*
X0Y368D02*
X6Y368D01*
X380Y368D02*
X382Y368D01*
X507Y368D02*
X509Y368D01*
X1039Y368D02*
X1044Y368D01*
X1225Y368D02*
X1230Y368D01*
X1251Y368D02*
X1258Y368D01*
X0Y367D02*
X6Y367D01*
X380Y367D02*
X382Y367D01*
X507Y367D02*
X509Y367D01*
X1039Y367D02*
X1044Y367D01*
X1225Y367D02*
X1230Y367D01*
X1251Y367D02*
X1258Y367D01*
X0Y366D02*
X6Y366D01*
X380Y366D02*
X382Y366D01*
X507Y366D02*
X509Y366D01*
X1039Y366D02*
X1044Y366D01*
X1225Y366D02*
X1230Y366D01*
X1251Y366D02*
X1258Y366D01*
X0Y365D02*
X6Y365D01*
X380Y365D02*
X382Y365D01*
X507Y365D02*
X509Y365D01*
X1039Y365D02*
X1044Y365D01*
X1225Y365D02*
X1230Y365D01*
X1251Y365D02*
X1258Y365D01*
X0Y364D02*
X6Y364D01*
X380Y364D02*
X382Y364D01*
X507Y364D02*
X509Y364D01*
X1039Y364D02*
X1044Y364D01*
X1225Y364D02*
X1230Y364D01*
X1251Y364D02*
X1258Y364D01*
X0Y363D02*
X6Y363D01*
X380Y363D02*
X382Y363D01*
X507Y363D02*
X509Y363D01*
X1039Y363D02*
X1044Y363D01*
X1225Y363D02*
X1230Y363D01*
X1251Y363D02*
X1258Y363D01*
X0Y362D02*
X6Y362D01*
X380Y362D02*
X382Y362D01*
X507Y362D02*
X509Y362D01*
X1039Y362D02*
X1044Y362D01*
X1225Y362D02*
X1230Y362D01*
X1251Y362D02*
X1258Y362D01*
X0Y361D02*
X6Y361D01*
X380Y361D02*
X382Y361D01*
X507Y361D02*
X509Y361D01*
X1039Y361D02*
X1044Y361D01*
X1225Y361D02*
X1230Y361D01*
X1251Y361D02*
X1258Y361D01*
X0Y360D02*
X6Y360D01*
X380Y360D02*
X382Y360D01*
X507Y360D02*
X509Y360D01*
X1039Y360D02*
X1044Y360D01*
X1225Y360D02*
X1230Y360D01*
X1251Y360D02*
X1258Y360D01*
X0Y359D02*
X6Y359D01*
X380Y359D02*
X382Y359D01*
X507Y359D02*
X509Y359D01*
X1039Y359D02*
X1044Y359D01*
X1225Y359D02*
X1230Y359D01*
X1251Y359D02*
X1258Y359D01*
X0Y358D02*
X6Y358D01*
X380Y358D02*
X382Y358D01*
X507Y358D02*
X509Y358D01*
X1039Y358D02*
X1044Y358D01*
X1225Y358D02*
X1230Y358D01*
X1251Y358D02*
X1258Y358D01*
X0Y357D02*
X6Y357D01*
X380Y357D02*
X382Y357D01*
X507Y357D02*
X509Y357D01*
X1039Y357D02*
X1044Y357D01*
X1225Y357D02*
X1230Y357D01*
X1251Y357D02*
X1258Y357D01*
X0Y356D02*
X6Y356D01*
X380Y356D02*
X382Y356D01*
X507Y356D02*
X509Y356D01*
X1039Y356D02*
X1044Y356D01*
X1225Y356D02*
X1230Y356D01*
X1251Y356D02*
X1258Y356D01*
X0Y355D02*
X6Y355D01*
X380Y355D02*
X382Y355D01*
X507Y355D02*
X509Y355D01*
X1039Y355D02*
X1044Y355D01*
X1225Y355D02*
X1230Y355D01*
X1251Y355D02*
X1258Y355D01*
X0Y354D02*
X6Y354D01*
X380Y354D02*
X382Y354D01*
X507Y354D02*
X509Y354D01*
X1039Y354D02*
X1044Y354D01*
X1225Y354D02*
X1230Y354D01*
X1251Y354D02*
X1258Y354D01*
X0Y353D02*
X6Y353D01*
X380Y353D02*
X382Y353D01*
X507Y353D02*
X509Y353D01*
X1039Y353D02*
X1044Y353D01*
X1225Y353D02*
X1230Y353D01*
X1251Y353D02*
X1258Y353D01*
X0Y352D02*
X6Y352D01*
X380Y352D02*
X382Y352D01*
X507Y352D02*
X509Y352D01*
X1039Y352D02*
X1044Y352D01*
X1225Y352D02*
X1230Y352D01*
X1251Y352D02*
X1258Y352D01*
X0Y351D02*
X6Y351D01*
X380Y351D02*
X382Y351D01*
X507Y351D02*
X509Y351D01*
X1039Y351D02*
X1044Y351D01*
X1225Y351D02*
X1230Y351D01*
X1251Y351D02*
X1258Y351D01*
X0Y350D02*
X6Y350D01*
X380Y350D02*
X382Y350D01*
X507Y350D02*
X509Y350D01*
X1039Y350D02*
X1044Y350D01*
X1225Y350D02*
X1230Y350D01*
X1251Y350D02*
X1258Y350D01*
X0Y349D02*
X6Y349D01*
X380Y349D02*
X382Y349D01*
X507Y349D02*
X509Y349D01*
X1039Y349D02*
X1044Y349D01*
X1225Y349D02*
X1230Y349D01*
X1251Y349D02*
X1258Y349D01*
X0Y348D02*
X6Y348D01*
X380Y348D02*
X382Y348D01*
X507Y348D02*
X509Y348D01*
X1039Y348D02*
X1044Y348D01*
X1225Y348D02*
X1230Y348D01*
X1251Y348D02*
X1258Y348D01*
X0Y347D02*
X6Y347D01*
X380Y347D02*
X382Y347D01*
X507Y347D02*
X509Y347D01*
X1039Y347D02*
X1044Y347D01*
X1225Y347D02*
X1230Y347D01*
X1251Y347D02*
X1258Y347D01*
X0Y346D02*
X6Y346D01*
X380Y346D02*
X382Y346D01*
X507Y346D02*
X509Y346D01*
X1039Y346D02*
X1044Y346D01*
X1225Y346D02*
X1230Y346D01*
X1251Y346D02*
X1258Y346D01*
X0Y345D02*
X6Y345D01*
X380Y345D02*
X382Y345D01*
X507Y345D02*
X509Y345D01*
X1039Y345D02*
X1044Y345D01*
X1225Y345D02*
X1230Y345D01*
X1251Y345D02*
X1258Y345D01*
X0Y344D02*
X6Y344D01*
X380Y344D02*
X382Y344D01*
X507Y344D02*
X509Y344D01*
X1039Y344D02*
X1044Y344D01*
X1225Y344D02*
X1230Y344D01*
X1251Y344D02*
X1258Y344D01*
X0Y343D02*
X6Y343D01*
X380Y343D02*
X382Y343D01*
X507Y343D02*
X509Y343D01*
X1039Y343D02*
X1044Y343D01*
X1225Y343D02*
X1230Y343D01*
X1251Y343D02*
X1258Y343D01*
X0Y342D02*
X6Y342D01*
X380Y342D02*
X382Y342D01*
X507Y342D02*
X509Y342D01*
X1039Y342D02*
X1044Y342D01*
X1225Y342D02*
X1230Y342D01*
X1251Y342D02*
X1258Y342D01*
X0Y341D02*
X6Y341D01*
X380Y341D02*
X382Y341D01*
X507Y341D02*
X509Y341D01*
X1039Y341D02*
X1044Y341D01*
X1225Y341D02*
X1230Y341D01*
X1251Y341D02*
X1258Y341D01*
X0Y340D02*
X6Y340D01*
X380Y340D02*
X382Y340D01*
X507Y340D02*
X509Y340D01*
X1039Y340D02*
X1044Y340D01*
X1225Y340D02*
X1230Y340D01*
X1251Y340D02*
X1258Y340D01*
X0Y339D02*
X6Y339D01*
X380Y339D02*
X382Y339D01*
X507Y339D02*
X509Y339D01*
X1039Y339D02*
X1044Y339D01*
X1225Y339D02*
X1230Y339D01*
X1251Y339D02*
X1258Y339D01*
X0Y338D02*
X6Y338D01*
X380Y338D02*
X382Y338D01*
X507Y338D02*
X509Y338D01*
X1039Y338D02*
X1044Y338D01*
X1225Y338D02*
X1230Y338D01*
X1251Y338D02*
X1258Y338D01*
X0Y337D02*
X6Y337D01*
X380Y337D02*
X382Y337D01*
X507Y337D02*
X509Y337D01*
X1039Y337D02*
X1044Y337D01*
X1225Y337D02*
X1230Y337D01*
X1251Y337D02*
X1258Y337D01*
X0Y336D02*
X6Y336D01*
X380Y336D02*
X382Y336D01*
X507Y336D02*
X509Y336D01*
X1039Y336D02*
X1044Y336D01*
X1225Y336D02*
X1230Y336D01*
X1251Y336D02*
X1258Y336D01*
X0Y335D02*
X6Y335D01*
X380Y335D02*
X382Y335D01*
X507Y335D02*
X509Y335D01*
X1039Y335D02*
X1044Y335D01*
X1225Y335D02*
X1230Y335D01*
X1251Y335D02*
X1258Y335D01*
X0Y334D02*
X6Y334D01*
X380Y334D02*
X382Y334D01*
X507Y334D02*
X509Y334D01*
X1039Y334D02*
X1044Y334D01*
X1225Y334D02*
X1230Y334D01*
X1251Y334D02*
X1258Y334D01*
X0Y333D02*
X6Y333D01*
X380Y333D02*
X382Y333D01*
X507Y333D02*
X509Y333D01*
X1039Y333D02*
X1044Y333D01*
X1225Y333D02*
X1230Y333D01*
X1251Y333D02*
X1258Y333D01*
X0Y332D02*
X6Y332D01*
X380Y332D02*
X382Y332D01*
X507Y332D02*
X509Y332D01*
X1039Y332D02*
X1044Y332D01*
X1225Y332D02*
X1230Y332D01*
X1251Y332D02*
X1258Y332D01*
X0Y331D02*
X6Y331D01*
X380Y331D02*
X382Y331D01*
X507Y331D02*
X509Y331D01*
X1039Y331D02*
X1044Y331D01*
X1225Y331D02*
X1230Y331D01*
X1251Y331D02*
X1258Y331D01*
X0Y330D02*
X6Y330D01*
X380Y330D02*
X382Y330D01*
X507Y330D02*
X509Y330D01*
X1039Y330D02*
X1044Y330D01*
X1225Y330D02*
X1230Y330D01*
X1251Y330D02*
X1258Y330D01*
X0Y329D02*
X6Y329D01*
X380Y329D02*
X382Y329D01*
X507Y329D02*
X509Y329D01*
X1039Y329D02*
X1044Y329D01*
X1225Y329D02*
X1230Y329D01*
X1251Y329D02*
X1258Y329D01*
X0Y328D02*
X6Y328D01*
X380Y328D02*
X382Y328D01*
X507Y328D02*
X509Y328D01*
X1039Y328D02*
X1044Y328D01*
X1225Y328D02*
X1230Y328D01*
X1251Y328D02*
X1258Y328D01*
X0Y327D02*
X6Y327D01*
X380Y327D02*
X382Y327D01*
X507Y327D02*
X509Y327D01*
X1039Y327D02*
X1044Y327D01*
X1225Y327D02*
X1230Y327D01*
X1251Y327D02*
X1258Y327D01*
X0Y326D02*
X6Y326D01*
X380Y326D02*
X382Y326D01*
X440Y326D02*
X449Y326D01*
X507Y326D02*
X509Y326D01*
X1039Y326D02*
X1044Y326D01*
X1225Y326D02*
X1230Y326D01*
X1251Y326D02*
X1258Y326D01*
X0Y325D02*
X6Y325D01*
X380Y325D02*
X509Y325D01*
X1039Y325D02*
X1044Y325D01*
X1225Y325D02*
X1230Y325D01*
X1251Y325D02*
X1258Y325D01*
X0Y324D02*
X6Y324D01*
X380Y324D02*
X509Y324D01*
X1039Y324D02*
X1044Y324D01*
X1225Y324D02*
X1230Y324D01*
X1251Y324D02*
X1258Y324D01*
X0Y323D02*
X6Y323D01*
X380Y323D02*
X508Y323D01*
X1039Y323D02*
X1044Y323D01*
X1225Y323D02*
X1230Y323D01*
X1251Y323D02*
X1258Y323D01*
X0Y322D02*
X6Y322D01*
X1039Y322D02*
X1044Y322D01*
X1225Y322D02*
X1230Y322D01*
X1251Y322D02*
X1258Y322D01*
X0Y321D02*
X6Y321D01*
X1039Y321D02*
X1044Y321D01*
X1225Y321D02*
X1230Y321D01*
X1251Y321D02*
X1258Y321D01*
X0Y320D02*
X6Y320D01*
X1039Y320D02*
X1044Y320D01*
X1225Y320D02*
X1230Y320D01*
X1251Y320D02*
X1258Y320D01*
X0Y319D02*
X6Y319D01*
X1039Y319D02*
X1044Y319D01*
X1225Y319D02*
X1230Y319D01*
X1251Y319D02*
X1258Y319D01*
X0Y318D02*
X6Y318D01*
X1039Y318D02*
X1044Y318D01*
X1225Y318D02*
X1230Y318D01*
X1251Y318D02*
X1258Y318D01*
X0Y317D02*
X6Y317D01*
X1039Y317D02*
X1044Y317D01*
X1225Y317D02*
X1230Y317D01*
X1251Y317D02*
X1258Y317D01*
X0Y316D02*
X6Y316D01*
X1039Y316D02*
X1044Y316D01*
X1225Y316D02*
X1230Y316D01*
X1251Y316D02*
X1258Y316D01*
X0Y315D02*
X6Y315D01*
X1039Y315D02*
X1044Y315D01*
X1225Y315D02*
X1230Y315D01*
X1251Y315D02*
X1258Y315D01*
X0Y314D02*
X6Y314D01*
X1039Y314D02*
X1044Y314D01*
X1225Y314D02*
X1230Y314D01*
X1251Y314D02*
X1258Y314D01*
X0Y313D02*
X6Y313D01*
X1039Y313D02*
X1044Y313D01*
X1225Y313D02*
X1230Y313D01*
X1251Y313D02*
X1258Y313D01*
X0Y312D02*
X6Y312D01*
X1039Y312D02*
X1044Y312D01*
X1225Y312D02*
X1230Y312D01*
X1251Y312D02*
X1258Y312D01*
X0Y311D02*
X6Y311D01*
X1039Y311D02*
X1044Y311D01*
X1225Y311D02*
X1230Y311D01*
X1251Y311D02*
X1258Y311D01*
X0Y310D02*
X6Y310D01*
X1039Y310D02*
X1044Y310D01*
X1225Y310D02*
X1230Y310D01*
X1251Y310D02*
X1258Y310D01*
X0Y309D02*
X6Y309D01*
X1039Y309D02*
X1044Y309D01*
X1225Y309D02*
X1230Y309D01*
X1251Y309D02*
X1258Y309D01*
X0Y308D02*
X6Y308D01*
X1039Y308D02*
X1044Y308D01*
X1225Y308D02*
X1230Y308D01*
X1251Y308D02*
X1258Y308D01*
X0Y307D02*
X6Y307D01*
X1039Y307D02*
X1044Y307D01*
X1225Y307D02*
X1230Y307D01*
X1251Y307D02*
X1258Y307D01*
X0Y306D02*
X6Y306D01*
X1039Y306D02*
X1044Y306D01*
X1225Y306D02*
X1230Y306D01*
X1251Y306D02*
X1258Y306D01*
X0Y305D02*
X6Y305D01*
X1039Y305D02*
X1044Y305D01*
X1225Y305D02*
X1230Y305D01*
X1251Y305D02*
X1258Y305D01*
X0Y304D02*
X6Y304D01*
X1039Y304D02*
X1044Y304D01*
X1225Y304D02*
X1230Y304D01*
X1251Y304D02*
X1258Y304D01*
X0Y303D02*
X6Y303D01*
X1039Y303D02*
X1044Y303D01*
X1225Y303D02*
X1230Y303D01*
X1251Y303D02*
X1258Y303D01*
X0Y302D02*
X6Y302D01*
X1039Y302D02*
X1044Y302D01*
X1225Y302D02*
X1230Y302D01*
X1251Y302D02*
X1258Y302D01*
X0Y301D02*
X6Y301D01*
X1039Y301D02*
X1044Y301D01*
X1225Y301D02*
X1230Y301D01*
X1251Y301D02*
X1258Y301D01*
X0Y300D02*
X6Y300D01*
X1039Y300D02*
X1044Y300D01*
X1225Y300D02*
X1230Y300D01*
X1251Y300D02*
X1258Y300D01*
X0Y299D02*
X6Y299D01*
X1039Y299D02*
X1044Y299D01*
X1225Y299D02*
X1230Y299D01*
X1251Y299D02*
X1258Y299D01*
X0Y298D02*
X6Y298D01*
X1039Y298D02*
X1044Y298D01*
X1225Y298D02*
X1230Y298D01*
X1251Y298D02*
X1258Y298D01*
X0Y297D02*
X6Y297D01*
X1039Y297D02*
X1044Y297D01*
X1225Y297D02*
X1230Y297D01*
X1251Y297D02*
X1258Y297D01*
X0Y296D02*
X6Y296D01*
X1039Y296D02*
X1044Y296D01*
X1225Y296D02*
X1230Y296D01*
X1251Y296D02*
X1258Y296D01*
X0Y295D02*
X6Y295D01*
X1039Y295D02*
X1044Y295D01*
X1225Y295D02*
X1230Y295D01*
X1251Y295D02*
X1258Y295D01*
X0Y294D02*
X6Y294D01*
X377Y294D02*
X506Y294D01*
X1039Y294D02*
X1044Y294D01*
X1225Y294D02*
X1230Y294D01*
X1251Y294D02*
X1258Y294D01*
X0Y293D02*
X6Y293D01*
X377Y293D02*
X506Y293D01*
X1039Y293D02*
X1044Y293D01*
X1225Y293D02*
X1230Y293D01*
X1251Y293D02*
X1258Y293D01*
X0Y292D02*
X6Y292D01*
X377Y292D02*
X506Y292D01*
X1039Y292D02*
X1044Y292D01*
X1225Y292D02*
X1230Y292D01*
X1251Y292D02*
X1258Y292D01*
X0Y291D02*
X6Y291D01*
X377Y291D02*
X379Y291D01*
X437Y291D02*
X446Y291D01*
X504Y291D02*
X506Y291D01*
X1039Y291D02*
X1044Y291D01*
X1225Y291D02*
X1230Y291D01*
X1251Y291D02*
X1258Y291D01*
X0Y290D02*
X6Y290D01*
X377Y290D02*
X379Y290D01*
X504Y290D02*
X506Y290D01*
X1039Y290D02*
X1044Y290D01*
X1225Y290D02*
X1230Y290D01*
X1251Y290D02*
X1258Y290D01*
X0Y289D02*
X6Y289D01*
X377Y289D02*
X379Y289D01*
X504Y289D02*
X506Y289D01*
X1039Y289D02*
X1044Y289D01*
X1225Y289D02*
X1230Y289D01*
X1251Y289D02*
X1258Y289D01*
X0Y288D02*
X6Y288D01*
X377Y288D02*
X379Y288D01*
X504Y288D02*
X506Y288D01*
X1039Y288D02*
X1044Y288D01*
X1225Y288D02*
X1230Y288D01*
X1251Y288D02*
X1258Y288D01*
X0Y287D02*
X6Y287D01*
X377Y287D02*
X379Y287D01*
X504Y287D02*
X506Y287D01*
X1039Y287D02*
X1044Y287D01*
X1225Y287D02*
X1230Y287D01*
X1251Y287D02*
X1258Y287D01*
X0Y286D02*
X6Y286D01*
X377Y286D02*
X379Y286D01*
X504Y286D02*
X506Y286D01*
X1039Y286D02*
X1044Y286D01*
X1225Y286D02*
X1230Y286D01*
X1251Y286D02*
X1258Y286D01*
X0Y285D02*
X6Y285D01*
X377Y285D02*
X379Y285D01*
X504Y285D02*
X506Y285D01*
X1039Y285D02*
X1044Y285D01*
X1225Y285D02*
X1230Y285D01*
X1251Y285D02*
X1258Y285D01*
X0Y284D02*
X6Y284D01*
X377Y284D02*
X379Y284D01*
X504Y284D02*
X506Y284D01*
X1039Y284D02*
X1044Y284D01*
X1225Y284D02*
X1230Y284D01*
X1251Y284D02*
X1258Y284D01*
X0Y283D02*
X6Y283D01*
X377Y283D02*
X379Y283D01*
X504Y283D02*
X506Y283D01*
X1039Y283D02*
X1044Y283D01*
X1225Y283D02*
X1230Y283D01*
X1251Y283D02*
X1258Y283D01*
X0Y282D02*
X6Y282D01*
X377Y282D02*
X379Y282D01*
X504Y282D02*
X506Y282D01*
X1039Y282D02*
X1044Y282D01*
X1225Y282D02*
X1230Y282D01*
X1251Y282D02*
X1258Y282D01*
X0Y281D02*
X6Y281D01*
X377Y281D02*
X379Y281D01*
X504Y281D02*
X506Y281D01*
X1039Y281D02*
X1044Y281D01*
X1225Y281D02*
X1230Y281D01*
X1251Y281D02*
X1258Y281D01*
X0Y280D02*
X6Y280D01*
X377Y280D02*
X379Y280D01*
X504Y280D02*
X506Y280D01*
X1039Y280D02*
X1044Y280D01*
X1225Y280D02*
X1230Y280D01*
X1251Y280D02*
X1258Y280D01*
X0Y279D02*
X6Y279D01*
X377Y279D02*
X379Y279D01*
X504Y279D02*
X506Y279D01*
X1039Y279D02*
X1044Y279D01*
X1225Y279D02*
X1230Y279D01*
X1251Y279D02*
X1258Y279D01*
X0Y278D02*
X6Y278D01*
X377Y278D02*
X379Y278D01*
X504Y278D02*
X506Y278D01*
X1039Y278D02*
X1044Y278D01*
X1225Y278D02*
X1230Y278D01*
X1251Y278D02*
X1258Y278D01*
X0Y277D02*
X6Y277D01*
X377Y277D02*
X379Y277D01*
X504Y277D02*
X506Y277D01*
X1039Y277D02*
X1044Y277D01*
X1225Y277D02*
X1230Y277D01*
X1251Y277D02*
X1258Y277D01*
X0Y276D02*
X6Y276D01*
X377Y276D02*
X379Y276D01*
X504Y276D02*
X506Y276D01*
X1039Y276D02*
X1044Y276D01*
X1225Y276D02*
X1230Y276D01*
X1251Y276D02*
X1258Y276D01*
X0Y275D02*
X6Y275D01*
X377Y275D02*
X379Y275D01*
X504Y275D02*
X506Y275D01*
X1039Y275D02*
X1044Y275D01*
X1225Y275D02*
X1230Y275D01*
X1251Y275D02*
X1258Y275D01*
X0Y274D02*
X6Y274D01*
X377Y274D02*
X379Y274D01*
X504Y274D02*
X506Y274D01*
X1039Y274D02*
X1044Y274D01*
X1225Y274D02*
X1230Y274D01*
X1251Y274D02*
X1258Y274D01*
X0Y273D02*
X6Y273D01*
X377Y273D02*
X379Y273D01*
X504Y273D02*
X506Y273D01*
X1039Y273D02*
X1044Y273D01*
X1225Y273D02*
X1230Y273D01*
X1251Y273D02*
X1258Y273D01*
X0Y272D02*
X6Y272D01*
X377Y272D02*
X379Y272D01*
X504Y272D02*
X506Y272D01*
X1039Y272D02*
X1044Y272D01*
X1225Y272D02*
X1230Y272D01*
X1251Y272D02*
X1258Y272D01*
X0Y271D02*
X6Y271D01*
X377Y271D02*
X379Y271D01*
X504Y271D02*
X506Y271D01*
X1039Y271D02*
X1042Y271D01*
X1227Y271D02*
X1230Y271D01*
X1251Y271D02*
X1258Y271D01*
X0Y270D02*
X6Y270D01*
X377Y270D02*
X379Y270D01*
X504Y270D02*
X506Y270D01*
X1039Y270D02*
X1042Y270D01*
X1227Y270D02*
X1230Y270D01*
X1251Y270D02*
X1258Y270D01*
X0Y269D02*
X6Y269D01*
X377Y269D02*
X379Y269D01*
X504Y269D02*
X506Y269D01*
X1039Y269D02*
X1042Y269D01*
X1227Y269D02*
X1230Y269D01*
X1251Y269D02*
X1258Y269D01*
X0Y268D02*
X7Y268D01*
X377Y268D02*
X379Y268D01*
X504Y268D02*
X506Y268D01*
X1039Y268D02*
X1042Y268D01*
X1227Y268D02*
X1230Y268D01*
X1251Y268D02*
X1258Y268D01*
X0Y267D02*
X7Y267D01*
X377Y267D02*
X379Y267D01*
X504Y267D02*
X506Y267D01*
X1039Y267D02*
X1042Y267D01*
X1227Y267D02*
X1230Y267D01*
X1251Y267D02*
X1258Y267D01*
X0Y266D02*
X7Y266D01*
X377Y266D02*
X379Y266D01*
X504Y266D02*
X506Y266D01*
X1039Y266D02*
X1042Y266D01*
X1227Y266D02*
X1230Y266D01*
X1251Y266D02*
X1258Y266D01*
X0Y265D02*
X7Y265D01*
X377Y265D02*
X379Y265D01*
X504Y265D02*
X506Y265D01*
X1039Y265D02*
X1042Y265D01*
X1227Y265D02*
X1230Y265D01*
X1251Y265D02*
X1258Y265D01*
X0Y264D02*
X7Y264D01*
X377Y264D02*
X379Y264D01*
X504Y264D02*
X506Y264D01*
X1039Y264D02*
X1042Y264D01*
X1227Y264D02*
X1230Y264D01*
X1251Y264D02*
X1258Y264D01*
X0Y263D02*
X7Y263D01*
X377Y263D02*
X379Y263D01*
X504Y263D02*
X506Y263D01*
X1039Y263D02*
X1042Y263D01*
X1227Y263D02*
X1230Y263D01*
X1251Y263D02*
X1258Y263D01*
X0Y262D02*
X7Y262D01*
X377Y262D02*
X379Y262D01*
X504Y262D02*
X506Y262D01*
X1039Y262D02*
X1042Y262D01*
X1227Y262D02*
X1230Y262D01*
X1251Y262D02*
X1258Y262D01*
X0Y261D02*
X7Y261D01*
X377Y261D02*
X379Y261D01*
X504Y261D02*
X506Y261D01*
X1039Y261D02*
X1042Y261D01*
X1227Y261D02*
X1230Y261D01*
X1251Y261D02*
X1258Y261D01*
X0Y260D02*
X7Y260D01*
X377Y260D02*
X379Y260D01*
X504Y260D02*
X506Y260D01*
X1039Y260D02*
X1042Y260D01*
X1227Y260D02*
X1230Y260D01*
X1251Y260D02*
X1258Y260D01*
X0Y259D02*
X7Y259D01*
X377Y259D02*
X379Y259D01*
X504Y259D02*
X506Y259D01*
X1039Y259D02*
X1042Y259D01*
X1227Y259D02*
X1230Y259D01*
X1251Y259D02*
X1258Y259D01*
X0Y258D02*
X7Y258D01*
X377Y258D02*
X379Y258D01*
X504Y258D02*
X506Y258D01*
X1039Y258D02*
X1042Y258D01*
X1227Y258D02*
X1230Y258D01*
X1251Y258D02*
X1258Y258D01*
X0Y257D02*
X7Y257D01*
X377Y257D02*
X379Y257D01*
X504Y257D02*
X506Y257D01*
X1039Y257D02*
X1042Y257D01*
X1227Y257D02*
X1230Y257D01*
X1251Y257D02*
X1258Y257D01*
X0Y256D02*
X7Y256D01*
X377Y256D02*
X379Y256D01*
X504Y256D02*
X506Y256D01*
X1039Y256D02*
X1042Y256D01*
X1227Y256D02*
X1230Y256D01*
X1251Y256D02*
X1258Y256D01*
X0Y255D02*
X7Y255D01*
X377Y255D02*
X379Y255D01*
X504Y255D02*
X506Y255D01*
X1039Y255D02*
X1042Y255D01*
X1227Y255D02*
X1230Y255D01*
X1251Y255D02*
X1258Y255D01*
X0Y254D02*
X7Y254D01*
X377Y254D02*
X379Y254D01*
X504Y254D02*
X506Y254D01*
X1040Y254D02*
X1042Y254D01*
X1227Y254D02*
X1230Y254D01*
X1251Y254D02*
X1258Y254D01*
X0Y253D02*
X7Y253D01*
X377Y253D02*
X379Y253D01*
X504Y253D02*
X506Y253D01*
X1041Y253D02*
X1042Y253D01*
X1227Y253D02*
X1229Y253D01*
X1251Y253D02*
X1258Y253D01*
X0Y252D02*
X7Y252D01*
X377Y252D02*
X379Y252D01*
X504Y252D02*
X506Y252D01*
X1251Y252D02*
X1258Y252D01*
X0Y251D02*
X7Y251D01*
X377Y251D02*
X379Y251D01*
X504Y251D02*
X506Y251D01*
X1251Y251D02*
X1258Y251D01*
X0Y250D02*
X7Y250D01*
X377Y250D02*
X379Y250D01*
X504Y250D02*
X506Y250D01*
X1251Y250D02*
X1258Y250D01*
X0Y249D02*
X7Y249D01*
X377Y249D02*
X379Y249D01*
X504Y249D02*
X506Y249D01*
X1251Y249D02*
X1258Y249D01*
X0Y248D02*
X7Y248D01*
X377Y248D02*
X379Y248D01*
X504Y248D02*
X506Y248D01*
X1251Y248D02*
X1258Y248D01*
X0Y247D02*
X7Y247D01*
X377Y247D02*
X379Y247D01*
X504Y247D02*
X506Y247D01*
X1251Y247D02*
X1258Y247D01*
X0Y246D02*
X7Y246D01*
X377Y246D02*
X379Y246D01*
X504Y246D02*
X506Y246D01*
X1251Y246D02*
X1258Y246D01*
X0Y245D02*
X7Y245D01*
X377Y245D02*
X379Y245D01*
X504Y245D02*
X506Y245D01*
X1251Y245D02*
X1258Y245D01*
X0Y244D02*
X7Y244D01*
X377Y244D02*
X379Y244D01*
X504Y244D02*
X506Y244D01*
X1251Y244D02*
X1258Y244D01*
X0Y243D02*
X7Y243D01*
X377Y243D02*
X379Y243D01*
X504Y243D02*
X506Y243D01*
X1251Y243D02*
X1258Y243D01*
X0Y242D02*
X7Y242D01*
X377Y242D02*
X379Y242D01*
X504Y242D02*
X506Y242D01*
X1251Y242D02*
X1258Y242D01*
X0Y241D02*
X7Y241D01*
X377Y241D02*
X379Y241D01*
X504Y241D02*
X506Y241D01*
X1251Y241D02*
X1258Y241D01*
X0Y240D02*
X7Y240D01*
X377Y240D02*
X379Y240D01*
X504Y240D02*
X506Y240D01*
X1251Y240D02*
X1258Y240D01*
X0Y239D02*
X7Y239D01*
X377Y239D02*
X379Y239D01*
X437Y239D02*
X446Y239D01*
X504Y239D02*
X506Y239D01*
X1251Y239D02*
X1258Y239D01*
X0Y238D02*
X7Y238D01*
X377Y238D02*
X506Y238D01*
X1251Y238D02*
X1258Y238D01*
X0Y237D02*
X7Y237D01*
X377Y237D02*
X506Y237D01*
X1251Y237D02*
X1258Y237D01*
X0Y236D02*
X7Y236D01*
X377Y236D02*
X506Y236D01*
X1251Y236D02*
X1258Y236D01*
X0Y235D02*
X7Y235D01*
X1251Y235D02*
X1258Y235D01*
X0Y234D02*
X7Y234D01*
X1251Y234D02*
X1258Y234D01*
X0Y233D02*
X7Y233D01*
X1251Y233D02*
X1258Y233D01*
X0Y232D02*
X7Y232D01*
X713Y232D02*
X716Y232D01*
X1251Y232D02*
X1258Y232D01*
X0Y231D02*
X7Y231D01*
X710Y231D02*
X718Y231D01*
X1251Y231D02*
X1258Y231D01*
X0Y230D02*
X7Y230D01*
X709Y230D02*
X719Y230D01*
X1251Y230D02*
X1258Y230D01*
X0Y229D02*
X7Y229D01*
X708Y229D02*
X720Y229D01*
X1251Y229D02*
X1258Y229D01*
X0Y228D02*
X7Y228D01*
X708Y228D02*
X721Y228D01*
X1251Y228D02*
X1258Y228D01*
X0Y227D02*
X7Y227D01*
X708Y227D02*
X721Y227D01*
X1251Y227D02*
X1258Y227D01*
X0Y226D02*
X7Y226D01*
X708Y226D02*
X721Y226D01*
X1251Y226D02*
X1258Y226D01*
X0Y225D02*
X7Y225D01*
X239Y225D02*
X368Y225D01*
X708Y225D02*
X721Y225D01*
X1251Y225D02*
X1258Y225D01*
X0Y224D02*
X7Y224D01*
X239Y224D02*
X368Y224D01*
X708Y224D02*
X721Y224D01*
X1251Y224D02*
X1258Y224D01*
X0Y223D02*
X7Y223D01*
X239Y223D02*
X368Y223D01*
X708Y223D02*
X721Y223D01*
X1251Y223D02*
X1258Y223D01*
X0Y222D02*
X7Y222D01*
X239Y222D02*
X241Y222D01*
X299Y222D02*
X308Y222D01*
X366Y222D02*
X368Y222D01*
X708Y222D02*
X721Y222D01*
X1251Y222D02*
X1258Y222D01*
X0Y221D02*
X7Y221D01*
X239Y221D02*
X241Y221D01*
X366Y221D02*
X368Y221D01*
X708Y221D02*
X721Y221D01*
X1251Y221D02*
X1258Y221D01*
X0Y220D02*
X7Y220D01*
X239Y220D02*
X241Y220D01*
X366Y220D02*
X368Y220D01*
X708Y220D02*
X721Y220D01*
X1251Y220D02*
X1258Y220D01*
X0Y219D02*
X7Y219D01*
X239Y219D02*
X241Y219D01*
X366Y219D02*
X368Y219D01*
X708Y219D02*
X721Y219D01*
X1251Y219D02*
X1258Y219D01*
X0Y218D02*
X7Y218D01*
X239Y218D02*
X241Y218D01*
X366Y218D02*
X368Y218D01*
X708Y218D02*
X721Y218D01*
X1251Y218D02*
X1258Y218D01*
X0Y217D02*
X7Y217D01*
X239Y217D02*
X241Y217D01*
X366Y217D02*
X368Y217D01*
X709Y217D02*
X720Y217D01*
X1251Y217D02*
X1258Y217D01*
X0Y216D02*
X7Y216D01*
X239Y216D02*
X241Y216D01*
X366Y216D02*
X368Y216D01*
X710Y216D02*
X719Y216D01*
X1251Y216D02*
X1258Y216D01*
X0Y215D02*
X7Y215D01*
X239Y215D02*
X241Y215D01*
X366Y215D02*
X368Y215D01*
X711Y215D02*
X718Y215D01*
X1251Y215D02*
X1258Y215D01*
X0Y214D02*
X7Y214D01*
X239Y214D02*
X241Y214D01*
X366Y214D02*
X368Y214D01*
X714Y214D02*
X714Y214D01*
X1251Y214D02*
X1258Y214D01*
X0Y213D02*
X7Y213D01*
X239Y213D02*
X241Y213D01*
X366Y213D02*
X368Y213D01*
X1251Y213D02*
X1258Y213D01*
X0Y212D02*
X7Y212D01*
X239Y212D02*
X241Y212D01*
X366Y212D02*
X368Y212D01*
X1251Y212D02*
X1258Y212D01*
X0Y211D02*
X7Y211D01*
X239Y211D02*
X241Y211D01*
X366Y211D02*
X368Y211D01*
X1251Y211D02*
X1258Y211D01*
X0Y210D02*
X7Y210D01*
X239Y210D02*
X241Y210D01*
X366Y210D02*
X368Y210D01*
X1251Y210D02*
X1258Y210D01*
X0Y209D02*
X7Y209D01*
X239Y209D02*
X241Y209D01*
X366Y209D02*
X368Y209D01*
X1251Y209D02*
X1258Y209D01*
X0Y208D02*
X7Y208D01*
X239Y208D02*
X241Y208D01*
X366Y208D02*
X368Y208D01*
X1251Y208D02*
X1258Y208D01*
X0Y207D02*
X7Y207D01*
X239Y207D02*
X241Y207D01*
X366Y207D02*
X368Y207D01*
X1251Y207D02*
X1258Y207D01*
X0Y206D02*
X7Y206D01*
X239Y206D02*
X241Y206D01*
X366Y206D02*
X368Y206D01*
X1251Y206D02*
X1258Y206D01*
X0Y205D02*
X7Y205D01*
X239Y205D02*
X241Y205D01*
X366Y205D02*
X368Y205D01*
X1251Y205D02*
X1258Y205D01*
X0Y204D02*
X7Y204D01*
X239Y204D02*
X241Y204D01*
X366Y204D02*
X368Y204D01*
X1251Y204D02*
X1258Y204D01*
X0Y203D02*
X7Y203D01*
X239Y203D02*
X241Y203D01*
X366Y203D02*
X368Y203D01*
X1251Y203D02*
X1258Y203D01*
X0Y202D02*
X7Y202D01*
X239Y202D02*
X241Y202D01*
X366Y202D02*
X368Y202D01*
X1251Y202D02*
X1258Y202D01*
X0Y201D02*
X7Y201D01*
X239Y201D02*
X241Y201D01*
X366Y201D02*
X368Y201D01*
X1251Y201D02*
X1258Y201D01*
X0Y200D02*
X7Y200D01*
X239Y200D02*
X241Y200D01*
X366Y200D02*
X368Y200D01*
X1251Y200D02*
X1258Y200D01*
X0Y199D02*
X7Y199D01*
X239Y199D02*
X241Y199D01*
X366Y199D02*
X368Y199D01*
X1251Y199D02*
X1258Y199D01*
X0Y198D02*
X7Y198D01*
X239Y198D02*
X241Y198D01*
X366Y198D02*
X368Y198D01*
X1251Y198D02*
X1258Y198D01*
X0Y197D02*
X7Y197D01*
X239Y197D02*
X241Y197D01*
X366Y197D02*
X368Y197D01*
X1251Y197D02*
X1258Y197D01*
X0Y196D02*
X7Y196D01*
X239Y196D02*
X241Y196D01*
X366Y196D02*
X368Y196D01*
X1251Y196D02*
X1258Y196D01*
X0Y195D02*
X7Y195D01*
X239Y195D02*
X241Y195D01*
X366Y195D02*
X368Y195D01*
X1251Y195D02*
X1258Y195D01*
X0Y194D02*
X7Y194D01*
X239Y194D02*
X241Y194D01*
X366Y194D02*
X368Y194D01*
X1251Y194D02*
X1258Y194D01*
X0Y193D02*
X7Y193D01*
X239Y193D02*
X241Y193D01*
X366Y193D02*
X368Y193D01*
X1251Y193D02*
X1258Y193D01*
X0Y192D02*
X7Y192D01*
X239Y192D02*
X241Y192D01*
X366Y192D02*
X368Y192D01*
X1251Y192D02*
X1258Y192D01*
X0Y191D02*
X7Y191D01*
X239Y191D02*
X241Y191D01*
X366Y191D02*
X368Y191D01*
X1251Y191D02*
X1258Y191D01*
X0Y190D02*
X7Y190D01*
X239Y190D02*
X241Y190D01*
X366Y190D02*
X368Y190D01*
X1251Y190D02*
X1258Y190D01*
X0Y189D02*
X7Y189D01*
X239Y189D02*
X241Y189D01*
X366Y189D02*
X368Y189D01*
X1251Y189D02*
X1258Y189D01*
X0Y188D02*
X7Y188D01*
X239Y188D02*
X241Y188D01*
X366Y188D02*
X368Y188D01*
X1251Y188D02*
X1258Y188D01*
X0Y187D02*
X7Y187D01*
X239Y187D02*
X241Y187D01*
X366Y187D02*
X368Y187D01*
X1251Y187D02*
X1258Y187D01*
X0Y186D02*
X7Y186D01*
X239Y186D02*
X241Y186D01*
X366Y186D02*
X368Y186D01*
X1251Y186D02*
X1258Y186D01*
X0Y185D02*
X7Y185D01*
X239Y185D02*
X241Y185D01*
X366Y185D02*
X368Y185D01*
X1251Y185D02*
X1258Y185D01*
X0Y184D02*
X7Y184D01*
X239Y184D02*
X241Y184D01*
X366Y184D02*
X368Y184D01*
X1251Y184D02*
X1258Y184D01*
X0Y183D02*
X7Y183D01*
X239Y183D02*
X241Y183D01*
X366Y183D02*
X368Y183D01*
X1251Y183D02*
X1258Y183D01*
X0Y182D02*
X7Y182D01*
X239Y182D02*
X241Y182D01*
X366Y182D02*
X368Y182D01*
X1251Y182D02*
X1258Y182D01*
X0Y181D02*
X7Y181D01*
X239Y181D02*
X241Y181D01*
X366Y181D02*
X368Y181D01*
X1251Y181D02*
X1258Y181D01*
X0Y180D02*
X7Y180D01*
X239Y180D02*
X241Y180D01*
X366Y180D02*
X368Y180D01*
X1251Y180D02*
X1258Y180D01*
X0Y179D02*
X7Y179D01*
X239Y179D02*
X241Y179D01*
X366Y179D02*
X368Y179D01*
X1251Y179D02*
X1258Y179D01*
X0Y178D02*
X7Y178D01*
X239Y178D02*
X241Y178D01*
X366Y178D02*
X368Y178D01*
X1251Y178D02*
X1258Y178D01*
X0Y177D02*
X7Y177D01*
X239Y177D02*
X241Y177D01*
X366Y177D02*
X368Y177D01*
X1251Y177D02*
X1258Y177D01*
X0Y176D02*
X7Y176D01*
X239Y176D02*
X241Y176D01*
X366Y176D02*
X368Y176D01*
X873Y176D02*
X893Y176D01*
X1251Y176D02*
X1258Y176D01*
X0Y175D02*
X7Y175D01*
X239Y175D02*
X241Y175D01*
X366Y175D02*
X368Y175D01*
X873Y175D02*
X894Y175D01*
X1251Y175D02*
X1258Y175D01*
X0Y174D02*
X7Y174D01*
X239Y174D02*
X241Y174D01*
X366Y174D02*
X368Y174D01*
X872Y174D02*
X894Y174D01*
X1251Y174D02*
X1258Y174D01*
X0Y173D02*
X7Y173D01*
X239Y173D02*
X241Y173D01*
X366Y173D02*
X368Y173D01*
X872Y173D02*
X895Y173D01*
X1251Y173D02*
X1258Y173D01*
X0Y172D02*
X7Y172D01*
X239Y172D02*
X241Y172D01*
X366Y172D02*
X368Y172D01*
X872Y172D02*
X895Y172D01*
X1251Y172D02*
X1258Y172D01*
X0Y171D02*
X7Y171D01*
X239Y171D02*
X241Y171D01*
X366Y171D02*
X368Y171D01*
X872Y171D02*
X895Y171D01*
X1251Y171D02*
X1258Y171D01*
X0Y170D02*
X7Y170D01*
X239Y170D02*
X241Y170D01*
X299Y170D02*
X308Y170D01*
X366Y170D02*
X368Y170D01*
X872Y170D02*
X895Y170D01*
X1251Y170D02*
X1258Y170D01*
X0Y169D02*
X7Y169D01*
X239Y169D02*
X368Y169D01*
X872Y169D02*
X895Y169D01*
X1251Y169D02*
X1258Y169D01*
X0Y168D02*
X7Y168D01*
X239Y168D02*
X368Y168D01*
X872Y168D02*
X895Y168D01*
X1251Y168D02*
X1258Y168D01*
X0Y167D02*
X7Y167D01*
X239Y167D02*
X368Y167D01*
X872Y167D02*
X895Y167D01*
X1251Y167D02*
X1258Y167D01*
X0Y166D02*
X7Y166D01*
X872Y166D02*
X894Y166D01*
X1251Y166D02*
X1258Y166D01*
X0Y165D02*
X7Y165D01*
X873Y165D02*
X894Y165D01*
X1251Y165D02*
X1258Y165D01*
X0Y164D02*
X7Y164D01*
X874Y164D02*
X893Y164D01*
X1251Y164D02*
X1258Y164D01*
X0Y163D02*
X7Y163D01*
X1251Y163D02*
X1258Y163D01*
X0Y162D02*
X7Y162D01*
X1251Y162D02*
X1258Y162D01*
X0Y161D02*
X7Y161D01*
X1251Y161D02*
X1258Y161D01*
X0Y160D02*
X7Y160D01*
X1251Y160D02*
X1258Y160D01*
X0Y159D02*
X7Y159D01*
X1251Y159D02*
X1258Y159D01*
X0Y158D02*
X7Y158D01*
X1251Y158D02*
X1258Y158D01*
X0Y157D02*
X7Y157D01*
X1251Y157D02*
X1258Y157D01*
X0Y156D02*
X7Y156D01*
X1251Y156D02*
X1258Y156D01*
X0Y155D02*
X7Y155D01*
X1251Y155D02*
X1258Y155D01*
X0Y154D02*
X7Y154D01*
X1251Y154D02*
X1258Y154D01*
X0Y153D02*
X7Y153D01*
X1251Y153D02*
X1258Y153D01*
X0Y152D02*
X7Y152D01*
X1251Y152D02*
X1258Y152D01*
X0Y151D02*
X7Y151D01*
X1251Y151D02*
X1258Y151D01*
X0Y150D02*
X7Y150D01*
X1251Y150D02*
X1258Y150D01*
X0Y149D02*
X7Y149D01*
X1251Y149D02*
X1258Y149D01*
X0Y148D02*
X7Y148D01*
X1251Y148D02*
X1258Y148D01*
X0Y147D02*
X7Y147D01*
X1251Y147D02*
X1258Y147D01*
X0Y146D02*
X7Y146D01*
X1251Y146D02*
X1258Y146D01*
X0Y145D02*
X7Y145D01*
X1251Y145D02*
X1258Y145D01*
X0Y144D02*
X7Y144D01*
X1251Y144D02*
X1258Y144D01*
X0Y143D02*
X7Y143D01*
X1251Y143D02*
X1258Y143D01*
X0Y142D02*
X7Y142D01*
X1251Y142D02*
X1258Y142D01*
X0Y141D02*
X7Y141D01*
X1251Y141D02*
X1258Y141D01*
X0Y140D02*
X7Y140D01*
X1251Y140D02*
X1258Y140D01*
X0Y139D02*
X7Y139D01*
X1251Y139D02*
X1258Y139D01*
X0Y138D02*
X7Y138D01*
X1251Y138D02*
X1258Y138D01*
X0Y137D02*
X7Y137D01*
X1251Y137D02*
X1258Y137D01*
X0Y136D02*
X7Y136D01*
X1251Y136D02*
X1258Y136D01*
X0Y135D02*
X7Y135D01*
X1251Y135D02*
X1258Y135D01*
X0Y134D02*
X7Y134D01*
X1251Y134D02*
X1258Y134D01*
X0Y133D02*
X7Y133D01*
X1251Y133D02*
X1258Y133D01*
X0Y132D02*
X7Y132D01*
X1251Y132D02*
X1258Y132D01*
X0Y131D02*
X7Y131D01*
X1251Y131D02*
X1258Y131D01*
X0Y130D02*
X7Y130D01*
X1251Y130D02*
X1258Y130D01*
X0Y129D02*
X7Y129D01*
X1251Y129D02*
X1258Y129D01*
X0Y128D02*
X7Y128D01*
X1251Y128D02*
X1258Y128D01*
X0Y127D02*
X7Y127D01*
X1251Y127D02*
X1258Y127D01*
X0Y126D02*
X7Y126D01*
X1251Y126D02*
X1258Y126D01*
X0Y125D02*
X7Y125D01*
X1251Y125D02*
X1258Y125D01*
X0Y124D02*
X7Y124D01*
X1251Y124D02*
X1258Y124D01*
X0Y123D02*
X7Y123D01*
X1251Y123D02*
X1258Y123D01*
X0Y122D02*
X7Y122D01*
X1251Y122D02*
X1258Y122D01*
X0Y121D02*
X7Y121D01*
X1251Y121D02*
X1258Y121D01*
X0Y120D02*
X7Y120D01*
X1251Y120D02*
X1258Y120D01*
X0Y119D02*
X7Y119D01*
X1251Y119D02*
X1258Y119D01*
X0Y118D02*
X7Y118D01*
X1251Y118D02*
X1258Y118D01*
X0Y117D02*
X7Y117D01*
X1251Y117D02*
X1258Y117D01*
X0Y116D02*
X7Y116D01*
X1251Y116D02*
X1258Y116D01*
X0Y115D02*
X7Y115D01*
X1251Y115D02*
X1258Y115D01*
X0Y114D02*
X7Y114D01*
X1251Y114D02*
X1258Y114D01*
X0Y113D02*
X7Y113D01*
X1251Y113D02*
X1258Y113D01*
X0Y112D02*
X7Y112D01*
X1251Y112D02*
X1258Y112D01*
X0Y111D02*
X7Y111D01*
X1251Y111D02*
X1258Y111D01*
X0Y110D02*
X7Y110D01*
X1251Y110D02*
X1258Y110D01*
X0Y109D02*
X7Y109D01*
X335Y109D02*
X337Y109D01*
X1251Y109D02*
X1258Y109D01*
X0Y108D02*
X7Y108D01*
X333Y108D02*
X338Y108D01*
X1251Y108D02*
X1258Y108D01*
X0Y107D02*
X7Y107D01*
X333Y107D02*
X337Y107D01*
X1251Y107D02*
X1258Y107D01*
X0Y106D02*
X7Y106D01*
X332Y106D02*
X337Y106D01*
X1251Y106D02*
X1258Y106D01*
X0Y105D02*
X7Y105D01*
X332Y105D02*
X337Y105D01*
X1251Y105D02*
X1258Y105D01*
X0Y104D02*
X7Y104D01*
X332Y104D02*
X337Y104D01*
X1251Y104D02*
X1258Y104D01*
X0Y103D02*
X7Y103D01*
X332Y103D02*
X337Y103D01*
X1251Y103D02*
X1258Y103D01*
X0Y102D02*
X7Y102D01*
X332Y102D02*
X337Y102D01*
X1251Y102D02*
X1258Y102D01*
X0Y101D02*
X7Y101D01*
X332Y101D02*
X337Y101D01*
X1251Y101D02*
X1258Y101D01*
X0Y100D02*
X7Y100D01*
X332Y100D02*
X337Y100D01*
X1251Y100D02*
X1258Y100D01*
X0Y99D02*
X7Y99D01*
X322Y99D02*
X325Y99D01*
X332Y99D02*
X337Y99D01*
X1251Y99D02*
X1258Y99D01*
X0Y98D02*
X7Y98D01*
X321Y98D02*
X327Y98D01*
X332Y98D02*
X337Y98D01*
X1251Y98D02*
X1258Y98D01*
X0Y97D02*
X7Y97D01*
X321Y97D02*
X328Y97D01*
X332Y97D02*
X337Y97D01*
X1251Y97D02*
X1258Y97D01*
X0Y96D02*
X7Y96D01*
X321Y96D02*
X330Y96D01*
X332Y96D02*
X337Y96D01*
X1251Y96D02*
X1258Y96D01*
X0Y95D02*
X7Y95D01*
X321Y95D02*
X337Y95D01*
X1251Y95D02*
X1258Y95D01*
X0Y94D02*
X7Y94D01*
X321Y94D02*
X337Y94D01*
X1251Y94D02*
X1258Y94D01*
X0Y93D02*
X7Y93D01*
X321Y93D02*
X337Y93D01*
X1251Y93D02*
X1258Y93D01*
X0Y92D02*
X7Y92D01*
X323Y92D02*
X337Y92D01*
X1251Y92D02*
X1258Y92D01*
X0Y91D02*
X7Y91D01*
X324Y91D02*
X337Y91D01*
X1251Y91D02*
X1258Y91D01*
X0Y90D02*
X7Y90D01*
X326Y90D02*
X337Y90D01*
X1251Y90D02*
X1258Y90D01*
X0Y89D02*
X7Y89D01*
X327Y89D02*
X337Y89D01*
X1251Y89D02*
X1258Y89D01*
X0Y88D02*
X7Y88D01*
X329Y88D02*
X337Y88D01*
X1251Y88D02*
X1258Y88D01*
X0Y87D02*
X7Y87D01*
X329Y87D02*
X337Y87D01*
X1251Y87D02*
X1258Y87D01*
X0Y86D02*
X7Y86D01*
X328Y86D02*
X337Y86D01*
X1251Y86D02*
X1258Y86D01*
X0Y85D02*
X7Y85D01*
X327Y85D02*
X337Y85D01*
X1251Y85D02*
X1258Y85D01*
X0Y84D02*
X7Y84D01*
X325Y84D02*
X337Y84D01*
X1251Y84D02*
X1258Y84D01*
X0Y83D02*
X7Y83D01*
X324Y83D02*
X337Y83D01*
X1251Y83D02*
X1258Y83D01*
X0Y82D02*
X7Y82D01*
X323Y82D02*
X337Y82D01*
X1251Y82D02*
X1258Y82D01*
X0Y81D02*
X7Y81D01*
X321Y81D02*
X337Y81D01*
X1251Y81D02*
X1258Y81D01*
X0Y80D02*
X7Y80D01*
X321Y80D02*
X337Y80D01*
X1251Y80D02*
X1258Y80D01*
X0Y79D02*
X7Y79D01*
X321Y79D02*
X337Y79D01*
X1251Y79D02*
X1258Y79D01*
X0Y78D02*
X7Y78D01*
X321Y78D02*
X330Y78D01*
X332Y78D02*
X337Y78D01*
X1251Y78D02*
X1258Y78D01*
X0Y77D02*
X7Y77D01*
X321Y77D02*
X328Y77D01*
X332Y77D02*
X337Y77D01*
X1251Y77D02*
X1258Y77D01*
X0Y76D02*
X7Y76D01*
X321Y76D02*
X327Y76D01*
X332Y76D02*
X337Y76D01*
X1251Y76D02*
X1258Y76D01*
X0Y75D02*
X7Y75D01*
X321Y75D02*
X326Y75D01*
X332Y75D02*
X337Y75D01*
X1251Y75D02*
X1258Y75D01*
X0Y74D02*
X7Y74D01*
X332Y74D02*
X337Y74D01*
X1251Y74D02*
X1258Y74D01*
X0Y73D02*
X7Y73D01*
X332Y73D02*
X337Y73D01*
X1251Y73D02*
X1258Y73D01*
X0Y72D02*
X7Y72D01*
X332Y72D02*
X337Y72D01*
X1251Y72D02*
X1258Y72D01*
X0Y71D02*
X7Y71D01*
X332Y71D02*
X337Y71D01*
X1251Y71D02*
X1258Y71D01*
X0Y70D02*
X7Y70D01*
X332Y70D02*
X337Y70D01*
X1251Y70D02*
X1258Y70D01*
X0Y69D02*
X7Y69D01*
X332Y69D02*
X337Y69D01*
X1251Y69D02*
X1258Y69D01*
X0Y68D02*
X7Y68D01*
X332Y68D02*
X337Y68D01*
X1251Y68D02*
X1258Y68D01*
X0Y67D02*
X7Y67D01*
X333Y67D02*
X337Y67D01*
X1251Y67D02*
X1258Y67D01*
X0Y66D02*
X7Y66D01*
X334Y66D02*
X338Y66D01*
X1251Y66D02*
X1258Y66D01*
X0Y65D02*
X7Y65D01*
X1251Y65D02*
X1258Y65D01*
X0Y64D02*
X7Y64D01*
X1251Y64D02*
X1258Y64D01*
X0Y63D02*
X7Y63D01*
X1251Y63D02*
X1258Y63D01*
X0Y62D02*
X7Y62D01*
X1251Y62D02*
X1258Y62D01*
X0Y61D02*
X7Y61D01*
X1251Y61D02*
X1258Y61D01*
X0Y60D02*
X7Y60D01*
X1251Y60D02*
X1258Y60D01*
X0Y59D02*
X7Y59D01*
X1251Y59D02*
X1258Y59D01*
X0Y58D02*
X7Y58D01*
X1251Y58D02*
X1258Y58D01*
X0Y57D02*
X7Y57D01*
X1251Y57D02*
X1258Y57D01*
X0Y56D02*
X7Y56D01*
X1251Y56D02*
X1258Y56D01*
X0Y55D02*
X7Y55D01*
X1251Y55D02*
X1258Y55D01*
X0Y54D02*
X7Y54D01*
X1251Y54D02*
X1258Y54D01*
X0Y53D02*
X7Y53D01*
X1251Y53D02*
X1258Y53D01*
X0Y52D02*
X7Y52D01*
X1251Y52D02*
X1258Y52D01*
X0Y51D02*
X7Y51D01*
X1251Y51D02*
X1258Y51D01*
X0Y50D02*
X7Y50D01*
X1251Y50D02*
X1258Y50D01*
X0Y49D02*
X7Y49D01*
X1251Y49D02*
X1258Y49D01*
X0Y48D02*
X7Y48D01*
X1251Y48D02*
X1258Y48D01*
X0Y47D02*
X7Y47D01*
X1251Y47D02*
X1258Y47D01*
X0Y46D02*
X7Y46D01*
X1251Y46D02*
X1258Y46D01*
X0Y45D02*
X7Y45D01*
X1251Y45D02*
X1258Y45D01*
X0Y44D02*
X7Y44D01*
X1251Y44D02*
X1258Y44D01*
X0Y43D02*
X7Y43D01*
X1251Y43D02*
X1258Y43D01*
X0Y42D02*
X7Y42D01*
X1251Y42D02*
X1258Y42D01*
X0Y41D02*
X7Y41D01*
X1251Y41D02*
X1258Y41D01*
X0Y40D02*
X7Y40D01*
X1251Y40D02*
X1258Y40D01*
X0Y39D02*
X7Y39D01*
X1251Y39D02*
X1258Y39D01*
X0Y38D02*
X7Y38D01*
X1251Y38D02*
X1258Y38D01*
X0Y37D02*
X7Y37D01*
X1251Y37D02*
X1258Y37D01*
X0Y36D02*
X7Y36D01*
X1251Y36D02*
X1258Y36D01*
X0Y35D02*
X7Y35D01*
X1251Y35D02*
X1258Y35D01*
X0Y34D02*
X7Y34D01*
X1251Y34D02*
X1258Y34D01*
X0Y33D02*
X7Y33D01*
X1251Y33D02*
X1258Y33D01*
X0Y32D02*
X7Y32D01*
X1251Y32D02*
X1258Y32D01*
X0Y31D02*
X7Y31D01*
X1251Y31D02*
X1258Y31D01*
X0Y30D02*
X7Y30D01*
X1251Y30D02*
X1258Y30D01*
X0Y29D02*
X7Y29D01*
X1251Y29D02*
X1258Y29D01*
X0Y28D02*
X7Y28D01*
X1251Y28D02*
X1258Y28D01*
X0Y27D02*
X7Y27D01*
X1251Y27D02*
X1258Y27D01*
X0Y26D02*
X7Y26D01*
X1251Y26D02*
X1258Y26D01*
X0Y25D02*
X7Y25D01*
X1251Y25D02*
X1258Y25D01*
X0Y24D02*
X7Y24D01*
X1251Y24D02*
X1258Y24D01*
X0Y23D02*
X7Y23D01*
X1251Y23D02*
X1258Y23D01*
X0Y22D02*
X7Y22D01*
X1251Y22D02*
X1258Y22D01*
X0Y21D02*
X7Y21D01*
X1251Y21D02*
X1258Y21D01*
X0Y20D02*
X7Y20D01*
X1251Y20D02*
X1258Y20D01*
X0Y19D02*
X7Y19D01*
X1251Y19D02*
X1258Y19D01*
X0Y18D02*
X7Y18D01*
X1251Y18D02*
X1258Y18D01*
X0Y17D02*
X7Y17D01*
X1251Y17D02*
X1258Y17D01*
X0Y16D02*
X7Y16D01*
X1251Y16D02*
X1258Y16D01*
X0Y15D02*
X7Y15D01*
X1251Y15D02*
X1258Y15D01*
X0Y14D02*
X7Y14D01*
X1251Y14D02*
X1258Y14D01*
X0Y13D02*
X7Y13D01*
X1251Y13D02*
X1258Y13D01*
X0Y12D02*
X7Y12D01*
X1251Y12D02*
X1258Y12D01*
X0Y11D02*
X7Y11D01*
X1251Y11D02*
X1258Y11D01*
X0Y10D02*
X7Y10D01*
X1251Y10D02*
X1258Y10D01*
X0Y9D02*
X1258Y9D01*
X0Y8D02*
X1258Y8D01*
X0Y7D02*
X1258Y7D01*
X0Y6D02*
X1258Y6D01*
X0Y5D02*
X1258Y5D01*
X0Y4D02*
X1258Y4D01*
X0Y3D02*
X1258Y3D01*
X0Y2D02*
X1258Y2D01*
D02*
G04 End of Silk1*
M02*