G04 MADE WITH FRITZING*
G04 WWW.FRITZING.ORG*
G04 DOUBLE SIDED*
G04 HOLES PLATED*
G04 CONTOUR ON CENTER OF CONTOUR VECTOR*
%ASAXBY*%
%FSLAX23Y23*%
%MOIN*%
%OFA0B0*%
%SFA1.0B1.0*%
%ADD10C,0.049370*%
%ADD11C,0.088000*%
%ADD12R,0.088000X0.088000*%
%ADD13R,0.041496X0.045433*%
%ADD14R,0.031654X0.057244*%
%ADD15R,0.088740X0.057244*%
%ADD16R,0.060000X0.067874*%
%ADD17R,0.053307X0.057244*%
%ADD18R,0.057244X0.053307*%
%ADD19R,0.041496X0.041496*%
%ADD20R,0.110000X0.042000*%
%ADD21R,0.045433X0.037559*%
%ADD22R,0.001000X0.001000*%
%LNMASK1*%
G90*
G70*
G54D10*
X633Y923D03*
G54D11*
X493Y512D03*
X493Y412D03*
G54D10*
X584Y874D03*
X334Y828D03*
X596Y820D03*
X118Y875D03*
X258Y871D03*
X256Y813D03*
X374Y770D03*
X454Y726D03*
X499Y773D03*
X499Y593D03*
X440Y51D03*
X496Y661D03*
G54D12*
X493Y512D03*
G54D13*
X527Y246D03*
X602Y246D03*
X564Y328D03*
G54D14*
X222Y429D03*
X259Y429D03*
X296Y429D03*
X296Y531D03*
X222Y531D03*
G54D15*
X380Y394D03*
X380Y520D03*
G54D16*
X467Y281D03*
X298Y281D03*
G54D17*
X134Y459D03*
X134Y526D03*
G54D18*
X372Y55D03*
X305Y55D03*
G54D19*
X241Y114D03*
X241Y55D03*
G54D18*
X231Y333D03*
X164Y333D03*
G54D20*
X600Y623D03*
X600Y673D03*
X600Y723D03*
X600Y773D03*
X600Y823D03*
X600Y873D03*
X600Y923D03*
X600Y973D03*
X72Y1123D03*
X72Y1073D03*
X72Y1023D03*
X72Y973D03*
X72Y923D03*
X72Y873D03*
X72Y823D03*
X72Y773D03*
X72Y723D03*
X72Y673D03*
X72Y623D03*
G54D14*
X122Y157D03*
X160Y157D03*
X197Y157D03*
X197Y259D03*
X122Y259D03*
G54D21*
X621Y126D03*
X621Y177D03*
X531Y151D03*
X531Y100D03*
G54D22*
X17Y1144D02*
X21Y1144D01*
X122Y1144D02*
X127Y1144D01*
X14Y1143D02*
X21Y1143D01*
X122Y1143D02*
X129Y1143D01*
X12Y1142D02*
X21Y1142D01*
X122Y1142D02*
X131Y1142D01*
X11Y1141D02*
X21Y1141D01*
X122Y1141D02*
X133Y1141D01*
X10Y1140D02*
X21Y1140D01*
X122Y1140D02*
X134Y1140D01*
X8Y1139D02*
X21Y1139D01*
X122Y1139D02*
X135Y1139D01*
X7Y1138D02*
X21Y1138D01*
X122Y1138D02*
X136Y1138D01*
X7Y1137D02*
X21Y1137D01*
X122Y1137D02*
X137Y1137D01*
X6Y1136D02*
X21Y1136D01*
X122Y1136D02*
X138Y1136D01*
X5Y1135D02*
X21Y1135D01*
X122Y1135D02*
X139Y1135D01*
X4Y1134D02*
X21Y1134D01*
X122Y1134D02*
X139Y1134D01*
X4Y1133D02*
X21Y1133D01*
X122Y1133D02*
X140Y1133D01*
X3Y1132D02*
X21Y1132D01*
X122Y1132D02*
X140Y1132D01*
X3Y1131D02*
X21Y1131D01*
X122Y1131D02*
X141Y1131D01*
X2Y1130D02*
X21Y1130D01*
X122Y1130D02*
X141Y1130D01*
X2Y1129D02*
X21Y1129D01*
X122Y1129D02*
X142Y1129D01*
X2Y1128D02*
X21Y1128D01*
X122Y1128D02*
X142Y1128D01*
X2Y1127D02*
X21Y1127D01*
X122Y1127D02*
X142Y1127D01*
X2Y1126D02*
X21Y1126D01*
X122Y1126D02*
X142Y1126D01*
X1Y1125D02*
X21Y1125D01*
X122Y1125D02*
X142Y1125D01*
X1Y1124D02*
X21Y1124D01*
X122Y1124D02*
X142Y1124D01*
X1Y1123D02*
X21Y1123D01*
X122Y1123D02*
X142Y1123D01*
X2Y1122D02*
X21Y1122D01*
X122Y1122D02*
X142Y1122D01*
X2Y1121D02*
X21Y1121D01*
X122Y1121D02*
X142Y1121D01*
X2Y1120D02*
X21Y1120D01*
X122Y1120D02*
X142Y1120D01*
X2Y1119D02*
X21Y1119D01*
X122Y1119D02*
X142Y1119D01*
X2Y1118D02*
X21Y1118D01*
X122Y1118D02*
X141Y1118D01*
X3Y1117D02*
X21Y1117D01*
X122Y1117D02*
X141Y1117D01*
X3Y1116D02*
X21Y1116D01*
X122Y1116D02*
X141Y1116D01*
X4Y1115D02*
X21Y1115D01*
X122Y1115D02*
X140Y1115D01*
X4Y1114D02*
X21Y1114D01*
X122Y1114D02*
X140Y1114D01*
X5Y1113D02*
X21Y1113D01*
X122Y1113D02*
X139Y1113D01*
X5Y1112D02*
X21Y1112D01*
X122Y1112D02*
X138Y1112D01*
X6Y1111D02*
X21Y1111D01*
X122Y1111D02*
X138Y1111D01*
X7Y1110D02*
X21Y1110D01*
X122Y1110D02*
X137Y1110D01*
X8Y1109D02*
X21Y1109D01*
X122Y1109D02*
X136Y1109D01*
X9Y1108D02*
X21Y1108D01*
X122Y1108D02*
X135Y1108D01*
X10Y1107D02*
X21Y1107D01*
X122Y1107D02*
X133Y1107D01*
X12Y1106D02*
X21Y1106D01*
X122Y1106D02*
X132Y1106D01*
X14Y1105D02*
X21Y1105D01*
X122Y1105D02*
X130Y1105D01*
X16Y1104D02*
X21Y1104D01*
X122Y1104D02*
X128Y1104D01*
X20Y1103D02*
X21Y1103D01*
X123Y1103D02*
X124Y1103D01*
X17Y1094D02*
X21Y1094D01*
X122Y1094D02*
X127Y1094D01*
X14Y1093D02*
X21Y1093D01*
X122Y1093D02*
X129Y1093D01*
X12Y1092D02*
X21Y1092D01*
X122Y1092D02*
X131Y1092D01*
X11Y1091D02*
X21Y1091D01*
X122Y1091D02*
X133Y1091D01*
X10Y1090D02*
X21Y1090D01*
X122Y1090D02*
X134Y1090D01*
X8Y1089D02*
X21Y1089D01*
X122Y1089D02*
X135Y1089D01*
X7Y1088D02*
X21Y1088D01*
X122Y1088D02*
X136Y1088D01*
X7Y1087D02*
X21Y1087D01*
X122Y1087D02*
X137Y1087D01*
X6Y1086D02*
X21Y1086D01*
X122Y1086D02*
X138Y1086D01*
X5Y1085D02*
X21Y1085D01*
X122Y1085D02*
X139Y1085D01*
X4Y1084D02*
X21Y1084D01*
X122Y1084D02*
X139Y1084D01*
X4Y1083D02*
X21Y1083D01*
X122Y1083D02*
X140Y1083D01*
X3Y1082D02*
X21Y1082D01*
X122Y1082D02*
X140Y1082D01*
X3Y1081D02*
X21Y1081D01*
X122Y1081D02*
X141Y1081D01*
X2Y1080D02*
X21Y1080D01*
X122Y1080D02*
X141Y1080D01*
X2Y1079D02*
X21Y1079D01*
X122Y1079D02*
X142Y1079D01*
X2Y1078D02*
X21Y1078D01*
X122Y1078D02*
X142Y1078D01*
X2Y1077D02*
X21Y1077D01*
X122Y1077D02*
X142Y1077D01*
X2Y1076D02*
X21Y1076D01*
X122Y1076D02*
X142Y1076D01*
X1Y1075D02*
X21Y1075D01*
X122Y1075D02*
X142Y1075D01*
X1Y1074D02*
X21Y1074D01*
X122Y1074D02*
X142Y1074D01*
X1Y1073D02*
X21Y1073D01*
X122Y1073D02*
X142Y1073D01*
X2Y1072D02*
X21Y1072D01*
X122Y1072D02*
X142Y1072D01*
X2Y1071D02*
X21Y1071D01*
X122Y1071D02*
X142Y1071D01*
X2Y1070D02*
X21Y1070D01*
X122Y1070D02*
X142Y1070D01*
X2Y1069D02*
X21Y1069D01*
X122Y1069D02*
X142Y1069D01*
X2Y1068D02*
X21Y1068D01*
X122Y1068D02*
X141Y1068D01*
X3Y1067D02*
X21Y1067D01*
X122Y1067D02*
X141Y1067D01*
X3Y1066D02*
X21Y1066D01*
X122Y1066D02*
X141Y1066D01*
X4Y1065D02*
X21Y1065D01*
X122Y1065D02*
X140Y1065D01*
X4Y1064D02*
X21Y1064D01*
X122Y1064D02*
X140Y1064D01*
X5Y1063D02*
X21Y1063D01*
X122Y1063D02*
X139Y1063D01*
X5Y1062D02*
X21Y1062D01*
X122Y1062D02*
X138Y1062D01*
X6Y1061D02*
X21Y1061D01*
X122Y1061D02*
X138Y1061D01*
X7Y1060D02*
X21Y1060D01*
X122Y1060D02*
X137Y1060D01*
X8Y1059D02*
X21Y1059D01*
X122Y1059D02*
X136Y1059D01*
X9Y1058D02*
X21Y1058D01*
X122Y1058D02*
X135Y1058D01*
X10Y1057D02*
X21Y1057D01*
X122Y1057D02*
X133Y1057D01*
X12Y1056D02*
X21Y1056D01*
X122Y1056D02*
X132Y1056D01*
X14Y1055D02*
X21Y1055D01*
X122Y1055D02*
X130Y1055D01*
X16Y1054D02*
X21Y1054D01*
X122Y1054D02*
X128Y1054D01*
X20Y1053D02*
X21Y1053D01*
X123Y1053D02*
X124Y1053D01*
X17Y1044D02*
X21Y1044D01*
X122Y1044D02*
X127Y1044D01*
X14Y1043D02*
X21Y1043D01*
X122Y1043D02*
X129Y1043D01*
X12Y1042D02*
X21Y1042D01*
X122Y1042D02*
X131Y1042D01*
X11Y1041D02*
X21Y1041D01*
X122Y1041D02*
X133Y1041D01*
X10Y1040D02*
X21Y1040D01*
X122Y1040D02*
X134Y1040D01*
X8Y1039D02*
X21Y1039D01*
X122Y1039D02*
X135Y1039D01*
X7Y1038D02*
X21Y1038D01*
X122Y1038D02*
X136Y1038D01*
X7Y1037D02*
X21Y1037D01*
X122Y1037D02*
X137Y1037D01*
X6Y1036D02*
X21Y1036D01*
X122Y1036D02*
X138Y1036D01*
X5Y1035D02*
X21Y1035D01*
X122Y1035D02*
X139Y1035D01*
X4Y1034D02*
X21Y1034D01*
X122Y1034D02*
X139Y1034D01*
X4Y1033D02*
X21Y1033D01*
X122Y1033D02*
X140Y1033D01*
X3Y1032D02*
X21Y1032D01*
X122Y1032D02*
X140Y1032D01*
X3Y1031D02*
X21Y1031D01*
X122Y1031D02*
X141Y1031D01*
X2Y1030D02*
X21Y1030D01*
X122Y1030D02*
X141Y1030D01*
X2Y1029D02*
X21Y1029D01*
X122Y1029D02*
X142Y1029D01*
X2Y1028D02*
X21Y1028D01*
X122Y1028D02*
X142Y1028D01*
X2Y1027D02*
X21Y1027D01*
X122Y1027D02*
X142Y1027D01*
X2Y1026D02*
X21Y1026D01*
X122Y1026D02*
X142Y1026D01*
X1Y1025D02*
X21Y1025D01*
X122Y1025D02*
X142Y1025D01*
X1Y1024D02*
X21Y1024D01*
X122Y1024D02*
X142Y1024D01*
X1Y1023D02*
X21Y1023D01*
X122Y1023D02*
X142Y1023D01*
X2Y1022D02*
X21Y1022D01*
X122Y1022D02*
X142Y1022D01*
X2Y1021D02*
X21Y1021D01*
X122Y1021D02*
X142Y1021D01*
X2Y1020D02*
X21Y1020D01*
X122Y1020D02*
X142Y1020D01*
X2Y1019D02*
X21Y1019D01*
X122Y1019D02*
X142Y1019D01*
X2Y1018D02*
X21Y1018D01*
X122Y1018D02*
X141Y1018D01*
X3Y1017D02*
X21Y1017D01*
X122Y1017D02*
X141Y1017D01*
X3Y1016D02*
X21Y1016D01*
X122Y1016D02*
X141Y1016D01*
X4Y1015D02*
X21Y1015D01*
X122Y1015D02*
X140Y1015D01*
X4Y1014D02*
X21Y1014D01*
X122Y1014D02*
X140Y1014D01*
X5Y1013D02*
X21Y1013D01*
X122Y1013D02*
X139Y1013D01*
X5Y1012D02*
X21Y1012D01*
X122Y1012D02*
X138Y1012D01*
X6Y1011D02*
X21Y1011D01*
X122Y1011D02*
X138Y1011D01*
X7Y1010D02*
X21Y1010D01*
X122Y1010D02*
X137Y1010D01*
X8Y1009D02*
X21Y1009D01*
X122Y1009D02*
X136Y1009D01*
X9Y1008D02*
X21Y1008D01*
X122Y1008D02*
X135Y1008D01*
X10Y1007D02*
X21Y1007D01*
X122Y1007D02*
X133Y1007D01*
X12Y1006D02*
X21Y1006D01*
X122Y1006D02*
X132Y1006D01*
X14Y1005D02*
X21Y1005D01*
X122Y1005D02*
X130Y1005D01*
X16Y1004D02*
X21Y1004D01*
X122Y1004D02*
X128Y1004D01*
X20Y1003D02*
X21Y1003D01*
X123Y1003D02*
X124Y1003D01*
X17Y994D02*
X21Y994D01*
X122Y994D02*
X127Y994D01*
X545Y994D02*
X549Y994D01*
X650Y994D02*
X655Y994D01*
X14Y993D02*
X21Y993D01*
X122Y993D02*
X129Y993D01*
X542Y993D02*
X549Y993D01*
X650Y993D02*
X657Y993D01*
X12Y992D02*
X21Y992D01*
X122Y992D02*
X131Y992D01*
X540Y992D02*
X549Y992D01*
X650Y992D02*
X659Y992D01*
X11Y991D02*
X21Y991D01*
X122Y991D02*
X133Y991D01*
X539Y991D02*
X549Y991D01*
X650Y991D02*
X661Y991D01*
X10Y990D02*
X21Y990D01*
X122Y990D02*
X134Y990D01*
X537Y990D02*
X549Y990D01*
X650Y990D02*
X662Y990D01*
X8Y989D02*
X21Y989D01*
X122Y989D02*
X135Y989D01*
X536Y989D02*
X549Y989D01*
X650Y989D02*
X663Y989D01*
X7Y988D02*
X21Y988D01*
X122Y988D02*
X136Y988D01*
X535Y988D02*
X549Y988D01*
X650Y988D02*
X664Y988D01*
X7Y987D02*
X21Y987D01*
X122Y987D02*
X137Y987D01*
X534Y987D02*
X549Y987D01*
X650Y987D02*
X665Y987D01*
X6Y986D02*
X21Y986D01*
X122Y986D02*
X138Y986D01*
X533Y986D02*
X549Y986D01*
X650Y986D02*
X666Y986D01*
X5Y985D02*
X21Y985D01*
X122Y985D02*
X139Y985D01*
X533Y985D02*
X549Y985D01*
X650Y985D02*
X667Y985D01*
X4Y984D02*
X21Y984D01*
X122Y984D02*
X139Y984D01*
X532Y984D02*
X549Y984D01*
X650Y984D02*
X667Y984D01*
X4Y983D02*
X21Y983D01*
X122Y983D02*
X140Y983D01*
X532Y983D02*
X549Y983D01*
X650Y983D02*
X668Y983D01*
X3Y982D02*
X21Y982D01*
X122Y982D02*
X140Y982D01*
X531Y982D02*
X549Y982D01*
X650Y982D02*
X668Y982D01*
X3Y981D02*
X21Y981D01*
X122Y981D02*
X141Y981D01*
X531Y981D02*
X549Y981D01*
X650Y981D02*
X669Y981D01*
X2Y980D02*
X21Y980D01*
X122Y980D02*
X141Y980D01*
X530Y980D02*
X549Y980D01*
X650Y980D02*
X669Y980D01*
X2Y979D02*
X21Y979D01*
X122Y979D02*
X142Y979D01*
X530Y979D02*
X549Y979D01*
X650Y979D02*
X669Y979D01*
X2Y978D02*
X21Y978D01*
X122Y978D02*
X142Y978D01*
X530Y978D02*
X549Y978D01*
X2Y977D02*
X21Y977D01*
X122Y977D02*
X142Y977D01*
X529Y977D02*
X549Y977D01*
X2Y976D02*
X21Y976D01*
X122Y976D02*
X142Y976D01*
X529Y976D02*
X549Y976D01*
X1Y975D02*
X21Y975D01*
X122Y975D02*
X142Y975D01*
X529Y975D02*
X549Y975D01*
X1Y974D02*
X21Y974D01*
X122Y974D02*
X142Y974D01*
X529Y974D02*
X549Y974D01*
X1Y973D02*
X21Y973D01*
X122Y973D02*
X142Y973D01*
X529Y973D02*
X549Y973D01*
X2Y972D02*
X21Y972D01*
X122Y972D02*
X142Y972D01*
X529Y972D02*
X549Y972D01*
X2Y971D02*
X21Y971D01*
X122Y971D02*
X142Y971D01*
X529Y971D02*
X549Y971D01*
X2Y970D02*
X21Y970D01*
X122Y970D02*
X142Y970D01*
X530Y970D02*
X549Y970D01*
X2Y969D02*
X21Y969D01*
X122Y969D02*
X142Y969D01*
X530Y969D02*
X549Y969D01*
X650Y969D02*
X669Y969D01*
X2Y968D02*
X21Y968D01*
X122Y968D02*
X141Y968D01*
X530Y968D02*
X549Y968D01*
X650Y968D02*
X669Y968D01*
X3Y967D02*
X21Y967D01*
X122Y967D02*
X141Y967D01*
X530Y967D02*
X549Y967D01*
X650Y967D02*
X669Y967D01*
X3Y966D02*
X21Y966D01*
X122Y966D02*
X141Y966D01*
X531Y966D02*
X549Y966D01*
X650Y966D02*
X668Y966D01*
X4Y965D02*
X21Y965D01*
X122Y965D02*
X140Y965D01*
X531Y965D02*
X549Y965D01*
X650Y965D02*
X668Y965D01*
X4Y964D02*
X21Y964D01*
X122Y964D02*
X140Y964D01*
X532Y964D02*
X549Y964D01*
X650Y964D02*
X667Y964D01*
X5Y963D02*
X21Y963D01*
X122Y963D02*
X139Y963D01*
X533Y963D02*
X549Y963D01*
X650Y963D02*
X667Y963D01*
X5Y962D02*
X21Y962D01*
X122Y962D02*
X138Y962D01*
X533Y962D02*
X549Y962D01*
X650Y962D02*
X666Y962D01*
X6Y961D02*
X21Y961D01*
X122Y961D02*
X138Y961D01*
X534Y961D02*
X549Y961D01*
X650Y961D02*
X665Y961D01*
X7Y960D02*
X21Y960D01*
X122Y960D02*
X137Y960D01*
X535Y960D02*
X549Y960D01*
X650Y960D02*
X664Y960D01*
X8Y959D02*
X21Y959D01*
X122Y959D02*
X136Y959D01*
X536Y959D02*
X549Y959D01*
X650Y959D02*
X663Y959D01*
X9Y958D02*
X21Y958D01*
X122Y958D02*
X135Y958D01*
X537Y958D02*
X549Y958D01*
X650Y958D02*
X662Y958D01*
X10Y957D02*
X21Y957D01*
X122Y957D02*
X133Y957D01*
X538Y957D02*
X549Y957D01*
X650Y957D02*
X661Y957D01*
X12Y956D02*
X21Y956D01*
X122Y956D02*
X132Y956D01*
X540Y956D02*
X549Y956D01*
X650Y956D02*
X660Y956D01*
X14Y955D02*
X21Y955D01*
X122Y955D02*
X130Y955D01*
X541Y955D02*
X549Y955D01*
X650Y955D02*
X658Y955D01*
X16Y954D02*
X21Y954D01*
X122Y954D02*
X128Y954D01*
X544Y954D02*
X549Y954D01*
X650Y954D02*
X656Y954D01*
X20Y953D02*
X21Y953D01*
X123Y953D02*
X124Y953D01*
X548Y953D02*
X549Y953D01*
X650Y953D02*
X652Y953D01*
X17Y944D02*
X21Y944D01*
X122Y944D02*
X127Y944D01*
X545Y944D02*
X549Y944D01*
X650Y944D02*
X655Y944D01*
X14Y943D02*
X21Y943D01*
X122Y943D02*
X129Y943D01*
X542Y943D02*
X549Y943D01*
X650Y943D02*
X657Y943D01*
X12Y942D02*
X21Y942D01*
X122Y942D02*
X131Y942D01*
X540Y942D02*
X549Y942D01*
X650Y942D02*
X659Y942D01*
X11Y941D02*
X21Y941D01*
X122Y941D02*
X133Y941D01*
X539Y941D02*
X549Y941D01*
X650Y941D02*
X661Y941D01*
X10Y940D02*
X21Y940D01*
X122Y940D02*
X134Y940D01*
X537Y940D02*
X549Y940D01*
X650Y940D02*
X662Y940D01*
X8Y939D02*
X21Y939D01*
X122Y939D02*
X135Y939D01*
X536Y939D02*
X549Y939D01*
X650Y939D02*
X663Y939D01*
X7Y938D02*
X21Y938D01*
X122Y938D02*
X136Y938D01*
X535Y938D02*
X549Y938D01*
X650Y938D02*
X664Y938D01*
X7Y937D02*
X21Y937D01*
X122Y937D02*
X137Y937D01*
X534Y937D02*
X549Y937D01*
X650Y937D02*
X665Y937D01*
X6Y936D02*
X21Y936D01*
X122Y936D02*
X138Y936D01*
X533Y936D02*
X549Y936D01*
X650Y936D02*
X666Y936D01*
X5Y935D02*
X21Y935D01*
X122Y935D02*
X139Y935D01*
X533Y935D02*
X549Y935D01*
X650Y935D02*
X667Y935D01*
X4Y934D02*
X21Y934D01*
X122Y934D02*
X139Y934D01*
X532Y934D02*
X549Y934D01*
X650Y934D02*
X667Y934D01*
X4Y933D02*
X21Y933D01*
X122Y933D02*
X140Y933D01*
X532Y933D02*
X549Y933D01*
X650Y933D02*
X668Y933D01*
X3Y932D02*
X21Y932D01*
X122Y932D02*
X140Y932D01*
X531Y932D02*
X549Y932D01*
X650Y932D02*
X668Y932D01*
X3Y931D02*
X21Y931D01*
X122Y931D02*
X141Y931D01*
X531Y931D02*
X549Y931D01*
X650Y931D02*
X669Y931D01*
X2Y930D02*
X21Y930D01*
X122Y930D02*
X141Y930D01*
X530Y930D02*
X549Y930D01*
X650Y930D02*
X669Y930D01*
X2Y929D02*
X21Y929D01*
X122Y929D02*
X142Y929D01*
X530Y929D02*
X549Y929D01*
X650Y929D02*
X669Y929D01*
X2Y928D02*
X21Y928D01*
X122Y928D02*
X142Y928D01*
X530Y928D02*
X549Y928D01*
X2Y927D02*
X21Y927D01*
X122Y927D02*
X142Y927D01*
X529Y927D02*
X549Y927D01*
X2Y926D02*
X21Y926D01*
X122Y926D02*
X142Y926D01*
X529Y926D02*
X549Y926D01*
X1Y925D02*
X21Y925D01*
X122Y925D02*
X142Y925D01*
X529Y925D02*
X549Y925D01*
X1Y924D02*
X21Y924D01*
X122Y924D02*
X142Y924D01*
X529Y924D02*
X549Y924D01*
X1Y923D02*
X21Y923D01*
X122Y923D02*
X142Y923D01*
X529Y923D02*
X549Y923D01*
X2Y922D02*
X21Y922D01*
X122Y922D02*
X142Y922D01*
X529Y922D02*
X549Y922D01*
X2Y921D02*
X21Y921D01*
X122Y921D02*
X142Y921D01*
X529Y921D02*
X549Y921D01*
X2Y920D02*
X21Y920D01*
X122Y920D02*
X142Y920D01*
X530Y920D02*
X549Y920D01*
X2Y919D02*
X21Y919D01*
X122Y919D02*
X142Y919D01*
X530Y919D02*
X549Y919D01*
X650Y919D02*
X669Y919D01*
X2Y918D02*
X21Y918D01*
X122Y918D02*
X141Y918D01*
X530Y918D02*
X549Y918D01*
X650Y918D02*
X669Y918D01*
X3Y917D02*
X21Y917D01*
X122Y917D02*
X141Y917D01*
X530Y917D02*
X549Y917D01*
X650Y917D02*
X669Y917D01*
X3Y916D02*
X21Y916D01*
X122Y916D02*
X141Y916D01*
X531Y916D02*
X549Y916D01*
X650Y916D02*
X668Y916D01*
X4Y915D02*
X21Y915D01*
X122Y915D02*
X140Y915D01*
X531Y915D02*
X549Y915D01*
X650Y915D02*
X668Y915D01*
X4Y914D02*
X21Y914D01*
X122Y914D02*
X140Y914D01*
X532Y914D02*
X549Y914D01*
X650Y914D02*
X667Y914D01*
X5Y913D02*
X21Y913D01*
X122Y913D02*
X139Y913D01*
X533Y913D02*
X549Y913D01*
X650Y913D02*
X667Y913D01*
X5Y912D02*
X21Y912D01*
X122Y912D02*
X138Y912D01*
X533Y912D02*
X549Y912D01*
X650Y912D02*
X666Y912D01*
X6Y911D02*
X21Y911D01*
X122Y911D02*
X138Y911D01*
X534Y911D02*
X549Y911D01*
X650Y911D02*
X665Y911D01*
X7Y910D02*
X21Y910D01*
X122Y910D02*
X137Y910D01*
X535Y910D02*
X549Y910D01*
X650Y910D02*
X664Y910D01*
X8Y909D02*
X21Y909D01*
X122Y909D02*
X136Y909D01*
X536Y909D02*
X549Y909D01*
X650Y909D02*
X663Y909D01*
X9Y908D02*
X21Y908D01*
X122Y908D02*
X135Y908D01*
X537Y908D02*
X549Y908D01*
X650Y908D02*
X662Y908D01*
X10Y907D02*
X21Y907D01*
X122Y907D02*
X133Y907D01*
X538Y907D02*
X549Y907D01*
X650Y907D02*
X661Y907D01*
X12Y906D02*
X21Y906D01*
X122Y906D02*
X132Y906D01*
X540Y906D02*
X549Y906D01*
X650Y906D02*
X660Y906D01*
X14Y905D02*
X21Y905D01*
X122Y905D02*
X130Y905D01*
X541Y905D02*
X549Y905D01*
X650Y905D02*
X658Y905D01*
X16Y904D02*
X21Y904D01*
X122Y904D02*
X128Y904D01*
X544Y904D02*
X549Y904D01*
X650Y904D02*
X656Y904D01*
X20Y903D02*
X21Y903D01*
X123Y903D02*
X124Y903D01*
X548Y903D02*
X549Y903D01*
X650Y903D02*
X652Y903D01*
X17Y894D02*
X21Y894D01*
X122Y894D02*
X127Y894D01*
X545Y894D02*
X549Y894D01*
X650Y894D02*
X655Y894D01*
X14Y893D02*
X21Y893D01*
X122Y893D02*
X129Y893D01*
X542Y893D02*
X549Y893D01*
X650Y893D02*
X657Y893D01*
X12Y892D02*
X21Y892D01*
X122Y892D02*
X131Y892D01*
X540Y892D02*
X549Y892D01*
X650Y892D02*
X659Y892D01*
X11Y891D02*
X21Y891D01*
X122Y891D02*
X133Y891D01*
X539Y891D02*
X549Y891D01*
X650Y891D02*
X661Y891D01*
X10Y890D02*
X21Y890D01*
X122Y890D02*
X134Y890D01*
X537Y890D02*
X549Y890D01*
X650Y890D02*
X662Y890D01*
X8Y889D02*
X21Y889D01*
X122Y889D02*
X135Y889D01*
X536Y889D02*
X549Y889D01*
X650Y889D02*
X663Y889D01*
X7Y888D02*
X21Y888D01*
X122Y888D02*
X136Y888D01*
X535Y888D02*
X549Y888D01*
X650Y888D02*
X664Y888D01*
X7Y887D02*
X21Y887D01*
X122Y887D02*
X137Y887D01*
X534Y887D02*
X549Y887D01*
X650Y887D02*
X665Y887D01*
X6Y886D02*
X21Y886D01*
X122Y886D02*
X138Y886D01*
X533Y886D02*
X549Y886D01*
X650Y886D02*
X666Y886D01*
X5Y885D02*
X21Y885D01*
X122Y885D02*
X139Y885D01*
X533Y885D02*
X549Y885D01*
X650Y885D02*
X667Y885D01*
X4Y884D02*
X21Y884D01*
X122Y884D02*
X139Y884D01*
X532Y884D02*
X549Y884D01*
X650Y884D02*
X667Y884D01*
X4Y883D02*
X21Y883D01*
X122Y883D02*
X140Y883D01*
X532Y883D02*
X549Y883D01*
X650Y883D02*
X668Y883D01*
X3Y882D02*
X21Y882D01*
X122Y882D02*
X140Y882D01*
X531Y882D02*
X549Y882D01*
X650Y882D02*
X668Y882D01*
X3Y881D02*
X21Y881D01*
X122Y881D02*
X141Y881D01*
X531Y881D02*
X549Y881D01*
X650Y881D02*
X669Y881D01*
X2Y880D02*
X21Y880D01*
X122Y880D02*
X141Y880D01*
X530Y880D02*
X549Y880D01*
X650Y880D02*
X669Y880D01*
X2Y879D02*
X21Y879D01*
X122Y879D02*
X142Y879D01*
X530Y879D02*
X549Y879D01*
X650Y879D02*
X669Y879D01*
X2Y878D02*
X21Y878D01*
X122Y878D02*
X142Y878D01*
X530Y878D02*
X549Y878D01*
X2Y877D02*
X21Y877D01*
X122Y877D02*
X142Y877D01*
X529Y877D02*
X549Y877D01*
X2Y876D02*
X21Y876D01*
X122Y876D02*
X142Y876D01*
X529Y876D02*
X549Y876D01*
X1Y875D02*
X21Y875D01*
X122Y875D02*
X142Y875D01*
X529Y875D02*
X549Y875D01*
X1Y874D02*
X21Y874D01*
X122Y874D02*
X142Y874D01*
X529Y874D02*
X549Y874D01*
X1Y873D02*
X21Y873D01*
X122Y873D02*
X142Y873D01*
X529Y873D02*
X549Y873D01*
X2Y872D02*
X21Y872D01*
X122Y872D02*
X142Y872D01*
X529Y872D02*
X549Y872D01*
X2Y871D02*
X21Y871D01*
X122Y871D02*
X142Y871D01*
X529Y871D02*
X549Y871D01*
X2Y870D02*
X21Y870D01*
X122Y870D02*
X142Y870D01*
X530Y870D02*
X549Y870D01*
X2Y869D02*
X21Y869D01*
X122Y869D02*
X142Y869D01*
X530Y869D02*
X549Y869D01*
X650Y869D02*
X669Y869D01*
X2Y868D02*
X21Y868D01*
X122Y868D02*
X141Y868D01*
X530Y868D02*
X549Y868D01*
X650Y868D02*
X669Y868D01*
X3Y867D02*
X21Y867D01*
X122Y867D02*
X141Y867D01*
X530Y867D02*
X549Y867D01*
X650Y867D02*
X669Y867D01*
X3Y866D02*
X21Y866D01*
X122Y866D02*
X141Y866D01*
X531Y866D02*
X549Y866D01*
X650Y866D02*
X668Y866D01*
X4Y865D02*
X21Y865D01*
X122Y865D02*
X140Y865D01*
X531Y865D02*
X549Y865D01*
X650Y865D02*
X668Y865D01*
X4Y864D02*
X21Y864D01*
X122Y864D02*
X140Y864D01*
X532Y864D02*
X549Y864D01*
X650Y864D02*
X667Y864D01*
X5Y863D02*
X21Y863D01*
X122Y863D02*
X139Y863D01*
X533Y863D02*
X549Y863D01*
X650Y863D02*
X667Y863D01*
X5Y862D02*
X21Y862D01*
X122Y862D02*
X138Y862D01*
X533Y862D02*
X549Y862D01*
X650Y862D02*
X666Y862D01*
X6Y861D02*
X21Y861D01*
X122Y861D02*
X138Y861D01*
X534Y861D02*
X549Y861D01*
X650Y861D02*
X665Y861D01*
X7Y860D02*
X21Y860D01*
X122Y860D02*
X137Y860D01*
X535Y860D02*
X549Y860D01*
X650Y860D02*
X664Y860D01*
X8Y859D02*
X21Y859D01*
X122Y859D02*
X136Y859D01*
X536Y859D02*
X549Y859D01*
X650Y859D02*
X663Y859D01*
X9Y858D02*
X21Y858D01*
X122Y858D02*
X135Y858D01*
X537Y858D02*
X549Y858D01*
X650Y858D02*
X662Y858D01*
X10Y857D02*
X21Y857D01*
X122Y857D02*
X133Y857D01*
X538Y857D02*
X549Y857D01*
X650Y857D02*
X661Y857D01*
X12Y856D02*
X21Y856D01*
X122Y856D02*
X132Y856D01*
X540Y856D02*
X549Y856D01*
X650Y856D02*
X660Y856D01*
X14Y855D02*
X21Y855D01*
X122Y855D02*
X130Y855D01*
X541Y855D02*
X549Y855D01*
X650Y855D02*
X658Y855D01*
X16Y854D02*
X21Y854D01*
X122Y854D02*
X128Y854D01*
X544Y854D02*
X549Y854D01*
X650Y854D02*
X656Y854D01*
X20Y853D02*
X21Y853D01*
X123Y853D02*
X124Y853D01*
X548Y853D02*
X549Y853D01*
X650Y853D02*
X652Y853D01*
X17Y844D02*
X21Y844D01*
X122Y844D02*
X127Y844D01*
X545Y844D02*
X549Y844D01*
X650Y844D02*
X655Y844D01*
X14Y843D02*
X21Y843D01*
X122Y843D02*
X129Y843D01*
X542Y843D02*
X549Y843D01*
X650Y843D02*
X657Y843D01*
X12Y842D02*
X21Y842D01*
X122Y842D02*
X131Y842D01*
X540Y842D02*
X549Y842D01*
X650Y842D02*
X659Y842D01*
X11Y841D02*
X21Y841D01*
X122Y841D02*
X133Y841D01*
X539Y841D02*
X549Y841D01*
X650Y841D02*
X661Y841D01*
X10Y840D02*
X21Y840D01*
X122Y840D02*
X134Y840D01*
X537Y840D02*
X549Y840D01*
X650Y840D02*
X662Y840D01*
X8Y839D02*
X21Y839D01*
X122Y839D02*
X135Y839D01*
X536Y839D02*
X549Y839D01*
X650Y839D02*
X663Y839D01*
X7Y838D02*
X21Y838D01*
X122Y838D02*
X136Y838D01*
X535Y838D02*
X549Y838D01*
X650Y838D02*
X664Y838D01*
X7Y837D02*
X21Y837D01*
X122Y837D02*
X137Y837D01*
X534Y837D02*
X549Y837D01*
X650Y837D02*
X665Y837D01*
X6Y836D02*
X21Y836D01*
X122Y836D02*
X138Y836D01*
X533Y836D02*
X549Y836D01*
X650Y836D02*
X666Y836D01*
X5Y835D02*
X21Y835D01*
X122Y835D02*
X139Y835D01*
X533Y835D02*
X549Y835D01*
X650Y835D02*
X667Y835D01*
X4Y834D02*
X21Y834D01*
X122Y834D02*
X139Y834D01*
X532Y834D02*
X549Y834D01*
X650Y834D02*
X667Y834D01*
X4Y833D02*
X21Y833D01*
X122Y833D02*
X140Y833D01*
X532Y833D02*
X549Y833D01*
X650Y833D02*
X668Y833D01*
X3Y832D02*
X21Y832D01*
X122Y832D02*
X140Y832D01*
X531Y832D02*
X549Y832D01*
X650Y832D02*
X668Y832D01*
X3Y831D02*
X21Y831D01*
X122Y831D02*
X141Y831D01*
X531Y831D02*
X549Y831D01*
X650Y831D02*
X669Y831D01*
X2Y830D02*
X21Y830D01*
X122Y830D02*
X141Y830D01*
X530Y830D02*
X549Y830D01*
X650Y830D02*
X669Y830D01*
X2Y829D02*
X21Y829D01*
X122Y829D02*
X142Y829D01*
X530Y829D02*
X549Y829D01*
X650Y829D02*
X669Y829D01*
X2Y828D02*
X21Y828D01*
X122Y828D02*
X142Y828D01*
X530Y828D02*
X549Y828D01*
X2Y827D02*
X21Y827D01*
X122Y827D02*
X142Y827D01*
X529Y827D02*
X549Y827D01*
X2Y826D02*
X21Y826D01*
X122Y826D02*
X142Y826D01*
X529Y826D02*
X549Y826D01*
X1Y825D02*
X21Y825D01*
X122Y825D02*
X142Y825D01*
X529Y825D02*
X549Y825D01*
X1Y824D02*
X21Y824D01*
X122Y824D02*
X142Y824D01*
X529Y824D02*
X549Y824D01*
X1Y823D02*
X21Y823D01*
X122Y823D02*
X142Y823D01*
X529Y823D02*
X549Y823D01*
X2Y822D02*
X21Y822D01*
X122Y822D02*
X142Y822D01*
X529Y822D02*
X549Y822D01*
X2Y821D02*
X21Y821D01*
X122Y821D02*
X142Y821D01*
X529Y821D02*
X549Y821D01*
X2Y820D02*
X21Y820D01*
X122Y820D02*
X142Y820D01*
X530Y820D02*
X549Y820D01*
X2Y819D02*
X21Y819D01*
X122Y819D02*
X142Y819D01*
X530Y819D02*
X549Y819D01*
X650Y819D02*
X669Y819D01*
X2Y818D02*
X21Y818D01*
X122Y818D02*
X141Y818D01*
X530Y818D02*
X549Y818D01*
X650Y818D02*
X669Y818D01*
X3Y817D02*
X21Y817D01*
X122Y817D02*
X141Y817D01*
X530Y817D02*
X549Y817D01*
X650Y817D02*
X669Y817D01*
X3Y816D02*
X21Y816D01*
X122Y816D02*
X141Y816D01*
X531Y816D02*
X549Y816D01*
X650Y816D02*
X668Y816D01*
X4Y815D02*
X21Y815D01*
X122Y815D02*
X140Y815D01*
X531Y815D02*
X549Y815D01*
X650Y815D02*
X668Y815D01*
X4Y814D02*
X21Y814D01*
X122Y814D02*
X140Y814D01*
X532Y814D02*
X549Y814D01*
X650Y814D02*
X667Y814D01*
X5Y813D02*
X21Y813D01*
X122Y813D02*
X139Y813D01*
X533Y813D02*
X549Y813D01*
X650Y813D02*
X667Y813D01*
X5Y812D02*
X21Y812D01*
X122Y812D02*
X138Y812D01*
X533Y812D02*
X549Y812D01*
X650Y812D02*
X666Y812D01*
X6Y811D02*
X21Y811D01*
X122Y811D02*
X138Y811D01*
X534Y811D02*
X549Y811D01*
X650Y811D02*
X665Y811D01*
X7Y810D02*
X21Y810D01*
X122Y810D02*
X137Y810D01*
X535Y810D02*
X549Y810D01*
X650Y810D02*
X664Y810D01*
X8Y809D02*
X21Y809D01*
X122Y809D02*
X136Y809D01*
X536Y809D02*
X549Y809D01*
X650Y809D02*
X663Y809D01*
X9Y808D02*
X21Y808D01*
X122Y808D02*
X135Y808D01*
X537Y808D02*
X549Y808D01*
X650Y808D02*
X662Y808D01*
X10Y807D02*
X21Y807D01*
X122Y807D02*
X133Y807D01*
X538Y807D02*
X549Y807D01*
X650Y807D02*
X661Y807D01*
X12Y806D02*
X21Y806D01*
X122Y806D02*
X132Y806D01*
X540Y806D02*
X549Y806D01*
X650Y806D02*
X660Y806D01*
X14Y805D02*
X21Y805D01*
X122Y805D02*
X130Y805D01*
X541Y805D02*
X549Y805D01*
X650Y805D02*
X658Y805D01*
X16Y804D02*
X21Y804D01*
X122Y804D02*
X128Y804D01*
X544Y804D02*
X549Y804D01*
X650Y804D02*
X656Y804D01*
X20Y803D02*
X21Y803D01*
X123Y803D02*
X124Y803D01*
X548Y803D02*
X549Y803D01*
X650Y803D02*
X651Y803D01*
X17Y794D02*
X21Y794D01*
X122Y794D02*
X127Y794D01*
X545Y794D02*
X549Y794D01*
X650Y794D02*
X655Y794D01*
X14Y793D02*
X21Y793D01*
X122Y793D02*
X129Y793D01*
X542Y793D02*
X549Y793D01*
X650Y793D02*
X657Y793D01*
X12Y792D02*
X21Y792D01*
X122Y792D02*
X131Y792D01*
X540Y792D02*
X549Y792D01*
X650Y792D02*
X659Y792D01*
X11Y791D02*
X21Y791D01*
X122Y791D02*
X133Y791D01*
X539Y791D02*
X549Y791D01*
X650Y791D02*
X661Y791D01*
X10Y790D02*
X21Y790D01*
X122Y790D02*
X134Y790D01*
X537Y790D02*
X549Y790D01*
X650Y790D02*
X662Y790D01*
X8Y789D02*
X21Y789D01*
X122Y789D02*
X135Y789D01*
X536Y789D02*
X549Y789D01*
X650Y789D02*
X663Y789D01*
X7Y788D02*
X21Y788D01*
X122Y788D02*
X136Y788D01*
X535Y788D02*
X549Y788D01*
X650Y788D02*
X664Y788D01*
X7Y787D02*
X21Y787D01*
X122Y787D02*
X137Y787D01*
X534Y787D02*
X549Y787D01*
X650Y787D02*
X665Y787D01*
X6Y786D02*
X21Y786D01*
X122Y786D02*
X138Y786D01*
X533Y786D02*
X549Y786D01*
X650Y786D02*
X666Y786D01*
X5Y785D02*
X21Y785D01*
X122Y785D02*
X139Y785D01*
X533Y785D02*
X549Y785D01*
X650Y785D02*
X667Y785D01*
X4Y784D02*
X21Y784D01*
X122Y784D02*
X139Y784D01*
X532Y784D02*
X549Y784D01*
X650Y784D02*
X667Y784D01*
X4Y783D02*
X21Y783D01*
X122Y783D02*
X140Y783D01*
X532Y783D02*
X549Y783D01*
X650Y783D02*
X668Y783D01*
X3Y782D02*
X21Y782D01*
X122Y782D02*
X140Y782D01*
X531Y782D02*
X549Y782D01*
X650Y782D02*
X668Y782D01*
X3Y781D02*
X21Y781D01*
X122Y781D02*
X141Y781D01*
X531Y781D02*
X549Y781D01*
X650Y781D02*
X669Y781D01*
X2Y780D02*
X21Y780D01*
X122Y780D02*
X141Y780D01*
X530Y780D02*
X549Y780D01*
X650Y780D02*
X669Y780D01*
X2Y779D02*
X21Y779D01*
X122Y779D02*
X142Y779D01*
X530Y779D02*
X549Y779D01*
X650Y779D02*
X669Y779D01*
X2Y778D02*
X21Y778D01*
X122Y778D02*
X142Y778D01*
X530Y778D02*
X549Y778D01*
X2Y777D02*
X21Y777D01*
X122Y777D02*
X142Y777D01*
X529Y777D02*
X549Y777D01*
X2Y776D02*
X21Y776D01*
X122Y776D02*
X142Y776D01*
X529Y776D02*
X549Y776D01*
X1Y775D02*
X21Y775D01*
X122Y775D02*
X142Y775D01*
X529Y775D02*
X549Y775D01*
X1Y774D02*
X21Y774D01*
X122Y774D02*
X142Y774D01*
X529Y774D02*
X549Y774D01*
X1Y773D02*
X21Y773D01*
X122Y773D02*
X142Y773D01*
X529Y773D02*
X549Y773D01*
X2Y772D02*
X21Y772D01*
X122Y772D02*
X142Y772D01*
X529Y772D02*
X549Y772D01*
X2Y771D02*
X21Y771D01*
X122Y771D02*
X142Y771D01*
X529Y771D02*
X549Y771D01*
X2Y770D02*
X21Y770D01*
X122Y770D02*
X142Y770D01*
X530Y770D02*
X549Y770D01*
X2Y769D02*
X21Y769D01*
X122Y769D02*
X142Y769D01*
X530Y769D02*
X549Y769D01*
X650Y769D02*
X669Y769D01*
X2Y768D02*
X21Y768D01*
X122Y768D02*
X141Y768D01*
X530Y768D02*
X549Y768D01*
X650Y768D02*
X669Y768D01*
X3Y767D02*
X21Y767D01*
X122Y767D02*
X141Y767D01*
X531Y767D02*
X549Y767D01*
X650Y767D02*
X669Y767D01*
X3Y766D02*
X21Y766D01*
X122Y766D02*
X141Y766D01*
X531Y766D02*
X549Y766D01*
X650Y766D02*
X668Y766D01*
X4Y765D02*
X21Y765D01*
X122Y765D02*
X140Y765D01*
X531Y765D02*
X549Y765D01*
X650Y765D02*
X668Y765D01*
X4Y764D02*
X21Y764D01*
X122Y764D02*
X140Y764D01*
X532Y764D02*
X549Y764D01*
X650Y764D02*
X667Y764D01*
X5Y763D02*
X21Y763D01*
X122Y763D02*
X139Y763D01*
X533Y763D02*
X549Y763D01*
X650Y763D02*
X667Y763D01*
X5Y762D02*
X21Y762D01*
X122Y762D02*
X138Y762D01*
X533Y762D02*
X549Y762D01*
X650Y762D02*
X666Y762D01*
X6Y761D02*
X21Y761D01*
X122Y761D02*
X138Y761D01*
X534Y761D02*
X549Y761D01*
X650Y761D02*
X665Y761D01*
X7Y760D02*
X21Y760D01*
X122Y760D02*
X137Y760D01*
X535Y760D02*
X549Y760D01*
X650Y760D02*
X664Y760D01*
X8Y759D02*
X21Y759D01*
X122Y759D02*
X136Y759D01*
X536Y759D02*
X549Y759D01*
X650Y759D02*
X663Y759D01*
X9Y758D02*
X21Y758D01*
X122Y758D02*
X135Y758D01*
X537Y758D02*
X549Y758D01*
X650Y758D02*
X662Y758D01*
X10Y757D02*
X21Y757D01*
X122Y757D02*
X133Y757D01*
X538Y757D02*
X549Y757D01*
X650Y757D02*
X661Y757D01*
X12Y756D02*
X21Y756D01*
X122Y756D02*
X132Y756D01*
X540Y756D02*
X549Y756D01*
X650Y756D02*
X660Y756D01*
X14Y755D02*
X21Y755D01*
X122Y755D02*
X130Y755D01*
X541Y755D02*
X549Y755D01*
X650Y755D02*
X658Y755D01*
X16Y754D02*
X21Y754D01*
X122Y754D02*
X128Y754D01*
X544Y754D02*
X549Y754D01*
X650Y754D02*
X656Y754D01*
X20Y753D02*
X21Y753D01*
X123Y753D02*
X124Y753D01*
X548Y753D02*
X549Y753D01*
X650Y753D02*
X651Y753D01*
X17Y744D02*
X21Y744D01*
X122Y744D02*
X127Y744D01*
X545Y744D02*
X549Y744D01*
X650Y744D02*
X655Y744D01*
X14Y743D02*
X21Y743D01*
X122Y743D02*
X129Y743D01*
X542Y743D02*
X549Y743D01*
X650Y743D02*
X657Y743D01*
X12Y742D02*
X21Y742D01*
X122Y742D02*
X131Y742D01*
X540Y742D02*
X549Y742D01*
X650Y742D02*
X659Y742D01*
X11Y741D02*
X21Y741D01*
X122Y741D02*
X133Y741D01*
X539Y741D02*
X549Y741D01*
X650Y741D02*
X661Y741D01*
X10Y740D02*
X21Y740D01*
X122Y740D02*
X134Y740D01*
X537Y740D02*
X549Y740D01*
X650Y740D02*
X662Y740D01*
X8Y739D02*
X21Y739D01*
X122Y739D02*
X135Y739D01*
X536Y739D02*
X549Y739D01*
X650Y739D02*
X663Y739D01*
X7Y738D02*
X21Y738D01*
X122Y738D02*
X136Y738D01*
X535Y738D02*
X549Y738D01*
X650Y738D02*
X664Y738D01*
X7Y737D02*
X21Y737D01*
X122Y737D02*
X137Y737D01*
X534Y737D02*
X549Y737D01*
X650Y737D02*
X665Y737D01*
X6Y736D02*
X21Y736D01*
X122Y736D02*
X138Y736D01*
X533Y736D02*
X549Y736D01*
X650Y736D02*
X666Y736D01*
X5Y735D02*
X21Y735D01*
X122Y735D02*
X139Y735D01*
X533Y735D02*
X549Y735D01*
X650Y735D02*
X667Y735D01*
X4Y734D02*
X21Y734D01*
X122Y734D02*
X139Y734D01*
X532Y734D02*
X549Y734D01*
X650Y734D02*
X667Y734D01*
X4Y733D02*
X21Y733D01*
X122Y733D02*
X140Y733D01*
X532Y733D02*
X549Y733D01*
X650Y733D02*
X668Y733D01*
X3Y732D02*
X21Y732D01*
X122Y732D02*
X140Y732D01*
X531Y732D02*
X549Y732D01*
X650Y732D02*
X668Y732D01*
X3Y731D02*
X21Y731D01*
X122Y731D02*
X141Y731D01*
X531Y731D02*
X549Y731D01*
X650Y731D02*
X669Y731D01*
X2Y730D02*
X21Y730D01*
X122Y730D02*
X141Y730D01*
X530Y730D02*
X549Y730D01*
X650Y730D02*
X669Y730D01*
X2Y729D02*
X21Y729D01*
X122Y729D02*
X142Y729D01*
X530Y729D02*
X549Y729D01*
X650Y729D02*
X669Y729D01*
X2Y728D02*
X21Y728D01*
X122Y728D02*
X142Y728D01*
X530Y728D02*
X549Y728D01*
X2Y727D02*
X21Y727D01*
X122Y727D02*
X142Y727D01*
X529Y727D02*
X549Y727D01*
X2Y726D02*
X21Y726D01*
X122Y726D02*
X142Y726D01*
X529Y726D02*
X549Y726D01*
X1Y725D02*
X21Y725D01*
X122Y725D02*
X142Y725D01*
X529Y725D02*
X549Y725D01*
X1Y724D02*
X21Y724D01*
X122Y724D02*
X142Y724D01*
X529Y724D02*
X549Y724D01*
X1Y723D02*
X21Y723D01*
X122Y723D02*
X142Y723D01*
X529Y723D02*
X549Y723D01*
X2Y722D02*
X21Y722D01*
X122Y722D02*
X142Y722D01*
X529Y722D02*
X549Y722D01*
X2Y721D02*
X21Y721D01*
X122Y721D02*
X142Y721D01*
X529Y721D02*
X549Y721D01*
X2Y720D02*
X21Y720D01*
X122Y720D02*
X142Y720D01*
X530Y720D02*
X549Y720D01*
X2Y719D02*
X21Y719D01*
X122Y719D02*
X142Y719D01*
X530Y719D02*
X549Y719D01*
X650Y719D02*
X669Y719D01*
X2Y718D02*
X21Y718D01*
X122Y718D02*
X141Y718D01*
X530Y718D02*
X549Y718D01*
X650Y718D02*
X669Y718D01*
X3Y717D02*
X21Y717D01*
X122Y717D02*
X141Y717D01*
X531Y717D02*
X549Y717D01*
X650Y717D02*
X669Y717D01*
X3Y716D02*
X21Y716D01*
X122Y716D02*
X141Y716D01*
X531Y716D02*
X549Y716D01*
X650Y716D02*
X668Y716D01*
X4Y715D02*
X21Y715D01*
X122Y715D02*
X140Y715D01*
X531Y715D02*
X549Y715D01*
X650Y715D02*
X668Y715D01*
X4Y714D02*
X21Y714D01*
X122Y714D02*
X140Y714D01*
X532Y714D02*
X549Y714D01*
X650Y714D02*
X667Y714D01*
X5Y713D02*
X21Y713D01*
X122Y713D02*
X139Y713D01*
X533Y713D02*
X549Y713D01*
X650Y713D02*
X667Y713D01*
X5Y712D02*
X21Y712D01*
X122Y712D02*
X138Y712D01*
X533Y712D02*
X549Y712D01*
X650Y712D02*
X666Y712D01*
X6Y711D02*
X21Y711D01*
X122Y711D02*
X138Y711D01*
X534Y711D02*
X549Y711D01*
X650Y711D02*
X665Y711D01*
X7Y710D02*
X21Y710D01*
X122Y710D02*
X137Y710D01*
X535Y710D02*
X549Y710D01*
X650Y710D02*
X664Y710D01*
X8Y709D02*
X21Y709D01*
X122Y709D02*
X136Y709D01*
X536Y709D02*
X549Y709D01*
X650Y709D02*
X663Y709D01*
X9Y708D02*
X21Y708D01*
X122Y708D02*
X135Y708D01*
X537Y708D02*
X549Y708D01*
X650Y708D02*
X662Y708D01*
X10Y707D02*
X21Y707D01*
X122Y707D02*
X133Y707D01*
X538Y707D02*
X549Y707D01*
X650Y707D02*
X661Y707D01*
X12Y706D02*
X21Y706D01*
X122Y706D02*
X132Y706D01*
X540Y706D02*
X549Y706D01*
X650Y706D02*
X660Y706D01*
X14Y705D02*
X21Y705D01*
X122Y705D02*
X130Y705D01*
X541Y705D02*
X549Y705D01*
X650Y705D02*
X658Y705D01*
X16Y704D02*
X21Y704D01*
X122Y704D02*
X128Y704D01*
X544Y704D02*
X549Y704D01*
X650Y704D02*
X656Y704D01*
X20Y703D02*
X21Y703D01*
X123Y703D02*
X124Y703D01*
X548Y703D02*
X549Y703D01*
X650Y703D02*
X651Y703D01*
X17Y694D02*
X21Y694D01*
X122Y694D02*
X127Y694D01*
X545Y694D02*
X549Y694D01*
X650Y694D02*
X655Y694D01*
X14Y693D02*
X21Y693D01*
X122Y693D02*
X129Y693D01*
X542Y693D02*
X549Y693D01*
X650Y693D02*
X657Y693D01*
X12Y692D02*
X21Y692D01*
X122Y692D02*
X131Y692D01*
X540Y692D02*
X549Y692D01*
X650Y692D02*
X659Y692D01*
X11Y691D02*
X21Y691D01*
X122Y691D02*
X133Y691D01*
X539Y691D02*
X549Y691D01*
X650Y691D02*
X661Y691D01*
X10Y690D02*
X21Y690D01*
X122Y690D02*
X134Y690D01*
X537Y690D02*
X549Y690D01*
X650Y690D02*
X662Y690D01*
X8Y689D02*
X21Y689D01*
X122Y689D02*
X135Y689D01*
X536Y689D02*
X549Y689D01*
X650Y689D02*
X663Y689D01*
X7Y688D02*
X21Y688D01*
X122Y688D02*
X136Y688D01*
X535Y688D02*
X549Y688D01*
X650Y688D02*
X664Y688D01*
X7Y687D02*
X21Y687D01*
X122Y687D02*
X137Y687D01*
X534Y687D02*
X549Y687D01*
X650Y687D02*
X665Y687D01*
X6Y686D02*
X21Y686D01*
X122Y686D02*
X138Y686D01*
X533Y686D02*
X549Y686D01*
X650Y686D02*
X666Y686D01*
X5Y685D02*
X21Y685D01*
X122Y685D02*
X139Y685D01*
X533Y685D02*
X549Y685D01*
X650Y685D02*
X667Y685D01*
X4Y684D02*
X21Y684D01*
X122Y684D02*
X139Y684D01*
X532Y684D02*
X549Y684D01*
X650Y684D02*
X667Y684D01*
X4Y683D02*
X21Y683D01*
X122Y683D02*
X140Y683D01*
X532Y683D02*
X549Y683D01*
X650Y683D02*
X668Y683D01*
X3Y682D02*
X21Y682D01*
X122Y682D02*
X140Y682D01*
X531Y682D02*
X549Y682D01*
X650Y682D02*
X668Y682D01*
X3Y681D02*
X21Y681D01*
X122Y681D02*
X141Y681D01*
X531Y681D02*
X549Y681D01*
X650Y681D02*
X669Y681D01*
X2Y680D02*
X21Y680D01*
X122Y680D02*
X141Y680D01*
X530Y680D02*
X549Y680D01*
X650Y680D02*
X669Y680D01*
X2Y679D02*
X21Y679D01*
X122Y679D02*
X142Y679D01*
X530Y679D02*
X549Y679D01*
X650Y679D02*
X669Y679D01*
X2Y678D02*
X21Y678D01*
X122Y678D02*
X142Y678D01*
X530Y678D02*
X549Y678D01*
X2Y677D02*
X21Y677D01*
X122Y677D02*
X142Y677D01*
X529Y677D02*
X549Y677D01*
X2Y676D02*
X21Y676D01*
X122Y676D02*
X142Y676D01*
X529Y676D02*
X549Y676D01*
X1Y675D02*
X21Y675D01*
X122Y675D02*
X142Y675D01*
X529Y675D02*
X549Y675D01*
X1Y674D02*
X21Y674D01*
X122Y674D02*
X142Y674D01*
X529Y674D02*
X549Y674D01*
X1Y673D02*
X21Y673D01*
X122Y673D02*
X142Y673D01*
X529Y673D02*
X549Y673D01*
X2Y672D02*
X21Y672D01*
X122Y672D02*
X142Y672D01*
X529Y672D02*
X549Y672D01*
X2Y671D02*
X21Y671D01*
X122Y671D02*
X142Y671D01*
X529Y671D02*
X549Y671D01*
X2Y670D02*
X21Y670D01*
X122Y670D02*
X142Y670D01*
X530Y670D02*
X549Y670D01*
X2Y669D02*
X21Y669D01*
X122Y669D02*
X142Y669D01*
X530Y669D02*
X549Y669D01*
X650Y669D02*
X669Y669D01*
X2Y668D02*
X21Y668D01*
X122Y668D02*
X141Y668D01*
X530Y668D02*
X549Y668D01*
X650Y668D02*
X669Y668D01*
X3Y667D02*
X21Y667D01*
X122Y667D02*
X141Y667D01*
X531Y667D02*
X549Y667D01*
X650Y667D02*
X669Y667D01*
X3Y666D02*
X21Y666D01*
X122Y666D02*
X141Y666D01*
X531Y666D02*
X549Y666D01*
X650Y666D02*
X668Y666D01*
X4Y665D02*
X21Y665D01*
X122Y665D02*
X140Y665D01*
X531Y665D02*
X549Y665D01*
X650Y665D02*
X668Y665D01*
X4Y664D02*
X21Y664D01*
X122Y664D02*
X140Y664D01*
X532Y664D02*
X549Y664D01*
X650Y664D02*
X667Y664D01*
X5Y663D02*
X21Y663D01*
X122Y663D02*
X139Y663D01*
X533Y663D02*
X549Y663D01*
X650Y663D02*
X667Y663D01*
X5Y662D02*
X21Y662D01*
X122Y662D02*
X138Y662D01*
X533Y662D02*
X549Y662D01*
X650Y662D02*
X666Y662D01*
X6Y661D02*
X21Y661D01*
X122Y661D02*
X138Y661D01*
X534Y661D02*
X549Y661D01*
X650Y661D02*
X665Y661D01*
X7Y660D02*
X21Y660D01*
X122Y660D02*
X137Y660D01*
X535Y660D02*
X549Y660D01*
X650Y660D02*
X664Y660D01*
X8Y659D02*
X21Y659D01*
X122Y659D02*
X136Y659D01*
X536Y659D02*
X549Y659D01*
X650Y659D02*
X663Y659D01*
X9Y658D02*
X21Y658D01*
X122Y658D02*
X135Y658D01*
X537Y658D02*
X549Y658D01*
X650Y658D02*
X662Y658D01*
X10Y657D02*
X21Y657D01*
X122Y657D02*
X133Y657D01*
X538Y657D02*
X549Y657D01*
X650Y657D02*
X661Y657D01*
X12Y656D02*
X21Y656D01*
X122Y656D02*
X132Y656D01*
X540Y656D02*
X549Y656D01*
X650Y656D02*
X660Y656D01*
X14Y655D02*
X21Y655D01*
X122Y655D02*
X130Y655D01*
X541Y655D02*
X549Y655D01*
X650Y655D02*
X658Y655D01*
X16Y654D02*
X21Y654D01*
X122Y654D02*
X128Y654D01*
X544Y654D02*
X549Y654D01*
X650Y654D02*
X656Y654D01*
X20Y653D02*
X21Y653D01*
X123Y653D02*
X124Y653D01*
X548Y653D02*
X549Y653D01*
X650Y653D02*
X651Y653D01*
X17Y644D02*
X21Y644D01*
X122Y644D02*
X127Y644D01*
X545Y644D02*
X549Y644D01*
X650Y644D02*
X655Y644D01*
X14Y643D02*
X21Y643D01*
X122Y643D02*
X129Y643D01*
X542Y643D02*
X549Y643D01*
X650Y643D02*
X657Y643D01*
X12Y642D02*
X21Y642D01*
X122Y642D02*
X131Y642D01*
X540Y642D02*
X549Y642D01*
X650Y642D02*
X659Y642D01*
X11Y641D02*
X21Y641D01*
X122Y641D02*
X133Y641D01*
X539Y641D02*
X549Y641D01*
X650Y641D02*
X661Y641D01*
X10Y640D02*
X21Y640D01*
X122Y640D02*
X134Y640D01*
X537Y640D02*
X549Y640D01*
X650Y640D02*
X662Y640D01*
X8Y639D02*
X21Y639D01*
X122Y639D02*
X135Y639D01*
X536Y639D02*
X549Y639D01*
X650Y639D02*
X663Y639D01*
X7Y638D02*
X21Y638D01*
X122Y638D02*
X136Y638D01*
X535Y638D02*
X549Y638D01*
X650Y638D02*
X664Y638D01*
X7Y637D02*
X21Y637D01*
X122Y637D02*
X137Y637D01*
X534Y637D02*
X549Y637D01*
X650Y637D02*
X665Y637D01*
X6Y636D02*
X21Y636D01*
X122Y636D02*
X138Y636D01*
X533Y636D02*
X549Y636D01*
X650Y636D02*
X666Y636D01*
X5Y635D02*
X21Y635D01*
X122Y635D02*
X139Y635D01*
X533Y635D02*
X549Y635D01*
X650Y635D02*
X667Y635D01*
X4Y634D02*
X21Y634D01*
X122Y634D02*
X139Y634D01*
X532Y634D02*
X549Y634D01*
X650Y634D02*
X667Y634D01*
X4Y633D02*
X21Y633D01*
X122Y633D02*
X140Y633D01*
X532Y633D02*
X549Y633D01*
X650Y633D02*
X668Y633D01*
X3Y632D02*
X21Y632D01*
X122Y632D02*
X140Y632D01*
X531Y632D02*
X549Y632D01*
X650Y632D02*
X668Y632D01*
X3Y631D02*
X21Y631D01*
X122Y631D02*
X141Y631D01*
X531Y631D02*
X549Y631D01*
X650Y631D02*
X669Y631D01*
X2Y630D02*
X21Y630D01*
X122Y630D02*
X141Y630D01*
X530Y630D02*
X549Y630D01*
X650Y630D02*
X669Y630D01*
X2Y629D02*
X21Y629D01*
X122Y629D02*
X142Y629D01*
X530Y629D02*
X549Y629D01*
X650Y629D02*
X669Y629D01*
X2Y628D02*
X21Y628D01*
X122Y628D02*
X142Y628D01*
X530Y628D02*
X549Y628D01*
X2Y627D02*
X21Y627D01*
X122Y627D02*
X142Y627D01*
X529Y627D02*
X549Y627D01*
X2Y626D02*
X21Y626D01*
X122Y626D02*
X142Y626D01*
X529Y626D02*
X549Y626D01*
X1Y625D02*
X21Y625D01*
X122Y625D02*
X142Y625D01*
X529Y625D02*
X549Y625D01*
X1Y624D02*
X21Y624D01*
X122Y624D02*
X142Y624D01*
X529Y624D02*
X549Y624D01*
X1Y623D02*
X21Y623D01*
X122Y623D02*
X142Y623D01*
X529Y623D02*
X549Y623D01*
X2Y622D02*
X21Y622D01*
X122Y622D02*
X142Y622D01*
X529Y622D02*
X549Y622D01*
X2Y621D02*
X21Y621D01*
X122Y621D02*
X142Y621D01*
X529Y621D02*
X549Y621D01*
X2Y620D02*
X21Y620D01*
X122Y620D02*
X142Y620D01*
X530Y620D02*
X549Y620D01*
X2Y619D02*
X21Y619D01*
X122Y619D02*
X142Y619D01*
X530Y619D02*
X549Y619D01*
X650Y619D02*
X669Y619D01*
X2Y618D02*
X21Y618D01*
X122Y618D02*
X141Y618D01*
X530Y618D02*
X549Y618D01*
X650Y618D02*
X669Y618D01*
X3Y617D02*
X21Y617D01*
X122Y617D02*
X141Y617D01*
X531Y617D02*
X549Y617D01*
X650Y617D02*
X669Y617D01*
X3Y616D02*
X21Y616D01*
X122Y616D02*
X141Y616D01*
X531Y616D02*
X549Y616D01*
X650Y616D02*
X668Y616D01*
X4Y615D02*
X21Y615D01*
X122Y615D02*
X140Y615D01*
X531Y615D02*
X549Y615D01*
X650Y615D02*
X668Y615D01*
X4Y614D02*
X21Y614D01*
X122Y614D02*
X140Y614D01*
X532Y614D02*
X549Y614D01*
X650Y614D02*
X667Y614D01*
X5Y613D02*
X21Y613D01*
X122Y613D02*
X139Y613D01*
X533Y613D02*
X549Y613D01*
X650Y613D02*
X667Y613D01*
X5Y612D02*
X21Y612D01*
X122Y612D02*
X138Y612D01*
X533Y612D02*
X549Y612D01*
X650Y612D02*
X666Y612D01*
X6Y611D02*
X21Y611D01*
X122Y611D02*
X138Y611D01*
X534Y611D02*
X549Y611D01*
X650Y611D02*
X665Y611D01*
X7Y610D02*
X21Y610D01*
X122Y610D02*
X137Y610D01*
X535Y610D02*
X549Y610D01*
X650Y610D02*
X664Y610D01*
X8Y609D02*
X21Y609D01*
X122Y609D02*
X136Y609D01*
X536Y609D02*
X549Y609D01*
X650Y609D02*
X663Y609D01*
X9Y608D02*
X21Y608D01*
X122Y608D02*
X135Y608D01*
X537Y608D02*
X549Y608D01*
X650Y608D02*
X662Y608D01*
X10Y607D02*
X21Y607D01*
X122Y607D02*
X133Y607D01*
X538Y607D02*
X549Y607D01*
X650Y607D02*
X661Y607D01*
X12Y606D02*
X21Y606D01*
X122Y606D02*
X132Y606D01*
X540Y606D02*
X549Y606D01*
X650Y606D02*
X660Y606D01*
X14Y605D02*
X21Y605D01*
X122Y605D02*
X130Y605D01*
X541Y605D02*
X549Y605D01*
X650Y605D02*
X658Y605D01*
X16Y604D02*
X21Y604D01*
X122Y604D02*
X128Y604D01*
X544Y604D02*
X549Y604D01*
X650Y604D02*
X655Y604D01*
X20Y603D02*
X21Y603D01*
X123Y603D02*
X124Y603D01*
X548Y603D02*
X549Y603D01*
X650Y603D02*
X651Y603D01*
D02*
G04 End of Mask1*
M02*