; NON-PLATED HOLES START AT T1
; THROUGH (PLATED) HOLES START AT T100
M48
INCH
T100C0.038000
T101C0.015748
%
T100
X005388Y000683
X004388Y000683
T101
X006583Y005150
X003279Y002630
X012260Y000789
X009221Y003358
X003088Y010481
X008888Y006032
X010166Y004013
X011393Y007042
X001013Y010203
X010033Y002916
X007175Y010021
X011721Y004799
X007952Y008499
X010738Y000344
X011276Y000356
X006493Y003904
X010477Y003510
X011880Y000349
T00
M30
