G04 MADE WITH FRITZING*
G04 WWW.FRITZING.ORG*
G04 DOUBLE SIDED*
G04 HOLES PLATED*
G04 CONTOUR ON CENTER OF CONTOUR VECTOR*
%ASAXBY*%
%FSLAX23Y23*%
%MOIN*%
%OFA0B0*%
%SFA1.0B1.0*%
%ADD10C,0.010000*%
%ADD11C,0.008000*%
%ADD12R,0.001000X0.001000*%
%LNSILK1*%
G90*
G70*
G54D10*
X443Y562D02*
X443Y362D01*
D02*
X443Y362D02*
X543Y362D01*
D02*
X543Y362D02*
X543Y562D01*
D02*
X543Y562D02*
X443Y562D01*
G54D11*
D02*
X533Y312D02*
X509Y312D01*
D02*
X509Y312D02*
X509Y281D01*
D02*
X596Y312D02*
X620Y312D01*
D02*
X620Y312D02*
X620Y281D01*
D02*
X315Y497D02*
X315Y463D01*
D02*
X203Y463D02*
X203Y497D01*
D02*
X249Y512D02*
X270Y512D01*
D02*
X329Y394D02*
X329Y520D01*
D02*
X431Y394D02*
X431Y520D01*
D02*
X473Y242D02*
X473Y224D01*
D02*
X473Y224D02*
X292Y224D01*
D02*
X292Y224D02*
X292Y242D01*
D02*
X292Y320D02*
X292Y338D01*
D02*
X292Y338D02*
X473Y338D01*
D02*
X473Y338D02*
X473Y320D01*
D02*
X343Y242D02*
X343Y320D01*
D02*
X216Y225D02*
X216Y191D01*
D02*
X104Y191D02*
X104Y225D01*
D02*
X149Y240D02*
X170Y240D01*
G54D12*
X0Y1181D02*
X668Y1181D01*
X0Y1180D02*
X668Y1180D01*
X0Y1179D02*
X668Y1179D01*
X0Y1178D02*
X668Y1178D01*
X0Y1177D02*
X668Y1177D01*
X0Y1176D02*
X668Y1176D01*
X0Y1175D02*
X668Y1175D01*
X0Y1174D02*
X668Y1174D01*
X0Y1173D02*
X7Y1173D01*
X28Y1173D02*
X643Y1173D01*
X661Y1173D02*
X668Y1173D01*
X0Y1172D02*
X7Y1172D01*
X28Y1172D02*
X643Y1172D01*
X661Y1172D02*
X668Y1172D01*
X0Y1171D02*
X7Y1171D01*
X28Y1171D02*
X643Y1171D01*
X661Y1171D02*
X668Y1171D01*
X0Y1170D02*
X7Y1170D01*
X28Y1170D02*
X643Y1170D01*
X661Y1170D02*
X668Y1170D01*
X0Y1169D02*
X7Y1169D01*
X28Y1169D02*
X643Y1169D01*
X661Y1169D02*
X668Y1169D01*
X0Y1168D02*
X7Y1168D01*
X28Y1168D02*
X643Y1168D01*
X661Y1168D02*
X668Y1168D01*
X0Y1167D02*
X7Y1167D01*
X28Y1167D02*
X643Y1167D01*
X661Y1167D02*
X668Y1167D01*
X0Y1166D02*
X7Y1166D01*
X28Y1166D02*
X643Y1166D01*
X661Y1166D02*
X668Y1166D01*
X0Y1165D02*
X7Y1165D01*
X28Y1165D02*
X43Y1165D01*
X628Y1165D02*
X643Y1165D01*
X661Y1165D02*
X668Y1165D01*
X0Y1164D02*
X7Y1164D01*
X28Y1164D02*
X43Y1164D01*
X628Y1164D02*
X643Y1164D01*
X661Y1164D02*
X668Y1164D01*
X0Y1163D02*
X7Y1163D01*
X28Y1163D02*
X43Y1163D01*
X628Y1163D02*
X643Y1163D01*
X661Y1163D02*
X668Y1163D01*
X0Y1162D02*
X7Y1162D01*
X28Y1162D02*
X43Y1162D01*
X628Y1162D02*
X643Y1162D01*
X661Y1162D02*
X668Y1162D01*
X0Y1161D02*
X7Y1161D01*
X28Y1161D02*
X43Y1161D01*
X628Y1161D02*
X643Y1161D01*
X661Y1161D02*
X668Y1161D01*
X0Y1160D02*
X7Y1160D01*
X28Y1160D02*
X43Y1160D01*
X628Y1160D02*
X643Y1160D01*
X661Y1160D02*
X668Y1160D01*
X0Y1159D02*
X7Y1159D01*
X28Y1159D02*
X43Y1159D01*
X628Y1159D02*
X643Y1159D01*
X661Y1159D02*
X668Y1159D01*
X0Y1158D02*
X7Y1158D01*
X28Y1158D02*
X43Y1158D01*
X628Y1158D02*
X643Y1158D01*
X661Y1158D02*
X668Y1158D01*
X0Y1157D02*
X7Y1157D01*
X28Y1157D02*
X43Y1157D01*
X628Y1157D02*
X643Y1157D01*
X661Y1157D02*
X668Y1157D01*
X0Y1156D02*
X7Y1156D01*
X28Y1156D02*
X43Y1156D01*
X628Y1156D02*
X643Y1156D01*
X661Y1156D02*
X668Y1156D01*
X0Y1155D02*
X7Y1155D01*
X28Y1155D02*
X43Y1155D01*
X628Y1155D02*
X643Y1155D01*
X661Y1155D02*
X668Y1155D01*
X0Y1154D02*
X7Y1154D01*
X28Y1154D02*
X43Y1154D01*
X628Y1154D02*
X643Y1154D01*
X661Y1154D02*
X668Y1154D01*
X0Y1153D02*
X7Y1153D01*
X28Y1153D02*
X43Y1153D01*
X628Y1153D02*
X643Y1153D01*
X661Y1153D02*
X668Y1153D01*
X0Y1152D02*
X7Y1152D01*
X28Y1152D02*
X43Y1152D01*
X628Y1152D02*
X643Y1152D01*
X661Y1152D02*
X668Y1152D01*
X0Y1151D02*
X7Y1151D01*
X28Y1151D02*
X43Y1151D01*
X628Y1151D02*
X643Y1151D01*
X661Y1151D02*
X668Y1151D01*
X0Y1150D02*
X7Y1150D01*
X28Y1150D02*
X43Y1150D01*
X628Y1150D02*
X643Y1150D01*
X661Y1150D02*
X668Y1150D01*
X0Y1149D02*
X7Y1149D01*
X28Y1149D02*
X43Y1149D01*
X628Y1149D02*
X643Y1149D01*
X661Y1149D02*
X668Y1149D01*
X0Y1148D02*
X7Y1148D01*
X28Y1148D02*
X43Y1148D01*
X628Y1148D02*
X643Y1148D01*
X661Y1148D02*
X668Y1148D01*
X0Y1147D02*
X7Y1147D01*
X28Y1147D02*
X43Y1147D01*
X628Y1147D02*
X643Y1147D01*
X661Y1147D02*
X668Y1147D01*
X0Y1146D02*
X7Y1146D01*
X28Y1146D02*
X43Y1146D01*
X628Y1146D02*
X643Y1146D01*
X661Y1146D02*
X668Y1146D01*
X0Y1145D02*
X7Y1145D01*
X28Y1145D02*
X43Y1145D01*
X628Y1145D02*
X643Y1145D01*
X661Y1145D02*
X668Y1145D01*
X0Y1144D02*
X7Y1144D01*
X628Y1144D02*
X643Y1144D01*
X661Y1144D02*
X668Y1144D01*
X0Y1143D02*
X7Y1143D01*
X628Y1143D02*
X643Y1143D01*
X661Y1143D02*
X668Y1143D01*
X0Y1142D02*
X7Y1142D01*
X628Y1142D02*
X643Y1142D01*
X661Y1142D02*
X668Y1142D01*
X0Y1141D02*
X7Y1141D01*
X628Y1141D02*
X643Y1141D01*
X661Y1141D02*
X668Y1141D01*
X0Y1140D02*
X7Y1140D01*
X628Y1140D02*
X643Y1140D01*
X661Y1140D02*
X668Y1140D01*
X0Y1139D02*
X7Y1139D01*
X628Y1139D02*
X643Y1139D01*
X661Y1139D02*
X668Y1139D01*
X0Y1138D02*
X6Y1138D01*
X628Y1138D02*
X643Y1138D01*
X661Y1138D02*
X668Y1138D01*
X0Y1137D02*
X6Y1137D01*
X628Y1137D02*
X643Y1137D01*
X661Y1137D02*
X668Y1137D01*
X0Y1136D02*
X5Y1136D01*
X628Y1136D02*
X643Y1136D01*
X661Y1136D02*
X668Y1136D01*
X0Y1135D02*
X4Y1135D01*
X628Y1135D02*
X643Y1135D01*
X661Y1135D02*
X668Y1135D01*
X0Y1134D02*
X3Y1134D01*
X628Y1134D02*
X643Y1134D01*
X661Y1134D02*
X668Y1134D01*
X0Y1133D02*
X3Y1133D01*
X628Y1133D02*
X643Y1133D01*
X661Y1133D02*
X668Y1133D01*
X0Y1132D02*
X2Y1132D01*
X628Y1132D02*
X643Y1132D01*
X661Y1132D02*
X668Y1132D01*
X0Y1131D02*
X2Y1131D01*
X628Y1131D02*
X643Y1131D01*
X661Y1131D02*
X668Y1131D01*
X0Y1130D02*
X1Y1130D01*
X628Y1130D02*
X643Y1130D01*
X661Y1130D02*
X668Y1130D01*
X0Y1129D02*
X1Y1129D01*
X628Y1129D02*
X643Y1129D01*
X661Y1129D02*
X668Y1129D01*
X0Y1128D02*
X1Y1128D01*
X628Y1128D02*
X643Y1128D01*
X661Y1128D02*
X668Y1128D01*
X0Y1127D02*
X1Y1127D01*
X628Y1127D02*
X643Y1127D01*
X661Y1127D02*
X668Y1127D01*
X0Y1126D02*
X1Y1126D01*
X628Y1126D02*
X643Y1126D01*
X661Y1126D02*
X668Y1126D01*
X0Y1125D02*
X0Y1125D01*
X628Y1125D02*
X643Y1125D01*
X661Y1125D02*
X668Y1125D01*
X0Y1124D02*
X0Y1124D01*
X628Y1124D02*
X643Y1124D01*
X661Y1124D02*
X668Y1124D01*
X0Y1123D02*
X0Y1123D01*
X628Y1123D02*
X643Y1123D01*
X661Y1123D02*
X668Y1123D01*
X0Y1122D02*
X1Y1122D01*
X628Y1122D02*
X643Y1122D01*
X661Y1122D02*
X668Y1122D01*
X0Y1121D02*
X1Y1121D01*
X628Y1121D02*
X643Y1121D01*
X661Y1121D02*
X668Y1121D01*
X0Y1120D02*
X1Y1120D01*
X628Y1120D02*
X643Y1120D01*
X661Y1120D02*
X668Y1120D01*
X0Y1119D02*
X1Y1119D01*
X628Y1119D02*
X643Y1119D01*
X661Y1119D02*
X668Y1119D01*
X0Y1118D02*
X1Y1118D01*
X628Y1118D02*
X643Y1118D01*
X661Y1118D02*
X668Y1118D01*
X0Y1117D02*
X2Y1117D01*
X628Y1117D02*
X643Y1117D01*
X661Y1117D02*
X668Y1117D01*
X0Y1116D02*
X2Y1116D01*
X628Y1116D02*
X643Y1116D01*
X661Y1116D02*
X668Y1116D01*
X0Y1115D02*
X3Y1115D01*
X628Y1115D02*
X643Y1115D01*
X661Y1115D02*
X668Y1115D01*
X0Y1114D02*
X3Y1114D01*
X628Y1114D02*
X643Y1114D01*
X661Y1114D02*
X668Y1114D01*
X0Y1113D02*
X4Y1113D01*
X628Y1113D02*
X643Y1113D01*
X661Y1113D02*
X668Y1113D01*
X0Y1112D02*
X4Y1112D01*
X628Y1112D02*
X643Y1112D01*
X661Y1112D02*
X668Y1112D01*
X0Y1111D02*
X5Y1111D01*
X628Y1111D02*
X643Y1111D01*
X661Y1111D02*
X668Y1111D01*
X0Y1110D02*
X6Y1110D01*
X628Y1110D02*
X643Y1110D01*
X661Y1110D02*
X668Y1110D01*
X0Y1109D02*
X7Y1109D01*
X628Y1109D02*
X643Y1109D01*
X661Y1109D02*
X668Y1109D01*
X0Y1108D02*
X7Y1108D01*
X628Y1108D02*
X643Y1108D01*
X661Y1108D02*
X668Y1108D01*
X0Y1107D02*
X7Y1107D01*
X628Y1107D02*
X643Y1107D01*
X661Y1107D02*
X668Y1107D01*
X0Y1106D02*
X7Y1106D01*
X628Y1106D02*
X643Y1106D01*
X661Y1106D02*
X668Y1106D01*
X0Y1105D02*
X7Y1105D01*
X628Y1105D02*
X643Y1105D01*
X661Y1105D02*
X668Y1105D01*
X0Y1104D02*
X7Y1104D01*
X628Y1104D02*
X643Y1104D01*
X661Y1104D02*
X668Y1104D01*
X0Y1103D02*
X7Y1103D01*
X628Y1103D02*
X643Y1103D01*
X661Y1103D02*
X668Y1103D01*
X0Y1102D02*
X7Y1102D01*
X28Y1102D02*
X43Y1102D01*
X628Y1102D02*
X643Y1102D01*
X661Y1102D02*
X668Y1102D01*
X0Y1101D02*
X7Y1101D01*
X28Y1101D02*
X43Y1101D01*
X628Y1101D02*
X643Y1101D01*
X661Y1101D02*
X668Y1101D01*
X0Y1100D02*
X7Y1100D01*
X28Y1100D02*
X43Y1100D01*
X628Y1100D02*
X643Y1100D01*
X661Y1100D02*
X668Y1100D01*
X0Y1099D02*
X7Y1099D01*
X28Y1099D02*
X43Y1099D01*
X628Y1099D02*
X643Y1099D01*
X661Y1099D02*
X668Y1099D01*
X0Y1098D02*
X7Y1098D01*
X28Y1098D02*
X43Y1098D01*
X628Y1098D02*
X643Y1098D01*
X661Y1098D02*
X668Y1098D01*
X0Y1097D02*
X7Y1097D01*
X28Y1097D02*
X43Y1097D01*
X628Y1097D02*
X643Y1097D01*
X661Y1097D02*
X668Y1097D01*
X0Y1096D02*
X7Y1096D01*
X28Y1096D02*
X43Y1096D01*
X628Y1096D02*
X643Y1096D01*
X661Y1096D02*
X668Y1096D01*
X0Y1095D02*
X7Y1095D01*
X28Y1095D02*
X43Y1095D01*
X628Y1095D02*
X643Y1095D01*
X661Y1095D02*
X668Y1095D01*
X0Y1094D02*
X7Y1094D01*
X628Y1094D02*
X643Y1094D01*
X661Y1094D02*
X668Y1094D01*
X0Y1093D02*
X7Y1093D01*
X628Y1093D02*
X643Y1093D01*
X661Y1093D02*
X668Y1093D01*
X0Y1092D02*
X7Y1092D01*
X628Y1092D02*
X643Y1092D01*
X661Y1092D02*
X668Y1092D01*
X0Y1091D02*
X7Y1091D01*
X628Y1091D02*
X643Y1091D01*
X661Y1091D02*
X668Y1091D01*
X0Y1090D02*
X7Y1090D01*
X628Y1090D02*
X643Y1090D01*
X661Y1090D02*
X668Y1090D01*
X0Y1089D02*
X7Y1089D01*
X628Y1089D02*
X643Y1089D01*
X661Y1089D02*
X668Y1089D01*
X0Y1088D02*
X6Y1088D01*
X628Y1088D02*
X643Y1088D01*
X661Y1088D02*
X668Y1088D01*
X0Y1087D02*
X6Y1087D01*
X628Y1087D02*
X643Y1087D01*
X661Y1087D02*
X668Y1087D01*
X0Y1086D02*
X5Y1086D01*
X628Y1086D02*
X643Y1086D01*
X661Y1086D02*
X668Y1086D01*
X0Y1085D02*
X4Y1085D01*
X628Y1085D02*
X643Y1085D01*
X661Y1085D02*
X668Y1085D01*
X0Y1084D02*
X3Y1084D01*
X628Y1084D02*
X643Y1084D01*
X661Y1084D02*
X668Y1084D01*
X0Y1083D02*
X3Y1083D01*
X628Y1083D02*
X643Y1083D01*
X661Y1083D02*
X668Y1083D01*
X0Y1082D02*
X2Y1082D01*
X628Y1082D02*
X643Y1082D01*
X661Y1082D02*
X668Y1082D01*
X0Y1081D02*
X2Y1081D01*
X628Y1081D02*
X643Y1081D01*
X661Y1081D02*
X668Y1081D01*
X0Y1080D02*
X1Y1080D01*
X628Y1080D02*
X643Y1080D01*
X661Y1080D02*
X668Y1080D01*
X0Y1079D02*
X1Y1079D01*
X628Y1079D02*
X643Y1079D01*
X661Y1079D02*
X668Y1079D01*
X0Y1078D02*
X1Y1078D01*
X628Y1078D02*
X643Y1078D01*
X661Y1078D02*
X668Y1078D01*
X0Y1077D02*
X1Y1077D01*
X628Y1077D02*
X643Y1077D01*
X661Y1077D02*
X668Y1077D01*
X0Y1076D02*
X1Y1076D01*
X628Y1076D02*
X643Y1076D01*
X661Y1076D02*
X668Y1076D01*
X0Y1075D02*
X0Y1075D01*
X628Y1075D02*
X643Y1075D01*
X661Y1075D02*
X668Y1075D01*
X0Y1074D02*
X0Y1074D01*
X628Y1074D02*
X643Y1074D01*
X661Y1074D02*
X668Y1074D01*
X0Y1073D02*
X0Y1073D01*
X628Y1073D02*
X643Y1073D01*
X661Y1073D02*
X668Y1073D01*
X0Y1072D02*
X1Y1072D01*
X628Y1072D02*
X643Y1072D01*
X661Y1072D02*
X668Y1072D01*
X0Y1071D02*
X1Y1071D01*
X628Y1071D02*
X643Y1071D01*
X661Y1071D02*
X668Y1071D01*
X0Y1070D02*
X1Y1070D01*
X628Y1070D02*
X643Y1070D01*
X661Y1070D02*
X668Y1070D01*
X0Y1069D02*
X1Y1069D01*
X628Y1069D02*
X643Y1069D01*
X661Y1069D02*
X668Y1069D01*
X0Y1068D02*
X1Y1068D01*
X628Y1068D02*
X643Y1068D01*
X661Y1068D02*
X668Y1068D01*
X0Y1067D02*
X2Y1067D01*
X628Y1067D02*
X643Y1067D01*
X661Y1067D02*
X668Y1067D01*
X0Y1066D02*
X2Y1066D01*
X628Y1066D02*
X643Y1066D01*
X661Y1066D02*
X668Y1066D01*
X0Y1065D02*
X3Y1065D01*
X628Y1065D02*
X643Y1065D01*
X661Y1065D02*
X668Y1065D01*
X0Y1064D02*
X3Y1064D01*
X628Y1064D02*
X643Y1064D01*
X661Y1064D02*
X668Y1064D01*
X0Y1063D02*
X4Y1063D01*
X628Y1063D02*
X643Y1063D01*
X661Y1063D02*
X668Y1063D01*
X0Y1062D02*
X4Y1062D01*
X628Y1062D02*
X643Y1062D01*
X661Y1062D02*
X668Y1062D01*
X0Y1061D02*
X5Y1061D01*
X628Y1061D02*
X643Y1061D01*
X661Y1061D02*
X668Y1061D01*
X0Y1060D02*
X6Y1060D01*
X628Y1060D02*
X643Y1060D01*
X661Y1060D02*
X668Y1060D01*
X0Y1059D02*
X7Y1059D01*
X628Y1059D02*
X643Y1059D01*
X661Y1059D02*
X668Y1059D01*
X0Y1058D02*
X7Y1058D01*
X628Y1058D02*
X643Y1058D01*
X661Y1058D02*
X668Y1058D01*
X0Y1057D02*
X7Y1057D01*
X628Y1057D02*
X643Y1057D01*
X661Y1057D02*
X668Y1057D01*
X0Y1056D02*
X7Y1056D01*
X628Y1056D02*
X643Y1056D01*
X661Y1056D02*
X668Y1056D01*
X0Y1055D02*
X7Y1055D01*
X628Y1055D02*
X643Y1055D01*
X661Y1055D02*
X668Y1055D01*
X0Y1054D02*
X7Y1054D01*
X628Y1054D02*
X643Y1054D01*
X661Y1054D02*
X668Y1054D01*
X0Y1053D02*
X7Y1053D01*
X628Y1053D02*
X643Y1053D01*
X661Y1053D02*
X668Y1053D01*
X0Y1052D02*
X7Y1052D01*
X28Y1052D02*
X43Y1052D01*
X628Y1052D02*
X643Y1052D01*
X661Y1052D02*
X668Y1052D01*
X0Y1051D02*
X7Y1051D01*
X28Y1051D02*
X43Y1051D01*
X628Y1051D02*
X643Y1051D01*
X661Y1051D02*
X668Y1051D01*
X0Y1050D02*
X7Y1050D01*
X28Y1050D02*
X43Y1050D01*
X628Y1050D02*
X643Y1050D01*
X661Y1050D02*
X668Y1050D01*
X0Y1049D02*
X7Y1049D01*
X28Y1049D02*
X43Y1049D01*
X628Y1049D02*
X643Y1049D01*
X661Y1049D02*
X668Y1049D01*
X0Y1048D02*
X7Y1048D01*
X28Y1048D02*
X43Y1048D01*
X628Y1048D02*
X643Y1048D01*
X661Y1048D02*
X668Y1048D01*
X0Y1047D02*
X7Y1047D01*
X28Y1047D02*
X43Y1047D01*
X628Y1047D02*
X643Y1047D01*
X661Y1047D02*
X668Y1047D01*
X0Y1046D02*
X7Y1046D01*
X28Y1046D02*
X43Y1046D01*
X628Y1046D02*
X643Y1046D01*
X661Y1046D02*
X668Y1046D01*
X0Y1045D02*
X7Y1045D01*
X28Y1045D02*
X43Y1045D01*
X628Y1045D02*
X643Y1045D01*
X661Y1045D02*
X668Y1045D01*
X0Y1044D02*
X7Y1044D01*
X628Y1044D02*
X643Y1044D01*
X661Y1044D02*
X668Y1044D01*
X0Y1043D02*
X7Y1043D01*
X628Y1043D02*
X643Y1043D01*
X661Y1043D02*
X668Y1043D01*
X0Y1042D02*
X7Y1042D01*
X628Y1042D02*
X643Y1042D01*
X661Y1042D02*
X668Y1042D01*
X0Y1041D02*
X7Y1041D01*
X628Y1041D02*
X643Y1041D01*
X661Y1041D02*
X668Y1041D01*
X0Y1040D02*
X7Y1040D01*
X628Y1040D02*
X643Y1040D01*
X661Y1040D02*
X668Y1040D01*
X0Y1039D02*
X7Y1039D01*
X628Y1039D02*
X643Y1039D01*
X661Y1039D02*
X668Y1039D01*
X0Y1038D02*
X6Y1038D01*
X628Y1038D02*
X643Y1038D01*
X661Y1038D02*
X668Y1038D01*
X0Y1037D02*
X6Y1037D01*
X628Y1037D02*
X643Y1037D01*
X661Y1037D02*
X668Y1037D01*
X0Y1036D02*
X5Y1036D01*
X628Y1036D02*
X643Y1036D01*
X661Y1036D02*
X668Y1036D01*
X0Y1035D02*
X4Y1035D01*
X628Y1035D02*
X643Y1035D01*
X661Y1035D02*
X668Y1035D01*
X0Y1034D02*
X3Y1034D01*
X628Y1034D02*
X643Y1034D01*
X661Y1034D02*
X668Y1034D01*
X0Y1033D02*
X3Y1033D01*
X628Y1033D02*
X643Y1033D01*
X661Y1033D02*
X668Y1033D01*
X0Y1032D02*
X2Y1032D01*
X628Y1032D02*
X643Y1032D01*
X661Y1032D02*
X668Y1032D01*
X0Y1031D02*
X2Y1031D01*
X628Y1031D02*
X643Y1031D01*
X661Y1031D02*
X668Y1031D01*
X0Y1030D02*
X1Y1030D01*
X628Y1030D02*
X643Y1030D01*
X661Y1030D02*
X668Y1030D01*
X0Y1029D02*
X1Y1029D01*
X628Y1029D02*
X643Y1029D01*
X661Y1029D02*
X668Y1029D01*
X0Y1028D02*
X1Y1028D01*
X628Y1028D02*
X643Y1028D01*
X661Y1028D02*
X668Y1028D01*
X0Y1027D02*
X1Y1027D01*
X628Y1027D02*
X643Y1027D01*
X661Y1027D02*
X668Y1027D01*
X0Y1026D02*
X1Y1026D01*
X628Y1026D02*
X643Y1026D01*
X661Y1026D02*
X668Y1026D01*
X0Y1025D02*
X0Y1025D01*
X628Y1025D02*
X643Y1025D01*
X661Y1025D02*
X668Y1025D01*
X0Y1024D02*
X0Y1024D01*
X628Y1024D02*
X643Y1024D01*
X661Y1024D02*
X668Y1024D01*
X0Y1023D02*
X0Y1023D01*
X628Y1023D02*
X643Y1023D01*
X661Y1023D02*
X668Y1023D01*
X0Y1022D02*
X1Y1022D01*
X628Y1022D02*
X643Y1022D01*
X661Y1022D02*
X668Y1022D01*
X0Y1021D02*
X1Y1021D01*
X628Y1021D02*
X643Y1021D01*
X661Y1021D02*
X668Y1021D01*
X0Y1020D02*
X1Y1020D01*
X628Y1020D02*
X643Y1020D01*
X661Y1020D02*
X668Y1020D01*
X0Y1019D02*
X1Y1019D01*
X628Y1019D02*
X643Y1019D01*
X661Y1019D02*
X668Y1019D01*
X0Y1018D02*
X1Y1018D01*
X628Y1018D02*
X643Y1018D01*
X661Y1018D02*
X668Y1018D01*
X0Y1017D02*
X2Y1017D01*
X628Y1017D02*
X643Y1017D01*
X661Y1017D02*
X668Y1017D01*
X0Y1016D02*
X2Y1016D01*
X628Y1016D02*
X643Y1016D01*
X661Y1016D02*
X668Y1016D01*
X0Y1015D02*
X3Y1015D01*
X628Y1015D02*
X643Y1015D01*
X661Y1015D02*
X668Y1015D01*
X0Y1014D02*
X3Y1014D01*
X628Y1014D02*
X643Y1014D01*
X661Y1014D02*
X668Y1014D01*
X0Y1013D02*
X4Y1013D01*
X628Y1013D02*
X643Y1013D01*
X661Y1013D02*
X668Y1013D01*
X0Y1012D02*
X4Y1012D01*
X628Y1012D02*
X643Y1012D01*
X661Y1012D02*
X668Y1012D01*
X0Y1011D02*
X5Y1011D01*
X628Y1011D02*
X643Y1011D01*
X661Y1011D02*
X668Y1011D01*
X0Y1010D02*
X6Y1010D01*
X628Y1010D02*
X643Y1010D01*
X661Y1010D02*
X668Y1010D01*
X0Y1009D02*
X7Y1009D01*
X628Y1009D02*
X643Y1009D01*
X661Y1009D02*
X668Y1009D01*
X0Y1008D02*
X7Y1008D01*
X628Y1008D02*
X643Y1008D01*
X661Y1008D02*
X668Y1008D01*
X0Y1007D02*
X7Y1007D01*
X628Y1007D02*
X643Y1007D01*
X661Y1007D02*
X668Y1007D01*
X0Y1006D02*
X7Y1006D01*
X628Y1006D02*
X643Y1006D01*
X661Y1006D02*
X668Y1006D01*
X0Y1005D02*
X7Y1005D01*
X628Y1005D02*
X643Y1005D01*
X661Y1005D02*
X668Y1005D01*
X0Y1004D02*
X7Y1004D01*
X628Y1004D02*
X643Y1004D01*
X661Y1004D02*
X668Y1004D01*
X0Y1003D02*
X7Y1003D01*
X628Y1003D02*
X643Y1003D01*
X661Y1003D02*
X668Y1003D01*
X0Y1002D02*
X7Y1002D01*
X28Y1002D02*
X43Y1002D01*
X628Y1002D02*
X643Y1002D01*
X661Y1002D02*
X668Y1002D01*
X0Y1001D02*
X7Y1001D01*
X28Y1001D02*
X43Y1001D01*
X628Y1001D02*
X643Y1001D01*
X661Y1001D02*
X668Y1001D01*
X0Y1000D02*
X7Y1000D01*
X28Y1000D02*
X43Y1000D01*
X628Y1000D02*
X643Y1000D01*
X661Y1000D02*
X668Y1000D01*
X0Y999D02*
X7Y999D01*
X28Y999D02*
X43Y999D01*
X628Y999D02*
X643Y999D01*
X661Y999D02*
X668Y999D01*
X0Y998D02*
X7Y998D01*
X28Y998D02*
X43Y998D01*
X628Y998D02*
X643Y998D01*
X661Y998D02*
X668Y998D01*
X0Y997D02*
X7Y997D01*
X28Y997D02*
X43Y997D01*
X628Y997D02*
X643Y997D01*
X661Y997D02*
X668Y997D01*
X0Y996D02*
X7Y996D01*
X28Y996D02*
X43Y996D01*
X628Y996D02*
X643Y996D01*
X661Y996D02*
X668Y996D01*
X0Y995D02*
X7Y995D01*
X28Y995D02*
X43Y995D01*
X628Y995D02*
X643Y995D01*
X661Y995D02*
X668Y995D01*
X0Y994D02*
X7Y994D01*
X661Y994D02*
X668Y994D01*
X0Y993D02*
X7Y993D01*
X661Y993D02*
X668Y993D01*
X0Y992D02*
X7Y992D01*
X661Y992D02*
X668Y992D01*
X0Y991D02*
X7Y991D01*
X662Y991D02*
X668Y991D01*
X0Y990D02*
X7Y990D01*
X663Y990D02*
X668Y990D01*
X0Y989D02*
X7Y989D01*
X664Y989D02*
X668Y989D01*
X0Y988D02*
X6Y988D01*
X665Y988D02*
X668Y988D01*
X0Y987D02*
X6Y987D01*
X666Y987D02*
X668Y987D01*
X0Y986D02*
X5Y986D01*
X667Y986D02*
X668Y986D01*
X0Y985D02*
X4Y985D01*
X668Y985D02*
X668Y985D01*
X0Y984D02*
X3Y984D01*
X668Y984D02*
X668Y984D01*
X0Y983D02*
X3Y983D01*
X0Y982D02*
X2Y982D01*
X0Y981D02*
X2Y981D01*
X0Y980D02*
X1Y980D01*
X0Y979D02*
X1Y979D01*
X0Y978D02*
X1Y978D01*
X661Y978D02*
X668Y978D01*
X0Y977D02*
X1Y977D01*
X661Y977D02*
X668Y977D01*
X0Y976D02*
X1Y976D01*
X661Y976D02*
X668Y976D01*
X0Y975D02*
X0Y975D01*
X661Y975D02*
X668Y975D01*
X0Y974D02*
X0Y974D01*
X661Y974D02*
X668Y974D01*
X0Y973D02*
X0Y973D01*
X661Y973D02*
X668Y973D01*
X0Y972D02*
X1Y972D01*
X661Y972D02*
X668Y972D01*
X0Y971D02*
X1Y971D01*
X661Y971D02*
X668Y971D01*
X0Y970D02*
X1Y970D01*
X661Y970D02*
X668Y970D01*
X0Y969D02*
X1Y969D01*
X0Y968D02*
X1Y968D01*
X0Y967D02*
X2Y967D01*
X0Y966D02*
X2Y966D01*
X0Y965D02*
X3Y965D01*
X0Y964D02*
X3Y964D01*
X668Y964D02*
X668Y964D01*
X0Y963D02*
X4Y963D01*
X668Y963D02*
X668Y963D01*
X0Y962D02*
X4Y962D01*
X667Y962D02*
X668Y962D01*
X0Y961D02*
X5Y961D01*
X666Y961D02*
X668Y961D01*
X0Y960D02*
X6Y960D01*
X665Y960D02*
X668Y960D01*
X0Y959D02*
X7Y959D01*
X664Y959D02*
X668Y959D01*
X0Y958D02*
X7Y958D01*
X663Y958D02*
X668Y958D01*
X0Y957D02*
X7Y957D01*
X662Y957D02*
X668Y957D01*
X0Y956D02*
X7Y956D01*
X661Y956D02*
X668Y956D01*
X0Y955D02*
X7Y955D01*
X661Y955D02*
X668Y955D01*
X0Y954D02*
X7Y954D01*
X661Y954D02*
X668Y954D01*
X0Y953D02*
X7Y953D01*
X661Y953D02*
X668Y953D01*
X0Y952D02*
X7Y952D01*
X28Y952D02*
X43Y952D01*
X628Y952D02*
X643Y952D01*
X661Y952D02*
X668Y952D01*
X0Y951D02*
X7Y951D01*
X28Y951D02*
X43Y951D01*
X628Y951D02*
X643Y951D01*
X661Y951D02*
X668Y951D01*
X0Y950D02*
X7Y950D01*
X28Y950D02*
X43Y950D01*
X628Y950D02*
X643Y950D01*
X661Y950D02*
X668Y950D01*
X0Y949D02*
X7Y949D01*
X28Y949D02*
X43Y949D01*
X628Y949D02*
X643Y949D01*
X661Y949D02*
X668Y949D01*
X0Y948D02*
X7Y948D01*
X28Y948D02*
X43Y948D01*
X628Y948D02*
X629Y948D01*
X636Y948D02*
X643Y948D01*
X661Y948D02*
X668Y948D01*
X0Y947D02*
X7Y947D01*
X28Y947D02*
X43Y947D01*
X640Y947D02*
X643Y947D01*
X661Y947D02*
X668Y947D01*
X0Y946D02*
X7Y946D01*
X28Y946D02*
X43Y946D01*
X642Y946D02*
X643Y946D01*
X661Y946D02*
X668Y946D01*
X0Y945D02*
X7Y945D01*
X28Y945D02*
X43Y945D01*
X661Y945D02*
X668Y945D01*
X0Y944D02*
X7Y944D01*
X661Y944D02*
X668Y944D01*
X0Y943D02*
X7Y943D01*
X661Y943D02*
X668Y943D01*
X0Y942D02*
X7Y942D01*
X661Y942D02*
X668Y942D01*
X0Y941D02*
X7Y941D01*
X662Y941D02*
X668Y941D01*
X0Y940D02*
X7Y940D01*
X663Y940D02*
X668Y940D01*
X0Y939D02*
X7Y939D01*
X664Y939D02*
X668Y939D01*
X0Y938D02*
X6Y938D01*
X665Y938D02*
X668Y938D01*
X0Y937D02*
X6Y937D01*
X666Y937D02*
X668Y937D01*
X0Y936D02*
X5Y936D01*
X667Y936D02*
X668Y936D01*
X0Y935D02*
X4Y935D01*
X668Y935D02*
X668Y935D01*
X0Y934D02*
X3Y934D01*
X668Y934D02*
X668Y934D01*
X0Y933D02*
X3Y933D01*
X0Y932D02*
X2Y932D01*
X0Y931D02*
X2Y931D01*
X0Y930D02*
X1Y930D01*
X0Y929D02*
X1Y929D01*
X0Y928D02*
X1Y928D01*
X661Y928D02*
X668Y928D01*
X0Y927D02*
X1Y927D01*
X661Y927D02*
X668Y927D01*
X0Y926D02*
X1Y926D01*
X661Y926D02*
X668Y926D01*
X0Y925D02*
X0Y925D01*
X661Y925D02*
X668Y925D01*
X0Y924D02*
X0Y924D01*
X661Y924D02*
X668Y924D01*
X0Y923D02*
X0Y923D01*
X661Y923D02*
X668Y923D01*
X0Y922D02*
X1Y922D01*
X661Y922D02*
X668Y922D01*
X0Y921D02*
X1Y921D01*
X661Y921D02*
X668Y921D01*
X0Y920D02*
X1Y920D01*
X661Y920D02*
X668Y920D01*
X0Y919D02*
X1Y919D01*
X0Y918D02*
X1Y918D01*
X0Y917D02*
X2Y917D01*
X0Y916D02*
X2Y916D01*
X0Y915D02*
X3Y915D01*
X0Y914D02*
X3Y914D01*
X668Y914D02*
X668Y914D01*
X0Y913D02*
X4Y913D01*
X668Y913D02*
X668Y913D01*
X0Y912D02*
X4Y912D01*
X667Y912D02*
X668Y912D01*
X0Y911D02*
X5Y911D01*
X666Y911D02*
X668Y911D01*
X0Y910D02*
X6Y910D01*
X665Y910D02*
X668Y910D01*
X0Y909D02*
X7Y909D01*
X664Y909D02*
X668Y909D01*
X0Y908D02*
X7Y908D01*
X663Y908D02*
X668Y908D01*
X0Y907D02*
X7Y907D01*
X662Y907D02*
X668Y907D01*
X0Y906D02*
X7Y906D01*
X661Y906D02*
X668Y906D01*
X0Y905D02*
X7Y905D01*
X661Y905D02*
X668Y905D01*
X0Y904D02*
X7Y904D01*
X661Y904D02*
X668Y904D01*
X0Y903D02*
X7Y903D01*
X661Y903D02*
X668Y903D01*
X0Y902D02*
X7Y902D01*
X28Y902D02*
X43Y902D01*
X661Y902D02*
X668Y902D01*
X0Y901D02*
X7Y901D01*
X28Y901D02*
X43Y901D01*
X642Y901D02*
X643Y901D01*
X661Y901D02*
X668Y901D01*
X0Y900D02*
X7Y900D01*
X28Y900D02*
X43Y900D01*
X639Y900D02*
X643Y900D01*
X661Y900D02*
X668Y900D01*
X0Y899D02*
X7Y899D01*
X28Y899D02*
X43Y899D01*
X628Y899D02*
X630Y899D01*
X635Y899D02*
X643Y899D01*
X661Y899D02*
X668Y899D01*
X0Y898D02*
X7Y898D01*
X28Y898D02*
X43Y898D01*
X628Y898D02*
X643Y898D01*
X661Y898D02*
X668Y898D01*
X0Y897D02*
X7Y897D01*
X28Y897D02*
X43Y897D01*
X628Y897D02*
X643Y897D01*
X661Y897D02*
X668Y897D01*
X0Y896D02*
X7Y896D01*
X28Y896D02*
X43Y896D01*
X628Y896D02*
X643Y896D01*
X661Y896D02*
X668Y896D01*
X0Y895D02*
X7Y895D01*
X28Y895D02*
X43Y895D01*
X628Y895D02*
X643Y895D01*
X661Y895D02*
X668Y895D01*
X0Y894D02*
X7Y894D01*
X661Y894D02*
X668Y894D01*
X0Y893D02*
X7Y893D01*
X661Y893D02*
X668Y893D01*
X0Y892D02*
X7Y892D01*
X661Y892D02*
X668Y892D01*
X0Y891D02*
X7Y891D01*
X662Y891D02*
X668Y891D01*
X0Y890D02*
X7Y890D01*
X663Y890D02*
X668Y890D01*
X0Y889D02*
X7Y889D01*
X664Y889D02*
X668Y889D01*
X0Y888D02*
X6Y888D01*
X665Y888D02*
X668Y888D01*
X0Y887D02*
X6Y887D01*
X666Y887D02*
X668Y887D01*
X0Y886D02*
X5Y886D01*
X667Y886D02*
X668Y886D01*
X0Y885D02*
X4Y885D01*
X668Y885D02*
X668Y885D01*
X0Y884D02*
X3Y884D01*
X668Y884D02*
X668Y884D01*
X0Y883D02*
X3Y883D01*
X0Y882D02*
X2Y882D01*
X0Y881D02*
X2Y881D01*
X0Y880D02*
X1Y880D01*
X0Y879D02*
X1Y879D01*
X0Y878D02*
X1Y878D01*
X661Y878D02*
X668Y878D01*
X0Y877D02*
X1Y877D01*
X661Y877D02*
X668Y877D01*
X0Y876D02*
X1Y876D01*
X661Y876D02*
X668Y876D01*
X0Y875D02*
X0Y875D01*
X661Y875D02*
X668Y875D01*
X0Y874D02*
X0Y874D01*
X661Y874D02*
X668Y874D01*
X0Y873D02*
X0Y873D01*
X661Y873D02*
X668Y873D01*
X0Y872D02*
X1Y872D01*
X661Y872D02*
X668Y872D01*
X0Y871D02*
X1Y871D01*
X661Y871D02*
X668Y871D01*
X0Y870D02*
X1Y870D01*
X661Y870D02*
X668Y870D01*
X0Y869D02*
X1Y869D01*
X0Y868D02*
X1Y868D01*
X0Y867D02*
X2Y867D01*
X0Y866D02*
X2Y866D01*
X0Y865D02*
X3Y865D01*
X0Y864D02*
X3Y864D01*
X668Y864D02*
X668Y864D01*
X0Y863D02*
X4Y863D01*
X668Y863D02*
X668Y863D01*
X0Y862D02*
X4Y862D01*
X667Y862D02*
X668Y862D01*
X0Y861D02*
X5Y861D01*
X666Y861D02*
X668Y861D01*
X0Y860D02*
X6Y860D01*
X665Y860D02*
X668Y860D01*
X0Y859D02*
X7Y859D01*
X664Y859D02*
X668Y859D01*
X0Y858D02*
X7Y858D01*
X663Y858D02*
X668Y858D01*
X0Y857D02*
X7Y857D01*
X662Y857D02*
X668Y857D01*
X0Y856D02*
X7Y856D01*
X661Y856D02*
X668Y856D01*
X0Y855D02*
X7Y855D01*
X661Y855D02*
X668Y855D01*
X0Y854D02*
X7Y854D01*
X661Y854D02*
X668Y854D01*
X0Y853D02*
X7Y853D01*
X661Y853D02*
X668Y853D01*
X0Y852D02*
X7Y852D01*
X28Y852D02*
X43Y852D01*
X628Y852D02*
X643Y852D01*
X661Y852D02*
X668Y852D01*
X0Y851D02*
X7Y851D01*
X28Y851D02*
X43Y851D01*
X628Y851D02*
X643Y851D01*
X661Y851D02*
X668Y851D01*
X0Y850D02*
X7Y850D01*
X28Y850D02*
X43Y850D01*
X628Y850D02*
X643Y850D01*
X661Y850D02*
X668Y850D01*
X0Y849D02*
X7Y849D01*
X28Y849D02*
X43Y849D01*
X628Y849D02*
X643Y849D01*
X661Y849D02*
X668Y849D01*
X0Y848D02*
X7Y848D01*
X28Y848D02*
X43Y848D01*
X628Y848D02*
X643Y848D01*
X661Y848D02*
X668Y848D01*
X0Y847D02*
X7Y847D01*
X28Y847D02*
X43Y847D01*
X628Y847D02*
X643Y847D01*
X661Y847D02*
X668Y847D01*
X0Y846D02*
X7Y846D01*
X28Y846D02*
X43Y846D01*
X628Y846D02*
X643Y846D01*
X661Y846D02*
X668Y846D01*
X0Y845D02*
X7Y845D01*
X28Y845D02*
X43Y845D01*
X628Y845D02*
X643Y845D01*
X661Y845D02*
X668Y845D01*
X0Y844D02*
X7Y844D01*
X661Y844D02*
X668Y844D01*
X0Y843D02*
X7Y843D01*
X661Y843D02*
X668Y843D01*
X0Y842D02*
X7Y842D01*
X661Y842D02*
X668Y842D01*
X0Y841D02*
X7Y841D01*
X662Y841D02*
X668Y841D01*
X0Y840D02*
X7Y840D01*
X663Y840D02*
X668Y840D01*
X0Y839D02*
X7Y839D01*
X664Y839D02*
X668Y839D01*
X0Y838D02*
X6Y838D01*
X665Y838D02*
X668Y838D01*
X0Y837D02*
X6Y837D01*
X666Y837D02*
X668Y837D01*
X0Y836D02*
X5Y836D01*
X667Y836D02*
X668Y836D01*
X0Y835D02*
X4Y835D01*
X668Y835D02*
X668Y835D01*
X0Y834D02*
X3Y834D01*
X668Y834D02*
X668Y834D01*
X0Y833D02*
X3Y833D01*
X0Y832D02*
X2Y832D01*
X0Y831D02*
X2Y831D01*
X0Y830D02*
X1Y830D01*
X0Y829D02*
X1Y829D01*
X0Y828D02*
X1Y828D01*
X661Y828D02*
X668Y828D01*
X0Y827D02*
X1Y827D01*
X661Y827D02*
X668Y827D01*
X0Y826D02*
X1Y826D01*
X661Y826D02*
X668Y826D01*
X0Y825D02*
X0Y825D01*
X661Y825D02*
X668Y825D01*
X0Y824D02*
X0Y824D01*
X661Y824D02*
X668Y824D01*
X0Y823D02*
X0Y823D01*
X661Y823D02*
X668Y823D01*
X0Y822D02*
X1Y822D01*
X661Y822D02*
X668Y822D01*
X0Y821D02*
X1Y821D01*
X661Y821D02*
X668Y821D01*
X0Y820D02*
X1Y820D01*
X661Y820D02*
X668Y820D01*
X0Y819D02*
X1Y819D01*
X0Y818D02*
X1Y818D01*
X0Y817D02*
X2Y817D01*
X0Y816D02*
X2Y816D01*
X0Y815D02*
X3Y815D01*
X0Y814D02*
X3Y814D01*
X668Y814D02*
X668Y814D01*
X0Y813D02*
X4Y813D01*
X668Y813D02*
X668Y813D01*
X0Y812D02*
X4Y812D01*
X667Y812D02*
X668Y812D01*
X0Y811D02*
X5Y811D01*
X666Y811D02*
X668Y811D01*
X0Y810D02*
X6Y810D01*
X665Y810D02*
X668Y810D01*
X0Y809D02*
X7Y809D01*
X664Y809D02*
X668Y809D01*
X0Y808D02*
X7Y808D01*
X663Y808D02*
X668Y808D01*
X0Y807D02*
X7Y807D01*
X662Y807D02*
X668Y807D01*
X0Y806D02*
X7Y806D01*
X661Y806D02*
X668Y806D01*
X0Y805D02*
X7Y805D01*
X661Y805D02*
X668Y805D01*
X0Y804D02*
X7Y804D01*
X661Y804D02*
X668Y804D01*
X0Y803D02*
X7Y803D01*
X661Y803D02*
X668Y803D01*
X0Y802D02*
X7Y802D01*
X28Y802D02*
X43Y802D01*
X628Y802D02*
X643Y802D01*
X661Y802D02*
X668Y802D01*
X0Y801D02*
X7Y801D01*
X28Y801D02*
X43Y801D01*
X628Y801D02*
X643Y801D01*
X661Y801D02*
X668Y801D01*
X0Y800D02*
X7Y800D01*
X28Y800D02*
X43Y800D01*
X628Y800D02*
X643Y800D01*
X661Y800D02*
X668Y800D01*
X0Y799D02*
X7Y799D01*
X28Y799D02*
X43Y799D01*
X628Y799D02*
X643Y799D01*
X661Y799D02*
X668Y799D01*
X0Y798D02*
X7Y798D01*
X28Y798D02*
X43Y798D01*
X628Y798D02*
X643Y798D01*
X661Y798D02*
X668Y798D01*
X0Y797D02*
X7Y797D01*
X28Y797D02*
X43Y797D01*
X628Y797D02*
X643Y797D01*
X661Y797D02*
X668Y797D01*
X0Y796D02*
X7Y796D01*
X28Y796D02*
X43Y796D01*
X628Y796D02*
X643Y796D01*
X661Y796D02*
X668Y796D01*
X0Y795D02*
X7Y795D01*
X28Y795D02*
X43Y795D01*
X628Y795D02*
X643Y795D01*
X661Y795D02*
X668Y795D01*
X0Y794D02*
X7Y794D01*
X661Y794D02*
X668Y794D01*
X0Y793D02*
X7Y793D01*
X661Y793D02*
X668Y793D01*
X0Y792D02*
X7Y792D01*
X661Y792D02*
X668Y792D01*
X0Y791D02*
X7Y791D01*
X662Y791D02*
X668Y791D01*
X0Y790D02*
X7Y790D01*
X663Y790D02*
X668Y790D01*
X0Y789D02*
X7Y789D01*
X664Y789D02*
X668Y789D01*
X0Y788D02*
X6Y788D01*
X665Y788D02*
X668Y788D01*
X0Y787D02*
X6Y787D01*
X666Y787D02*
X668Y787D01*
X0Y786D02*
X5Y786D01*
X667Y786D02*
X668Y786D01*
X0Y785D02*
X4Y785D01*
X668Y785D02*
X668Y785D01*
X0Y784D02*
X3Y784D01*
X668Y784D02*
X668Y784D01*
X0Y783D02*
X3Y783D01*
X0Y782D02*
X2Y782D01*
X0Y781D02*
X2Y781D01*
X0Y780D02*
X1Y780D01*
X0Y779D02*
X1Y779D01*
X0Y778D02*
X1Y778D01*
X661Y778D02*
X668Y778D01*
X0Y777D02*
X1Y777D01*
X661Y777D02*
X668Y777D01*
X0Y776D02*
X1Y776D01*
X661Y776D02*
X668Y776D01*
X0Y775D02*
X0Y775D01*
X661Y775D02*
X668Y775D01*
X0Y774D02*
X0Y774D01*
X661Y774D02*
X668Y774D01*
X0Y773D02*
X0Y773D01*
X661Y773D02*
X668Y773D01*
X0Y772D02*
X1Y772D01*
X661Y772D02*
X668Y772D01*
X0Y771D02*
X1Y771D01*
X661Y771D02*
X668Y771D01*
X0Y770D02*
X1Y770D01*
X661Y770D02*
X668Y770D01*
X0Y769D02*
X1Y769D01*
X0Y768D02*
X1Y768D01*
X0Y767D02*
X2Y767D01*
X0Y766D02*
X2Y766D01*
X0Y765D02*
X3Y765D01*
X0Y764D02*
X3Y764D01*
X668Y764D02*
X668Y764D01*
X0Y763D02*
X4Y763D01*
X668Y763D02*
X668Y763D01*
X0Y762D02*
X4Y762D01*
X667Y762D02*
X668Y762D01*
X0Y761D02*
X5Y761D01*
X666Y761D02*
X668Y761D01*
X0Y760D02*
X6Y760D01*
X665Y760D02*
X668Y760D01*
X0Y759D02*
X7Y759D01*
X664Y759D02*
X668Y759D01*
X0Y758D02*
X7Y758D01*
X663Y758D02*
X668Y758D01*
X0Y757D02*
X7Y757D01*
X662Y757D02*
X668Y757D01*
X0Y756D02*
X7Y756D01*
X661Y756D02*
X668Y756D01*
X0Y755D02*
X7Y755D01*
X661Y755D02*
X668Y755D01*
X0Y754D02*
X7Y754D01*
X661Y754D02*
X668Y754D01*
X0Y753D02*
X7Y753D01*
X661Y753D02*
X668Y753D01*
X0Y752D02*
X7Y752D01*
X28Y752D02*
X43Y752D01*
X628Y752D02*
X643Y752D01*
X661Y752D02*
X668Y752D01*
X0Y751D02*
X7Y751D01*
X28Y751D02*
X43Y751D01*
X628Y751D02*
X643Y751D01*
X661Y751D02*
X668Y751D01*
X0Y750D02*
X7Y750D01*
X28Y750D02*
X43Y750D01*
X628Y750D02*
X643Y750D01*
X661Y750D02*
X668Y750D01*
X0Y749D02*
X7Y749D01*
X28Y749D02*
X43Y749D01*
X628Y749D02*
X643Y749D01*
X661Y749D02*
X668Y749D01*
X0Y748D02*
X7Y748D01*
X28Y748D02*
X43Y748D01*
X628Y748D02*
X643Y748D01*
X661Y748D02*
X668Y748D01*
X0Y747D02*
X7Y747D01*
X28Y747D02*
X43Y747D01*
X628Y747D02*
X643Y747D01*
X661Y747D02*
X668Y747D01*
X0Y746D02*
X7Y746D01*
X28Y746D02*
X43Y746D01*
X628Y746D02*
X643Y746D01*
X661Y746D02*
X668Y746D01*
X0Y745D02*
X7Y745D01*
X28Y745D02*
X43Y745D01*
X628Y745D02*
X643Y745D01*
X661Y745D02*
X668Y745D01*
X0Y744D02*
X7Y744D01*
X661Y744D02*
X668Y744D01*
X0Y743D02*
X7Y743D01*
X661Y743D02*
X668Y743D01*
X0Y742D02*
X7Y742D01*
X661Y742D02*
X668Y742D01*
X0Y741D02*
X7Y741D01*
X662Y741D02*
X668Y741D01*
X0Y740D02*
X7Y740D01*
X663Y740D02*
X668Y740D01*
X0Y739D02*
X7Y739D01*
X664Y739D02*
X668Y739D01*
X0Y738D02*
X6Y738D01*
X665Y738D02*
X668Y738D01*
X0Y737D02*
X6Y737D01*
X666Y737D02*
X668Y737D01*
X0Y736D02*
X5Y736D01*
X667Y736D02*
X668Y736D01*
X0Y735D02*
X4Y735D01*
X668Y735D02*
X668Y735D01*
X0Y734D02*
X3Y734D01*
X668Y734D02*
X668Y734D01*
X0Y733D02*
X3Y733D01*
X0Y732D02*
X2Y732D01*
X0Y731D02*
X2Y731D01*
X0Y730D02*
X1Y730D01*
X0Y729D02*
X1Y729D01*
X0Y728D02*
X1Y728D01*
X661Y728D02*
X668Y728D01*
X0Y727D02*
X1Y727D01*
X661Y727D02*
X668Y727D01*
X0Y726D02*
X1Y726D01*
X661Y726D02*
X668Y726D01*
X0Y725D02*
X0Y725D01*
X661Y725D02*
X668Y725D01*
X0Y724D02*
X0Y724D01*
X661Y724D02*
X668Y724D01*
X0Y723D02*
X0Y723D01*
X661Y723D02*
X668Y723D01*
X0Y722D02*
X1Y722D01*
X661Y722D02*
X668Y722D01*
X0Y721D02*
X1Y721D01*
X661Y721D02*
X668Y721D01*
X0Y720D02*
X1Y720D01*
X661Y720D02*
X668Y720D01*
X0Y719D02*
X1Y719D01*
X0Y718D02*
X1Y718D01*
X0Y717D02*
X2Y717D01*
X0Y716D02*
X2Y716D01*
X0Y715D02*
X3Y715D01*
X0Y714D02*
X3Y714D01*
X668Y714D02*
X668Y714D01*
X0Y713D02*
X4Y713D01*
X668Y713D02*
X668Y713D01*
X0Y712D02*
X4Y712D01*
X667Y712D02*
X668Y712D01*
X0Y711D02*
X5Y711D01*
X666Y711D02*
X668Y711D01*
X0Y710D02*
X6Y710D01*
X665Y710D02*
X668Y710D01*
X0Y709D02*
X7Y709D01*
X664Y709D02*
X668Y709D01*
X0Y708D02*
X7Y708D01*
X663Y708D02*
X668Y708D01*
X0Y707D02*
X7Y707D01*
X662Y707D02*
X668Y707D01*
X0Y706D02*
X7Y706D01*
X661Y706D02*
X668Y706D01*
X0Y705D02*
X7Y705D01*
X661Y705D02*
X668Y705D01*
X0Y704D02*
X7Y704D01*
X661Y704D02*
X668Y704D01*
X0Y703D02*
X7Y703D01*
X661Y703D02*
X668Y703D01*
X0Y702D02*
X7Y702D01*
X28Y702D02*
X43Y702D01*
X628Y702D02*
X643Y702D01*
X661Y702D02*
X668Y702D01*
X0Y701D02*
X7Y701D01*
X28Y701D02*
X43Y701D01*
X628Y701D02*
X643Y701D01*
X661Y701D02*
X668Y701D01*
X0Y700D02*
X7Y700D01*
X28Y700D02*
X43Y700D01*
X628Y700D02*
X643Y700D01*
X661Y700D02*
X668Y700D01*
X0Y699D02*
X7Y699D01*
X28Y699D02*
X43Y699D01*
X628Y699D02*
X643Y699D01*
X661Y699D02*
X668Y699D01*
X0Y698D02*
X7Y698D01*
X28Y698D02*
X43Y698D01*
X628Y698D02*
X643Y698D01*
X661Y698D02*
X668Y698D01*
X0Y697D02*
X7Y697D01*
X28Y697D02*
X43Y697D01*
X628Y697D02*
X643Y697D01*
X661Y697D02*
X668Y697D01*
X0Y696D02*
X7Y696D01*
X28Y696D02*
X43Y696D01*
X628Y696D02*
X643Y696D01*
X661Y696D02*
X668Y696D01*
X0Y695D02*
X7Y695D01*
X28Y695D02*
X43Y695D01*
X628Y695D02*
X643Y695D01*
X661Y695D02*
X668Y695D01*
X0Y694D02*
X7Y694D01*
X661Y694D02*
X668Y694D01*
X0Y693D02*
X7Y693D01*
X661Y693D02*
X668Y693D01*
X0Y692D02*
X7Y692D01*
X661Y692D02*
X668Y692D01*
X0Y691D02*
X7Y691D01*
X662Y691D02*
X668Y691D01*
X0Y690D02*
X7Y690D01*
X663Y690D02*
X668Y690D01*
X0Y689D02*
X7Y689D01*
X664Y689D02*
X668Y689D01*
X0Y688D02*
X6Y688D01*
X665Y688D02*
X668Y688D01*
X0Y687D02*
X6Y687D01*
X666Y687D02*
X668Y687D01*
X0Y686D02*
X5Y686D01*
X667Y686D02*
X668Y686D01*
X0Y685D02*
X4Y685D01*
X668Y685D02*
X668Y685D01*
X0Y684D02*
X3Y684D01*
X668Y684D02*
X668Y684D01*
X0Y683D02*
X3Y683D01*
X0Y682D02*
X2Y682D01*
X0Y681D02*
X2Y681D01*
X0Y680D02*
X1Y680D01*
X0Y679D02*
X1Y679D01*
X0Y678D02*
X1Y678D01*
X661Y678D02*
X668Y678D01*
X0Y677D02*
X1Y677D01*
X661Y677D02*
X668Y677D01*
X0Y676D02*
X1Y676D01*
X661Y676D02*
X668Y676D01*
X0Y675D02*
X0Y675D01*
X661Y675D02*
X668Y675D01*
X0Y674D02*
X0Y674D01*
X661Y674D02*
X668Y674D01*
X0Y673D02*
X0Y673D01*
X661Y673D02*
X668Y673D01*
X0Y672D02*
X1Y672D01*
X661Y672D02*
X668Y672D01*
X0Y671D02*
X1Y671D01*
X661Y671D02*
X668Y671D01*
X0Y670D02*
X1Y670D01*
X661Y670D02*
X668Y670D01*
X0Y669D02*
X1Y669D01*
X0Y668D02*
X1Y668D01*
X0Y667D02*
X2Y667D01*
X0Y666D02*
X2Y666D01*
X0Y665D02*
X3Y665D01*
X0Y664D02*
X3Y664D01*
X668Y664D02*
X668Y664D01*
X0Y663D02*
X4Y663D01*
X668Y663D02*
X668Y663D01*
X0Y662D02*
X4Y662D01*
X667Y662D02*
X668Y662D01*
X0Y661D02*
X5Y661D01*
X666Y661D02*
X668Y661D01*
X0Y660D02*
X6Y660D01*
X665Y660D02*
X668Y660D01*
X0Y659D02*
X7Y659D01*
X664Y659D02*
X668Y659D01*
X0Y658D02*
X7Y658D01*
X663Y658D02*
X668Y658D01*
X0Y657D02*
X7Y657D01*
X662Y657D02*
X668Y657D01*
X0Y656D02*
X7Y656D01*
X661Y656D02*
X668Y656D01*
X0Y655D02*
X7Y655D01*
X661Y655D02*
X668Y655D01*
X0Y654D02*
X7Y654D01*
X661Y654D02*
X668Y654D01*
X0Y653D02*
X7Y653D01*
X661Y653D02*
X668Y653D01*
X0Y652D02*
X7Y652D01*
X28Y652D02*
X43Y652D01*
X571Y652D02*
X577Y652D01*
X598Y652D02*
X604Y652D01*
X627Y652D02*
X643Y652D01*
X661Y652D02*
X668Y652D01*
X0Y651D02*
X7Y651D01*
X28Y651D02*
X43Y651D01*
X571Y651D02*
X577Y651D01*
X598Y651D02*
X604Y651D01*
X627Y651D02*
X643Y651D01*
X661Y651D02*
X668Y651D01*
X0Y650D02*
X7Y650D01*
X28Y650D02*
X43Y650D01*
X571Y650D02*
X577Y650D01*
X598Y650D02*
X604Y650D01*
X626Y650D02*
X643Y650D01*
X661Y650D02*
X668Y650D01*
X0Y649D02*
X7Y649D01*
X28Y649D02*
X43Y649D01*
X571Y649D02*
X577Y649D01*
X598Y649D02*
X604Y649D01*
X626Y649D02*
X643Y649D01*
X661Y649D02*
X668Y649D01*
X0Y648D02*
X7Y648D01*
X28Y648D02*
X43Y648D01*
X571Y648D02*
X577Y648D01*
X598Y648D02*
X604Y648D01*
X625Y648D02*
X643Y648D01*
X661Y648D02*
X668Y648D01*
X0Y647D02*
X7Y647D01*
X28Y647D02*
X43Y647D01*
X571Y647D02*
X577Y647D01*
X598Y647D02*
X604Y647D01*
X625Y647D02*
X643Y647D01*
X661Y647D02*
X668Y647D01*
X0Y646D02*
X7Y646D01*
X28Y646D02*
X43Y646D01*
X571Y646D02*
X577Y646D01*
X598Y646D02*
X604Y646D01*
X624Y646D02*
X643Y646D01*
X661Y646D02*
X668Y646D01*
X0Y645D02*
X7Y645D01*
X28Y645D02*
X43Y645D01*
X571Y645D02*
X578Y645D01*
X597Y645D02*
X604Y645D01*
X624Y645D02*
X643Y645D01*
X661Y645D02*
X668Y645D01*
X0Y644D02*
X7Y644D01*
X661Y644D02*
X668Y644D01*
X0Y643D02*
X7Y643D01*
X661Y643D02*
X668Y643D01*
X0Y642D02*
X7Y642D01*
X661Y642D02*
X668Y642D01*
X0Y641D02*
X7Y641D01*
X662Y641D02*
X668Y641D01*
X0Y640D02*
X7Y640D01*
X663Y640D02*
X668Y640D01*
X0Y639D02*
X7Y639D01*
X664Y639D02*
X668Y639D01*
X0Y638D02*
X6Y638D01*
X665Y638D02*
X668Y638D01*
X0Y637D02*
X6Y637D01*
X666Y637D02*
X668Y637D01*
X0Y636D02*
X5Y636D01*
X667Y636D02*
X668Y636D01*
X0Y635D02*
X4Y635D01*
X668Y635D02*
X668Y635D01*
X0Y634D02*
X3Y634D01*
X328Y634D02*
X332Y634D01*
X356Y634D02*
X359Y634D01*
X378Y634D02*
X407Y634D01*
X668Y634D02*
X668Y634D01*
X0Y633D02*
X3Y633D01*
X327Y633D02*
X332Y633D01*
X355Y633D02*
X360Y633D01*
X377Y633D02*
X408Y633D01*
X0Y632D02*
X2Y632D01*
X327Y632D02*
X333Y632D01*
X354Y632D02*
X360Y632D01*
X377Y632D02*
X409Y632D01*
X0Y631D02*
X2Y631D01*
X327Y631D02*
X333Y631D01*
X354Y631D02*
X360Y631D01*
X377Y631D02*
X410Y631D01*
X0Y630D02*
X1Y630D01*
X327Y630D02*
X333Y630D01*
X354Y630D02*
X360Y630D01*
X377Y630D02*
X410Y630D01*
X0Y629D02*
X1Y629D01*
X327Y629D02*
X333Y629D01*
X354Y629D02*
X360Y629D01*
X378Y629D02*
X410Y629D01*
X0Y628D02*
X1Y628D01*
X327Y628D02*
X333Y628D01*
X354Y628D02*
X360Y628D01*
X380Y628D02*
X411Y628D01*
X661Y628D02*
X668Y628D01*
X0Y627D02*
X1Y627D01*
X327Y627D02*
X333Y627D01*
X354Y627D02*
X360Y627D01*
X405Y627D02*
X411Y627D01*
X661Y627D02*
X668Y627D01*
X0Y626D02*
X1Y626D01*
X327Y626D02*
X333Y626D01*
X354Y626D02*
X360Y626D01*
X405Y626D02*
X411Y626D01*
X661Y626D02*
X668Y626D01*
X0Y625D02*
X0Y625D01*
X327Y625D02*
X333Y625D01*
X354Y625D02*
X360Y625D01*
X405Y625D02*
X411Y625D01*
X661Y625D02*
X668Y625D01*
X0Y624D02*
X0Y624D01*
X327Y624D02*
X333Y624D01*
X354Y624D02*
X360Y624D01*
X405Y624D02*
X411Y624D01*
X661Y624D02*
X668Y624D01*
X0Y623D02*
X0Y623D01*
X327Y623D02*
X333Y623D01*
X354Y623D02*
X360Y623D01*
X405Y623D02*
X411Y623D01*
X661Y623D02*
X668Y623D01*
X0Y622D02*
X1Y622D01*
X327Y622D02*
X333Y622D01*
X354Y622D02*
X360Y622D01*
X405Y622D02*
X411Y622D01*
X661Y622D02*
X668Y622D01*
X0Y621D02*
X1Y621D01*
X327Y621D02*
X333Y621D01*
X354Y621D02*
X360Y621D01*
X405Y621D02*
X411Y621D01*
X661Y621D02*
X668Y621D01*
X0Y620D02*
X1Y620D01*
X327Y620D02*
X333Y620D01*
X354Y620D02*
X360Y620D01*
X405Y620D02*
X411Y620D01*
X661Y620D02*
X668Y620D01*
X0Y619D02*
X1Y619D01*
X327Y619D02*
X333Y619D01*
X354Y619D02*
X360Y619D01*
X405Y619D02*
X411Y619D01*
X0Y618D02*
X1Y618D01*
X327Y618D02*
X333Y618D01*
X354Y618D02*
X360Y618D01*
X405Y618D02*
X411Y618D01*
X0Y617D02*
X2Y617D01*
X327Y617D02*
X333Y617D01*
X354Y617D02*
X360Y617D01*
X405Y617D02*
X411Y617D01*
X0Y616D02*
X2Y616D01*
X327Y616D02*
X333Y616D01*
X354Y616D02*
X360Y616D01*
X405Y616D02*
X411Y616D01*
X0Y615D02*
X3Y615D01*
X327Y615D02*
X333Y615D01*
X354Y615D02*
X360Y615D01*
X405Y615D02*
X411Y615D01*
X0Y614D02*
X3Y614D01*
X327Y614D02*
X333Y614D01*
X354Y614D02*
X360Y614D01*
X405Y614D02*
X411Y614D01*
X668Y614D02*
X668Y614D01*
X0Y613D02*
X4Y613D01*
X327Y613D02*
X333Y613D01*
X354Y613D02*
X360Y613D01*
X405Y613D02*
X411Y613D01*
X668Y613D02*
X668Y613D01*
X0Y612D02*
X4Y612D01*
X327Y612D02*
X333Y612D01*
X354Y612D02*
X360Y612D01*
X405Y612D02*
X411Y612D01*
X667Y612D02*
X668Y612D01*
X0Y611D02*
X5Y611D01*
X327Y611D02*
X333Y611D01*
X354Y611D02*
X360Y611D01*
X382Y611D02*
X411Y611D01*
X666Y611D02*
X668Y611D01*
X0Y610D02*
X6Y610D01*
X327Y610D02*
X333Y610D01*
X354Y610D02*
X360Y610D01*
X380Y610D02*
X410Y610D01*
X665Y610D02*
X668Y610D01*
X0Y609D02*
X7Y609D01*
X327Y609D02*
X333Y609D01*
X354Y609D02*
X360Y609D01*
X379Y609D02*
X410Y609D01*
X664Y609D02*
X668Y609D01*
X0Y608D02*
X7Y608D01*
X327Y608D02*
X333Y608D01*
X354Y608D02*
X360Y608D01*
X378Y608D02*
X410Y608D01*
X663Y608D02*
X668Y608D01*
X0Y607D02*
X7Y607D01*
X327Y607D02*
X333Y607D01*
X354Y607D02*
X360Y607D01*
X378Y607D02*
X409Y607D01*
X662Y607D02*
X668Y607D01*
X0Y606D02*
X7Y606D01*
X327Y606D02*
X333Y606D01*
X354Y606D02*
X360Y606D01*
X377Y606D02*
X408Y606D01*
X661Y606D02*
X668Y606D01*
X0Y605D02*
X7Y605D01*
X327Y605D02*
X333Y605D01*
X354Y605D02*
X360Y605D01*
X377Y605D02*
X407Y605D01*
X661Y605D02*
X668Y605D01*
X0Y604D02*
X7Y604D01*
X327Y604D02*
X333Y604D01*
X354Y604D02*
X360Y604D01*
X377Y604D02*
X383Y604D01*
X661Y604D02*
X668Y604D01*
X0Y603D02*
X7Y603D01*
X327Y603D02*
X333Y603D01*
X354Y603D02*
X360Y603D01*
X377Y603D02*
X383Y603D01*
X661Y603D02*
X668Y603D01*
X0Y602D02*
X7Y602D01*
X28Y602D02*
X43Y602D01*
X327Y602D02*
X333Y602D01*
X354Y602D02*
X360Y602D01*
X377Y602D02*
X383Y602D01*
X628Y602D02*
X643Y602D01*
X661Y602D02*
X668Y602D01*
X0Y601D02*
X7Y601D01*
X28Y601D02*
X43Y601D01*
X327Y601D02*
X333Y601D01*
X354Y601D02*
X360Y601D01*
X377Y601D02*
X383Y601D01*
X628Y601D02*
X643Y601D01*
X661Y601D02*
X668Y601D01*
X0Y600D02*
X7Y600D01*
X28Y600D02*
X43Y600D01*
X327Y600D02*
X333Y600D01*
X354Y600D02*
X360Y600D01*
X377Y600D02*
X383Y600D01*
X628Y600D02*
X643Y600D01*
X661Y600D02*
X668Y600D01*
X0Y599D02*
X7Y599D01*
X28Y599D02*
X43Y599D01*
X327Y599D02*
X333Y599D01*
X354Y599D02*
X360Y599D01*
X377Y599D02*
X383Y599D01*
X628Y599D02*
X643Y599D01*
X661Y599D02*
X668Y599D01*
X0Y598D02*
X7Y598D01*
X28Y598D02*
X43Y598D01*
X327Y598D02*
X333Y598D01*
X354Y598D02*
X360Y598D01*
X377Y598D02*
X383Y598D01*
X628Y598D02*
X643Y598D01*
X661Y598D02*
X668Y598D01*
X0Y597D02*
X7Y597D01*
X28Y597D02*
X43Y597D01*
X327Y597D02*
X333Y597D01*
X354Y597D02*
X360Y597D01*
X377Y597D02*
X383Y597D01*
X628Y597D02*
X643Y597D01*
X661Y597D02*
X668Y597D01*
X0Y596D02*
X7Y596D01*
X28Y596D02*
X43Y596D01*
X327Y596D02*
X333Y596D01*
X354Y596D02*
X360Y596D01*
X377Y596D02*
X383Y596D01*
X628Y596D02*
X643Y596D01*
X661Y596D02*
X668Y596D01*
X0Y595D02*
X7Y595D01*
X28Y595D02*
X43Y595D01*
X327Y595D02*
X333Y595D01*
X354Y595D02*
X360Y595D01*
X377Y595D02*
X383Y595D01*
X628Y595D02*
X643Y595D01*
X661Y595D02*
X668Y595D01*
X0Y594D02*
X7Y594D01*
X28Y594D02*
X43Y594D01*
X327Y594D02*
X333Y594D01*
X354Y594D02*
X360Y594D01*
X377Y594D02*
X383Y594D01*
X628Y594D02*
X643Y594D01*
X661Y594D02*
X668Y594D01*
X0Y593D02*
X7Y593D01*
X28Y593D02*
X43Y593D01*
X327Y593D02*
X333Y593D01*
X354Y593D02*
X360Y593D01*
X377Y593D02*
X383Y593D01*
X628Y593D02*
X643Y593D01*
X661Y593D02*
X668Y593D01*
X0Y592D02*
X7Y592D01*
X28Y592D02*
X43Y592D01*
X327Y592D02*
X333Y592D01*
X354Y592D02*
X360Y592D01*
X377Y592D02*
X383Y592D01*
X628Y592D02*
X643Y592D01*
X661Y592D02*
X668Y592D01*
X0Y591D02*
X7Y591D01*
X28Y591D02*
X43Y591D01*
X327Y591D02*
X333Y591D01*
X354Y591D02*
X360Y591D01*
X377Y591D02*
X383Y591D01*
X628Y591D02*
X643Y591D01*
X661Y591D02*
X668Y591D01*
X0Y590D02*
X7Y590D01*
X28Y590D02*
X43Y590D01*
X327Y590D02*
X333Y590D01*
X354Y590D02*
X360Y590D01*
X377Y590D02*
X383Y590D01*
X628Y590D02*
X643Y590D01*
X661Y590D02*
X668Y590D01*
X0Y589D02*
X7Y589D01*
X28Y589D02*
X43Y589D01*
X327Y589D02*
X334Y589D01*
X353Y589D02*
X360Y589D01*
X377Y589D02*
X383Y589D01*
X628Y589D02*
X643Y589D01*
X661Y589D02*
X668Y589D01*
X0Y588D02*
X7Y588D01*
X28Y588D02*
X43Y588D01*
X327Y588D02*
X335Y588D01*
X352Y588D02*
X360Y588D01*
X377Y588D02*
X383Y588D01*
X628Y588D02*
X643Y588D01*
X661Y588D02*
X668Y588D01*
X0Y587D02*
X7Y587D01*
X28Y587D02*
X43Y587D01*
X328Y587D02*
X359Y587D01*
X377Y587D02*
X409Y587D01*
X628Y587D02*
X643Y587D01*
X661Y587D02*
X668Y587D01*
X0Y586D02*
X7Y586D01*
X28Y586D02*
X43Y586D01*
X328Y586D02*
X359Y586D01*
X377Y586D02*
X410Y586D01*
X628Y586D02*
X643Y586D01*
X661Y586D02*
X668Y586D01*
X0Y585D02*
X7Y585D01*
X28Y585D02*
X43Y585D01*
X329Y585D02*
X358Y585D01*
X377Y585D02*
X410Y585D01*
X628Y585D02*
X643Y585D01*
X661Y585D02*
X668Y585D01*
X0Y584D02*
X7Y584D01*
X28Y584D02*
X43Y584D01*
X330Y584D02*
X357Y584D01*
X377Y584D02*
X411Y584D01*
X628Y584D02*
X643Y584D01*
X661Y584D02*
X668Y584D01*
X0Y583D02*
X7Y583D01*
X28Y583D02*
X43Y583D01*
X331Y583D02*
X356Y583D01*
X377Y583D02*
X410Y583D01*
X628Y583D02*
X643Y583D01*
X661Y583D02*
X668Y583D01*
X0Y582D02*
X7Y582D01*
X28Y582D02*
X43Y582D01*
X332Y582D02*
X355Y582D01*
X377Y582D02*
X410Y582D01*
X628Y582D02*
X643Y582D01*
X661Y582D02*
X668Y582D01*
X0Y581D02*
X7Y581D01*
X28Y581D02*
X478Y581D01*
X519Y581D02*
X643Y581D01*
X661Y581D02*
X668Y581D01*
X0Y580D02*
X7Y580D01*
X28Y580D02*
X478Y580D01*
X519Y580D02*
X643Y580D01*
X661Y580D02*
X668Y580D01*
X0Y579D02*
X7Y579D01*
X28Y579D02*
X479Y579D01*
X518Y579D02*
X643Y579D01*
X661Y579D02*
X668Y579D01*
X0Y578D02*
X7Y578D01*
X28Y578D02*
X480Y578D01*
X517Y578D02*
X643Y578D01*
X661Y578D02*
X668Y578D01*
X0Y577D02*
X7Y577D01*
X28Y577D02*
X481Y577D01*
X516Y577D02*
X643Y577D01*
X661Y577D02*
X668Y577D01*
X0Y576D02*
X7Y576D01*
X28Y576D02*
X482Y576D01*
X515Y576D02*
X643Y576D01*
X661Y576D02*
X668Y576D01*
X0Y575D02*
X7Y575D01*
X28Y575D02*
X483Y575D01*
X514Y575D02*
X643Y575D01*
X661Y575D02*
X668Y575D01*
X0Y574D02*
X7Y574D01*
X29Y574D02*
X484Y574D01*
X513Y574D02*
X643Y574D01*
X661Y574D02*
X668Y574D01*
X0Y573D02*
X7Y573D01*
X36Y573D02*
X486Y573D01*
X511Y573D02*
X635Y573D01*
X661Y573D02*
X668Y573D01*
X0Y572D02*
X7Y572D01*
X36Y572D02*
X487Y572D01*
X510Y572D02*
X635Y572D01*
X661Y572D02*
X668Y572D01*
X0Y571D02*
X7Y571D01*
X36Y571D02*
X489Y571D01*
X508Y571D02*
X635Y571D01*
X661Y571D02*
X668Y571D01*
X0Y570D02*
X7Y570D01*
X36Y570D02*
X492Y570D01*
X505Y570D02*
X635Y570D01*
X661Y570D02*
X668Y570D01*
X0Y569D02*
X7Y569D01*
X36Y569D02*
X496Y569D01*
X501Y569D02*
X635Y569D01*
X661Y569D02*
X668Y569D01*
X0Y568D02*
X7Y568D01*
X36Y568D02*
X635Y568D01*
X661Y568D02*
X668Y568D01*
X0Y567D02*
X7Y567D01*
X36Y567D02*
X635Y567D01*
X661Y567D02*
X668Y567D01*
X0Y566D02*
X7Y566D01*
X37Y566D02*
X635Y566D01*
X661Y566D02*
X668Y566D01*
X0Y565D02*
X7Y565D01*
X661Y565D02*
X668Y565D01*
X0Y564D02*
X7Y564D01*
X661Y564D02*
X668Y564D01*
X0Y563D02*
X7Y563D01*
X475Y563D02*
X476Y563D01*
X661Y563D02*
X668Y563D01*
X0Y562D02*
X7Y562D01*
X474Y562D02*
X477Y562D01*
X661Y562D02*
X668Y562D01*
X0Y561D02*
X7Y561D01*
X473Y561D02*
X478Y561D01*
X661Y561D02*
X668Y561D01*
X0Y560D02*
X7Y560D01*
X472Y560D02*
X478Y560D01*
X661Y560D02*
X668Y560D01*
X0Y559D02*
X7Y559D01*
X471Y559D02*
X477Y559D01*
X661Y559D02*
X668Y559D01*
X0Y558D02*
X7Y558D01*
X105Y558D02*
X163Y558D01*
X470Y558D02*
X476Y558D01*
X661Y558D02*
X668Y558D01*
X0Y557D02*
X7Y557D01*
X105Y557D02*
X163Y557D01*
X469Y557D02*
X475Y557D01*
X661Y557D02*
X668Y557D01*
X0Y556D02*
X7Y556D01*
X105Y556D02*
X163Y556D01*
X661Y556D02*
X668Y556D01*
X0Y555D02*
X7Y555D01*
X105Y555D02*
X107Y555D01*
X161Y555D02*
X163Y555D01*
X661Y555D02*
X668Y555D01*
X0Y554D02*
X7Y554D01*
X105Y554D02*
X107Y554D01*
X161Y554D02*
X163Y554D01*
X661Y554D02*
X668Y554D01*
X0Y553D02*
X7Y553D01*
X105Y553D02*
X107Y553D01*
X161Y553D02*
X163Y553D01*
X661Y553D02*
X668Y553D01*
X0Y552D02*
X7Y552D01*
X105Y552D02*
X107Y552D01*
X161Y552D02*
X163Y552D01*
X661Y552D02*
X668Y552D01*
X0Y551D02*
X7Y551D01*
X105Y551D02*
X107Y551D01*
X161Y551D02*
X163Y551D01*
X661Y551D02*
X668Y551D01*
X0Y550D02*
X7Y550D01*
X105Y550D02*
X107Y550D01*
X161Y550D02*
X163Y550D01*
X661Y550D02*
X668Y550D01*
X0Y549D02*
X7Y549D01*
X105Y549D02*
X107Y549D01*
X161Y549D02*
X163Y549D01*
X661Y549D02*
X668Y549D01*
X0Y548D02*
X7Y548D01*
X105Y548D02*
X107Y548D01*
X161Y548D02*
X163Y548D01*
X661Y548D02*
X668Y548D01*
X0Y547D02*
X7Y547D01*
X105Y547D02*
X107Y547D01*
X161Y547D02*
X163Y547D01*
X661Y547D02*
X668Y547D01*
X0Y546D02*
X7Y546D01*
X105Y546D02*
X107Y546D01*
X161Y546D02*
X163Y546D01*
X661Y546D02*
X668Y546D01*
X0Y545D02*
X7Y545D01*
X105Y545D02*
X107Y545D01*
X161Y545D02*
X163Y545D01*
X661Y545D02*
X668Y545D01*
X0Y544D02*
X7Y544D01*
X105Y544D02*
X107Y544D01*
X161Y544D02*
X163Y544D01*
X661Y544D02*
X668Y544D01*
X0Y543D02*
X7Y543D01*
X105Y543D02*
X107Y543D01*
X161Y543D02*
X163Y543D01*
X661Y543D02*
X668Y543D01*
X0Y542D02*
X7Y542D01*
X105Y542D02*
X107Y542D01*
X161Y542D02*
X163Y542D01*
X661Y542D02*
X668Y542D01*
X0Y541D02*
X7Y541D01*
X105Y541D02*
X107Y541D01*
X161Y541D02*
X163Y541D01*
X661Y541D02*
X668Y541D01*
X0Y540D02*
X7Y540D01*
X105Y540D02*
X107Y540D01*
X161Y540D02*
X163Y540D01*
X661Y540D02*
X668Y540D01*
X0Y539D02*
X7Y539D01*
X105Y539D02*
X107Y539D01*
X161Y539D02*
X163Y539D01*
X661Y539D02*
X668Y539D01*
X0Y538D02*
X7Y538D01*
X105Y538D02*
X107Y538D01*
X161Y538D02*
X163Y538D01*
X661Y538D02*
X668Y538D01*
X0Y537D02*
X7Y537D01*
X105Y537D02*
X107Y537D01*
X161Y537D02*
X163Y537D01*
X661Y537D02*
X668Y537D01*
X0Y536D02*
X7Y536D01*
X105Y536D02*
X107Y536D01*
X161Y536D02*
X163Y536D01*
X448Y536D02*
X448Y536D01*
X0Y535D02*
X7Y535D01*
X105Y535D02*
X107Y535D01*
X161Y535D02*
X163Y535D01*
X447Y535D02*
X448Y535D01*
X0Y534D02*
X7Y534D01*
X105Y534D02*
X107Y534D01*
X161Y534D02*
X163Y534D01*
X446Y534D02*
X448Y534D01*
X0Y533D02*
X7Y533D01*
X105Y533D02*
X107Y533D01*
X161Y533D02*
X163Y533D01*
X445Y533D02*
X448Y533D01*
X0Y532D02*
X7Y532D01*
X105Y532D02*
X107Y532D01*
X161Y532D02*
X163Y532D01*
X444Y532D02*
X448Y532D01*
X0Y531D02*
X7Y531D01*
X105Y531D02*
X107Y531D01*
X161Y531D02*
X163Y531D01*
X443Y531D02*
X448Y531D01*
X0Y530D02*
X7Y530D01*
X105Y530D02*
X107Y530D01*
X161Y530D02*
X163Y530D01*
X442Y530D02*
X448Y530D01*
X0Y529D02*
X7Y529D01*
X105Y529D02*
X107Y529D01*
X161Y529D02*
X163Y529D01*
X441Y529D02*
X447Y529D01*
X0Y528D02*
X7Y528D01*
X105Y528D02*
X107Y528D01*
X161Y528D02*
X163Y528D01*
X442Y528D02*
X446Y528D01*
X661Y528D02*
X668Y528D01*
X0Y527D02*
X7Y527D01*
X105Y527D02*
X107Y527D01*
X161Y527D02*
X163Y527D01*
X443Y527D02*
X445Y527D01*
X661Y527D02*
X668Y527D01*
X0Y526D02*
X7Y526D01*
X105Y526D02*
X107Y526D01*
X161Y526D02*
X163Y526D01*
X444Y526D02*
X444Y526D01*
X661Y526D02*
X668Y526D01*
X0Y525D02*
X7Y525D01*
X105Y525D02*
X107Y525D01*
X161Y525D02*
X163Y525D01*
X661Y525D02*
X668Y525D01*
X0Y524D02*
X7Y524D01*
X105Y524D02*
X107Y524D01*
X161Y524D02*
X163Y524D01*
X661Y524D02*
X668Y524D01*
X0Y523D02*
X7Y523D01*
X105Y523D02*
X107Y523D01*
X161Y523D02*
X163Y523D01*
X661Y523D02*
X668Y523D01*
X0Y522D02*
X7Y522D01*
X105Y522D02*
X107Y522D01*
X161Y522D02*
X163Y522D01*
X661Y522D02*
X668Y522D01*
X0Y521D02*
X7Y521D01*
X105Y521D02*
X107Y521D01*
X161Y521D02*
X163Y521D01*
X661Y521D02*
X668Y521D01*
X0Y520D02*
X7Y520D01*
X105Y520D02*
X107Y520D01*
X161Y520D02*
X163Y520D01*
X661Y520D02*
X668Y520D01*
X0Y519D02*
X7Y519D01*
X105Y519D02*
X107Y519D01*
X161Y519D02*
X163Y519D01*
X661Y519D02*
X668Y519D01*
X0Y518D02*
X7Y518D01*
X105Y518D02*
X107Y518D01*
X161Y518D02*
X163Y518D01*
X661Y518D02*
X668Y518D01*
X0Y517D02*
X7Y517D01*
X105Y517D02*
X107Y517D01*
X161Y517D02*
X163Y517D01*
X661Y517D02*
X668Y517D01*
X0Y516D02*
X7Y516D01*
X105Y516D02*
X107Y516D01*
X161Y516D02*
X163Y516D01*
X661Y516D02*
X668Y516D01*
X0Y515D02*
X7Y515D01*
X105Y515D02*
X107Y515D01*
X161Y515D02*
X163Y515D01*
X661Y515D02*
X668Y515D01*
X0Y514D02*
X7Y514D01*
X105Y514D02*
X107Y514D01*
X161Y514D02*
X163Y514D01*
X661Y514D02*
X668Y514D01*
X0Y513D02*
X7Y513D01*
X105Y513D02*
X107Y513D01*
X161Y513D02*
X163Y513D01*
X661Y513D02*
X668Y513D01*
X0Y512D02*
X7Y512D01*
X105Y512D02*
X107Y512D01*
X161Y512D02*
X163Y512D01*
X661Y512D02*
X668Y512D01*
X0Y511D02*
X7Y511D01*
X105Y511D02*
X107Y511D01*
X161Y511D02*
X163Y511D01*
X0Y510D02*
X7Y510D01*
X105Y510D02*
X107Y510D01*
X161Y510D02*
X163Y510D01*
X0Y509D02*
X7Y509D01*
X105Y509D02*
X107Y509D01*
X161Y509D02*
X163Y509D01*
X0Y508D02*
X7Y508D01*
X105Y508D02*
X107Y508D01*
X161Y508D02*
X163Y508D01*
X0Y507D02*
X7Y507D01*
X105Y507D02*
X107Y507D01*
X161Y507D02*
X163Y507D01*
X0Y506D02*
X7Y506D01*
X105Y506D02*
X107Y506D01*
X161Y506D02*
X163Y506D01*
X0Y505D02*
X7Y505D01*
X105Y505D02*
X107Y505D01*
X161Y505D02*
X163Y505D01*
X0Y504D02*
X7Y504D01*
X105Y504D02*
X107Y504D01*
X161Y504D02*
X163Y504D01*
X0Y503D02*
X7Y503D01*
X105Y503D02*
X107Y503D01*
X161Y503D02*
X163Y503D01*
X661Y503D02*
X668Y503D01*
X0Y502D02*
X7Y502D01*
X105Y502D02*
X107Y502D01*
X161Y502D02*
X163Y502D01*
X661Y502D02*
X668Y502D01*
X0Y501D02*
X7Y501D01*
X105Y501D02*
X107Y501D01*
X161Y501D02*
X163Y501D01*
X661Y501D02*
X668Y501D01*
X0Y500D02*
X7Y500D01*
X105Y500D02*
X107Y500D01*
X161Y500D02*
X163Y500D01*
X661Y500D02*
X668Y500D01*
X0Y499D02*
X7Y499D01*
X105Y499D02*
X107Y499D01*
X161Y499D02*
X163Y499D01*
X661Y499D02*
X668Y499D01*
X0Y498D02*
X7Y498D01*
X105Y498D02*
X108Y498D01*
X160Y498D02*
X163Y498D01*
X661Y498D02*
X668Y498D01*
X0Y497D02*
X7Y497D01*
X105Y497D02*
X108Y497D01*
X160Y497D02*
X163Y497D01*
X661Y497D02*
X668Y497D01*
X0Y496D02*
X7Y496D01*
X105Y496D02*
X108Y496D01*
X160Y496D02*
X163Y496D01*
X661Y496D02*
X668Y496D01*
X0Y495D02*
X7Y495D01*
X105Y495D02*
X108Y495D01*
X160Y495D02*
X163Y495D01*
X661Y495D02*
X668Y495D01*
X0Y494D02*
X7Y494D01*
X105Y494D02*
X108Y494D01*
X160Y494D02*
X163Y494D01*
X661Y494D02*
X668Y494D01*
X0Y493D02*
X7Y493D01*
X105Y493D02*
X108Y493D01*
X160Y493D02*
X163Y493D01*
X661Y493D02*
X668Y493D01*
X0Y492D02*
X7Y492D01*
X105Y492D02*
X108Y492D01*
X160Y492D02*
X163Y492D01*
X661Y492D02*
X668Y492D01*
X0Y491D02*
X7Y491D01*
X105Y491D02*
X108Y491D01*
X160Y491D02*
X163Y491D01*
X661Y491D02*
X668Y491D01*
X0Y490D02*
X7Y490D01*
X105Y490D02*
X108Y490D01*
X160Y490D02*
X163Y490D01*
X661Y490D02*
X668Y490D01*
X0Y489D02*
X7Y489D01*
X105Y489D02*
X108Y489D01*
X160Y489D02*
X163Y489D01*
X661Y489D02*
X668Y489D01*
X0Y488D02*
X7Y488D01*
X105Y488D02*
X107Y488D01*
X161Y488D02*
X163Y488D01*
X661Y488D02*
X668Y488D01*
X0Y487D02*
X7Y487D01*
X105Y487D02*
X107Y487D01*
X161Y487D02*
X163Y487D01*
X661Y487D02*
X668Y487D01*
X0Y486D02*
X7Y486D01*
X105Y486D02*
X107Y486D01*
X161Y486D02*
X163Y486D01*
X661Y486D02*
X668Y486D01*
X0Y485D02*
X7Y485D01*
X105Y485D02*
X107Y485D01*
X161Y485D02*
X163Y485D01*
X0Y484D02*
X7Y484D01*
X105Y484D02*
X107Y484D01*
X161Y484D02*
X163Y484D01*
X0Y483D02*
X7Y483D01*
X105Y483D02*
X107Y483D01*
X161Y483D02*
X163Y483D01*
X0Y482D02*
X7Y482D01*
X105Y482D02*
X107Y482D01*
X161Y482D02*
X163Y482D01*
X0Y481D02*
X7Y481D01*
X105Y481D02*
X107Y481D01*
X161Y481D02*
X163Y481D01*
X0Y480D02*
X7Y480D01*
X105Y480D02*
X107Y480D01*
X161Y480D02*
X163Y480D01*
X0Y479D02*
X7Y479D01*
X105Y479D02*
X107Y479D01*
X161Y479D02*
X163Y479D01*
X0Y478D02*
X7Y478D01*
X105Y478D02*
X107Y478D01*
X161Y478D02*
X163Y478D01*
X661Y478D02*
X668Y478D01*
X0Y477D02*
X7Y477D01*
X105Y477D02*
X107Y477D01*
X161Y477D02*
X163Y477D01*
X661Y477D02*
X668Y477D01*
X0Y476D02*
X7Y476D01*
X105Y476D02*
X107Y476D01*
X161Y476D02*
X163Y476D01*
X661Y476D02*
X668Y476D01*
X0Y475D02*
X7Y475D01*
X105Y475D02*
X107Y475D01*
X161Y475D02*
X163Y475D01*
X661Y475D02*
X668Y475D01*
X0Y474D02*
X7Y474D01*
X105Y474D02*
X107Y474D01*
X161Y474D02*
X163Y474D01*
X661Y474D02*
X668Y474D01*
X0Y473D02*
X7Y473D01*
X105Y473D02*
X107Y473D01*
X161Y473D02*
X163Y473D01*
X661Y473D02*
X668Y473D01*
X0Y472D02*
X7Y472D01*
X105Y472D02*
X107Y472D01*
X161Y472D02*
X163Y472D01*
X661Y472D02*
X668Y472D01*
X0Y471D02*
X7Y471D01*
X105Y471D02*
X107Y471D01*
X161Y471D02*
X163Y471D01*
X661Y471D02*
X668Y471D01*
X0Y470D02*
X7Y470D01*
X105Y470D02*
X107Y470D01*
X161Y470D02*
X163Y470D01*
X661Y470D02*
X668Y470D01*
X0Y469D02*
X7Y469D01*
X105Y469D02*
X107Y469D01*
X161Y469D02*
X163Y469D01*
X661Y469D02*
X668Y469D01*
X0Y468D02*
X7Y468D01*
X105Y468D02*
X107Y468D01*
X161Y468D02*
X163Y468D01*
X661Y468D02*
X668Y468D01*
X0Y467D02*
X7Y467D01*
X105Y467D02*
X107Y467D01*
X161Y467D02*
X163Y467D01*
X661Y467D02*
X668Y467D01*
X0Y466D02*
X7Y466D01*
X105Y466D02*
X107Y466D01*
X161Y466D02*
X163Y466D01*
X661Y466D02*
X668Y466D01*
X0Y465D02*
X7Y465D01*
X105Y465D02*
X107Y465D01*
X161Y465D02*
X163Y465D01*
X661Y465D02*
X668Y465D01*
X0Y464D02*
X7Y464D01*
X105Y464D02*
X107Y464D01*
X161Y464D02*
X163Y464D01*
X661Y464D02*
X668Y464D01*
X0Y463D02*
X7Y463D01*
X105Y463D02*
X107Y463D01*
X161Y463D02*
X163Y463D01*
X661Y463D02*
X668Y463D01*
X0Y462D02*
X7Y462D01*
X105Y462D02*
X107Y462D01*
X161Y462D02*
X163Y462D01*
X661Y462D02*
X668Y462D01*
X0Y461D02*
X7Y461D01*
X105Y461D02*
X107Y461D01*
X161Y461D02*
X163Y461D01*
X661Y461D02*
X668Y461D01*
X0Y460D02*
X7Y460D01*
X105Y460D02*
X107Y460D01*
X161Y460D02*
X163Y460D01*
X661Y460D02*
X668Y460D01*
X0Y459D02*
X7Y459D01*
X105Y459D02*
X107Y459D01*
X161Y459D02*
X163Y459D01*
X661Y459D02*
X668Y459D01*
X0Y458D02*
X7Y458D01*
X105Y458D02*
X107Y458D01*
X161Y458D02*
X163Y458D01*
X661Y458D02*
X668Y458D01*
X0Y457D02*
X7Y457D01*
X105Y457D02*
X107Y457D01*
X161Y457D02*
X163Y457D01*
X661Y457D02*
X668Y457D01*
X0Y456D02*
X7Y456D01*
X105Y456D02*
X107Y456D01*
X161Y456D02*
X163Y456D01*
X661Y456D02*
X668Y456D01*
X0Y455D02*
X7Y455D01*
X105Y455D02*
X107Y455D01*
X161Y455D02*
X163Y455D01*
X661Y455D02*
X668Y455D01*
X0Y454D02*
X7Y454D01*
X105Y454D02*
X107Y454D01*
X161Y454D02*
X163Y454D01*
X661Y454D02*
X668Y454D01*
X0Y453D02*
X7Y453D01*
X105Y453D02*
X107Y453D01*
X161Y453D02*
X163Y453D01*
X661Y453D02*
X668Y453D01*
X0Y452D02*
X7Y452D01*
X105Y452D02*
X107Y452D01*
X161Y452D02*
X163Y452D01*
X661Y452D02*
X668Y452D01*
X0Y451D02*
X7Y451D01*
X105Y451D02*
X107Y451D01*
X161Y451D02*
X163Y451D01*
X661Y451D02*
X668Y451D01*
X0Y450D02*
X7Y450D01*
X105Y450D02*
X107Y450D01*
X161Y450D02*
X163Y450D01*
X661Y450D02*
X668Y450D01*
X0Y449D02*
X7Y449D01*
X105Y449D02*
X107Y449D01*
X161Y449D02*
X163Y449D01*
X661Y449D02*
X668Y449D01*
X0Y448D02*
X7Y448D01*
X105Y448D02*
X107Y448D01*
X161Y448D02*
X163Y448D01*
X661Y448D02*
X668Y448D01*
X0Y447D02*
X7Y447D01*
X105Y447D02*
X107Y447D01*
X161Y447D02*
X163Y447D01*
X661Y447D02*
X668Y447D01*
X0Y446D02*
X7Y446D01*
X105Y446D02*
X107Y446D01*
X161Y446D02*
X163Y446D01*
X661Y446D02*
X668Y446D01*
X0Y445D02*
X7Y445D01*
X105Y445D02*
X107Y445D01*
X161Y445D02*
X163Y445D01*
X661Y445D02*
X668Y445D01*
X0Y444D02*
X7Y444D01*
X105Y444D02*
X107Y444D01*
X161Y444D02*
X163Y444D01*
X661Y444D02*
X668Y444D01*
X0Y443D02*
X7Y443D01*
X105Y443D02*
X107Y443D01*
X161Y443D02*
X163Y443D01*
X661Y443D02*
X668Y443D01*
X0Y442D02*
X7Y442D01*
X105Y442D02*
X107Y442D01*
X161Y442D02*
X163Y442D01*
X661Y442D02*
X668Y442D01*
X0Y441D02*
X7Y441D01*
X105Y441D02*
X107Y441D01*
X161Y441D02*
X163Y441D01*
X661Y441D02*
X668Y441D01*
X0Y440D02*
X7Y440D01*
X105Y440D02*
X107Y440D01*
X161Y440D02*
X163Y440D01*
X661Y440D02*
X668Y440D01*
X0Y439D02*
X7Y439D01*
X105Y439D02*
X107Y439D01*
X161Y439D02*
X163Y439D01*
X458Y439D02*
X458Y439D01*
X661Y439D02*
X668Y439D01*
X0Y438D02*
X7Y438D01*
X105Y438D02*
X107Y438D01*
X161Y438D02*
X163Y438D01*
X456Y438D02*
X457Y438D01*
X661Y438D02*
X668Y438D01*
X0Y437D02*
X9Y437D01*
X28Y437D02*
X32Y437D01*
X56Y437D02*
X59Y437D01*
X105Y437D02*
X107Y437D01*
X161Y437D02*
X163Y437D01*
X455Y437D02*
X457Y437D01*
X661Y437D02*
X668Y437D01*
X0Y436D02*
X10Y436D01*
X27Y436D02*
X33Y436D01*
X55Y436D02*
X60Y436D01*
X105Y436D02*
X107Y436D01*
X161Y436D02*
X163Y436D01*
X455Y436D02*
X456Y436D01*
X661Y436D02*
X668Y436D01*
X0Y435D02*
X10Y435D01*
X27Y435D02*
X33Y435D01*
X55Y435D02*
X61Y435D01*
X105Y435D02*
X107Y435D01*
X161Y435D02*
X163Y435D01*
X455Y435D02*
X455Y435D01*
X661Y435D02*
X668Y435D01*
X0Y434D02*
X10Y434D01*
X27Y434D02*
X34Y434D01*
X55Y434D02*
X61Y434D01*
X105Y434D02*
X107Y434D01*
X161Y434D02*
X163Y434D01*
X0Y433D02*
X10Y433D01*
X27Y433D02*
X34Y433D01*
X55Y433D02*
X61Y433D01*
X105Y433D02*
X107Y433D01*
X161Y433D02*
X163Y433D01*
X0Y432D02*
X9Y432D01*
X28Y432D02*
X35Y432D01*
X55Y432D02*
X61Y432D01*
X105Y432D02*
X107Y432D01*
X161Y432D02*
X163Y432D01*
X0Y431D02*
X7Y431D01*
X28Y431D02*
X36Y431D01*
X55Y431D02*
X61Y431D01*
X105Y431D02*
X163Y431D01*
X0Y430D02*
X7Y430D01*
X29Y430D02*
X36Y430D01*
X55Y430D02*
X61Y430D01*
X105Y430D02*
X163Y430D01*
X0Y429D02*
X7Y429D01*
X30Y429D02*
X37Y429D01*
X55Y429D02*
X61Y429D01*
X105Y429D02*
X163Y429D01*
X0Y428D02*
X7Y428D01*
X30Y428D02*
X37Y428D01*
X55Y428D02*
X61Y428D01*
X0Y427D02*
X7Y427D01*
X31Y427D02*
X38Y427D01*
X55Y427D02*
X61Y427D01*
X0Y426D02*
X7Y426D01*
X31Y426D02*
X39Y426D01*
X55Y426D02*
X61Y426D01*
X0Y425D02*
X7Y425D01*
X32Y425D02*
X39Y425D01*
X55Y425D02*
X61Y425D01*
X425Y425D02*
X450Y425D01*
X661Y425D02*
X669Y425D01*
X0Y424D02*
X7Y424D01*
X33Y424D02*
X40Y424D01*
X55Y424D02*
X61Y424D01*
X425Y424D02*
X450Y424D01*
X661Y424D02*
X668Y424D01*
X0Y423D02*
X7Y423D01*
X33Y423D02*
X40Y423D01*
X55Y423D02*
X61Y423D01*
X425Y423D02*
X449Y423D01*
X661Y423D02*
X668Y423D01*
X0Y422D02*
X7Y422D01*
X34Y422D02*
X41Y422D01*
X55Y422D02*
X61Y422D01*
X425Y422D02*
X449Y422D01*
X661Y422D02*
X668Y422D01*
X0Y421D02*
X7Y421D01*
X34Y421D02*
X42Y421D01*
X55Y421D02*
X61Y421D01*
X425Y421D02*
X449Y421D01*
X661Y421D02*
X668Y421D01*
X0Y420D02*
X7Y420D01*
X35Y420D02*
X42Y420D01*
X55Y420D02*
X61Y420D01*
X425Y420D02*
X449Y420D01*
X661Y420D02*
X668Y420D01*
X0Y419D02*
X7Y419D01*
X35Y419D02*
X43Y419D01*
X55Y419D02*
X61Y419D01*
X425Y419D02*
X448Y419D01*
X661Y419D02*
X668Y419D01*
X0Y418D02*
X7Y418D01*
X36Y418D02*
X43Y418D01*
X55Y418D02*
X61Y418D01*
X425Y418D02*
X431Y418D01*
X661Y418D02*
X668Y418D01*
X0Y417D02*
X7Y417D01*
X37Y417D02*
X44Y417D01*
X55Y417D02*
X61Y417D01*
X425Y417D02*
X431Y417D01*
X661Y417D02*
X668Y417D01*
X0Y416D02*
X7Y416D01*
X37Y416D02*
X44Y416D01*
X55Y416D02*
X61Y416D01*
X425Y416D02*
X431Y416D01*
X661Y416D02*
X668Y416D01*
X0Y415D02*
X7Y415D01*
X38Y415D02*
X45Y415D01*
X55Y415D02*
X61Y415D01*
X425Y415D02*
X431Y415D01*
X661Y415D02*
X669Y415D01*
X0Y414D02*
X7Y414D01*
X38Y414D02*
X46Y414D01*
X55Y414D02*
X61Y414D01*
X425Y414D02*
X431Y414D01*
X0Y413D02*
X7Y413D01*
X39Y413D02*
X46Y413D01*
X55Y413D02*
X61Y413D01*
X425Y413D02*
X431Y413D01*
X0Y412D02*
X7Y412D01*
X40Y412D02*
X47Y412D01*
X55Y412D02*
X61Y412D01*
X425Y412D02*
X431Y412D01*
X0Y411D02*
X7Y411D01*
X40Y411D02*
X47Y411D01*
X55Y411D02*
X61Y411D01*
X425Y411D02*
X431Y411D01*
X0Y410D02*
X7Y410D01*
X41Y410D02*
X48Y410D01*
X55Y410D02*
X61Y410D01*
X425Y410D02*
X431Y410D01*
X0Y409D02*
X7Y409D01*
X41Y409D02*
X49Y409D01*
X55Y409D02*
X61Y409D01*
X425Y409D02*
X431Y409D01*
X0Y408D02*
X7Y408D01*
X34Y408D02*
X61Y408D01*
X425Y408D02*
X431Y408D01*
X0Y407D02*
X7Y407D01*
X32Y407D02*
X61Y407D01*
X425Y407D02*
X431Y407D01*
X0Y406D02*
X7Y406D01*
X31Y406D02*
X61Y406D01*
X426Y406D02*
X431Y406D01*
X0Y405D02*
X7Y405D01*
X30Y405D02*
X61Y405D01*
X427Y405D02*
X430Y405D01*
X0Y404D02*
X7Y404D01*
X29Y404D02*
X61Y404D01*
X0Y403D02*
X7Y403D01*
X28Y403D02*
X61Y403D01*
X0Y402D02*
X7Y402D01*
X28Y402D02*
X61Y402D01*
X0Y401D02*
X7Y401D01*
X27Y401D02*
X35Y401D01*
X55Y401D02*
X61Y401D01*
X661Y401D02*
X668Y401D01*
X0Y400D02*
X7Y400D01*
X27Y400D02*
X34Y400D01*
X55Y400D02*
X61Y400D01*
X661Y400D02*
X668Y400D01*
X0Y399D02*
X7Y399D01*
X27Y399D02*
X33Y399D01*
X55Y399D02*
X61Y399D01*
X661Y399D02*
X668Y399D01*
X0Y398D02*
X7Y398D01*
X27Y398D02*
X33Y398D01*
X55Y398D02*
X61Y398D01*
X661Y398D02*
X668Y398D01*
X0Y397D02*
X7Y397D01*
X27Y397D02*
X33Y397D01*
X55Y397D02*
X61Y397D01*
X661Y397D02*
X668Y397D01*
X0Y396D02*
X7Y396D01*
X27Y396D02*
X33Y396D01*
X55Y396D02*
X61Y396D01*
X661Y396D02*
X668Y396D01*
X0Y395D02*
X7Y395D01*
X27Y395D02*
X33Y395D01*
X55Y395D02*
X61Y395D01*
X661Y395D02*
X668Y395D01*
X0Y394D02*
X7Y394D01*
X27Y394D02*
X33Y394D01*
X55Y394D02*
X61Y394D01*
X661Y394D02*
X668Y394D01*
X0Y393D02*
X7Y393D01*
X27Y393D02*
X33Y393D01*
X55Y393D02*
X61Y393D01*
X661Y393D02*
X668Y393D01*
X0Y392D02*
X7Y392D01*
X27Y392D02*
X34Y392D01*
X55Y392D02*
X61Y392D01*
X661Y392D02*
X668Y392D01*
X0Y391D02*
X7Y391D01*
X28Y391D02*
X36Y391D01*
X54Y391D02*
X61Y391D01*
X661Y391D02*
X668Y391D01*
X0Y390D02*
X9Y390D01*
X28Y390D02*
X61Y390D01*
X661Y390D02*
X668Y390D01*
X0Y389D02*
X10Y389D01*
X29Y389D02*
X61Y389D01*
X661Y389D02*
X668Y389D01*
X0Y388D02*
X10Y388D01*
X29Y388D02*
X61Y388D01*
X430Y388D02*
X456Y388D01*
X661Y388D02*
X668Y388D01*
X0Y387D02*
X10Y387D01*
X30Y387D02*
X61Y387D01*
X429Y387D02*
X457Y387D01*
X661Y387D02*
X668Y387D01*
X0Y386D02*
X10Y386D01*
X31Y386D02*
X61Y386D01*
X428Y386D02*
X458Y386D01*
X661Y386D02*
X668Y386D01*
X0Y385D02*
X9Y385D01*
X33Y385D02*
X61Y385D01*
X427Y385D02*
X459Y385D01*
X661Y385D02*
X668Y385D01*
X0Y384D02*
X8Y384D01*
X36Y384D02*
X60Y384D01*
X426Y384D02*
X459Y384D01*
X0Y383D02*
X7Y383D01*
X426Y383D02*
X460Y383D01*
X0Y382D02*
X7Y382D01*
X425Y382D02*
X461Y382D01*
X0Y381D02*
X7Y381D01*
X425Y381D02*
X432Y381D01*
X457Y381D02*
X462Y381D01*
X0Y380D02*
X7Y380D01*
X425Y380D02*
X431Y380D01*
X458Y380D02*
X463Y380D01*
X0Y379D02*
X7Y379D01*
X425Y379D02*
X432Y379D01*
X459Y379D02*
X465Y379D01*
X0Y378D02*
X7Y378D01*
X426Y378D02*
X433Y378D01*
X460Y378D02*
X466Y378D01*
X0Y377D02*
X7Y377D01*
X426Y377D02*
X434Y377D01*
X461Y377D02*
X467Y377D01*
X661Y377D02*
X669Y377D01*
X0Y376D02*
X7Y376D01*
X202Y376D02*
X233Y376D01*
X252Y376D02*
X283Y376D01*
X426Y376D02*
X435Y376D01*
X460Y376D02*
X469Y376D01*
X661Y376D02*
X668Y376D01*
X0Y375D02*
X7Y375D01*
X201Y375D02*
X234Y375D01*
X251Y375D02*
X284Y375D01*
X427Y375D02*
X435Y375D01*
X457Y375D02*
X470Y375D01*
X661Y375D02*
X668Y375D01*
X0Y374D02*
X7Y374D01*
X201Y374D02*
X234Y374D01*
X251Y374D02*
X284Y374D01*
X428Y374D02*
X436Y374D01*
X456Y374D02*
X472Y374D01*
X661Y374D02*
X668Y374D01*
X0Y373D02*
X7Y373D01*
X201Y373D02*
X234Y373D01*
X251Y373D02*
X285Y373D01*
X429Y373D02*
X437Y373D01*
X455Y373D02*
X472Y373D01*
X661Y373D02*
X668Y373D01*
X0Y372D02*
X7Y372D01*
X201Y372D02*
X234Y372D01*
X251Y372D02*
X284Y372D01*
X430Y372D02*
X438Y372D01*
X455Y372D02*
X473Y372D01*
X661Y372D02*
X668Y372D01*
X0Y371D02*
X7Y371D01*
X201Y371D02*
X234Y371D01*
X252Y371D02*
X284Y371D01*
X431Y371D02*
X439Y371D01*
X455Y371D02*
X474Y371D01*
X661Y371D02*
X668Y371D01*
X0Y370D02*
X7Y370D01*
X201Y370D02*
X232Y370D01*
X253Y370D02*
X282Y370D01*
X431Y370D02*
X440Y370D01*
X455Y370D02*
X463Y370D01*
X467Y370D02*
X475Y370D01*
X661Y370D02*
X668Y370D01*
X0Y369D02*
X7Y369D01*
X201Y369D02*
X207Y369D01*
X215Y369D02*
X221Y369D01*
X265Y369D02*
X271Y369D01*
X432Y369D02*
X440Y369D01*
X456Y369D02*
X460Y369D01*
X468Y369D02*
X476Y369D01*
X661Y369D02*
X668Y369D01*
X0Y368D02*
X7Y368D01*
X201Y368D02*
X207Y368D01*
X215Y368D02*
X221Y368D01*
X265Y368D02*
X271Y368D01*
X433Y368D02*
X441Y368D01*
X468Y368D02*
X477Y368D01*
X661Y368D02*
X669Y368D01*
X0Y367D02*
X7Y367D01*
X201Y367D02*
X207Y367D01*
X215Y367D02*
X221Y367D01*
X265Y367D02*
X271Y367D01*
X434Y367D02*
X442Y367D01*
X469Y367D02*
X477Y367D01*
X661Y367D02*
X669Y367D01*
X0Y366D02*
X7Y366D01*
X201Y366D02*
X207Y366D01*
X215Y366D02*
X221Y366D01*
X265Y366D02*
X271Y366D01*
X435Y366D02*
X443Y366D01*
X470Y366D02*
X478Y366D01*
X0Y365D02*
X7Y365D01*
X201Y365D02*
X207Y365D01*
X215Y365D02*
X221Y365D01*
X265Y365D02*
X271Y365D01*
X436Y365D02*
X444Y365D01*
X471Y365D02*
X478Y365D01*
X0Y364D02*
X7Y364D01*
X201Y364D02*
X207Y364D01*
X215Y364D02*
X221Y364D01*
X265Y364D02*
X271Y364D01*
X437Y364D02*
X445Y364D01*
X472Y364D02*
X478Y364D01*
X0Y363D02*
X7Y363D01*
X133Y363D02*
X261Y363D01*
X265Y363D02*
X271Y363D01*
X279Y363D02*
X297Y363D01*
X437Y363D02*
X446Y363D01*
X472Y363D02*
X478Y363D01*
X0Y362D02*
X7Y362D01*
X133Y362D02*
X261Y362D01*
X265Y362D02*
X271Y362D01*
X278Y362D02*
X297Y362D01*
X438Y362D02*
X447Y362D01*
X472Y362D02*
X478Y362D01*
X0Y361D02*
X7Y361D01*
X133Y361D02*
X261Y361D01*
X265Y361D02*
X271Y361D01*
X278Y361D02*
X297Y361D01*
X439Y361D02*
X478Y361D01*
X0Y360D02*
X7Y360D01*
X133Y360D02*
X135Y360D01*
X192Y360D02*
X202Y360D01*
X259Y360D02*
X261Y360D01*
X265Y360D02*
X271Y360D01*
X278Y360D02*
X297Y360D01*
X440Y360D02*
X478Y360D01*
X0Y359D02*
X7Y359D01*
X133Y359D02*
X134Y359D01*
X201Y359D02*
X201Y359D01*
X260Y359D02*
X261Y359D01*
X265Y359D02*
X271Y359D01*
X278Y359D02*
X297Y359D01*
X441Y359D02*
X478Y359D01*
X0Y358D02*
X7Y358D01*
X133Y358D02*
X134Y358D01*
X201Y358D02*
X201Y358D01*
X260Y358D02*
X261Y358D01*
X265Y358D02*
X271Y358D01*
X278Y358D02*
X297Y358D01*
X442Y358D02*
X477Y358D01*
X0Y357D02*
X7Y357D01*
X133Y357D02*
X134Y357D01*
X201Y357D02*
X201Y357D01*
X260Y357D02*
X261Y357D01*
X265Y357D02*
X271Y357D01*
X279Y357D02*
X297Y357D01*
X443Y357D02*
X476Y357D01*
X0Y356D02*
X7Y356D01*
X133Y356D02*
X134Y356D01*
X201Y356D02*
X201Y356D01*
X260Y356D02*
X261Y356D01*
X265Y356D02*
X271Y356D01*
X291Y356D02*
X297Y356D01*
X444Y356D02*
X475Y356D01*
X0Y355D02*
X7Y355D01*
X133Y355D02*
X134Y355D01*
X201Y355D02*
X201Y355D01*
X260Y355D02*
X261Y355D01*
X265Y355D02*
X271Y355D01*
X291Y355D02*
X297Y355D01*
X447Y355D02*
X473Y355D01*
X0Y354D02*
X7Y354D01*
X133Y354D02*
X134Y354D01*
X201Y354D02*
X201Y354D01*
X260Y354D02*
X261Y354D01*
X265Y354D02*
X271Y354D01*
X291Y354D02*
X297Y354D01*
X0Y353D02*
X7Y353D01*
X133Y353D02*
X134Y353D01*
X260Y353D02*
X261Y353D01*
X265Y353D02*
X271Y353D01*
X291Y353D02*
X297Y353D01*
X0Y352D02*
X7Y352D01*
X133Y352D02*
X134Y352D01*
X260Y352D02*
X261Y352D01*
X265Y352D02*
X271Y352D01*
X291Y352D02*
X297Y352D01*
X0Y351D02*
X7Y351D01*
X133Y351D02*
X134Y351D01*
X260Y351D02*
X261Y351D01*
X265Y351D02*
X271Y351D01*
X291Y351D02*
X297Y351D01*
X0Y350D02*
X7Y350D01*
X133Y350D02*
X134Y350D01*
X260Y350D02*
X261Y350D01*
X265Y350D02*
X271Y350D01*
X291Y350D02*
X297Y350D01*
X661Y350D02*
X668Y350D01*
X0Y349D02*
X7Y349D01*
X133Y349D02*
X134Y349D01*
X260Y349D02*
X261Y349D01*
X265Y349D02*
X271Y349D01*
X291Y349D02*
X297Y349D01*
X661Y349D02*
X668Y349D01*
X0Y348D02*
X7Y348D01*
X133Y348D02*
X134Y348D01*
X260Y348D02*
X261Y348D01*
X265Y348D02*
X271Y348D01*
X291Y348D02*
X297Y348D01*
X661Y348D02*
X668Y348D01*
X0Y347D02*
X7Y347D01*
X133Y347D02*
X134Y347D01*
X260Y347D02*
X261Y347D01*
X265Y347D02*
X271Y347D01*
X291Y347D02*
X297Y347D01*
X661Y347D02*
X668Y347D01*
X0Y346D02*
X7Y346D01*
X133Y346D02*
X134Y346D01*
X260Y346D02*
X261Y346D01*
X265Y346D02*
X271Y346D01*
X291Y346D02*
X297Y346D01*
X661Y346D02*
X668Y346D01*
X0Y345D02*
X7Y345D01*
X133Y345D02*
X134Y345D01*
X260Y345D02*
X261Y345D01*
X265Y345D02*
X271Y345D01*
X291Y345D02*
X297Y345D01*
X661Y345D02*
X668Y345D01*
X0Y344D02*
X7Y344D01*
X133Y344D02*
X134Y344D01*
X260Y344D02*
X261Y344D01*
X265Y344D02*
X271Y344D01*
X291Y344D02*
X297Y344D01*
X661Y344D02*
X668Y344D01*
X0Y343D02*
X7Y343D01*
X133Y343D02*
X134Y343D01*
X260Y343D02*
X261Y343D01*
X265Y343D02*
X271Y343D01*
X291Y343D02*
X297Y343D01*
X661Y343D02*
X668Y343D01*
X0Y342D02*
X7Y342D01*
X133Y342D02*
X134Y342D01*
X260Y342D02*
X261Y342D01*
X265Y342D02*
X271Y342D01*
X291Y342D02*
X297Y342D01*
X661Y342D02*
X668Y342D01*
X0Y341D02*
X7Y341D01*
X133Y341D02*
X134Y341D01*
X260Y341D02*
X261Y341D01*
X265Y341D02*
X271Y341D01*
X291Y341D02*
X297Y341D01*
X661Y341D02*
X668Y341D01*
X0Y340D02*
X7Y340D01*
X133Y340D02*
X134Y340D01*
X260Y340D02*
X261Y340D01*
X265Y340D02*
X271Y340D01*
X291Y340D02*
X297Y340D01*
X661Y340D02*
X668Y340D01*
X0Y339D02*
X7Y339D01*
X133Y339D02*
X134Y339D01*
X260Y339D02*
X261Y339D01*
X265Y339D02*
X271Y339D01*
X291Y339D02*
X297Y339D01*
X661Y339D02*
X668Y339D01*
X0Y338D02*
X7Y338D01*
X133Y338D02*
X134Y338D01*
X260Y338D02*
X261Y338D01*
X265Y338D02*
X271Y338D01*
X291Y338D02*
X297Y338D01*
X661Y338D02*
X668Y338D01*
X0Y337D02*
X7Y337D01*
X133Y337D02*
X134Y337D01*
X260Y337D02*
X261Y337D01*
X265Y337D02*
X271Y337D01*
X291Y337D02*
X297Y337D01*
X661Y337D02*
X668Y337D01*
X0Y336D02*
X7Y336D01*
X133Y336D02*
X134Y336D01*
X260Y336D02*
X261Y336D01*
X265Y336D02*
X271Y336D01*
X291Y336D02*
X297Y336D01*
X661Y336D02*
X668Y336D01*
X0Y335D02*
X7Y335D01*
X133Y335D02*
X134Y335D01*
X260Y335D02*
X261Y335D01*
X265Y335D02*
X271Y335D01*
X291Y335D02*
X297Y335D01*
X661Y335D02*
X668Y335D01*
X0Y334D02*
X7Y334D01*
X133Y334D02*
X134Y334D01*
X260Y334D02*
X261Y334D01*
X265Y334D02*
X271Y334D01*
X291Y334D02*
X297Y334D01*
X661Y334D02*
X668Y334D01*
X0Y333D02*
X7Y333D01*
X133Y333D02*
X134Y333D01*
X260Y333D02*
X261Y333D01*
X265Y333D02*
X271Y333D01*
X291Y333D02*
X297Y333D01*
X306Y333D02*
X310Y333D01*
X661Y333D02*
X668Y333D01*
X0Y332D02*
X7Y332D01*
X133Y332D02*
X134Y332D01*
X260Y332D02*
X261Y332D01*
X265Y332D02*
X271Y332D01*
X291Y332D02*
X297Y332D01*
X305Y332D02*
X311Y332D01*
X661Y332D02*
X668Y332D01*
X0Y331D02*
X7Y331D01*
X133Y331D02*
X134Y331D01*
X260Y331D02*
X261Y331D01*
X265Y331D02*
X271Y331D01*
X291Y331D02*
X297Y331D01*
X305Y331D02*
X311Y331D01*
X661Y331D02*
X668Y331D01*
X0Y330D02*
X7Y330D01*
X133Y330D02*
X134Y330D01*
X260Y330D02*
X261Y330D01*
X265Y330D02*
X271Y330D01*
X291Y330D02*
X297Y330D01*
X305Y330D02*
X311Y330D01*
X661Y330D02*
X668Y330D01*
X0Y329D02*
X7Y329D01*
X133Y329D02*
X134Y329D01*
X260Y329D02*
X283Y329D01*
X291Y329D02*
X297Y329D01*
X305Y329D02*
X311Y329D01*
X661Y329D02*
X668Y329D01*
X0Y328D02*
X7Y328D01*
X133Y328D02*
X134Y328D01*
X260Y328D02*
X284Y328D01*
X291Y328D02*
X297Y328D01*
X305Y328D02*
X311Y328D01*
X661Y328D02*
X668Y328D01*
X0Y327D02*
X7Y327D01*
X133Y327D02*
X134Y327D01*
X260Y327D02*
X284Y327D01*
X291Y327D02*
X297Y327D01*
X305Y327D02*
X311Y327D01*
X661Y327D02*
X668Y327D01*
X0Y326D02*
X7Y326D01*
X133Y326D02*
X134Y326D01*
X260Y326D02*
X285Y326D01*
X291Y326D02*
X297Y326D01*
X305Y326D02*
X311Y326D01*
X661Y326D02*
X668Y326D01*
X0Y325D02*
X7Y325D01*
X133Y325D02*
X134Y325D01*
X260Y325D02*
X284Y325D01*
X291Y325D02*
X297Y325D01*
X305Y325D02*
X311Y325D01*
X661Y325D02*
X668Y325D01*
X0Y324D02*
X7Y324D01*
X133Y324D02*
X134Y324D01*
X260Y324D02*
X284Y324D01*
X291Y324D02*
X297Y324D01*
X305Y324D02*
X311Y324D01*
X661Y324D02*
X668Y324D01*
X0Y323D02*
X7Y323D01*
X133Y323D02*
X134Y323D01*
X260Y323D02*
X283Y323D01*
X291Y323D02*
X297Y323D01*
X305Y323D02*
X311Y323D01*
X661Y323D02*
X668Y323D01*
X0Y322D02*
X7Y322D01*
X133Y322D02*
X134Y322D01*
X260Y322D02*
X261Y322D01*
X291Y322D02*
X297Y322D01*
X305Y322D02*
X311Y322D01*
X661Y322D02*
X668Y322D01*
X0Y321D02*
X7Y321D01*
X133Y321D02*
X134Y321D01*
X260Y321D02*
X261Y321D01*
X291Y321D02*
X297Y321D01*
X305Y321D02*
X311Y321D01*
X0Y320D02*
X7Y320D01*
X133Y320D02*
X134Y320D01*
X260Y320D02*
X261Y320D01*
X291Y320D02*
X297Y320D01*
X305Y320D02*
X311Y320D01*
X0Y319D02*
X7Y319D01*
X133Y319D02*
X134Y319D01*
X260Y319D02*
X261Y319D01*
X291Y319D02*
X297Y319D01*
X305Y319D02*
X311Y319D01*
X0Y318D02*
X7Y318D01*
X133Y318D02*
X134Y318D01*
X260Y318D02*
X261Y318D01*
X291Y318D02*
X297Y318D01*
X305Y318D02*
X311Y318D01*
X0Y317D02*
X7Y317D01*
X133Y317D02*
X134Y317D01*
X260Y317D02*
X261Y317D01*
X291Y317D02*
X297Y317D01*
X305Y317D02*
X311Y317D01*
X0Y316D02*
X7Y316D01*
X133Y316D02*
X134Y316D01*
X260Y316D02*
X261Y316D01*
X280Y316D02*
X311Y316D01*
X0Y315D02*
X7Y315D01*
X133Y315D02*
X134Y315D01*
X260Y315D02*
X261Y315D01*
X0Y314D02*
X7Y314D01*
X133Y314D02*
X134Y314D01*
X260Y314D02*
X261Y314D01*
X661Y314D02*
X668Y314D01*
X0Y313D02*
X7Y313D01*
X133Y313D02*
X134Y313D01*
X260Y313D02*
X261Y313D01*
X661Y313D02*
X668Y313D01*
X0Y312D02*
X7Y312D01*
X133Y312D02*
X134Y312D01*
X260Y312D02*
X261Y312D01*
X661Y312D02*
X668Y312D01*
X0Y311D02*
X7Y311D01*
X133Y311D02*
X134Y311D01*
X260Y311D02*
X261Y311D01*
X661Y311D02*
X668Y311D01*
X0Y310D02*
X7Y310D01*
X133Y310D02*
X134Y310D01*
X260Y310D02*
X261Y310D01*
X661Y310D02*
X668Y310D01*
X0Y309D02*
X7Y309D01*
X133Y309D02*
X134Y309D01*
X260Y309D02*
X261Y309D01*
X661Y309D02*
X668Y309D01*
X0Y308D02*
X7Y308D01*
X133Y308D02*
X134Y308D01*
X260Y308D02*
X261Y308D01*
X661Y308D02*
X668Y308D01*
X0Y307D02*
X7Y307D01*
X133Y307D02*
X135Y307D01*
X192Y307D02*
X202Y307D01*
X259Y307D02*
X261Y307D01*
X661Y307D02*
X668Y307D01*
X0Y306D02*
X7Y306D01*
X133Y306D02*
X261Y306D01*
X661Y306D02*
X668Y306D01*
X0Y305D02*
X7Y305D01*
X133Y305D02*
X261Y305D01*
X661Y305D02*
X668Y305D01*
X0Y304D02*
X7Y304D01*
X133Y304D02*
X261Y304D01*
X661Y304D02*
X668Y304D01*
X0Y303D02*
X7Y303D01*
X661Y303D02*
X668Y303D01*
X0Y302D02*
X7Y302D01*
X661Y302D02*
X668Y302D01*
X0Y301D02*
X7Y301D01*
X661Y301D02*
X668Y301D01*
X0Y300D02*
X7Y300D01*
X661Y300D02*
X668Y300D01*
X0Y299D02*
X7Y299D01*
X661Y299D02*
X668Y299D01*
X0Y298D02*
X7Y298D01*
X661Y298D02*
X668Y298D01*
X0Y297D02*
X7Y297D01*
X661Y297D02*
X668Y297D01*
X0Y296D02*
X7Y296D01*
X661Y296D02*
X668Y296D01*
X0Y295D02*
X7Y295D01*
X661Y295D02*
X668Y295D01*
X0Y294D02*
X7Y294D01*
X661Y294D02*
X668Y294D01*
X0Y293D02*
X7Y293D01*
X661Y293D02*
X668Y293D01*
X0Y292D02*
X7Y292D01*
X661Y292D02*
X668Y292D01*
X0Y291D02*
X7Y291D01*
X661Y291D02*
X668Y291D01*
X0Y290D02*
X7Y290D01*
X661Y290D02*
X668Y290D01*
X0Y289D02*
X7Y289D01*
X661Y289D02*
X668Y289D01*
X0Y288D02*
X7Y288D01*
X661Y288D02*
X668Y288D01*
X0Y287D02*
X7Y287D01*
X661Y287D02*
X668Y287D01*
X0Y286D02*
X7Y286D01*
X661Y286D02*
X668Y286D01*
X0Y285D02*
X7Y285D01*
X0Y284D02*
X7Y284D01*
X0Y283D02*
X7Y283D01*
X0Y282D02*
X7Y282D01*
X0Y281D02*
X7Y281D01*
X0Y280D02*
X7Y280D01*
X0Y279D02*
X7Y279D01*
X0Y278D02*
X7Y278D01*
X0Y277D02*
X7Y277D01*
X661Y277D02*
X668Y277D01*
X0Y276D02*
X7Y276D01*
X661Y276D02*
X668Y276D01*
X0Y275D02*
X7Y275D01*
X661Y275D02*
X668Y275D01*
X0Y274D02*
X7Y274D01*
X661Y274D02*
X668Y274D01*
X0Y273D02*
X7Y273D01*
X661Y273D02*
X668Y273D01*
X0Y272D02*
X7Y272D01*
X661Y272D02*
X668Y272D01*
X0Y271D02*
X7Y271D01*
X661Y271D02*
X668Y271D01*
X0Y270D02*
X7Y270D01*
X661Y270D02*
X668Y270D01*
X0Y269D02*
X7Y269D01*
X661Y269D02*
X668Y269D01*
X0Y268D02*
X7Y268D01*
X661Y268D02*
X668Y268D01*
X0Y267D02*
X7Y267D01*
X661Y267D02*
X668Y267D01*
X0Y266D02*
X7Y266D01*
X661Y266D02*
X668Y266D01*
X0Y265D02*
X7Y265D01*
X661Y265D02*
X668Y265D01*
X0Y264D02*
X7Y264D01*
X661Y264D02*
X668Y264D01*
X0Y263D02*
X7Y263D01*
X661Y263D02*
X668Y263D01*
X0Y262D02*
X7Y262D01*
X661Y262D02*
X668Y262D01*
X0Y261D02*
X7Y261D01*
X661Y261D02*
X668Y261D01*
X0Y260D02*
X7Y260D01*
X661Y260D02*
X668Y260D01*
X0Y259D02*
X7Y259D01*
X661Y259D02*
X668Y259D01*
X0Y258D02*
X7Y258D01*
X661Y258D02*
X668Y258D01*
X0Y257D02*
X7Y257D01*
X0Y256D02*
X7Y256D01*
X0Y255D02*
X7Y255D01*
X0Y254D02*
X7Y254D01*
X0Y253D02*
X7Y253D01*
X0Y252D02*
X7Y252D01*
X0Y251D02*
X7Y251D01*
X0Y250D02*
X7Y250D01*
X661Y250D02*
X668Y250D01*
X0Y249D02*
X7Y249D01*
X661Y249D02*
X668Y249D01*
X0Y248D02*
X7Y248D01*
X661Y248D02*
X668Y248D01*
X0Y247D02*
X7Y247D01*
X661Y247D02*
X668Y247D01*
X0Y246D02*
X7Y246D01*
X661Y246D02*
X668Y246D01*
X0Y245D02*
X7Y245D01*
X661Y245D02*
X668Y245D01*
X0Y244D02*
X7Y244D01*
X661Y244D02*
X668Y244D01*
X0Y243D02*
X7Y243D01*
X661Y243D02*
X668Y243D01*
X0Y242D02*
X7Y242D01*
X661Y242D02*
X668Y242D01*
X0Y241D02*
X7Y241D01*
X661Y241D02*
X668Y241D01*
X0Y240D02*
X7Y240D01*
X661Y240D02*
X668Y240D01*
X0Y239D02*
X7Y239D01*
X661Y239D02*
X668Y239D01*
X0Y238D02*
X7Y238D01*
X661Y238D02*
X668Y238D01*
X0Y237D02*
X7Y237D01*
X661Y237D02*
X668Y237D01*
X0Y236D02*
X7Y236D01*
X661Y236D02*
X668Y236D01*
X0Y235D02*
X7Y235D01*
X661Y235D02*
X668Y235D01*
X0Y234D02*
X7Y234D01*
X661Y234D02*
X668Y234D01*
X0Y233D02*
X7Y233D01*
X0Y232D02*
X7Y232D01*
X0Y231D02*
X7Y231D01*
X0Y230D02*
X7Y230D01*
X0Y229D02*
X7Y229D01*
X0Y228D02*
X7Y228D01*
X0Y227D02*
X7Y227D01*
X0Y226D02*
X7Y226D01*
X0Y225D02*
X7Y225D01*
X0Y224D02*
X7Y224D01*
X0Y223D02*
X7Y223D01*
X593Y223D02*
X610Y223D01*
X630Y223D02*
X658Y223D01*
X0Y222D02*
X7Y222D01*
X591Y222D02*
X611Y222D01*
X629Y222D02*
X659Y222D01*
X0Y221D02*
X7Y221D01*
X590Y221D02*
X612Y221D01*
X0Y220D02*
X7Y220D01*
X589Y220D02*
X612Y220D01*
X0Y219D02*
X7Y219D01*
X588Y219D02*
X612Y219D01*
X0Y218D02*
X7Y218D01*
X587Y218D02*
X611Y218D01*
X0Y217D02*
X7Y217D01*
X587Y217D02*
X610Y217D01*
X0Y216D02*
X7Y216D01*
X586Y216D02*
X594Y216D01*
X656Y216D02*
X668Y216D01*
X0Y215D02*
X7Y215D01*
X586Y215D02*
X593Y215D01*
X656Y215D02*
X668Y215D01*
X0Y214D02*
X7Y214D01*
X585Y214D02*
X592Y214D01*
X656Y214D02*
X668Y214D01*
X0Y213D02*
X7Y213D01*
X585Y213D02*
X592Y213D01*
X656Y213D02*
X668Y213D01*
X0Y212D02*
X7Y212D01*
X584Y212D02*
X591Y212D01*
X656Y212D02*
X668Y212D01*
X0Y211D02*
X7Y211D01*
X584Y211D02*
X591Y211D01*
X656Y211D02*
X669Y211D01*
X0Y210D02*
X7Y210D01*
X273Y210D02*
X275Y210D01*
X321Y210D02*
X353Y210D01*
X373Y210D02*
X389Y210D01*
X423Y210D02*
X441Y210D01*
X583Y210D02*
X590Y210D01*
X656Y210D02*
X669Y210D01*
X0Y209D02*
X7Y209D01*
X271Y209D02*
X276Y209D01*
X321Y209D02*
X354Y209D01*
X372Y209D02*
X392Y209D01*
X422Y209D02*
X441Y209D01*
X583Y209D02*
X590Y209D01*
X0Y208D02*
X7Y208D01*
X271Y208D02*
X277Y208D01*
X321Y208D02*
X354Y208D01*
X371Y208D02*
X393Y208D01*
X422Y208D02*
X441Y208D01*
X582Y208D02*
X589Y208D01*
X0Y207D02*
X7Y207D01*
X271Y207D02*
X277Y207D01*
X321Y207D02*
X355Y207D01*
X371Y207D02*
X394Y207D01*
X421Y207D02*
X441Y207D01*
X582Y207D02*
X589Y207D01*
X0Y206D02*
X7Y206D01*
X271Y206D02*
X277Y206D01*
X321Y206D02*
X354Y206D01*
X371Y206D02*
X395Y206D01*
X421Y206D02*
X441Y206D01*
X581Y206D02*
X588Y206D01*
X0Y205D02*
X7Y205D01*
X271Y205D02*
X277Y205D01*
X321Y205D02*
X354Y205D01*
X372Y205D02*
X396Y205D01*
X422Y205D02*
X441Y205D01*
X581Y205D02*
X588Y205D01*
X0Y204D02*
X7Y204D01*
X271Y204D02*
X277Y204D01*
X321Y204D02*
X353Y204D01*
X373Y204D02*
X396Y204D01*
X423Y204D02*
X441Y204D01*
X580Y204D02*
X587Y204D01*
X0Y203D02*
X7Y203D01*
X271Y203D02*
X277Y203D01*
X321Y203D02*
X327Y203D01*
X378Y203D02*
X384Y203D01*
X389Y203D02*
X397Y203D01*
X435Y203D02*
X441Y203D01*
X580Y203D02*
X587Y203D01*
X0Y202D02*
X7Y202D01*
X271Y202D02*
X277Y202D01*
X321Y202D02*
X327Y202D01*
X378Y202D02*
X384Y202D01*
X390Y202D02*
X397Y202D01*
X435Y202D02*
X441Y202D01*
X579Y202D02*
X586Y202D01*
X0Y201D02*
X7Y201D01*
X271Y201D02*
X277Y201D01*
X321Y201D02*
X327Y201D01*
X378Y201D02*
X384Y201D01*
X391Y201D02*
X398Y201D01*
X435Y201D02*
X441Y201D01*
X579Y201D02*
X586Y201D01*
X656Y201D02*
X668Y201D01*
X0Y200D02*
X7Y200D01*
X271Y200D02*
X277Y200D01*
X321Y200D02*
X327Y200D01*
X378Y200D02*
X384Y200D01*
X391Y200D02*
X398Y200D01*
X435Y200D02*
X441Y200D01*
X579Y200D02*
X585Y200D01*
X656Y200D02*
X668Y200D01*
X0Y199D02*
X7Y199D01*
X271Y199D02*
X277Y199D01*
X321Y199D02*
X327Y199D01*
X378Y199D02*
X384Y199D01*
X392Y199D02*
X399Y199D01*
X435Y199D02*
X441Y199D01*
X579Y199D02*
X585Y199D01*
X632Y199D02*
X668Y199D01*
X0Y198D02*
X7Y198D01*
X271Y198D02*
X277Y198D01*
X321Y198D02*
X327Y198D01*
X378Y198D02*
X384Y198D01*
X392Y198D02*
X399Y198D01*
X435Y198D02*
X441Y198D01*
X578Y198D02*
X585Y198D01*
X631Y198D02*
X668Y198D01*
X0Y197D02*
X7Y197D01*
X271Y197D02*
X277Y197D01*
X321Y197D02*
X327Y197D01*
X378Y197D02*
X384Y197D01*
X393Y197D02*
X400Y197D01*
X435Y197D02*
X441Y197D01*
X578Y197D02*
X584Y197D01*
X630Y197D02*
X668Y197D01*
X0Y196D02*
X7Y196D01*
X271Y196D02*
X277Y196D01*
X321Y196D02*
X327Y196D01*
X378Y196D02*
X384Y196D01*
X393Y196D02*
X400Y196D01*
X435Y196D02*
X441Y196D01*
X578Y196D02*
X584Y196D01*
X644Y196D02*
X668Y196D01*
X0Y195D02*
X7Y195D01*
X271Y195D02*
X277Y195D01*
X321Y195D02*
X327Y195D01*
X378Y195D02*
X384Y195D01*
X394Y195D02*
X401Y195D01*
X435Y195D02*
X441Y195D01*
X578Y195D02*
X584Y195D01*
X644Y195D02*
X668Y195D01*
X0Y194D02*
X7Y194D01*
X271Y194D02*
X277Y194D01*
X321Y194D02*
X327Y194D01*
X378Y194D02*
X384Y194D01*
X394Y194D02*
X401Y194D01*
X435Y194D02*
X441Y194D01*
X579Y194D02*
X585Y194D01*
X644Y194D02*
X659Y194D01*
X661Y194D02*
X668Y194D01*
X0Y193D02*
X7Y193D01*
X271Y193D02*
X277Y193D01*
X321Y193D02*
X327Y193D01*
X378Y193D02*
X384Y193D01*
X395Y193D02*
X402Y193D01*
X435Y193D02*
X441Y193D01*
X579Y193D02*
X585Y193D01*
X644Y193D02*
X656Y193D01*
X661Y193D02*
X668Y193D01*
X0Y192D02*
X7Y192D01*
X271Y192D02*
X277Y192D01*
X321Y192D02*
X327Y192D01*
X378Y192D02*
X384Y192D01*
X395Y192D02*
X402Y192D01*
X435Y192D02*
X441Y192D01*
X579Y192D02*
X585Y192D01*
X661Y192D02*
X668Y192D01*
X0Y191D02*
X7Y191D01*
X271Y191D02*
X277Y191D01*
X321Y191D02*
X327Y191D01*
X378Y191D02*
X384Y191D01*
X396Y191D02*
X403Y191D01*
X435Y191D02*
X441Y191D01*
X579Y191D02*
X586Y191D01*
X661Y191D02*
X668Y191D01*
X0Y190D02*
X7Y190D01*
X271Y190D02*
X277Y190D01*
X321Y190D02*
X327Y190D01*
X378Y190D02*
X384Y190D01*
X396Y190D02*
X403Y190D01*
X435Y190D02*
X441Y190D01*
X580Y190D02*
X586Y190D01*
X661Y190D02*
X668Y190D01*
X0Y189D02*
X7Y189D01*
X271Y189D02*
X277Y189D01*
X321Y189D02*
X327Y189D01*
X378Y189D02*
X384Y189D01*
X397Y189D02*
X404Y189D01*
X435Y189D02*
X441Y189D01*
X580Y189D02*
X587Y189D01*
X661Y189D02*
X668Y189D01*
X0Y188D02*
X7Y188D01*
X271Y188D02*
X277Y188D01*
X321Y188D02*
X327Y188D01*
X378Y188D02*
X384Y188D01*
X397Y188D02*
X404Y188D01*
X435Y188D02*
X441Y188D01*
X581Y188D02*
X588Y188D01*
X661Y188D02*
X668Y188D01*
X0Y187D02*
X7Y187D01*
X271Y187D02*
X277Y187D01*
X321Y187D02*
X327Y187D01*
X378Y187D02*
X384Y187D01*
X398Y187D02*
X404Y187D01*
X435Y187D02*
X441Y187D01*
X581Y187D02*
X588Y187D01*
X661Y187D02*
X668Y187D01*
X0Y186D02*
X7Y186D01*
X271Y186D02*
X277Y186D01*
X321Y186D02*
X339Y186D01*
X378Y186D02*
X384Y186D01*
X398Y186D02*
X404Y186D01*
X435Y186D02*
X441Y186D01*
X582Y186D02*
X589Y186D01*
X661Y186D02*
X668Y186D01*
X0Y185D02*
X7Y185D01*
X271Y185D02*
X277Y185D01*
X321Y185D02*
X340Y185D01*
X378Y185D02*
X384Y185D01*
X399Y185D02*
X405Y185D01*
X435Y185D02*
X441Y185D01*
X582Y185D02*
X589Y185D01*
X661Y185D02*
X668Y185D01*
X0Y184D02*
X7Y184D01*
X271Y184D02*
X277Y184D01*
X321Y184D02*
X341Y184D01*
X378Y184D02*
X384Y184D01*
X399Y184D02*
X405Y184D01*
X435Y184D02*
X441Y184D01*
X583Y184D02*
X590Y184D01*
X661Y184D02*
X668Y184D01*
X0Y183D02*
X7Y183D01*
X271Y183D02*
X277Y183D01*
X321Y183D02*
X341Y183D01*
X378Y183D02*
X384Y183D01*
X399Y183D02*
X405Y183D01*
X435Y183D02*
X441Y183D01*
X583Y183D02*
X590Y183D01*
X661Y183D02*
X668Y183D01*
X0Y182D02*
X7Y182D01*
X271Y182D02*
X277Y182D01*
X321Y182D02*
X340Y182D01*
X378Y182D02*
X384Y182D01*
X399Y182D02*
X405Y182D01*
X435Y182D02*
X441Y182D01*
X584Y182D02*
X591Y182D01*
X661Y182D02*
X668Y182D01*
X0Y181D02*
X7Y181D01*
X271Y181D02*
X277Y181D01*
X321Y181D02*
X340Y181D01*
X378Y181D02*
X384Y181D01*
X398Y181D02*
X405Y181D01*
X435Y181D02*
X441Y181D01*
X584Y181D02*
X591Y181D01*
X661Y181D02*
X668Y181D01*
X0Y180D02*
X7Y180D01*
X271Y180D02*
X277Y180D01*
X321Y180D02*
X338Y180D01*
X378Y180D02*
X384Y180D01*
X398Y180D02*
X404Y180D01*
X435Y180D02*
X441Y180D01*
X450Y180D02*
X454Y180D01*
X585Y180D02*
X592Y180D01*
X661Y180D02*
X668Y180D01*
X0Y179D02*
X7Y179D01*
X271Y179D02*
X277Y179D01*
X321Y179D02*
X327Y179D01*
X378Y179D02*
X384Y179D01*
X398Y179D02*
X404Y179D01*
X435Y179D02*
X441Y179D01*
X449Y179D02*
X455Y179D01*
X585Y179D02*
X592Y179D01*
X661Y179D02*
X668Y179D01*
X0Y178D02*
X7Y178D01*
X271Y178D02*
X277Y178D01*
X321Y178D02*
X327Y178D01*
X378Y178D02*
X384Y178D01*
X397Y178D02*
X404Y178D01*
X435Y178D02*
X441Y178D01*
X449Y178D02*
X455Y178D01*
X586Y178D02*
X593Y178D01*
X661Y178D02*
X668Y178D01*
X0Y177D02*
X7Y177D01*
X271Y177D02*
X277Y177D01*
X321Y177D02*
X327Y177D01*
X378Y177D02*
X384Y177D01*
X397Y177D02*
X403Y177D01*
X435Y177D02*
X441Y177D01*
X449Y177D02*
X455Y177D01*
X586Y177D02*
X593Y177D01*
X661Y177D02*
X668Y177D01*
X0Y176D02*
X7Y176D01*
X271Y176D02*
X277Y176D01*
X321Y176D02*
X327Y176D01*
X378Y176D02*
X384Y176D01*
X396Y176D02*
X403Y176D01*
X435Y176D02*
X441Y176D01*
X449Y176D02*
X455Y176D01*
X587Y176D02*
X597Y176D01*
X644Y176D02*
X668Y176D01*
X0Y175D02*
X7Y175D01*
X271Y175D02*
X277Y175D01*
X321Y175D02*
X327Y175D01*
X378Y175D02*
X384Y175D01*
X396Y175D02*
X402Y175D01*
X435Y175D02*
X441Y175D01*
X449Y175D02*
X455Y175D01*
X587Y175D02*
X597Y175D01*
X644Y175D02*
X668Y175D01*
X0Y174D02*
X7Y174D01*
X271Y174D02*
X277Y174D01*
X321Y174D02*
X327Y174D01*
X378Y174D02*
X384Y174D01*
X395Y174D02*
X402Y174D01*
X435Y174D02*
X441Y174D01*
X449Y174D02*
X455Y174D01*
X588Y174D02*
X597Y174D01*
X644Y174D02*
X668Y174D01*
X0Y173D02*
X7Y173D01*
X271Y173D02*
X277Y173D01*
X321Y173D02*
X327Y173D01*
X378Y173D02*
X384Y173D01*
X395Y173D02*
X401Y173D01*
X435Y173D02*
X441Y173D01*
X449Y173D02*
X455Y173D01*
X589Y173D02*
X597Y173D01*
X644Y173D02*
X668Y173D01*
X0Y172D02*
X7Y172D01*
X271Y172D02*
X277Y172D01*
X321Y172D02*
X327Y172D01*
X378Y172D02*
X384Y172D01*
X394Y172D02*
X401Y172D01*
X435Y172D02*
X441Y172D01*
X449Y172D02*
X455Y172D01*
X590Y172D02*
X597Y172D01*
X644Y172D02*
X668Y172D01*
X0Y171D02*
X7Y171D01*
X271Y171D02*
X277Y171D01*
X321Y171D02*
X327Y171D01*
X378Y171D02*
X384Y171D01*
X394Y171D02*
X400Y171D01*
X435Y171D02*
X441Y171D01*
X449Y171D02*
X455Y171D01*
X591Y171D02*
X597Y171D01*
X644Y171D02*
X668Y171D01*
X0Y170D02*
X7Y170D01*
X271Y170D02*
X277Y170D01*
X321Y170D02*
X327Y170D01*
X378Y170D02*
X384Y170D01*
X393Y170D02*
X400Y170D01*
X435Y170D02*
X441Y170D01*
X449Y170D02*
X455Y170D01*
X593Y170D02*
X597Y170D01*
X0Y169D02*
X7Y169D01*
X271Y169D02*
X277Y169D01*
X321Y169D02*
X327Y169D01*
X378Y169D02*
X384Y169D01*
X393Y169D02*
X399Y169D01*
X435Y169D02*
X441Y169D01*
X449Y169D02*
X455Y169D01*
X0Y168D02*
X7Y168D01*
X271Y168D02*
X277Y168D01*
X321Y168D02*
X327Y168D01*
X378Y168D02*
X384Y168D01*
X392Y168D02*
X399Y168D01*
X435Y168D02*
X441Y168D01*
X449Y168D02*
X455Y168D01*
X0Y167D02*
X7Y167D01*
X271Y167D02*
X277Y167D01*
X321Y167D02*
X327Y167D01*
X378Y167D02*
X384Y167D01*
X391Y167D02*
X398Y167D01*
X435Y167D02*
X441Y167D01*
X449Y167D02*
X455Y167D01*
X0Y166D02*
X7Y166D01*
X271Y166D02*
X277Y166D01*
X321Y166D02*
X327Y166D01*
X378Y166D02*
X384Y166D01*
X391Y166D02*
X398Y166D01*
X435Y166D02*
X441Y166D01*
X449Y166D02*
X455Y166D01*
X0Y165D02*
X7Y165D01*
X271Y165D02*
X277Y165D01*
X321Y165D02*
X327Y165D01*
X378Y165D02*
X384Y165D01*
X390Y165D02*
X397Y165D01*
X435Y165D02*
X441Y165D01*
X449Y165D02*
X455Y165D01*
X0Y164D02*
X7Y164D01*
X271Y164D02*
X277Y164D01*
X321Y164D02*
X327Y164D01*
X378Y164D02*
X384Y164D01*
X390Y164D02*
X397Y164D01*
X435Y164D02*
X441Y164D01*
X449Y164D02*
X455Y164D01*
X472Y164D02*
X472Y164D01*
X0Y163D02*
X7Y163D01*
X271Y163D02*
X302Y163D01*
X321Y163D02*
X352Y163D01*
X373Y163D02*
X396Y163D01*
X423Y163D02*
X455Y163D01*
X470Y163D02*
X474Y163D01*
X661Y163D02*
X668Y163D01*
X0Y162D02*
X7Y162D01*
X271Y162D02*
X303Y162D01*
X321Y162D02*
X354Y162D01*
X372Y162D02*
X396Y162D01*
X422Y162D02*
X455Y162D01*
X469Y162D02*
X475Y162D01*
X661Y162D02*
X668Y162D01*
X0Y161D02*
X7Y161D01*
X271Y161D02*
X304Y161D01*
X321Y161D02*
X354Y161D01*
X371Y161D02*
X395Y161D01*
X422Y161D02*
X455Y161D01*
X469Y161D02*
X475Y161D01*
X661Y161D02*
X668Y161D01*
X0Y160D02*
X7Y160D01*
X271Y160D02*
X304Y160D01*
X321Y160D02*
X355Y160D01*
X371Y160D02*
X395Y160D01*
X421Y160D02*
X455Y160D01*
X469Y160D02*
X475Y160D01*
X661Y160D02*
X668Y160D01*
X0Y159D02*
X7Y159D01*
X271Y159D02*
X304Y159D01*
X321Y159D02*
X354Y159D01*
X371Y159D02*
X394Y159D01*
X421Y159D02*
X455Y159D01*
X469Y159D02*
X475Y159D01*
X615Y159D02*
X626Y159D01*
X661Y159D02*
X668Y159D01*
X0Y158D02*
X7Y158D01*
X271Y158D02*
X304Y158D01*
X321Y158D02*
X354Y158D01*
X372Y158D02*
X392Y158D01*
X422Y158D02*
X454Y158D01*
X469Y158D02*
X475Y158D01*
X614Y158D02*
X627Y158D01*
X661Y158D02*
X668Y158D01*
X0Y157D02*
X7Y157D01*
X271Y157D02*
X303Y157D01*
X321Y157D02*
X353Y157D01*
X372Y157D02*
X391Y157D01*
X423Y157D02*
X454Y157D01*
X469Y157D02*
X507Y157D01*
X613Y157D02*
X628Y157D01*
X0Y156D02*
X7Y156D01*
X469Y156D02*
X507Y156D01*
X613Y156D02*
X628Y156D01*
X0Y155D02*
X7Y155D01*
X469Y155D02*
X507Y155D01*
X612Y155D02*
X629Y155D01*
X0Y154D02*
X7Y154D01*
X469Y154D02*
X507Y154D01*
X612Y154D02*
X629Y154D01*
X0Y153D02*
X7Y153D01*
X469Y153D02*
X507Y153D01*
X612Y153D02*
X629Y153D01*
X0Y152D02*
X7Y152D01*
X469Y152D02*
X507Y152D01*
X612Y152D02*
X629Y152D01*
X0Y151D02*
X7Y151D01*
X469Y151D02*
X507Y151D01*
X612Y151D02*
X629Y151D01*
X0Y150D02*
X7Y150D01*
X469Y150D02*
X475Y150D01*
X612Y150D02*
X629Y150D01*
X661Y150D02*
X668Y150D01*
X0Y149D02*
X7Y149D01*
X469Y149D02*
X475Y149D01*
X613Y149D02*
X628Y149D01*
X661Y149D02*
X668Y149D01*
X0Y148D02*
X7Y148D01*
X469Y148D02*
X475Y148D01*
X613Y148D02*
X628Y148D01*
X661Y148D02*
X668Y148D01*
X0Y147D02*
X7Y147D01*
X469Y147D02*
X475Y147D01*
X614Y147D02*
X627Y147D01*
X661Y147D02*
X668Y147D01*
X0Y146D02*
X7Y146D01*
X469Y146D02*
X475Y146D01*
X615Y146D02*
X626Y146D01*
X661Y146D02*
X668Y146D01*
X0Y145D02*
X7Y145D01*
X469Y145D02*
X476Y145D01*
X661Y145D02*
X668Y145D01*
X0Y144D02*
X7Y144D01*
X470Y144D02*
X478Y144D01*
X661Y144D02*
X668Y144D01*
X0Y143D02*
X7Y143D01*
X470Y143D02*
X480Y143D01*
X661Y143D02*
X668Y143D01*
X0Y142D02*
X7Y142D01*
X471Y142D02*
X482Y142D01*
X661Y142D02*
X668Y142D01*
X0Y141D02*
X7Y141D01*
X471Y141D02*
X484Y141D01*
X507Y141D02*
X507Y141D01*
X661Y141D02*
X668Y141D01*
X0Y140D02*
X7Y140D01*
X472Y140D02*
X486Y140D01*
X505Y140D02*
X507Y140D01*
X661Y140D02*
X668Y140D01*
X0Y139D02*
X7Y139D01*
X473Y139D02*
X488Y139D01*
X503Y139D02*
X507Y139D01*
X661Y139D02*
X668Y139D01*
X0Y138D02*
X7Y138D01*
X475Y138D02*
X490Y138D01*
X501Y138D02*
X507Y138D01*
X661Y138D02*
X668Y138D01*
X0Y137D02*
X7Y137D01*
X477Y137D02*
X492Y137D01*
X499Y137D02*
X507Y137D01*
X661Y137D02*
X668Y137D01*
X0Y136D02*
X7Y136D01*
X479Y136D02*
X507Y136D01*
X661Y136D02*
X668Y136D01*
X0Y135D02*
X7Y135D01*
X481Y135D02*
X507Y135D01*
X661Y135D02*
X668Y135D01*
X0Y134D02*
X7Y134D01*
X483Y134D02*
X507Y134D01*
X661Y134D02*
X668Y134D01*
X0Y133D02*
X7Y133D01*
X485Y133D02*
X506Y133D01*
X661Y133D02*
X668Y133D01*
X0Y132D02*
X7Y132D01*
X487Y132D02*
X504Y132D01*
X525Y132D02*
X537Y132D01*
X661Y132D02*
X668Y132D01*
X0Y131D02*
X7Y131D01*
X489Y131D02*
X502Y131D01*
X524Y131D02*
X538Y131D01*
X661Y131D02*
X668Y131D01*
X0Y130D02*
X7Y130D01*
X492Y130D02*
X499Y130D01*
X523Y130D02*
X538Y130D01*
X661Y130D02*
X668Y130D01*
X0Y129D02*
X7Y129D01*
X523Y129D02*
X539Y129D01*
X661Y129D02*
X668Y129D01*
X0Y128D02*
X7Y128D01*
X522Y128D02*
X539Y128D01*
X661Y128D02*
X668Y128D01*
X0Y127D02*
X7Y127D01*
X522Y127D02*
X539Y127D01*
X661Y127D02*
X668Y127D01*
X0Y126D02*
X7Y126D01*
X522Y126D02*
X539Y126D01*
X661Y126D02*
X668Y126D01*
X0Y125D02*
X7Y125D01*
X522Y125D02*
X539Y125D01*
X661Y125D02*
X668Y125D01*
X0Y124D02*
X7Y124D01*
X522Y124D02*
X539Y124D01*
X661Y124D02*
X668Y124D01*
X0Y123D02*
X7Y123D01*
X523Y123D02*
X539Y123D01*
X661Y123D02*
X668Y123D01*
X0Y122D02*
X7Y122D01*
X523Y122D02*
X538Y122D01*
X661Y122D02*
X668Y122D01*
X0Y121D02*
X7Y121D01*
X524Y121D02*
X538Y121D01*
X661Y121D02*
X668Y121D01*
X0Y120D02*
X7Y120D01*
X525Y120D02*
X537Y120D01*
X661Y120D02*
X668Y120D01*
X0Y119D02*
X7Y119D01*
X661Y119D02*
X668Y119D01*
X0Y118D02*
X7Y118D01*
X661Y118D02*
X668Y118D01*
X0Y117D02*
X7Y117D01*
X661Y117D02*
X668Y117D01*
X0Y116D02*
X7Y116D01*
X661Y116D02*
X668Y116D01*
X0Y115D02*
X7Y115D01*
X661Y115D02*
X668Y115D01*
X0Y114D02*
X7Y114D01*
X661Y114D02*
X668Y114D01*
X0Y113D02*
X7Y113D01*
X470Y113D02*
X474Y113D01*
X661Y113D02*
X668Y113D01*
X0Y112D02*
X7Y112D01*
X469Y112D02*
X475Y112D01*
X661Y112D02*
X668Y112D01*
X0Y111D02*
X7Y111D01*
X469Y111D02*
X475Y111D01*
X661Y111D02*
X668Y111D01*
X0Y110D02*
X7Y110D01*
X469Y110D02*
X475Y110D01*
X661Y110D02*
X668Y110D01*
X0Y109D02*
X7Y109D01*
X469Y109D02*
X475Y109D01*
X661Y109D02*
X668Y109D01*
X0Y108D02*
X7Y108D01*
X469Y108D02*
X475Y108D01*
X661Y108D02*
X668Y108D01*
X0Y107D02*
X7Y107D01*
X469Y107D02*
X475Y107D01*
X661Y107D02*
X668Y107D01*
X0Y106D02*
X7Y106D01*
X469Y106D02*
X475Y106D01*
X661Y106D02*
X668Y106D01*
X0Y105D02*
X7Y105D01*
X469Y105D02*
X475Y105D01*
X661Y105D02*
X668Y105D01*
X0Y104D02*
X7Y104D01*
X469Y104D02*
X475Y104D01*
X661Y104D02*
X668Y104D01*
X0Y103D02*
X7Y103D01*
X469Y103D02*
X475Y103D01*
X661Y103D02*
X668Y103D01*
X0Y102D02*
X7Y102D01*
X469Y102D02*
X475Y102D01*
X661Y102D02*
X668Y102D01*
X0Y101D02*
X7Y101D01*
X469Y101D02*
X475Y101D01*
X661Y101D02*
X668Y101D01*
X0Y100D02*
X7Y100D01*
X469Y100D02*
X507Y100D01*
X661Y100D02*
X668Y100D01*
X0Y99D02*
X7Y99D01*
X469Y99D02*
X507Y99D01*
X661Y99D02*
X668Y99D01*
X0Y98D02*
X7Y98D01*
X469Y98D02*
X507Y98D01*
X661Y98D02*
X668Y98D01*
X0Y97D02*
X7Y97D01*
X469Y97D02*
X507Y97D01*
X661Y97D02*
X668Y97D01*
X0Y96D02*
X7Y96D01*
X469Y96D02*
X507Y96D01*
X661Y96D02*
X668Y96D01*
X0Y95D02*
X7Y95D01*
X469Y95D02*
X507Y95D01*
X661Y95D02*
X668Y95D01*
X0Y94D02*
X7Y94D01*
X219Y94D02*
X261Y94D01*
X469Y94D02*
X507Y94D01*
X661Y94D02*
X668Y94D01*
X0Y93D02*
X7Y93D01*
X219Y93D02*
X262Y93D01*
X469Y93D02*
X475Y93D01*
X661Y93D02*
X668Y93D01*
X0Y92D02*
X7Y92D01*
X219Y92D02*
X262Y92D01*
X469Y92D02*
X475Y92D01*
X661Y92D02*
X668Y92D01*
X0Y91D02*
X7Y91D01*
X219Y91D02*
X262Y91D01*
X469Y91D02*
X475Y91D01*
X661Y91D02*
X668Y91D01*
X0Y90D02*
X7Y90D01*
X219Y90D02*
X261Y90D01*
X469Y90D02*
X475Y90D01*
X661Y90D02*
X668Y90D01*
X0Y89D02*
X7Y89D01*
X220Y89D02*
X261Y89D01*
X469Y89D02*
X475Y89D01*
X661Y89D02*
X668Y89D01*
X0Y88D02*
X7Y88D01*
X222Y88D02*
X258Y88D01*
X469Y88D02*
X475Y88D01*
X661Y88D02*
X668Y88D01*
X0Y87D02*
X7Y87D01*
X232Y87D02*
X249Y87D01*
X469Y87D02*
X475Y87D01*
X661Y87D02*
X668Y87D01*
X0Y86D02*
X7Y86D01*
X232Y86D02*
X249Y86D01*
X469Y86D02*
X491Y86D01*
X661Y86D02*
X668Y86D01*
X0Y85D02*
X7Y85D01*
X231Y85D02*
X239Y85D01*
X241Y85D02*
X250Y85D01*
X273Y85D02*
X402Y85D01*
X469Y85D02*
X492Y85D01*
X661Y85D02*
X668Y85D01*
X0Y84D02*
X7Y84D01*
X230Y84D02*
X239Y84D01*
X242Y84D02*
X251Y84D01*
X273Y84D02*
X402Y84D01*
X469Y84D02*
X493Y84D01*
X661Y84D02*
X668Y84D01*
X0Y83D02*
X7Y83D01*
X230Y83D02*
X238Y83D01*
X243Y83D02*
X252Y83D01*
X273Y83D02*
X402Y83D01*
X469Y83D02*
X493Y83D01*
X661Y83D02*
X668Y83D01*
X0Y82D02*
X7Y82D01*
X229Y82D02*
X237Y82D01*
X243Y82D02*
X252Y82D01*
X273Y82D02*
X275Y82D01*
X333Y82D02*
X342Y82D01*
X400Y82D02*
X402Y82D01*
X469Y82D02*
X493Y82D01*
X661Y82D02*
X668Y82D01*
X0Y81D02*
X7Y81D01*
X228Y81D02*
X237Y81D01*
X244Y81D02*
X253Y81D01*
X273Y81D02*
X275Y81D01*
X400Y81D02*
X402Y81D01*
X470Y81D02*
X492Y81D01*
X661Y81D02*
X668Y81D01*
X0Y80D02*
X7Y80D01*
X228Y80D02*
X236Y80D01*
X245Y80D02*
X253Y80D01*
X273Y80D02*
X275Y80D01*
X400Y80D02*
X402Y80D01*
X470Y80D02*
X491Y80D01*
X661Y80D02*
X668Y80D01*
X0Y79D02*
X7Y79D01*
X228Y79D02*
X236Y79D01*
X246Y79D02*
X253Y79D01*
X273Y79D02*
X275Y79D01*
X400Y79D02*
X402Y79D01*
X661Y79D02*
X668Y79D01*
X0Y78D02*
X7Y78D01*
X229Y78D02*
X235Y78D01*
X246Y78D02*
X253Y78D01*
X273Y78D02*
X275Y78D01*
X400Y78D02*
X402Y78D01*
X661Y78D02*
X668Y78D01*
X0Y77D02*
X7Y77D01*
X229Y77D02*
X234Y77D01*
X247Y77D02*
X252Y77D01*
X273Y77D02*
X275Y77D01*
X400Y77D02*
X402Y77D01*
X661Y77D02*
X668Y77D01*
X0Y76D02*
X7Y76D01*
X273Y76D02*
X275Y76D01*
X400Y76D02*
X402Y76D01*
X661Y76D02*
X668Y76D01*
X0Y75D02*
X7Y75D01*
X273Y75D02*
X275Y75D01*
X400Y75D02*
X402Y75D01*
X661Y75D02*
X668Y75D01*
X0Y74D02*
X7Y74D01*
X273Y74D02*
X275Y74D01*
X400Y74D02*
X402Y74D01*
X661Y74D02*
X668Y74D01*
X0Y73D02*
X7Y73D01*
X273Y73D02*
X275Y73D01*
X400Y73D02*
X402Y73D01*
X661Y73D02*
X668Y73D01*
X0Y72D02*
X7Y72D01*
X273Y72D02*
X275Y72D01*
X400Y72D02*
X402Y72D01*
X661Y72D02*
X668Y72D01*
X0Y71D02*
X7Y71D01*
X273Y71D02*
X275Y71D01*
X400Y71D02*
X402Y71D01*
X661Y71D02*
X668Y71D01*
X0Y70D02*
X7Y70D01*
X273Y70D02*
X275Y70D01*
X400Y70D02*
X402Y70D01*
X661Y70D02*
X668Y70D01*
X0Y69D02*
X7Y69D01*
X273Y69D02*
X275Y69D01*
X400Y69D02*
X402Y69D01*
X661Y69D02*
X668Y69D01*
X0Y68D02*
X7Y68D01*
X273Y68D02*
X275Y68D01*
X400Y68D02*
X402Y68D01*
X661Y68D02*
X668Y68D01*
X0Y67D02*
X7Y67D01*
X273Y67D02*
X275Y67D01*
X400Y67D02*
X402Y67D01*
X661Y67D02*
X668Y67D01*
X0Y66D02*
X7Y66D01*
X273Y66D02*
X275Y66D01*
X400Y66D02*
X402Y66D01*
X661Y66D02*
X668Y66D01*
X0Y65D02*
X7Y65D01*
X273Y65D02*
X275Y65D01*
X400Y65D02*
X402Y65D01*
X661Y65D02*
X668Y65D01*
X0Y64D02*
X7Y64D01*
X273Y64D02*
X275Y64D01*
X400Y64D02*
X402Y64D01*
X661Y64D02*
X668Y64D01*
X0Y63D02*
X7Y63D01*
X273Y63D02*
X275Y63D01*
X400Y63D02*
X402Y63D01*
X661Y63D02*
X668Y63D01*
X0Y62D02*
X7Y62D01*
X273Y62D02*
X275Y62D01*
X400Y62D02*
X402Y62D01*
X661Y62D02*
X668Y62D01*
X0Y61D02*
X7Y61D01*
X273Y61D02*
X275Y61D01*
X400Y61D02*
X402Y61D01*
X661Y61D02*
X668Y61D01*
X0Y60D02*
X7Y60D01*
X273Y60D02*
X275Y60D01*
X400Y60D02*
X402Y60D01*
X661Y60D02*
X668Y60D01*
X0Y59D02*
X7Y59D01*
X273Y59D02*
X275Y59D01*
X400Y59D02*
X402Y59D01*
X661Y59D02*
X668Y59D01*
X0Y58D02*
X7Y58D01*
X273Y58D02*
X275Y58D01*
X400Y58D02*
X402Y58D01*
X661Y58D02*
X668Y58D01*
X0Y57D02*
X7Y57D01*
X273Y57D02*
X275Y57D01*
X400Y57D02*
X402Y57D01*
X661Y57D02*
X668Y57D01*
X0Y56D02*
X7Y56D01*
X273Y56D02*
X275Y56D01*
X400Y56D02*
X402Y56D01*
X661Y56D02*
X668Y56D01*
X0Y55D02*
X7Y55D01*
X273Y55D02*
X275Y55D01*
X400Y55D02*
X402Y55D01*
X661Y55D02*
X668Y55D01*
X0Y54D02*
X7Y54D01*
X273Y54D02*
X275Y54D01*
X400Y54D02*
X402Y54D01*
X661Y54D02*
X668Y54D01*
X0Y53D02*
X7Y53D01*
X273Y53D02*
X275Y53D01*
X400Y53D02*
X402Y53D01*
X661Y53D02*
X668Y53D01*
X0Y52D02*
X7Y52D01*
X273Y52D02*
X275Y52D01*
X400Y52D02*
X402Y52D01*
X661Y52D02*
X668Y52D01*
X0Y51D02*
X7Y51D01*
X273Y51D02*
X275Y51D01*
X400Y51D02*
X402Y51D01*
X661Y51D02*
X668Y51D01*
X0Y50D02*
X7Y50D01*
X273Y50D02*
X275Y50D01*
X400Y50D02*
X402Y50D01*
X661Y50D02*
X668Y50D01*
X0Y49D02*
X7Y49D01*
X273Y49D02*
X275Y49D01*
X400Y49D02*
X402Y49D01*
X661Y49D02*
X668Y49D01*
X0Y48D02*
X7Y48D01*
X273Y48D02*
X275Y48D01*
X400Y48D02*
X402Y48D01*
X661Y48D02*
X668Y48D01*
X0Y47D02*
X7Y47D01*
X273Y47D02*
X275Y47D01*
X400Y47D02*
X402Y47D01*
X661Y47D02*
X668Y47D01*
X0Y46D02*
X7Y46D01*
X273Y46D02*
X275Y46D01*
X400Y46D02*
X402Y46D01*
X661Y46D02*
X668Y46D01*
X0Y45D02*
X7Y45D01*
X273Y45D02*
X275Y45D01*
X400Y45D02*
X402Y45D01*
X661Y45D02*
X668Y45D01*
X0Y44D02*
X7Y44D01*
X273Y44D02*
X275Y44D01*
X400Y44D02*
X402Y44D01*
X661Y44D02*
X668Y44D01*
X0Y43D02*
X7Y43D01*
X273Y43D02*
X275Y43D01*
X400Y43D02*
X402Y43D01*
X661Y43D02*
X668Y43D01*
X0Y42D02*
X7Y42D01*
X273Y42D02*
X275Y42D01*
X400Y42D02*
X402Y42D01*
X661Y42D02*
X668Y42D01*
X0Y41D02*
X7Y41D01*
X273Y41D02*
X275Y41D01*
X400Y41D02*
X402Y41D01*
X661Y41D02*
X668Y41D01*
X0Y40D02*
X7Y40D01*
X273Y40D02*
X275Y40D01*
X400Y40D02*
X402Y40D01*
X661Y40D02*
X668Y40D01*
X0Y39D02*
X7Y39D01*
X273Y39D02*
X275Y39D01*
X400Y39D02*
X402Y39D01*
X661Y39D02*
X668Y39D01*
X0Y38D02*
X7Y38D01*
X273Y38D02*
X275Y38D01*
X400Y38D02*
X402Y38D01*
X661Y38D02*
X668Y38D01*
X0Y37D02*
X7Y37D01*
X273Y37D02*
X275Y37D01*
X400Y37D02*
X402Y37D01*
X661Y37D02*
X668Y37D01*
X0Y36D02*
X7Y36D01*
X273Y36D02*
X275Y36D01*
X400Y36D02*
X402Y36D01*
X661Y36D02*
X668Y36D01*
X0Y35D02*
X7Y35D01*
X273Y35D02*
X275Y35D01*
X400Y35D02*
X402Y35D01*
X661Y35D02*
X668Y35D01*
X0Y34D02*
X7Y34D01*
X273Y34D02*
X275Y34D01*
X400Y34D02*
X402Y34D01*
X661Y34D02*
X668Y34D01*
X0Y33D02*
X7Y33D01*
X273Y33D02*
X275Y33D01*
X400Y33D02*
X402Y33D01*
X661Y33D02*
X668Y33D01*
X0Y32D02*
X7Y32D01*
X273Y32D02*
X275Y32D01*
X400Y32D02*
X402Y32D01*
X661Y32D02*
X668Y32D01*
X0Y31D02*
X7Y31D01*
X273Y31D02*
X275Y31D01*
X400Y31D02*
X402Y31D01*
X661Y31D02*
X668Y31D01*
X0Y30D02*
X7Y30D01*
X273Y30D02*
X275Y30D01*
X333Y30D02*
X342Y30D01*
X400Y30D02*
X402Y30D01*
X661Y30D02*
X668Y30D01*
X0Y29D02*
X7Y29D01*
X273Y29D02*
X402Y29D01*
X661Y29D02*
X668Y29D01*
X0Y28D02*
X7Y28D01*
X273Y28D02*
X402Y28D01*
X661Y28D02*
X668Y28D01*
X0Y27D02*
X7Y27D01*
X273Y27D02*
X402Y27D01*
X661Y27D02*
X668Y27D01*
X0Y26D02*
X7Y26D01*
X661Y26D02*
X668Y26D01*
X0Y25D02*
X7Y25D01*
X661Y25D02*
X668Y25D01*
X0Y24D02*
X7Y24D01*
X661Y24D02*
X668Y24D01*
X0Y23D02*
X7Y23D01*
X661Y23D02*
X668Y23D01*
X0Y22D02*
X7Y22D01*
X661Y22D02*
X668Y22D01*
X0Y21D02*
X7Y21D01*
X661Y21D02*
X668Y21D01*
X0Y20D02*
X7Y20D01*
X661Y20D02*
X668Y20D01*
X0Y19D02*
X7Y19D01*
X661Y19D02*
X668Y19D01*
X0Y18D02*
X7Y18D01*
X661Y18D02*
X668Y18D01*
X0Y17D02*
X7Y17D01*
X661Y17D02*
X668Y17D01*
X0Y16D02*
X7Y16D01*
X661Y16D02*
X668Y16D01*
X0Y15D02*
X7Y15D01*
X661Y15D02*
X668Y15D01*
X0Y14D02*
X7Y14D01*
X661Y14D02*
X668Y14D01*
X0Y13D02*
X7Y13D01*
X661Y13D02*
X668Y13D01*
X0Y12D02*
X7Y12D01*
X661Y12D02*
X668Y12D01*
X0Y11D02*
X7Y11D01*
X661Y11D02*
X668Y11D01*
X0Y10D02*
X7Y10D01*
X661Y10D02*
X668Y10D01*
X0Y9D02*
X7Y9D01*
X661Y9D02*
X668Y9D01*
X0Y8D02*
X668Y8D01*
X0Y7D02*
X668Y7D01*
X0Y6D02*
X668Y6D01*
X0Y5D02*
X668Y5D01*
X0Y4D02*
X668Y4D01*
X0Y3D02*
X668Y3D01*
X0Y2D02*
X668Y2D01*
X0Y1D02*
X668Y1D01*
D02*
G04 End of Silk1*
M02*