; NON-PLATED HOLES START AT T1
; THROUGH (PLATED) HOLES START AT T100
M48
INCH
T100C0.015748
T101C0.038000
%
T100
X002641Y008832
X002384Y000820
X009479Y003747
X006382Y010017
X008966Y004191
X003298Y008075
X003169Y002963
X002741Y004448
X003305Y008641
X003355Y010089
X003083Y003820
X009466Y002678
X007567Y004962
X001013Y010203
X009175Y000657
X005697Y002023
X009778Y005289
X000874Y003566
X000960Y001751
T101
X007554Y001294
X006554Y001294
T00
M30
