G04 MADE WITH FRITZING*
G04 WWW.FRITZING.ORG*
G04 DOUBLE SIDED*
G04 HOLES PLATED*
G04 CONTOUR ON CENTER OF CONTOUR VECTOR*
%ASAXBY*%
%FSLAX23Y23*%
%MOIN*%
%OFA0B0*%
%SFA1.0B1.0*%
%ADD10C,0.088000*%
%ADD11C,0.049370*%
%ADD12R,0.088000X0.088000*%
%ADD13R,0.041496X0.045433*%
%ADD14R,0.057244X0.088740*%
%ADD15R,0.060000X0.067874*%
%ADD16R,0.057244X0.053307*%
%ADD17R,0.041496X0.041496*%
%ADD18R,0.031654X0.057244*%
%ADD19R,0.037559X0.045433*%
%ADD20R,0.029685X0.057244*%
%ADD21R,0.057244X0.029685*%
%ADD22R,0.021811X0.041496*%
%ADD23R,0.041496X0.021811*%
%ADD24R,0.049370X0.049370*%
%ADD25R,0.034000X0.097000*%
%ADD26R,0.045433X0.037559*%
%ADD27R,0.049370X0.088740*%
%ADD28R,0.025748X0.065118*%
%ADD29R,0.088740X0.084803*%
%ADD30R,0.096614X0.084803*%
%ADD31R,0.049370X0.019843*%
%ADD32R,0.069055X0.069055*%
%ADD33R,0.110000X0.042000*%
%ADD34R,0.049370X0.053307*%
%ADD35R,0.001000X0.001000*%
%LNMASK1*%
G90*
G70*
G54D10*
X755Y129D03*
X655Y129D03*
G54D11*
X638Y1002D03*
X757Y496D03*
X978Y529D03*
X948Y375D03*
X897Y419D03*
X274Y445D03*
X947Y268D03*
X308Y382D03*
X317Y296D03*
X336Y1009D03*
X264Y883D03*
X330Y808D03*
X101Y1020D03*
X331Y864D03*
X238Y82D03*
X96Y175D03*
X918Y66D03*
X570Y202D03*
X87Y357D03*
G54D12*
X755Y129D03*
G54D13*
X567Y291D03*
X641Y291D03*
X604Y374D03*
G54D14*
X689Y549D03*
X815Y549D03*
G54D15*
X423Y519D03*
X593Y519D03*
G54D16*
X409Y264D03*
X476Y264D03*
X338Y195D03*
X271Y195D03*
G54D17*
X359Y86D03*
X300Y86D03*
G54D16*
X478Y351D03*
X412Y351D03*
G54D18*
X420Y86D03*
X458Y86D03*
X495Y86D03*
X495Y188D03*
X420Y188D03*
G54D19*
X690Y222D03*
X741Y222D03*
G54D20*
X43Y952D03*
X74Y952D03*
X106Y952D03*
X137Y952D03*
X169Y952D03*
X200Y952D03*
G54D21*
X204Y909D03*
G54D20*
X200Y866D03*
X169Y866D03*
X137Y866D03*
X106Y866D03*
X74Y866D03*
X43Y866D03*
G54D21*
X39Y909D03*
G54D22*
X156Y406D03*
X136Y406D03*
X117Y406D03*
X97Y406D03*
X77Y406D03*
X57Y406D03*
G54D23*
X28Y377D03*
X28Y357D03*
X28Y337D03*
X28Y318D03*
X28Y298D03*
X28Y278D03*
G54D22*
X57Y249D03*
X77Y249D03*
X97Y249D03*
X117Y249D03*
X136Y249D03*
X156Y249D03*
G54D23*
X185Y278D03*
X185Y298D03*
X185Y318D03*
X185Y337D03*
X185Y357D03*
X185Y377D03*
G54D24*
X107Y327D03*
G54D25*
X1061Y222D03*
X1111Y222D03*
X1161Y222D03*
X1211Y222D03*
X1211Y428D03*
X1161Y428D03*
X1111Y428D03*
X1061Y428D03*
G54D19*
X320Y481D03*
X371Y481D03*
G54D26*
X989Y556D03*
X989Y607D03*
G54D27*
X237Y55D03*
X43Y57D03*
X1214Y55D03*
X1005Y53D03*
G54D28*
X210Y1058D03*
X236Y1058D03*
X261Y1058D03*
X185Y1058D03*
X159Y1058D03*
G54D29*
X259Y1170D03*
X161Y1170D03*
G54D30*
X368Y1170D03*
X53Y1170D03*
G54D26*
X901Y558D03*
X901Y609D03*
G54D31*
X187Y722D03*
X187Y702D03*
X187Y682D03*
X187Y662D03*
X187Y643D03*
X187Y623D03*
X187Y603D03*
X187Y584D03*
X187Y564D03*
X187Y544D03*
G54D32*
X36Y790D03*
X36Y475D03*
G54D33*
X1184Y703D03*
X1184Y753D03*
X1184Y803D03*
X1184Y853D03*
X1184Y903D03*
X1184Y953D03*
X1184Y1003D03*
X1184Y1053D03*
X656Y1203D03*
X656Y1153D03*
X656Y1103D03*
X656Y1053D03*
X656Y1003D03*
X656Y953D03*
X656Y903D03*
X656Y853D03*
X656Y803D03*
X656Y753D03*
X656Y703D03*
G54D18*
X721Y325D03*
X758Y325D03*
X796Y325D03*
X796Y428D03*
X721Y428D03*
G54D34*
X884Y202D03*
X884Y135D03*
G54D35*
X601Y1224D02*
X605Y1224D01*
X706Y1224D02*
X710Y1224D01*
X598Y1223D02*
X605Y1223D01*
X706Y1223D02*
X713Y1223D01*
X596Y1222D02*
X605Y1222D01*
X706Y1222D02*
X715Y1222D01*
X594Y1221D02*
X605Y1221D01*
X706Y1221D02*
X716Y1221D01*
X593Y1220D02*
X605Y1220D01*
X706Y1220D02*
X718Y1220D01*
X592Y1219D02*
X605Y1219D01*
X706Y1219D02*
X719Y1219D01*
X591Y1218D02*
X605Y1218D01*
X706Y1218D02*
X720Y1218D01*
X590Y1217D02*
X605Y1217D01*
X706Y1217D02*
X721Y1217D01*
X589Y1216D02*
X605Y1216D01*
X706Y1216D02*
X721Y1216D01*
X589Y1215D02*
X605Y1215D01*
X706Y1215D02*
X722Y1215D01*
X588Y1214D02*
X605Y1214D01*
X706Y1214D02*
X723Y1214D01*
X587Y1213D02*
X605Y1213D01*
X706Y1213D02*
X723Y1213D01*
X587Y1212D02*
X605Y1212D01*
X706Y1212D02*
X724Y1212D01*
X586Y1211D02*
X605Y1211D01*
X706Y1211D02*
X724Y1211D01*
X586Y1210D02*
X605Y1210D01*
X706Y1210D02*
X725Y1210D01*
X586Y1209D02*
X605Y1209D01*
X706Y1209D02*
X725Y1209D01*
X585Y1208D02*
X605Y1208D01*
X706Y1208D02*
X725Y1208D01*
X585Y1207D02*
X605Y1207D01*
X706Y1207D02*
X726Y1207D01*
X585Y1206D02*
X605Y1206D01*
X706Y1206D02*
X726Y1206D01*
X585Y1205D02*
X605Y1205D01*
X706Y1205D02*
X726Y1205D01*
X585Y1204D02*
X605Y1204D01*
X706Y1204D02*
X726Y1204D01*
X585Y1203D02*
X605Y1203D01*
X706Y1203D02*
X726Y1203D01*
X585Y1202D02*
X605Y1202D01*
X706Y1202D02*
X726Y1202D01*
X585Y1201D02*
X605Y1201D01*
X706Y1201D02*
X726Y1201D01*
X585Y1200D02*
X605Y1200D01*
X706Y1200D02*
X725Y1200D01*
X586Y1199D02*
X605Y1199D01*
X706Y1199D02*
X725Y1199D01*
X586Y1198D02*
X605Y1198D01*
X706Y1198D02*
X725Y1198D01*
X586Y1197D02*
X605Y1197D01*
X706Y1197D02*
X724Y1197D01*
X587Y1196D02*
X605Y1196D01*
X706Y1196D02*
X724Y1196D01*
X587Y1195D02*
X605Y1195D01*
X706Y1195D02*
X724Y1195D01*
X588Y1194D02*
X605Y1194D01*
X706Y1194D02*
X723Y1194D01*
X588Y1193D02*
X605Y1193D01*
X706Y1193D02*
X722Y1193D01*
X589Y1192D02*
X605Y1192D01*
X706Y1192D02*
X722Y1192D01*
X590Y1191D02*
X605Y1191D01*
X706Y1191D02*
X721Y1191D01*
X591Y1190D02*
X605Y1190D01*
X706Y1190D02*
X720Y1190D01*
X592Y1189D02*
X605Y1189D01*
X706Y1189D02*
X719Y1189D01*
X593Y1188D02*
X605Y1188D01*
X706Y1188D02*
X718Y1188D01*
X594Y1187D02*
X605Y1187D01*
X706Y1187D02*
X717Y1187D01*
X596Y1186D02*
X605Y1186D01*
X706Y1186D02*
X715Y1186D01*
X597Y1185D02*
X605Y1185D01*
X706Y1185D02*
X713Y1185D01*
X600Y1184D02*
X605Y1184D01*
X706Y1184D02*
X711Y1184D01*
X604Y1183D02*
X605Y1183D01*
X706Y1183D02*
X707Y1183D01*
X601Y1174D02*
X605Y1174D01*
X706Y1174D02*
X710Y1174D01*
X598Y1173D02*
X605Y1173D01*
X706Y1173D02*
X713Y1173D01*
X596Y1172D02*
X605Y1172D01*
X706Y1172D02*
X715Y1172D01*
X594Y1171D02*
X605Y1171D01*
X706Y1171D02*
X716Y1171D01*
X593Y1170D02*
X605Y1170D01*
X706Y1170D02*
X718Y1170D01*
X592Y1169D02*
X605Y1169D01*
X706Y1169D02*
X719Y1169D01*
X591Y1168D02*
X605Y1168D01*
X706Y1168D02*
X720Y1168D01*
X590Y1167D02*
X605Y1167D01*
X706Y1167D02*
X721Y1167D01*
X589Y1166D02*
X605Y1166D01*
X706Y1166D02*
X721Y1166D01*
X589Y1165D02*
X605Y1165D01*
X706Y1165D02*
X722Y1165D01*
X588Y1164D02*
X605Y1164D01*
X706Y1164D02*
X723Y1164D01*
X587Y1163D02*
X605Y1163D01*
X706Y1163D02*
X723Y1163D01*
X587Y1162D02*
X605Y1162D01*
X706Y1162D02*
X724Y1162D01*
X586Y1161D02*
X605Y1161D01*
X706Y1161D02*
X724Y1161D01*
X586Y1160D02*
X605Y1160D01*
X706Y1160D02*
X725Y1160D01*
X586Y1159D02*
X605Y1159D01*
X706Y1159D02*
X725Y1159D01*
X585Y1158D02*
X605Y1158D01*
X706Y1158D02*
X725Y1158D01*
X585Y1157D02*
X605Y1157D01*
X706Y1157D02*
X726Y1157D01*
X585Y1156D02*
X605Y1156D01*
X706Y1156D02*
X726Y1156D01*
X585Y1155D02*
X605Y1155D01*
X706Y1155D02*
X726Y1155D01*
X585Y1154D02*
X605Y1154D01*
X706Y1154D02*
X726Y1154D01*
X585Y1153D02*
X605Y1153D01*
X706Y1153D02*
X726Y1153D01*
X585Y1152D02*
X605Y1152D01*
X706Y1152D02*
X726Y1152D01*
X585Y1151D02*
X605Y1151D01*
X706Y1151D02*
X726Y1151D01*
X585Y1150D02*
X605Y1150D01*
X706Y1150D02*
X725Y1150D01*
X586Y1149D02*
X605Y1149D01*
X706Y1149D02*
X725Y1149D01*
X586Y1148D02*
X605Y1148D01*
X706Y1148D02*
X725Y1148D01*
X586Y1147D02*
X605Y1147D01*
X706Y1147D02*
X724Y1147D01*
X587Y1146D02*
X605Y1146D01*
X706Y1146D02*
X724Y1146D01*
X587Y1145D02*
X605Y1145D01*
X706Y1145D02*
X724Y1145D01*
X588Y1144D02*
X605Y1144D01*
X706Y1144D02*
X723Y1144D01*
X588Y1143D02*
X605Y1143D01*
X706Y1143D02*
X722Y1143D01*
X589Y1142D02*
X605Y1142D01*
X706Y1142D02*
X722Y1142D01*
X590Y1141D02*
X605Y1141D01*
X706Y1141D02*
X721Y1141D01*
X591Y1140D02*
X605Y1140D01*
X706Y1140D02*
X720Y1140D01*
X592Y1139D02*
X605Y1139D01*
X706Y1139D02*
X719Y1139D01*
X593Y1138D02*
X605Y1138D01*
X706Y1138D02*
X718Y1138D01*
X594Y1137D02*
X605Y1137D01*
X706Y1137D02*
X717Y1137D01*
X596Y1136D02*
X605Y1136D01*
X706Y1136D02*
X715Y1136D01*
X597Y1135D02*
X605Y1135D01*
X706Y1135D02*
X713Y1135D01*
X600Y1134D02*
X605Y1134D01*
X706Y1134D02*
X711Y1134D01*
X604Y1133D02*
X605Y1133D01*
X706Y1133D02*
X707Y1133D01*
X601Y1124D02*
X605Y1124D01*
X706Y1124D02*
X710Y1124D01*
X598Y1123D02*
X605Y1123D01*
X706Y1123D02*
X713Y1123D01*
X596Y1122D02*
X605Y1122D01*
X706Y1122D02*
X715Y1122D01*
X594Y1121D02*
X605Y1121D01*
X706Y1121D02*
X716Y1121D01*
X593Y1120D02*
X605Y1120D01*
X706Y1120D02*
X718Y1120D01*
X592Y1119D02*
X605Y1119D01*
X706Y1119D02*
X719Y1119D01*
X591Y1118D02*
X605Y1118D01*
X706Y1118D02*
X720Y1118D01*
X590Y1117D02*
X605Y1117D01*
X706Y1117D02*
X721Y1117D01*
X589Y1116D02*
X605Y1116D01*
X706Y1116D02*
X722Y1116D01*
X588Y1115D02*
X605Y1115D01*
X706Y1115D02*
X722Y1115D01*
X588Y1114D02*
X605Y1114D01*
X706Y1114D02*
X723Y1114D01*
X587Y1113D02*
X605Y1113D01*
X706Y1113D02*
X723Y1113D01*
X587Y1112D02*
X605Y1112D01*
X706Y1112D02*
X724Y1112D01*
X586Y1111D02*
X605Y1111D01*
X706Y1111D02*
X724Y1111D01*
X586Y1110D02*
X605Y1110D01*
X706Y1110D02*
X725Y1110D01*
X586Y1109D02*
X605Y1109D01*
X706Y1109D02*
X725Y1109D01*
X585Y1108D02*
X605Y1108D01*
X706Y1108D02*
X725Y1108D01*
X585Y1107D02*
X605Y1107D01*
X706Y1107D02*
X726Y1107D01*
X585Y1106D02*
X605Y1106D01*
X706Y1106D02*
X726Y1106D01*
X585Y1105D02*
X605Y1105D01*
X706Y1105D02*
X726Y1105D01*
X585Y1104D02*
X605Y1104D01*
X706Y1104D02*
X726Y1104D01*
X585Y1103D02*
X605Y1103D01*
X706Y1103D02*
X726Y1103D01*
X585Y1102D02*
X605Y1102D01*
X706Y1102D02*
X726Y1102D01*
X585Y1101D02*
X605Y1101D01*
X706Y1101D02*
X726Y1101D01*
X585Y1100D02*
X605Y1100D01*
X706Y1100D02*
X725Y1100D01*
X586Y1099D02*
X605Y1099D01*
X706Y1099D02*
X725Y1099D01*
X586Y1098D02*
X605Y1098D01*
X706Y1098D02*
X725Y1098D01*
X586Y1097D02*
X605Y1097D01*
X706Y1097D02*
X724Y1097D01*
X587Y1096D02*
X605Y1096D01*
X706Y1096D02*
X724Y1096D01*
X587Y1095D02*
X605Y1095D01*
X706Y1095D02*
X723Y1095D01*
X588Y1094D02*
X605Y1094D01*
X706Y1094D02*
X723Y1094D01*
X588Y1093D02*
X605Y1093D01*
X706Y1093D02*
X722Y1093D01*
X589Y1092D02*
X605Y1092D01*
X706Y1092D02*
X722Y1092D01*
X590Y1091D02*
X605Y1091D01*
X706Y1091D02*
X721Y1091D01*
X591Y1090D02*
X605Y1090D01*
X706Y1090D02*
X720Y1090D01*
X592Y1089D02*
X605Y1089D01*
X706Y1089D02*
X719Y1089D01*
X593Y1088D02*
X605Y1088D01*
X706Y1088D02*
X718Y1088D01*
X594Y1087D02*
X605Y1087D01*
X706Y1087D02*
X717Y1087D01*
X596Y1086D02*
X605Y1086D01*
X706Y1086D02*
X715Y1086D01*
X597Y1085D02*
X605Y1085D01*
X706Y1085D02*
X713Y1085D01*
X600Y1084D02*
X605Y1084D01*
X706Y1084D02*
X711Y1084D01*
X605Y1083D02*
X605Y1083D01*
X706Y1083D02*
X706Y1083D01*
X600Y1074D02*
X605Y1074D01*
X706Y1074D02*
X710Y1074D01*
X1128Y1074D02*
X1133Y1074D01*
X1233Y1074D02*
X1238Y1074D01*
X598Y1073D02*
X605Y1073D01*
X706Y1073D02*
X713Y1073D01*
X1125Y1073D02*
X1133Y1073D01*
X1233Y1073D02*
X1241Y1073D01*
X596Y1072D02*
X605Y1072D01*
X706Y1072D02*
X715Y1072D01*
X1124Y1072D02*
X1133Y1072D01*
X1233Y1072D02*
X1242Y1072D01*
X594Y1071D02*
X605Y1071D01*
X706Y1071D02*
X716Y1071D01*
X1122Y1071D02*
X1133Y1071D01*
X1233Y1071D02*
X1244Y1071D01*
X593Y1070D02*
X605Y1070D01*
X706Y1070D02*
X718Y1070D01*
X1121Y1070D02*
X1133Y1070D01*
X1233Y1070D02*
X1245Y1070D01*
X592Y1069D02*
X605Y1069D01*
X706Y1069D02*
X719Y1069D01*
X1120Y1069D02*
X1133Y1069D01*
X1233Y1069D02*
X1247Y1069D01*
X591Y1068D02*
X605Y1068D01*
X706Y1068D02*
X720Y1068D01*
X1119Y1068D02*
X1133Y1068D01*
X1233Y1068D02*
X1248Y1068D01*
X590Y1067D02*
X605Y1067D01*
X706Y1067D02*
X721Y1067D01*
X1118Y1067D02*
X1133Y1067D01*
X1233Y1067D02*
X1248Y1067D01*
X589Y1066D02*
X605Y1066D01*
X706Y1066D02*
X722Y1066D01*
X1117Y1066D02*
X1133Y1066D01*
X1233Y1066D02*
X1249Y1066D01*
X588Y1065D02*
X605Y1065D01*
X706Y1065D02*
X722Y1065D01*
X1116Y1065D02*
X1133Y1065D01*
X1233Y1065D02*
X1250Y1065D01*
X588Y1064D02*
X605Y1064D01*
X706Y1064D02*
X723Y1064D01*
X1116Y1064D02*
X1133Y1064D01*
X1233Y1064D02*
X1250Y1064D01*
X587Y1063D02*
X605Y1063D01*
X706Y1063D02*
X723Y1063D01*
X1115Y1063D02*
X1133Y1063D01*
X1233Y1063D02*
X1251Y1063D01*
X587Y1062D02*
X605Y1062D01*
X706Y1062D02*
X724Y1062D01*
X1114Y1062D02*
X1133Y1062D01*
X1233Y1062D02*
X1252Y1062D01*
X586Y1061D02*
X605Y1061D01*
X706Y1061D02*
X724Y1061D01*
X1114Y1061D02*
X1133Y1061D01*
X1233Y1061D02*
X1252Y1061D01*
X586Y1060D02*
X605Y1060D01*
X706Y1060D02*
X725Y1060D01*
X1114Y1060D02*
X1133Y1060D01*
X1233Y1060D02*
X1252Y1060D01*
X586Y1059D02*
X605Y1059D01*
X706Y1059D02*
X725Y1059D01*
X1113Y1059D02*
X1133Y1059D01*
X1233Y1059D02*
X1253Y1059D01*
X585Y1058D02*
X605Y1058D01*
X706Y1058D02*
X725Y1058D01*
X1113Y1058D02*
X1133Y1058D01*
X1233Y1058D02*
X1253Y1058D01*
X585Y1057D02*
X605Y1057D01*
X706Y1057D02*
X726Y1057D01*
X1113Y1057D02*
X1133Y1057D01*
X1233Y1057D02*
X1253Y1057D01*
X585Y1056D02*
X605Y1056D01*
X706Y1056D02*
X726Y1056D01*
X1113Y1056D02*
X1133Y1056D01*
X1233Y1056D02*
X1253Y1056D01*
X585Y1055D02*
X605Y1055D01*
X706Y1055D02*
X726Y1055D01*
X1113Y1055D02*
X1133Y1055D01*
X1233Y1055D02*
X1253Y1055D01*
X585Y1054D02*
X605Y1054D01*
X706Y1054D02*
X726Y1054D01*
X1113Y1054D02*
X1133Y1054D01*
X1233Y1054D02*
X1253Y1054D01*
X585Y1053D02*
X605Y1053D01*
X706Y1053D02*
X726Y1053D01*
X1113Y1053D02*
X1133Y1053D01*
X1233Y1053D02*
X1253Y1053D01*
X585Y1052D02*
X605Y1052D01*
X706Y1052D02*
X726Y1052D01*
X1113Y1052D02*
X1133Y1052D01*
X1233Y1052D02*
X1253Y1052D01*
X585Y1051D02*
X605Y1051D01*
X706Y1051D02*
X726Y1051D01*
X1113Y1051D02*
X1133Y1051D01*
X1233Y1051D02*
X1253Y1051D01*
X585Y1050D02*
X605Y1050D01*
X706Y1050D02*
X725Y1050D01*
X1113Y1050D02*
X1133Y1050D01*
X1233Y1050D02*
X1253Y1050D01*
X586Y1049D02*
X605Y1049D01*
X706Y1049D02*
X725Y1049D01*
X1113Y1049D02*
X1133Y1049D01*
X1233Y1049D02*
X1253Y1049D01*
X586Y1048D02*
X605Y1048D01*
X706Y1048D02*
X725Y1048D01*
X1114Y1048D02*
X1133Y1048D01*
X1233Y1048D02*
X1252Y1048D01*
X586Y1047D02*
X605Y1047D01*
X706Y1047D02*
X724Y1047D01*
X1114Y1047D02*
X1133Y1047D01*
X1233Y1047D02*
X1252Y1047D01*
X587Y1046D02*
X605Y1046D01*
X706Y1046D02*
X724Y1046D01*
X1114Y1046D02*
X1133Y1046D01*
X1233Y1046D02*
X1252Y1046D01*
X587Y1045D02*
X605Y1045D01*
X706Y1045D02*
X723Y1045D01*
X1115Y1045D02*
X1133Y1045D01*
X1233Y1045D02*
X1251Y1045D01*
X588Y1044D02*
X605Y1044D01*
X706Y1044D02*
X723Y1044D01*
X1115Y1044D02*
X1133Y1044D01*
X1233Y1044D02*
X1251Y1044D01*
X588Y1043D02*
X605Y1043D01*
X706Y1043D02*
X722Y1043D01*
X1116Y1043D02*
X1133Y1043D01*
X1233Y1043D02*
X1250Y1043D01*
X589Y1042D02*
X605Y1042D01*
X706Y1042D02*
X722Y1042D01*
X1117Y1042D02*
X1133Y1042D01*
X1233Y1042D02*
X1249Y1042D01*
X590Y1041D02*
X605Y1041D01*
X706Y1041D02*
X721Y1041D01*
X1118Y1041D02*
X1133Y1041D01*
X1233Y1041D02*
X1248Y1041D01*
X591Y1040D02*
X605Y1040D01*
X706Y1040D02*
X720Y1040D01*
X1118Y1040D02*
X1133Y1040D01*
X1233Y1040D02*
X1248Y1040D01*
X592Y1039D02*
X605Y1039D01*
X706Y1039D02*
X719Y1039D01*
X1119Y1039D02*
X1133Y1039D01*
X1233Y1039D02*
X1247Y1039D01*
X593Y1038D02*
X605Y1038D01*
X706Y1038D02*
X718Y1038D01*
X1121Y1038D02*
X1133Y1038D01*
X1233Y1038D02*
X1245Y1038D01*
X594Y1037D02*
X605Y1037D01*
X706Y1037D02*
X717Y1037D01*
X1122Y1037D02*
X1133Y1037D01*
X1233Y1037D02*
X1244Y1037D01*
X596Y1036D02*
X605Y1036D01*
X706Y1036D02*
X715Y1036D01*
X1123Y1036D02*
X1133Y1036D01*
X1233Y1036D02*
X1243Y1036D01*
X598Y1035D02*
X605Y1035D01*
X706Y1035D02*
X713Y1035D01*
X1125Y1035D02*
X1133Y1035D01*
X1233Y1035D02*
X1241Y1035D01*
X600Y1034D02*
X605Y1034D01*
X706Y1034D02*
X711Y1034D01*
X1128Y1034D02*
X1133Y1034D01*
X1233Y1034D02*
X1238Y1034D01*
X706Y1033D02*
X706Y1033D01*
X600Y1024D02*
X605Y1024D01*
X706Y1024D02*
X710Y1024D01*
X1128Y1024D02*
X1133Y1024D01*
X1233Y1024D02*
X1238Y1024D01*
X598Y1023D02*
X605Y1023D01*
X706Y1023D02*
X713Y1023D01*
X1125Y1023D02*
X1133Y1023D01*
X1233Y1023D02*
X1241Y1023D01*
X596Y1022D02*
X605Y1022D01*
X706Y1022D02*
X715Y1022D01*
X1124Y1022D02*
X1133Y1022D01*
X1233Y1022D02*
X1243Y1022D01*
X594Y1021D02*
X605Y1021D01*
X706Y1021D02*
X717Y1021D01*
X1122Y1021D02*
X1133Y1021D01*
X1233Y1021D02*
X1244Y1021D01*
X593Y1020D02*
X605Y1020D01*
X706Y1020D02*
X718Y1020D01*
X1121Y1020D02*
X1133Y1020D01*
X1233Y1020D02*
X1245Y1020D01*
X592Y1019D02*
X605Y1019D01*
X706Y1019D02*
X719Y1019D01*
X1119Y1019D02*
X1133Y1019D01*
X1233Y1019D02*
X1247Y1019D01*
X591Y1018D02*
X605Y1018D01*
X706Y1018D02*
X720Y1018D01*
X1118Y1018D02*
X1133Y1018D01*
X1233Y1018D02*
X1248Y1018D01*
X590Y1017D02*
X605Y1017D01*
X706Y1017D02*
X721Y1017D01*
X1118Y1017D02*
X1133Y1017D01*
X1233Y1017D02*
X1248Y1017D01*
X589Y1016D02*
X605Y1016D01*
X706Y1016D02*
X722Y1016D01*
X1117Y1016D02*
X1133Y1016D01*
X1233Y1016D02*
X1249Y1016D01*
X588Y1015D02*
X605Y1015D01*
X706Y1015D02*
X722Y1015D01*
X1116Y1015D02*
X1133Y1015D01*
X1233Y1015D02*
X1250Y1015D01*
X588Y1014D02*
X605Y1014D01*
X706Y1014D02*
X723Y1014D01*
X1116Y1014D02*
X1133Y1014D01*
X1233Y1014D02*
X1251Y1014D01*
X587Y1013D02*
X605Y1013D01*
X706Y1013D02*
X723Y1013D01*
X1115Y1013D02*
X1133Y1013D01*
X1233Y1013D02*
X1251Y1013D01*
X587Y1012D02*
X605Y1012D01*
X706Y1012D02*
X724Y1012D01*
X1114Y1012D02*
X1133Y1012D01*
X1233Y1012D02*
X1252Y1012D01*
X586Y1011D02*
X605Y1011D01*
X706Y1011D02*
X724Y1011D01*
X1114Y1011D02*
X1133Y1011D01*
X1233Y1011D02*
X1252Y1011D01*
X586Y1010D02*
X605Y1010D01*
X706Y1010D02*
X725Y1010D01*
X1114Y1010D02*
X1133Y1010D01*
X1233Y1010D02*
X1252Y1010D01*
X586Y1009D02*
X605Y1009D01*
X706Y1009D02*
X725Y1009D01*
X1113Y1009D02*
X1133Y1009D01*
X1233Y1009D02*
X1253Y1009D01*
X585Y1008D02*
X605Y1008D01*
X706Y1008D02*
X725Y1008D01*
X1113Y1008D02*
X1133Y1008D01*
X1233Y1008D02*
X1253Y1008D01*
X585Y1007D02*
X605Y1007D01*
X706Y1007D02*
X726Y1007D01*
X1113Y1007D02*
X1133Y1007D01*
X1233Y1007D02*
X1253Y1007D01*
X585Y1006D02*
X605Y1006D01*
X706Y1006D02*
X726Y1006D01*
X1113Y1006D02*
X1133Y1006D01*
X1233Y1006D02*
X1253Y1006D01*
X585Y1005D02*
X605Y1005D01*
X706Y1005D02*
X726Y1005D01*
X1113Y1005D02*
X1133Y1005D01*
X1233Y1005D02*
X1253Y1005D01*
X585Y1004D02*
X605Y1004D01*
X706Y1004D02*
X726Y1004D01*
X1113Y1004D02*
X1133Y1004D01*
X1233Y1004D02*
X1253Y1004D01*
X585Y1003D02*
X605Y1003D01*
X706Y1003D02*
X726Y1003D01*
X1113Y1003D02*
X1133Y1003D01*
X1233Y1003D02*
X1253Y1003D01*
X585Y1002D02*
X605Y1002D01*
X706Y1002D02*
X726Y1002D01*
X1113Y1002D02*
X1133Y1002D01*
X1233Y1002D02*
X1253Y1002D01*
X585Y1001D02*
X605Y1001D01*
X706Y1001D02*
X726Y1001D01*
X1113Y1001D02*
X1133Y1001D01*
X1233Y1001D02*
X1253Y1001D01*
X585Y1000D02*
X605Y1000D01*
X706Y1000D02*
X725Y1000D01*
X1113Y1000D02*
X1133Y1000D01*
X1233Y1000D02*
X1253Y1000D01*
X586Y999D02*
X605Y999D01*
X706Y999D02*
X725Y999D01*
X1113Y999D02*
X1133Y999D01*
X1233Y999D02*
X1253Y999D01*
X586Y998D02*
X605Y998D01*
X706Y998D02*
X725Y998D01*
X1114Y998D02*
X1133Y998D01*
X1233Y998D02*
X1252Y998D01*
X586Y997D02*
X605Y997D01*
X706Y997D02*
X724Y997D01*
X1114Y997D02*
X1133Y997D01*
X1233Y997D02*
X1252Y997D01*
X587Y996D02*
X605Y996D01*
X706Y996D02*
X724Y996D01*
X1114Y996D02*
X1133Y996D01*
X1233Y996D02*
X1252Y996D01*
X587Y995D02*
X605Y995D01*
X706Y995D02*
X723Y995D01*
X1115Y995D02*
X1133Y995D01*
X1233Y995D02*
X1251Y995D01*
X588Y994D02*
X605Y994D01*
X706Y994D02*
X723Y994D01*
X1116Y994D02*
X1133Y994D01*
X1233Y994D02*
X1251Y994D01*
X588Y993D02*
X605Y993D01*
X706Y993D02*
X722Y993D01*
X1116Y993D02*
X1133Y993D01*
X1233Y993D02*
X1250Y993D01*
X589Y992D02*
X605Y992D01*
X706Y992D02*
X722Y992D01*
X1117Y992D02*
X1133Y992D01*
X1233Y992D02*
X1249Y992D01*
X590Y991D02*
X605Y991D01*
X706Y991D02*
X721Y991D01*
X1118Y991D02*
X1133Y991D01*
X1233Y991D02*
X1248Y991D01*
X591Y990D02*
X605Y990D01*
X706Y990D02*
X720Y990D01*
X1118Y990D02*
X1133Y990D01*
X1233Y990D02*
X1248Y990D01*
X592Y989D02*
X605Y989D01*
X706Y989D02*
X719Y989D01*
X1119Y989D02*
X1133Y989D01*
X1233Y989D02*
X1247Y989D01*
X593Y988D02*
X605Y988D01*
X706Y988D02*
X718Y988D01*
X1121Y988D02*
X1133Y988D01*
X1233Y988D02*
X1245Y988D01*
X594Y987D02*
X605Y987D01*
X706Y987D02*
X717Y987D01*
X1122Y987D02*
X1133Y987D01*
X1233Y987D02*
X1244Y987D01*
X596Y986D02*
X605Y986D01*
X706Y986D02*
X715Y986D01*
X1123Y986D02*
X1133Y986D01*
X1233Y986D02*
X1243Y986D01*
X598Y985D02*
X605Y985D01*
X706Y985D02*
X713Y985D01*
X1125Y985D02*
X1133Y985D01*
X1233Y985D02*
X1241Y985D01*
X600Y984D02*
X605Y984D01*
X706Y984D02*
X711Y984D01*
X1128Y984D02*
X1133Y984D01*
X1233Y984D02*
X1238Y984D01*
X600Y974D02*
X605Y974D01*
X706Y974D02*
X711Y974D01*
X1128Y974D02*
X1133Y974D01*
X1233Y974D02*
X1238Y974D01*
X598Y973D02*
X605Y973D01*
X706Y973D02*
X713Y973D01*
X1125Y973D02*
X1133Y973D01*
X1233Y973D02*
X1241Y973D01*
X596Y972D02*
X605Y972D01*
X706Y972D02*
X715Y972D01*
X1123Y972D02*
X1133Y972D01*
X1233Y972D02*
X1243Y972D01*
X594Y971D02*
X605Y971D01*
X706Y971D02*
X717Y971D01*
X1122Y971D02*
X1133Y971D01*
X1233Y971D02*
X1244Y971D01*
X593Y970D02*
X605Y970D01*
X706Y970D02*
X718Y970D01*
X1121Y970D02*
X1133Y970D01*
X1233Y970D02*
X1245Y970D01*
X592Y969D02*
X605Y969D01*
X706Y969D02*
X719Y969D01*
X1119Y969D02*
X1133Y969D01*
X1233Y969D02*
X1247Y969D01*
X591Y968D02*
X605Y968D01*
X706Y968D02*
X720Y968D01*
X1118Y968D02*
X1133Y968D01*
X1233Y968D02*
X1248Y968D01*
X590Y967D02*
X605Y967D01*
X706Y967D02*
X721Y967D01*
X1118Y967D02*
X1133Y967D01*
X1233Y967D02*
X1248Y967D01*
X589Y966D02*
X605Y966D01*
X706Y966D02*
X722Y966D01*
X1117Y966D02*
X1133Y966D01*
X1233Y966D02*
X1249Y966D01*
X588Y965D02*
X605Y965D01*
X706Y965D02*
X722Y965D01*
X1116Y965D02*
X1133Y965D01*
X1233Y965D02*
X1250Y965D01*
X588Y964D02*
X605Y964D01*
X706Y964D02*
X723Y964D01*
X1116Y964D02*
X1133Y964D01*
X1233Y964D02*
X1251Y964D01*
X587Y963D02*
X605Y963D01*
X706Y963D02*
X723Y963D01*
X1115Y963D02*
X1133Y963D01*
X1233Y963D02*
X1251Y963D01*
X587Y962D02*
X605Y962D01*
X706Y962D02*
X724Y962D01*
X1114Y962D02*
X1133Y962D01*
X1233Y962D02*
X1252Y962D01*
X586Y961D02*
X605Y961D01*
X706Y961D02*
X724Y961D01*
X1114Y961D02*
X1133Y961D01*
X1233Y961D02*
X1252Y961D01*
X586Y960D02*
X605Y960D01*
X706Y960D02*
X725Y960D01*
X1114Y960D02*
X1133Y960D01*
X1233Y960D02*
X1252Y960D01*
X586Y959D02*
X605Y959D01*
X706Y959D02*
X725Y959D01*
X1113Y959D02*
X1133Y959D01*
X1233Y959D02*
X1253Y959D01*
X585Y958D02*
X605Y958D01*
X706Y958D02*
X725Y958D01*
X1113Y958D02*
X1133Y958D01*
X1233Y958D02*
X1253Y958D01*
X585Y957D02*
X605Y957D01*
X706Y957D02*
X726Y957D01*
X1113Y957D02*
X1133Y957D01*
X1233Y957D02*
X1253Y957D01*
X585Y956D02*
X605Y956D01*
X706Y956D02*
X726Y956D01*
X1113Y956D02*
X1133Y956D01*
X1233Y956D02*
X1253Y956D01*
X585Y955D02*
X605Y955D01*
X706Y955D02*
X726Y955D01*
X1113Y955D02*
X1133Y955D01*
X1233Y955D02*
X1253Y955D01*
X585Y954D02*
X605Y954D01*
X706Y954D02*
X726Y954D01*
X1113Y954D02*
X1133Y954D01*
X1233Y954D02*
X1253Y954D01*
X585Y953D02*
X605Y953D01*
X706Y953D02*
X726Y953D01*
X1113Y953D02*
X1133Y953D01*
X1233Y953D02*
X1253Y953D01*
X585Y952D02*
X605Y952D01*
X706Y952D02*
X726Y952D01*
X1113Y952D02*
X1133Y952D01*
X1233Y952D02*
X1253Y952D01*
X585Y951D02*
X605Y951D01*
X706Y951D02*
X726Y951D01*
X1113Y951D02*
X1133Y951D01*
X1233Y951D02*
X1253Y951D01*
X585Y950D02*
X605Y950D01*
X706Y950D02*
X725Y950D01*
X1113Y950D02*
X1133Y950D01*
X1233Y950D02*
X1253Y950D01*
X586Y949D02*
X605Y949D01*
X706Y949D02*
X725Y949D01*
X1113Y949D02*
X1133Y949D01*
X1233Y949D02*
X1253Y949D01*
X586Y948D02*
X605Y948D01*
X706Y948D02*
X725Y948D01*
X1114Y948D02*
X1133Y948D01*
X1233Y948D02*
X1252Y948D01*
X586Y947D02*
X605Y947D01*
X706Y947D02*
X724Y947D01*
X1114Y947D02*
X1133Y947D01*
X1233Y947D02*
X1252Y947D01*
X587Y946D02*
X605Y946D01*
X706Y946D02*
X724Y946D01*
X1114Y946D02*
X1133Y946D01*
X1233Y946D02*
X1252Y946D01*
X587Y945D02*
X605Y945D01*
X706Y945D02*
X723Y945D01*
X1115Y945D02*
X1133Y945D01*
X1233Y945D02*
X1251Y945D01*
X588Y944D02*
X605Y944D01*
X706Y944D02*
X723Y944D01*
X1116Y944D02*
X1133Y944D01*
X1233Y944D02*
X1251Y944D01*
X588Y943D02*
X605Y943D01*
X706Y943D02*
X722Y943D01*
X1116Y943D02*
X1133Y943D01*
X1233Y943D02*
X1250Y943D01*
X589Y942D02*
X605Y942D01*
X706Y942D02*
X722Y942D01*
X1117Y942D02*
X1133Y942D01*
X1233Y942D02*
X1249Y942D01*
X590Y941D02*
X605Y941D01*
X706Y941D02*
X721Y941D01*
X1118Y941D02*
X1133Y941D01*
X1233Y941D02*
X1248Y941D01*
X591Y940D02*
X605Y940D01*
X706Y940D02*
X720Y940D01*
X1118Y940D02*
X1133Y940D01*
X1233Y940D02*
X1248Y940D01*
X592Y939D02*
X605Y939D01*
X706Y939D02*
X719Y939D01*
X1119Y939D02*
X1133Y939D01*
X1233Y939D02*
X1247Y939D01*
X593Y938D02*
X605Y938D01*
X706Y938D02*
X718Y938D01*
X1121Y938D02*
X1133Y938D01*
X1233Y938D02*
X1245Y938D01*
X594Y937D02*
X605Y937D01*
X706Y937D02*
X717Y937D01*
X1122Y937D02*
X1133Y937D01*
X1233Y937D02*
X1244Y937D01*
X596Y936D02*
X605Y936D01*
X706Y936D02*
X715Y936D01*
X1124Y936D02*
X1133Y936D01*
X1233Y936D02*
X1243Y936D01*
X598Y935D02*
X605Y935D01*
X706Y935D02*
X713Y935D01*
X1125Y935D02*
X1133Y935D01*
X1233Y935D02*
X1241Y935D01*
X600Y934D02*
X605Y934D01*
X706Y934D02*
X710Y934D01*
X1128Y934D02*
X1133Y934D01*
X1233Y934D02*
X1238Y934D01*
X706Y925D02*
X706Y925D01*
X600Y924D02*
X605Y924D01*
X706Y924D02*
X711Y924D01*
X1128Y924D02*
X1133Y924D01*
X1233Y924D02*
X1238Y924D01*
X598Y923D02*
X605Y923D01*
X706Y923D02*
X713Y923D01*
X1125Y923D02*
X1133Y923D01*
X1233Y923D02*
X1241Y923D01*
X596Y922D02*
X605Y922D01*
X706Y922D02*
X715Y922D01*
X1123Y922D02*
X1133Y922D01*
X1233Y922D02*
X1243Y922D01*
X594Y921D02*
X605Y921D01*
X706Y921D02*
X717Y921D01*
X1122Y921D02*
X1133Y921D01*
X1233Y921D02*
X1244Y921D01*
X593Y920D02*
X605Y920D01*
X706Y920D02*
X718Y920D01*
X1121Y920D02*
X1133Y920D01*
X1233Y920D02*
X1245Y920D01*
X592Y919D02*
X605Y919D01*
X706Y919D02*
X719Y919D01*
X1119Y919D02*
X1133Y919D01*
X1233Y919D02*
X1247Y919D01*
X591Y918D02*
X605Y918D01*
X706Y918D02*
X720Y918D01*
X1118Y918D02*
X1133Y918D01*
X1233Y918D02*
X1248Y918D01*
X590Y917D02*
X605Y917D01*
X706Y917D02*
X721Y917D01*
X1118Y917D02*
X1133Y917D01*
X1233Y917D02*
X1248Y917D01*
X589Y916D02*
X605Y916D01*
X706Y916D02*
X722Y916D01*
X1117Y916D02*
X1133Y916D01*
X1233Y916D02*
X1249Y916D01*
X588Y915D02*
X605Y915D01*
X706Y915D02*
X722Y915D01*
X1116Y915D02*
X1133Y915D01*
X1233Y915D02*
X1250Y915D01*
X588Y914D02*
X605Y914D01*
X706Y914D02*
X723Y914D01*
X1115Y914D02*
X1133Y914D01*
X1233Y914D02*
X1251Y914D01*
X587Y913D02*
X605Y913D01*
X706Y913D02*
X723Y913D01*
X1115Y913D02*
X1133Y913D01*
X1233Y913D02*
X1251Y913D01*
X587Y912D02*
X605Y912D01*
X706Y912D02*
X724Y912D01*
X1114Y912D02*
X1133Y912D01*
X1233Y912D02*
X1252Y912D01*
X586Y911D02*
X605Y911D01*
X706Y911D02*
X724Y911D01*
X1114Y911D02*
X1133Y911D01*
X1233Y911D02*
X1252Y911D01*
X586Y910D02*
X605Y910D01*
X706Y910D02*
X725Y910D01*
X1114Y910D02*
X1133Y910D01*
X1233Y910D02*
X1252Y910D01*
X586Y909D02*
X605Y909D01*
X706Y909D02*
X725Y909D01*
X1113Y909D02*
X1133Y909D01*
X1233Y909D02*
X1253Y909D01*
X585Y908D02*
X605Y908D01*
X706Y908D02*
X725Y908D01*
X1113Y908D02*
X1133Y908D01*
X1233Y908D02*
X1253Y908D01*
X585Y907D02*
X605Y907D01*
X706Y907D02*
X726Y907D01*
X1113Y907D02*
X1133Y907D01*
X1233Y907D02*
X1253Y907D01*
X585Y906D02*
X605Y906D01*
X706Y906D02*
X726Y906D01*
X1113Y906D02*
X1133Y906D01*
X1233Y906D02*
X1253Y906D01*
X585Y905D02*
X605Y905D01*
X706Y905D02*
X726Y905D01*
X1113Y905D02*
X1133Y905D01*
X1233Y905D02*
X1253Y905D01*
X585Y904D02*
X605Y904D01*
X706Y904D02*
X726Y904D01*
X1113Y904D02*
X1133Y904D01*
X1233Y904D02*
X1253Y904D01*
X585Y903D02*
X605Y903D01*
X706Y903D02*
X726Y903D01*
X1113Y903D02*
X1133Y903D01*
X1233Y903D02*
X1253Y903D01*
X585Y902D02*
X605Y902D01*
X706Y902D02*
X726Y902D01*
X1113Y902D02*
X1133Y902D01*
X1233Y902D02*
X1253Y902D01*
X585Y901D02*
X605Y901D01*
X706Y901D02*
X726Y901D01*
X1113Y901D02*
X1133Y901D01*
X1233Y901D02*
X1253Y901D01*
X585Y900D02*
X605Y900D01*
X706Y900D02*
X725Y900D01*
X1113Y900D02*
X1133Y900D01*
X1233Y900D02*
X1253Y900D01*
X586Y899D02*
X605Y899D01*
X706Y899D02*
X725Y899D01*
X1113Y899D02*
X1133Y899D01*
X1233Y899D02*
X1253Y899D01*
X586Y898D02*
X605Y898D01*
X706Y898D02*
X725Y898D01*
X1114Y898D02*
X1133Y898D01*
X1233Y898D02*
X1252Y898D01*
X586Y897D02*
X605Y897D01*
X706Y897D02*
X724Y897D01*
X1114Y897D02*
X1133Y897D01*
X1233Y897D02*
X1252Y897D01*
X587Y896D02*
X605Y896D01*
X706Y896D02*
X724Y896D01*
X1114Y896D02*
X1133Y896D01*
X1233Y896D02*
X1252Y896D01*
X587Y895D02*
X605Y895D01*
X706Y895D02*
X723Y895D01*
X1115Y895D02*
X1133Y895D01*
X1233Y895D02*
X1251Y895D01*
X588Y894D02*
X605Y894D01*
X706Y894D02*
X723Y894D01*
X1116Y894D02*
X1133Y894D01*
X1233Y894D02*
X1250Y894D01*
X588Y893D02*
X605Y893D01*
X706Y893D02*
X722Y893D01*
X1116Y893D02*
X1133Y893D01*
X1233Y893D02*
X1250Y893D01*
X589Y892D02*
X605Y892D01*
X706Y892D02*
X722Y892D01*
X1117Y892D02*
X1133Y892D01*
X1233Y892D02*
X1249Y892D01*
X590Y891D02*
X605Y891D01*
X706Y891D02*
X721Y891D01*
X1118Y891D02*
X1133Y891D01*
X1233Y891D02*
X1248Y891D01*
X591Y890D02*
X605Y890D01*
X706Y890D02*
X720Y890D01*
X1119Y890D02*
X1133Y890D01*
X1233Y890D02*
X1248Y890D01*
X592Y889D02*
X605Y889D01*
X706Y889D02*
X719Y889D01*
X1120Y889D02*
X1133Y889D01*
X1233Y889D02*
X1247Y889D01*
X593Y888D02*
X605Y888D01*
X706Y888D02*
X718Y888D01*
X1121Y888D02*
X1133Y888D01*
X1233Y888D02*
X1245Y888D01*
X594Y887D02*
X605Y887D01*
X706Y887D02*
X716Y887D01*
X1122Y887D02*
X1133Y887D01*
X1233Y887D02*
X1244Y887D01*
X596Y886D02*
X605Y886D01*
X706Y886D02*
X715Y886D01*
X1124Y886D02*
X1133Y886D01*
X1233Y886D02*
X1242Y886D01*
X598Y885D02*
X605Y885D01*
X706Y885D02*
X713Y885D01*
X1125Y885D02*
X1133Y885D01*
X1233Y885D02*
X1241Y885D01*
X600Y884D02*
X605Y884D01*
X706Y884D02*
X710Y884D01*
X1128Y884D02*
X1133Y884D01*
X1233Y884D02*
X1238Y884D01*
X706Y875D02*
X706Y875D01*
X1132Y875D02*
X1132Y875D01*
X1234Y875D02*
X1234Y875D01*
X600Y874D02*
X605Y874D01*
X706Y874D02*
X711Y874D01*
X1128Y874D02*
X1133Y874D01*
X1233Y874D02*
X1238Y874D01*
X597Y873D02*
X605Y873D01*
X706Y873D02*
X713Y873D01*
X1125Y873D02*
X1133Y873D01*
X1233Y873D02*
X1241Y873D01*
X596Y872D02*
X605Y872D01*
X706Y872D02*
X715Y872D01*
X1123Y872D02*
X1133Y872D01*
X1233Y872D02*
X1243Y872D01*
X594Y871D02*
X605Y871D01*
X706Y871D02*
X717Y871D01*
X1122Y871D02*
X1133Y871D01*
X1233Y871D02*
X1244Y871D01*
X593Y870D02*
X605Y870D01*
X706Y870D02*
X718Y870D01*
X1121Y870D02*
X1133Y870D01*
X1233Y870D02*
X1245Y870D01*
X592Y869D02*
X605Y869D01*
X706Y869D02*
X719Y869D01*
X1119Y869D02*
X1133Y869D01*
X1233Y869D02*
X1247Y869D01*
X591Y868D02*
X605Y868D01*
X706Y868D02*
X720Y868D01*
X1118Y868D02*
X1133Y868D01*
X1233Y868D02*
X1248Y868D01*
X590Y867D02*
X605Y867D01*
X706Y867D02*
X721Y867D01*
X1118Y867D02*
X1133Y867D01*
X1233Y867D02*
X1248Y867D01*
X589Y866D02*
X605Y866D01*
X706Y866D02*
X722Y866D01*
X1117Y866D02*
X1133Y866D01*
X1233Y866D02*
X1249Y866D01*
X588Y865D02*
X605Y865D01*
X706Y865D02*
X722Y865D01*
X1116Y865D02*
X1133Y865D01*
X1233Y865D02*
X1250Y865D01*
X588Y864D02*
X605Y864D01*
X706Y864D02*
X723Y864D01*
X1115Y864D02*
X1133Y864D01*
X1233Y864D02*
X1251Y864D01*
X587Y863D02*
X605Y863D01*
X706Y863D02*
X723Y863D01*
X1115Y863D02*
X1133Y863D01*
X1233Y863D02*
X1251Y863D01*
X587Y862D02*
X605Y862D01*
X706Y862D02*
X724Y862D01*
X1114Y862D02*
X1133Y862D01*
X1233Y862D02*
X1252Y862D01*
X586Y861D02*
X605Y861D01*
X706Y861D02*
X724Y861D01*
X1114Y861D02*
X1133Y861D01*
X1233Y861D02*
X1252Y861D01*
X586Y860D02*
X605Y860D01*
X706Y860D02*
X725Y860D01*
X1114Y860D02*
X1133Y860D01*
X1233Y860D02*
X1252Y860D01*
X586Y859D02*
X605Y859D01*
X706Y859D02*
X725Y859D01*
X1113Y859D02*
X1133Y859D01*
X1233Y859D02*
X1253Y859D01*
X585Y858D02*
X605Y858D01*
X706Y858D02*
X725Y858D01*
X1113Y858D02*
X1133Y858D01*
X1233Y858D02*
X1253Y858D01*
X585Y857D02*
X605Y857D01*
X706Y857D02*
X726Y857D01*
X1113Y857D02*
X1133Y857D01*
X1233Y857D02*
X1253Y857D01*
X585Y856D02*
X605Y856D01*
X706Y856D02*
X726Y856D01*
X1113Y856D02*
X1133Y856D01*
X1233Y856D02*
X1253Y856D01*
X585Y855D02*
X605Y855D01*
X706Y855D02*
X726Y855D01*
X1113Y855D02*
X1133Y855D01*
X1233Y855D02*
X1253Y855D01*
X585Y854D02*
X605Y854D01*
X706Y854D02*
X726Y854D01*
X1113Y854D02*
X1133Y854D01*
X1233Y854D02*
X1253Y854D01*
X585Y853D02*
X605Y853D01*
X706Y853D02*
X726Y853D01*
X1113Y853D02*
X1133Y853D01*
X1233Y853D02*
X1253Y853D01*
X585Y852D02*
X605Y852D01*
X706Y852D02*
X726Y852D01*
X1113Y852D02*
X1133Y852D01*
X1233Y852D02*
X1253Y852D01*
X585Y851D02*
X605Y851D01*
X706Y851D02*
X726Y851D01*
X1113Y851D02*
X1133Y851D01*
X1233Y851D02*
X1253Y851D01*
X585Y850D02*
X605Y850D01*
X706Y850D02*
X725Y850D01*
X1113Y850D02*
X1133Y850D01*
X1233Y850D02*
X1253Y850D01*
X586Y849D02*
X605Y849D01*
X706Y849D02*
X725Y849D01*
X1113Y849D02*
X1133Y849D01*
X1233Y849D02*
X1253Y849D01*
X586Y848D02*
X605Y848D01*
X706Y848D02*
X725Y848D01*
X1114Y848D02*
X1133Y848D01*
X1233Y848D02*
X1252Y848D01*
X586Y847D02*
X605Y847D01*
X706Y847D02*
X724Y847D01*
X1114Y847D02*
X1133Y847D01*
X1233Y847D02*
X1252Y847D01*
X587Y846D02*
X605Y846D01*
X706Y846D02*
X724Y846D01*
X1114Y846D02*
X1133Y846D01*
X1233Y846D02*
X1252Y846D01*
X587Y845D02*
X605Y845D01*
X706Y845D02*
X723Y845D01*
X1115Y845D02*
X1133Y845D01*
X1233Y845D02*
X1251Y845D01*
X588Y844D02*
X605Y844D01*
X706Y844D02*
X723Y844D01*
X1116Y844D02*
X1133Y844D01*
X1233Y844D02*
X1250Y844D01*
X588Y843D02*
X605Y843D01*
X706Y843D02*
X722Y843D01*
X1116Y843D02*
X1133Y843D01*
X1233Y843D02*
X1250Y843D01*
X589Y842D02*
X605Y842D01*
X706Y842D02*
X722Y842D01*
X1117Y842D02*
X1133Y842D01*
X1233Y842D02*
X1249Y842D01*
X590Y841D02*
X605Y841D01*
X706Y841D02*
X721Y841D01*
X1118Y841D02*
X1133Y841D01*
X1233Y841D02*
X1248Y841D01*
X591Y840D02*
X605Y840D01*
X706Y840D02*
X720Y840D01*
X1119Y840D02*
X1133Y840D01*
X1233Y840D02*
X1247Y840D01*
X592Y839D02*
X605Y839D01*
X706Y839D02*
X719Y839D01*
X1120Y839D02*
X1133Y839D01*
X1233Y839D02*
X1246Y839D01*
X593Y838D02*
X605Y838D01*
X706Y838D02*
X718Y838D01*
X1121Y838D02*
X1133Y838D01*
X1233Y838D02*
X1245Y838D01*
X594Y837D02*
X605Y837D01*
X706Y837D02*
X716Y837D01*
X1122Y837D02*
X1133Y837D01*
X1233Y837D02*
X1244Y837D01*
X596Y836D02*
X605Y836D01*
X706Y836D02*
X715Y836D01*
X1124Y836D02*
X1133Y836D01*
X1233Y836D02*
X1242Y836D01*
X598Y835D02*
X605Y835D01*
X706Y835D02*
X713Y835D01*
X1125Y835D02*
X1133Y835D01*
X1233Y835D02*
X1241Y835D01*
X601Y834D02*
X605Y834D01*
X706Y834D02*
X710Y834D01*
X1128Y834D02*
X1133Y834D01*
X1233Y834D02*
X1238Y834D01*
X604Y825D02*
X605Y825D01*
X706Y825D02*
X707Y825D01*
X1132Y825D02*
X1132Y825D01*
X1234Y825D02*
X1234Y825D01*
X600Y824D02*
X605Y824D01*
X706Y824D02*
X711Y824D01*
X1128Y824D02*
X1133Y824D01*
X1233Y824D02*
X1238Y824D01*
X597Y823D02*
X605Y823D01*
X706Y823D02*
X713Y823D01*
X1125Y823D02*
X1133Y823D01*
X1233Y823D02*
X1241Y823D01*
X596Y822D02*
X605Y822D01*
X706Y822D02*
X715Y822D01*
X1123Y822D02*
X1133Y822D01*
X1233Y822D02*
X1243Y822D01*
X594Y821D02*
X605Y821D01*
X706Y821D02*
X717Y821D01*
X1122Y821D02*
X1133Y821D01*
X1233Y821D02*
X1244Y821D01*
X593Y820D02*
X605Y820D01*
X706Y820D02*
X718Y820D01*
X1121Y820D02*
X1133Y820D01*
X1233Y820D02*
X1246Y820D01*
X592Y819D02*
X605Y819D01*
X706Y819D02*
X719Y819D01*
X1119Y819D02*
X1133Y819D01*
X1233Y819D02*
X1247Y819D01*
X591Y818D02*
X605Y818D01*
X706Y818D02*
X720Y818D01*
X1118Y818D02*
X1133Y818D01*
X1233Y818D02*
X1248Y818D01*
X590Y817D02*
X605Y817D01*
X706Y817D02*
X721Y817D01*
X1118Y817D02*
X1133Y817D01*
X1233Y817D02*
X1248Y817D01*
X589Y816D02*
X605Y816D01*
X706Y816D02*
X722Y816D01*
X1117Y816D02*
X1133Y816D01*
X1233Y816D02*
X1249Y816D01*
X588Y815D02*
X605Y815D01*
X706Y815D02*
X722Y815D01*
X1116Y815D02*
X1133Y815D01*
X1233Y815D02*
X1250Y815D01*
X588Y814D02*
X605Y814D01*
X706Y814D02*
X723Y814D01*
X1115Y814D02*
X1133Y814D01*
X1233Y814D02*
X1251Y814D01*
X587Y813D02*
X605Y813D01*
X706Y813D02*
X724Y813D01*
X1115Y813D02*
X1133Y813D01*
X1233Y813D02*
X1251Y813D01*
X587Y812D02*
X605Y812D01*
X706Y812D02*
X724Y812D01*
X1114Y812D02*
X1133Y812D01*
X1233Y812D02*
X1252Y812D01*
X586Y811D02*
X605Y811D01*
X706Y811D02*
X724Y811D01*
X1114Y811D02*
X1133Y811D01*
X1233Y811D02*
X1252Y811D01*
X586Y810D02*
X605Y810D01*
X706Y810D02*
X725Y810D01*
X1114Y810D02*
X1133Y810D01*
X1233Y810D02*
X1252Y810D01*
X586Y809D02*
X605Y809D01*
X706Y809D02*
X725Y809D01*
X1113Y809D02*
X1133Y809D01*
X1233Y809D02*
X1253Y809D01*
X585Y808D02*
X605Y808D01*
X706Y808D02*
X725Y808D01*
X1113Y808D02*
X1133Y808D01*
X1233Y808D02*
X1253Y808D01*
X585Y807D02*
X605Y807D01*
X706Y807D02*
X726Y807D01*
X1113Y807D02*
X1133Y807D01*
X1233Y807D02*
X1253Y807D01*
X585Y806D02*
X605Y806D01*
X706Y806D02*
X726Y806D01*
X1113Y806D02*
X1133Y806D01*
X1233Y806D02*
X1253Y806D01*
X585Y805D02*
X605Y805D01*
X706Y805D02*
X726Y805D01*
X1113Y805D02*
X1133Y805D01*
X1233Y805D02*
X1253Y805D01*
X585Y804D02*
X605Y804D01*
X706Y804D02*
X726Y804D01*
X1113Y804D02*
X1133Y804D01*
X1233Y804D02*
X1253Y804D01*
X585Y803D02*
X605Y803D01*
X706Y803D02*
X726Y803D01*
X1113Y803D02*
X1133Y803D01*
X1233Y803D02*
X1253Y803D01*
X585Y802D02*
X605Y802D01*
X706Y802D02*
X726Y802D01*
X1113Y802D02*
X1133Y802D01*
X1233Y802D02*
X1253Y802D01*
X585Y801D02*
X605Y801D01*
X706Y801D02*
X726Y801D01*
X1113Y801D02*
X1133Y801D01*
X1233Y801D02*
X1253Y801D01*
X585Y800D02*
X605Y800D01*
X706Y800D02*
X725Y800D01*
X1113Y800D02*
X1133Y800D01*
X1233Y800D02*
X1253Y800D01*
X586Y799D02*
X605Y799D01*
X706Y799D02*
X725Y799D01*
X1113Y799D02*
X1133Y799D01*
X1233Y799D02*
X1253Y799D01*
X586Y798D02*
X605Y798D01*
X706Y798D02*
X725Y798D01*
X1114Y798D02*
X1133Y798D01*
X1233Y798D02*
X1252Y798D01*
X586Y797D02*
X605Y797D01*
X706Y797D02*
X724Y797D01*
X1114Y797D02*
X1133Y797D01*
X1233Y797D02*
X1252Y797D01*
X587Y796D02*
X605Y796D01*
X706Y796D02*
X724Y796D01*
X1114Y796D02*
X1133Y796D01*
X1233Y796D02*
X1252Y796D01*
X587Y795D02*
X605Y795D01*
X706Y795D02*
X723Y795D01*
X1115Y795D02*
X1133Y795D01*
X1233Y795D02*
X1251Y795D01*
X588Y794D02*
X605Y794D01*
X706Y794D02*
X723Y794D01*
X1116Y794D02*
X1133Y794D01*
X1233Y794D02*
X1250Y794D01*
X589Y793D02*
X605Y793D01*
X706Y793D02*
X722Y793D01*
X1116Y793D02*
X1133Y793D01*
X1233Y793D02*
X1250Y793D01*
X589Y792D02*
X605Y792D01*
X706Y792D02*
X721Y792D01*
X1117Y792D02*
X1133Y792D01*
X1233Y792D02*
X1249Y792D01*
X590Y791D02*
X605Y791D01*
X706Y791D02*
X721Y791D01*
X1118Y791D02*
X1133Y791D01*
X1233Y791D02*
X1248Y791D01*
X591Y790D02*
X605Y790D01*
X706Y790D02*
X720Y790D01*
X1119Y790D02*
X1133Y790D01*
X1233Y790D02*
X1247Y790D01*
X592Y789D02*
X605Y789D01*
X706Y789D02*
X719Y789D01*
X1120Y789D02*
X1133Y789D01*
X1233Y789D02*
X1246Y789D01*
X593Y788D02*
X605Y788D01*
X706Y788D02*
X718Y788D01*
X1121Y788D02*
X1133Y788D01*
X1233Y788D02*
X1245Y788D01*
X594Y787D02*
X605Y787D01*
X706Y787D02*
X716Y787D01*
X1122Y787D02*
X1133Y787D01*
X1233Y787D02*
X1244Y787D01*
X596Y786D02*
X605Y786D01*
X706Y786D02*
X715Y786D01*
X1124Y786D02*
X1133Y786D01*
X1233Y786D02*
X1242Y786D01*
X598Y785D02*
X605Y785D01*
X706Y785D02*
X713Y785D01*
X1125Y785D02*
X1133Y785D01*
X1233Y785D02*
X1241Y785D01*
X601Y784D02*
X605Y784D01*
X706Y784D02*
X710Y784D01*
X1128Y784D02*
X1133Y784D01*
X1233Y784D02*
X1238Y784D01*
X604Y775D02*
X605Y775D01*
X706Y775D02*
X707Y775D01*
X1131Y775D02*
X1132Y775D01*
X1234Y775D02*
X1235Y775D01*
X600Y774D02*
X605Y774D01*
X706Y774D02*
X711Y774D01*
X1127Y774D02*
X1133Y774D01*
X1233Y774D02*
X1239Y774D01*
X597Y773D02*
X605Y773D01*
X706Y773D02*
X713Y773D01*
X1125Y773D02*
X1133Y773D01*
X1233Y773D02*
X1241Y773D01*
X596Y772D02*
X605Y772D01*
X706Y772D02*
X715Y772D01*
X1123Y772D02*
X1133Y772D01*
X1233Y772D02*
X1243Y772D01*
X594Y771D02*
X605Y771D01*
X706Y771D02*
X717Y771D01*
X1122Y771D02*
X1133Y771D01*
X1233Y771D02*
X1244Y771D01*
X593Y770D02*
X605Y770D01*
X706Y770D02*
X718Y770D01*
X1120Y770D02*
X1133Y770D01*
X1233Y770D02*
X1246Y770D01*
X592Y769D02*
X605Y769D01*
X706Y769D02*
X719Y769D01*
X1119Y769D02*
X1133Y769D01*
X1233Y769D02*
X1247Y769D01*
X591Y768D02*
X605Y768D01*
X706Y768D02*
X720Y768D01*
X1118Y768D02*
X1133Y768D01*
X1233Y768D02*
X1248Y768D01*
X590Y767D02*
X605Y767D01*
X706Y767D02*
X721Y767D01*
X1118Y767D02*
X1133Y767D01*
X1233Y767D02*
X1249Y767D01*
X589Y766D02*
X605Y766D01*
X706Y766D02*
X722Y766D01*
X1117Y766D02*
X1133Y766D01*
X1233Y766D02*
X1249Y766D01*
X588Y765D02*
X605Y765D01*
X706Y765D02*
X722Y765D01*
X1116Y765D02*
X1133Y765D01*
X1233Y765D02*
X1250Y765D01*
X588Y764D02*
X605Y764D01*
X706Y764D02*
X723Y764D01*
X1115Y764D02*
X1133Y764D01*
X1233Y764D02*
X1251Y764D01*
X587Y763D02*
X605Y763D01*
X706Y763D02*
X724Y763D01*
X1115Y763D02*
X1133Y763D01*
X1233Y763D02*
X1251Y763D01*
X587Y762D02*
X605Y762D01*
X706Y762D02*
X724Y762D01*
X1114Y762D02*
X1133Y762D01*
X1233Y762D02*
X1252Y762D01*
X586Y761D02*
X605Y761D01*
X706Y761D02*
X724Y761D01*
X1114Y761D02*
X1133Y761D01*
X1233Y761D02*
X1252Y761D01*
X586Y760D02*
X605Y760D01*
X706Y760D02*
X725Y760D01*
X1114Y760D02*
X1133Y760D01*
X1233Y760D02*
X1252Y760D01*
X586Y759D02*
X605Y759D01*
X706Y759D02*
X725Y759D01*
X1113Y759D02*
X1133Y759D01*
X1233Y759D02*
X1253Y759D01*
X585Y758D02*
X605Y758D01*
X706Y758D02*
X725Y758D01*
X1113Y758D02*
X1133Y758D01*
X1233Y758D02*
X1253Y758D01*
X585Y757D02*
X605Y757D01*
X706Y757D02*
X726Y757D01*
X1113Y757D02*
X1133Y757D01*
X1233Y757D02*
X1253Y757D01*
X585Y756D02*
X605Y756D01*
X706Y756D02*
X726Y756D01*
X1113Y756D02*
X1133Y756D01*
X1233Y756D02*
X1253Y756D01*
X585Y755D02*
X605Y755D01*
X706Y755D02*
X726Y755D01*
X1113Y755D02*
X1133Y755D01*
X1233Y755D02*
X1253Y755D01*
X585Y754D02*
X605Y754D01*
X706Y754D02*
X726Y754D01*
X1113Y754D02*
X1133Y754D01*
X1233Y754D02*
X1253Y754D01*
X585Y753D02*
X605Y753D01*
X706Y753D02*
X726Y753D01*
X1113Y753D02*
X1133Y753D01*
X1233Y753D02*
X1253Y753D01*
X585Y752D02*
X605Y752D01*
X706Y752D02*
X726Y752D01*
X1113Y752D02*
X1133Y752D01*
X1233Y752D02*
X1253Y752D01*
X585Y751D02*
X605Y751D01*
X706Y751D02*
X726Y751D01*
X1113Y751D02*
X1133Y751D01*
X1233Y751D02*
X1253Y751D01*
X585Y750D02*
X605Y750D01*
X706Y750D02*
X725Y750D01*
X1113Y750D02*
X1133Y750D01*
X1233Y750D02*
X1253Y750D01*
X586Y749D02*
X605Y749D01*
X706Y749D02*
X725Y749D01*
X1113Y749D02*
X1133Y749D01*
X1233Y749D02*
X1253Y749D01*
X586Y748D02*
X605Y748D01*
X706Y748D02*
X725Y748D01*
X1114Y748D02*
X1133Y748D01*
X1233Y748D02*
X1252Y748D01*
X586Y747D02*
X605Y747D01*
X706Y747D02*
X724Y747D01*
X1114Y747D02*
X1133Y747D01*
X1233Y747D02*
X1252Y747D01*
X587Y746D02*
X605Y746D01*
X706Y746D02*
X724Y746D01*
X1114Y746D02*
X1133Y746D01*
X1233Y746D02*
X1252Y746D01*
X587Y745D02*
X605Y745D01*
X706Y745D02*
X723Y745D01*
X1115Y745D02*
X1133Y745D01*
X1233Y745D02*
X1251Y745D01*
X588Y744D02*
X605Y744D01*
X706Y744D02*
X723Y744D01*
X1116Y744D02*
X1133Y744D01*
X1233Y744D02*
X1250Y744D01*
X589Y743D02*
X605Y743D01*
X706Y743D02*
X722Y743D01*
X1116Y743D02*
X1133Y743D01*
X1233Y743D02*
X1250Y743D01*
X589Y742D02*
X605Y742D01*
X706Y742D02*
X721Y742D01*
X1117Y742D02*
X1133Y742D01*
X1233Y742D02*
X1249Y742D01*
X590Y741D02*
X605Y741D01*
X706Y741D02*
X721Y741D01*
X1118Y741D02*
X1133Y741D01*
X1233Y741D02*
X1248Y741D01*
X591Y740D02*
X605Y740D01*
X706Y740D02*
X720Y740D01*
X1119Y740D02*
X1133Y740D01*
X1233Y740D02*
X1247Y740D01*
X592Y739D02*
X605Y739D01*
X706Y739D02*
X719Y739D01*
X1120Y739D02*
X1133Y739D01*
X1233Y739D02*
X1246Y739D01*
X593Y738D02*
X605Y738D01*
X706Y738D02*
X718Y738D01*
X1121Y738D02*
X1133Y738D01*
X1233Y738D02*
X1245Y738D01*
X594Y737D02*
X605Y737D01*
X706Y737D02*
X716Y737D01*
X1122Y737D02*
X1133Y737D01*
X1233Y737D02*
X1244Y737D01*
X596Y736D02*
X605Y736D01*
X706Y736D02*
X715Y736D01*
X1124Y736D02*
X1133Y736D01*
X1233Y736D02*
X1242Y736D01*
X598Y735D02*
X605Y735D01*
X706Y735D02*
X713Y735D01*
X1126Y735D02*
X1133Y735D01*
X1233Y735D02*
X1241Y735D01*
X601Y734D02*
X605Y734D01*
X706Y734D02*
X710Y734D01*
X1128Y734D02*
X1133Y734D01*
X1233Y734D02*
X1238Y734D01*
X604Y725D02*
X605Y725D01*
X706Y725D02*
X707Y725D01*
X1131Y725D02*
X1132Y725D01*
X1234Y725D02*
X1235Y725D01*
X600Y724D02*
X605Y724D01*
X706Y724D02*
X711Y724D01*
X1127Y724D02*
X1133Y724D01*
X1233Y724D02*
X1239Y724D01*
X597Y723D02*
X605Y723D01*
X706Y723D02*
X713Y723D01*
X1125Y723D02*
X1133Y723D01*
X1233Y723D02*
X1241Y723D01*
X596Y722D02*
X605Y722D01*
X706Y722D02*
X715Y722D01*
X1123Y722D02*
X1133Y722D01*
X1233Y722D02*
X1243Y722D01*
X594Y721D02*
X605Y721D01*
X706Y721D02*
X717Y721D01*
X1122Y721D02*
X1133Y721D01*
X1233Y721D02*
X1244Y721D01*
X593Y720D02*
X605Y720D01*
X706Y720D02*
X718Y720D01*
X1120Y720D02*
X1133Y720D01*
X1233Y720D02*
X1246Y720D01*
X592Y719D02*
X605Y719D01*
X706Y719D02*
X719Y719D01*
X1119Y719D02*
X1133Y719D01*
X1233Y719D02*
X1247Y719D01*
X591Y718D02*
X605Y718D01*
X706Y718D02*
X720Y718D01*
X1118Y718D02*
X1133Y718D01*
X1233Y718D02*
X1248Y718D01*
X590Y717D02*
X605Y717D01*
X706Y717D02*
X721Y717D01*
X1117Y717D02*
X1133Y717D01*
X1233Y717D02*
X1249Y717D01*
X589Y716D02*
X605Y716D01*
X706Y716D02*
X722Y716D01*
X1117Y716D02*
X1133Y716D01*
X1233Y716D02*
X1249Y716D01*
X588Y715D02*
X605Y715D01*
X706Y715D02*
X722Y715D01*
X1116Y715D02*
X1133Y715D01*
X1233Y715D02*
X1250Y715D01*
X588Y714D02*
X605Y714D01*
X706Y714D02*
X723Y714D01*
X1115Y714D02*
X1133Y714D01*
X1233Y714D02*
X1251Y714D01*
X587Y713D02*
X605Y713D01*
X706Y713D02*
X724Y713D01*
X1115Y713D02*
X1133Y713D01*
X1233Y713D02*
X1251Y713D01*
X587Y712D02*
X605Y712D01*
X706Y712D02*
X724Y712D01*
X1114Y712D02*
X1133Y712D01*
X1233Y712D02*
X1252Y712D01*
X586Y711D02*
X605Y711D01*
X706Y711D02*
X724Y711D01*
X1114Y711D02*
X1133Y711D01*
X1233Y711D02*
X1252Y711D01*
X586Y710D02*
X605Y710D01*
X706Y710D02*
X725Y710D01*
X1114Y710D02*
X1133Y710D01*
X1233Y710D02*
X1252Y710D01*
X586Y709D02*
X605Y709D01*
X706Y709D02*
X725Y709D01*
X1113Y709D02*
X1133Y709D01*
X1233Y709D02*
X1253Y709D01*
X585Y708D02*
X605Y708D01*
X706Y708D02*
X725Y708D01*
X1113Y708D02*
X1133Y708D01*
X1233Y708D02*
X1253Y708D01*
X585Y707D02*
X605Y707D01*
X706Y707D02*
X726Y707D01*
X1113Y707D02*
X1133Y707D01*
X1233Y707D02*
X1253Y707D01*
X585Y706D02*
X605Y706D01*
X706Y706D02*
X726Y706D01*
X1113Y706D02*
X1133Y706D01*
X1233Y706D02*
X1253Y706D01*
X585Y705D02*
X605Y705D01*
X706Y705D02*
X726Y705D01*
X1113Y705D02*
X1133Y705D01*
X1233Y705D02*
X1253Y705D01*
X585Y704D02*
X605Y704D01*
X706Y704D02*
X726Y704D01*
X1113Y704D02*
X1133Y704D01*
X1233Y704D02*
X1253Y704D01*
X585Y703D02*
X605Y703D01*
X706Y703D02*
X726Y703D01*
X1113Y703D02*
X1133Y703D01*
X1233Y703D02*
X1253Y703D01*
X585Y702D02*
X605Y702D01*
X706Y702D02*
X726Y702D01*
X1113Y702D02*
X1133Y702D01*
X1233Y702D02*
X1253Y702D01*
X585Y701D02*
X605Y701D01*
X706Y701D02*
X726Y701D01*
X1113Y701D02*
X1133Y701D01*
X1233Y701D02*
X1253Y701D01*
X585Y700D02*
X605Y700D01*
X706Y700D02*
X725Y700D01*
X1113Y700D02*
X1133Y700D01*
X1233Y700D02*
X1253Y700D01*
X586Y699D02*
X605Y699D01*
X706Y699D02*
X725Y699D01*
X1113Y699D02*
X1133Y699D01*
X1233Y699D02*
X1253Y699D01*
X586Y698D02*
X605Y698D01*
X706Y698D02*
X725Y698D01*
X1114Y698D02*
X1133Y698D01*
X1233Y698D02*
X1252Y698D01*
X586Y697D02*
X605Y697D01*
X706Y697D02*
X724Y697D01*
X1114Y697D02*
X1133Y697D01*
X1233Y697D02*
X1252Y697D01*
X587Y696D02*
X605Y696D01*
X706Y696D02*
X724Y696D01*
X1114Y696D02*
X1133Y696D01*
X1233Y696D02*
X1252Y696D01*
X587Y695D02*
X605Y695D01*
X706Y695D02*
X723Y695D01*
X1115Y695D02*
X1133Y695D01*
X1233Y695D02*
X1251Y695D01*
X588Y694D02*
X605Y694D01*
X706Y694D02*
X723Y694D01*
X1116Y694D02*
X1133Y694D01*
X1233Y694D02*
X1250Y694D01*
X589Y693D02*
X605Y693D01*
X706Y693D02*
X722Y693D01*
X1116Y693D02*
X1133Y693D01*
X1233Y693D02*
X1250Y693D01*
X589Y692D02*
X605Y692D01*
X706Y692D02*
X721Y692D01*
X1117Y692D02*
X1133Y692D01*
X1233Y692D02*
X1249Y692D01*
X590Y691D02*
X605Y691D01*
X706Y691D02*
X721Y691D01*
X1118Y691D02*
X1133Y691D01*
X1233Y691D02*
X1248Y691D01*
X591Y690D02*
X605Y690D01*
X706Y690D02*
X720Y690D01*
X1119Y690D02*
X1133Y690D01*
X1233Y690D02*
X1247Y690D01*
X592Y689D02*
X605Y689D01*
X706Y689D02*
X719Y689D01*
X1120Y689D02*
X1133Y689D01*
X1233Y689D02*
X1246Y689D01*
X593Y688D02*
X605Y688D01*
X706Y688D02*
X718Y688D01*
X1121Y688D02*
X1133Y688D01*
X1233Y688D02*
X1245Y688D01*
X594Y687D02*
X605Y687D01*
X706Y687D02*
X716Y687D01*
X1122Y687D02*
X1133Y687D01*
X1233Y687D02*
X1244Y687D01*
X596Y686D02*
X605Y686D01*
X706Y686D02*
X715Y686D01*
X1124Y686D02*
X1133Y686D01*
X1233Y686D02*
X1242Y686D01*
X598Y685D02*
X605Y685D01*
X706Y685D02*
X713Y685D01*
X1126Y685D02*
X1133Y685D01*
X1233Y685D02*
X1240Y685D01*
X601Y684D02*
X605Y684D01*
X706Y684D02*
X710Y684D01*
X1128Y684D02*
X1133Y684D01*
X1233Y684D02*
X1238Y684D01*
D02*
G04 End of Mask1*
M02*